<?xml version="1.0" encoding="UTF-8" standalone="no"?>
<svg
   xmlns:dc="http://purl.org/dc/elements/1.1/"
   xmlns:cc="http://creativecommons.org/ns#"
   xmlns:rdf="http://www.w3.org/1999/02/22-rdf-syntax-ns#"
   xmlns:svg="http://www.w3.org/2000/svg"
   xmlns="http://www.w3.org/2000/svg"
   xmlns:sodipodi="http://sodipodi.sourceforge.net/DTD/sodipodi-0.dtd"
   xmlns:inkscape="http://www.inkscape.org/namespaces/inkscape"
   inkscape:export-ydpi="300.06439"
   inkscape:export-xdpi="300.06439"
   inkscape:export-filename="/Users/samclifford/Documents/git/pcr_entry_screening/results/Traveller screening regimen_simple (7).png"
   inkscape:version="1.0 (4035a4f, 2020-05-01)"
   sodipodi:docname="Traveller screening regimen_simple (7).svg"
   id="svg1435"
   viewBox="-7.5 629.655 1935.764 516.374"
   style="position:relative;overflow:hidden;"
   xlink="http://www.w3.org/1999/xlink"
   height="516.374"
   width="1935.764"
   version="1.1">
  <metadata
     id="metadata1439">
    <rdf:RDF>
      <cc:Work
         rdf:about="">
        <dc:format>image/svg+xml</dc:format>
        <dc:type
           rdf:resource="http://purl.org/dc/dcmitype/StillImage" />
        <dc:title></dc:title>
      </cc:Work>
    </rdf:RDF>
  </metadata>
  <sodipodi:namedview
     inkscape:current-layer="svg1435"
     inkscape:window-maximized="0"
     inkscape:window-y="23"
     inkscape:window-x="0"
     inkscape:cy="203.20471"
     inkscape:cx="785.38324"
     inkscape:zoom="0.60019314"
     showgrid="false"
     id="namedview1437"
     inkscape:window-height="612"
     inkscape:window-width="1207"
     inkscape:pageshadow="2"
     inkscape:pageopacity="0"
     guidetolerance="10"
     gridtolerance="10"
     objecttolerance="10"
     borderopacity="1"
     bordercolor="#666666"
     pagecolor="#ffffff" />
  <defs
     id="defs833" />
  <g
     width="1910.431"
     height="491.041"
     transform="translate(5.167,642.321)"
     id="g839">
    <g
       stroke="#7f7f7f"
       stroke-opacity="1"
       stroke-width="1.33333"
       stroke-dasharray="none"
       width="1910.431"
       height="491.041"
       fill="#ffffff"
       fill-opacity="1"
       id="g837">
      <rect
         width="1910.431"
         height="491.04099"
         id="rect835"
         x="0"
         y="0" />
    </g>
  </g>
  <rect
     width="150"
     height="75"
     id="rect841"
     x="918.255"
     y="815.47198"
     style="fill:#fbd585;fill-opacity:1;stroke:#d9e3b0;stroke-width:1;stroke-dasharray:none;stroke-opacity:1" />
  <g
     transform="translate(235.036,801.822)"
     id="g861"
     stroke-opacity="1"
     fill-opacity="1"
     fill="#ccc1d9"
     stroke="#d9e3b0">
    <path
       id="path859"
       stroke-dasharray="none"
       stroke-width="1"
       d="M 102.555,0 205.11,51.25 102.555,102.5 0,51.25 Z" />
  </g>
  <g
     transform="translate(261.702,991.652)"
     id="g877"
     fill-opacity="1"
     fill="#f79646"
     height="75"
     width="150"
     stroke-dasharray="none"
     stroke-width="1"
     stroke-opacity="1"
     stroke="#d9e3b0">
    <rect
       y="0"
       x="0"
       id="rect875"
       height="75"
       width="150" />
  </g>
  <g
     width="1"
     height="87.33"
     transform="translate(336.702,904.322)"
     id="g899">
    <g
       fill="#545454"
       stroke="#545454"
       stroke-opacity="1"
       id="g897">
      <path
         d="M 0.888,0 V 77.33"
         fill="none"
         stroke-width="1"
         stroke-dasharray="none"
         id="path889" />
      <g
         id="g895">
        <g
           stroke-dasharray="none"
           id="g893">
          <path
             d="m 5.888,77.33 -5,10 -5,-10 z"
             stroke="none"
             fill-opacity="1"
             id="path891" />
        </g>
      </g>
    </g>
  </g>
  <rect
     width="150"
     height="75"
     id="rect901"
     x="1352.4189"
     y="815.47198"
     style="fill:#fbd585;fill-opacity:1;stroke:#d9e3b0;stroke-width:1;stroke-dasharray:none;stroke-opacity:1" />
  <path
     d="m 1199.837,801.722 102.555,51.25 -102.555,51.25 -102.555,-51.25 z"
     stroke-width="1"
     stroke-dasharray="none"
     id="path919"
     style="fill:#ccc1d9;fill-opacity:1;stroke:#d9e3b0;stroke-opacity:1" />
  <g
     transform="translate(1124.092,991.552)"
     id="g935"
     fill-opacity="1"
     fill="#f79646"
     height="75"
     width="150"
     stroke-dasharray="none"
     stroke-width="1"
     stroke-opacity="1"
     stroke="#d9e3b0">
    <rect
       y="0"
       x="0"
       id="rect933"
       height="75"
       width="150" />
  </g>
  <g
     transform="translate(1522.446,801.722)"
     id="g949"
     stroke-opacity="1"
     fill-opacity="1"
     fill="#ccc1d9"
     stroke="#d9e3b0">
    <path
       id="path947"
       stroke-dasharray="none"
       stroke-width="1"
       d="M 102.555,0 205.11,51.25 102.555,102.5 0,51.25 Z" />
  </g>
  <g
     transform="translate(1549.713,991.552)"
     id="g963"
     fill-opacity="1"
     fill="#f79646"
     height="75"
     width="150"
     stroke-dasharray="none"
     stroke-width="1"
     stroke-opacity="1"
     stroke="#d9e3b0">
    <rect
       y="0"
       x="0"
       id="rect961"
       height="75"
       width="150" />
  </g>
  <g
     width="1"
     height="87.33"
     transform="translate(1624.713,904.222)"
     id="g985">
    <g
       fill="#545454"
       stroke="#545454"
       stroke-opacity="1"
       id="g983">
      <path
         d="M 0.288,0 V 77.33"
         fill="none"
         stroke-width="1"
         stroke-dasharray="none"
         id="path975" />
      <g
         id="g981">
        <g
           stroke-dasharray="none"
           id="g979">
          <path
             d="m 5.288,77.33 -5,10 -5,-10 z"
             stroke="none"
             fill-opacity="1"
             id="path977" />
        </g>
      </g>
    </g>
  </g>
  <g
     transform="translate(1747.583,815.472)"
     id="g989"
     stroke-opacity="1"
     fill-opacity="1"
     fill="#edf0c9"
     stroke="#d9e3b0">
    <path
       id="path987"
       stroke-dasharray="none"
       stroke-width="1"
       d="M 37,0 28.675,0.949 25.303,1.897 22.769,2.846 20.678,3.795 18.875,4.744 17.281,5.692 15.85,6.641 14.549,7.59 13.358,8.538 12.26,9.487 11.244,10.436 10.301,11.385 9.422,12.333 8.602,13.282 7.836,14.231 7.119,15.179 6.449,16.128 5.822,17.077 5.236,18.026 4.688,18.974 4.177,19.923 3.7,20.872 3.257,21.821 2.846,22.769 2.466,23.718 2.116,24.667 1.795,25.615 1.502,26.564 1.237,27.513 0.999,28.462 0.787,29.41 0.601,30.359 0.44,31.308 0.305,32.256 0.195,33.205 0.11,34.154 0.049,35.103 0.012,36.051 0,37 v 1 l 0.012,0.949 0.037,0.948 0.061,0.949 0.085,0.949 0.11,0.949 0.135,0.948 0.161,0.949 0.186,0.949 0.212,0.948 0.238,0.949 0.265,0.949 0.293,0.949 0.321,0.948 0.35,0.949 0.38,0.949 0.411,0.948 0.443,0.949 0.477,0.949 0.511,0.949 0.548,0.948 0.586,0.949 0.627,0.949 0.67,0.949 0.717,0.948 0.766,0.949 0.82,0.949 0.879,0.948 0.943,0.949 1.016,0.949 1.098,0.949 1.191,0.948 1.301,0.949 1.431,0.949 1.594,0.948 1.803,0.949 2.091,0.949 2.534,0.949 3.372,0.948 L 37,75 h 76 l 8.325,-0.949 3.372,-0.948 2.534,-0.949 2.091,-0.949 1.803,-0.949 1.594,-0.948 1.431,-0.949 1.301,-0.949 1.191,-0.948 1.098,-0.949 1.016,-0.949 0.943,-0.949 0.879,-0.948 0.82,-0.949 0.766,-0.949 0.717,-0.948 0.67,-0.949 0.627,-0.949 0.586,-0.949 0.548,-0.948 0.511,-0.949 0.477,-0.949 0.443,-0.949 0.411,-0.948 0.38,-0.949 0.35,-0.949 0.321,-0.948 0.293,-0.949 0.265,-0.949 0.238,-0.949 0.212,-0.948 0.186,-0.949 0.161,-0.949 0.135,-0.948 0.11,-0.949 0.085,-0.949 0.061,-0.949 0.037,-0.948 L 150,38 v -1 l -0.012,-0.949 -0.037,-0.948 -0.061,-0.949 -0.085,-0.949 -0.11,-0.949 -0.135,-0.948 -0.161,-0.949 -0.186,-0.949 -0.212,-0.948 -0.238,-0.949 -0.265,-0.949 -0.293,-0.949 -0.321,-0.948 -0.35,-0.949 -0.38,-0.949 -0.411,-0.948 -0.443,-0.949 -0.477,-0.949 -0.511,-0.949 -0.548,-0.948 -0.586,-0.949 -0.627,-0.949 -0.67,-0.949 -0.717,-0.948 -0.766,-0.949 -0.82,-0.949 -0.879,-0.948 -0.943,-0.949 L 137.74,9.487 136.642,8.538 135.451,7.59 134.15,6.641 132.719,5.692 131.125,4.744 129.322,3.795 127.231,2.846 124.697,1.897 121.325,0.949 113,0 Z" />
  </g>
  <g
     transform="translate(739.229,815.472)"
     id="g1003"
     fill-opacity="1"
     fill="#e5b9b7"
     height="75"
     width="150"
     stroke-dasharray="none"
     stroke-width="1"
     stroke-opacity="1"
     stroke="#d9e3b0">
    <rect
       y="0"
       x="0"
       id="rect1001"
       height="75"
       width="150" />
  </g>
  <g
     transform="translate(485.312,799.347)"
     id="g1015"
     stroke-opacity="1"
     fill-opacity="1"
     fill="#ccc1d9"
     stroke="#d9e3b0">
    <path
       id="path1013"
       stroke-dasharray="none"
       stroke-width="1"
       d="M 107.308,0 214.615,53.625 107.308,107.25 0,53.625 Z" />
  </g>
  <g
     transform="translate(517.141,991.552)"
     id="g1031"
     fill-opacity="1"
     fill="#f79646"
     height="75"
     width="150"
     stroke-dasharray="none"
     stroke-width="1"
     stroke-opacity="1"
     stroke="#d9e3b0">
    <rect
       y="0"
       x="0"
       id="rect1029"
       height="75"
       width="150" />
  </g>
  <g
     width="1"
     height="84.955"
     transform="translate(592.141,906.597)"
     id="g1053">
    <g
       fill="#545454"
       stroke="#545454"
       stroke-opacity="1"
       id="g1051">
      <path
         d="M 0.479,0 V 74.955"
         fill="none"
         stroke-width="1"
         stroke-dasharray="none"
         id="path1043" />
      <g
         id="g1049">
        <g
           stroke-dasharray="none"
           id="g1047">
          <path
             d="m 5.479,74.955 -5,10 -5,-10 z"
             stroke="none"
             fill-opacity="1"
             id="path1045" />
        </g>
      </g>
    </g>
  </g>
  <g
     width="122.87"
     height="138.58"
     transform="translate(1699.713,890.472)"
     id="g1065">
    <g
       fill="#545454"
       stroke="#545454"
       stroke-opacity="1"
       id="g1063">
      <path
         d="M 122.87,10 V 138.58 H 0"
         fill="none"
         stroke-width="1"
         stroke-dasharray="none"
         id="path1055" />
      <g
         id="g1061">
        <g
           stroke-dasharray="none"
           id="g1059">
          <path
             d="m 117.87,10 5,-10 5,10 z"
             stroke="none"
             fill-opacity="1"
             id="path1057" />
        </g>
      </g>
    </g>
  </g>
  <g
     width="622.746"
     height="13.75"
     transform="translate(1199.837,801.722)"
     id="g1077">
    <g
       fill="#545454"
       stroke="#545454"
       stroke-opacity="1"
       id="g1075">
      <path
         d="M 0,0 V -25.593 H 622.746 V 3.75"
         fill="none"
         stroke-width="1"
         stroke-dasharray="none"
         id="path1067" />
      <g
         id="g1073">
        <g
           stroke-dasharray="none"
           id="g1071">
          <path
             d="m 627.746,3.75 -5,10 -5,-10 z"
             stroke="none"
             fill-opacity="1"
             id="path1069" />
        </g>
      </g>
    </g>
  </g>
  <g
     width="1"
     height="87.33"
     transform="translate(1199.092,904.222)"
     id="g1089">
    <g
       fill="#545454"
       stroke="#545454"
       stroke-opacity="1"
       id="g1087">
      <path
         d="M 0.745,0 V 77.33"
         fill="none"
         stroke-width="1"
         stroke-dasharray="none"
         id="path1079" />
      <g
         id="g1085">
        <g
           stroke-dasharray="none"
           id="g1083">
          <path
             d="m 5.745,77.33 -5,10 -5,-10 z"
             stroke="none"
             fill-opacity="1"
             id="path1081" />
        </g>
      </g>
    </g>
  </g>
  <g
     width="623.491"
     height="176.08"
     transform="translate(1199.092,890.472)"
     id="g1101">
    <g
       fill="#545454"
       stroke="#545454"
       stroke-opacity="1"
       id="g1099">
      <path
         d="m 0,176.08 v 26.87 H 623.491 V 10"
         fill="none"
         stroke-width="1"
         stroke-dasharray="none"
         id="path1091" />
      <g
         id="g1097">
        <g
           stroke-dasharray="none"
           id="g1095">
          <path
             d="m 618.491,10 5,-10 5,10 z"
             stroke="none"
             fill-opacity="1"
             id="path1093" />
        </g>
      </g>
    </g>
  </g>
  <g
     width="39.301"
     height="1"
     transform="translate(699.927,852.972)"
     id="g1113">
    <g
       fill="#545454"
       stroke="#545454"
       stroke-opacity="1"
       id="g1111">
      <path
         d="M 0,0 H 29.301"
         fill="none"
         stroke-width="1"
         stroke-dasharray="none"
         id="path1103" />
      <g
         id="g1109">
        <g
           stroke-dasharray="none"
           id="g1107">
          <path
             d="m 29.301,-5 10,5 -10,5 z"
             stroke="none"
             fill-opacity="1"
             id="path1105" />
        </g>
      </g>
    </g>
  </g>
  <g
     width="29.027"
     height="1"
     transform="translate(889.229,852.972)"
     id="g1125">
    <g
       fill="#545454"
       stroke="#545454"
       stroke-opacity="1"
       id="g1123">
      <path
         d="M 0,0 H 19.027"
         fill="none"
         stroke-width="1"
         stroke-dasharray="none"
         id="path1115" />
      <g
         id="g1121">
        <g
           stroke-dasharray="none"
           id="g1119">
          <path
             d="m 19.027,-5 10,5 -10,5 z"
             stroke="none"
             fill-opacity="1"
             id="path1117" />
        </g>
      </g>
    </g>
  </g>
  <g
     width="29.027"
     height="1"
     transform="translate(1068.255,852.972)"
     id="g1137">
    <g
       fill="#545454"
       stroke="#545454"
       stroke-opacity="1"
       id="g1135">
      <path
         d="M 0,0 H 19.027"
         fill="none"
         stroke-width="1"
         stroke-dasharray="none"
         id="path1127" />
      <g
         id="g1133">
        <g
           stroke-dasharray="none"
           id="g1131">
          <path
             d="m 19.027,-5 10,5 -10,5 z"
             stroke="none"
             fill-opacity="1"
             id="path1129" />
        </g>
      </g>
    </g>
  </g>
  <g
     width="50.027"
     height="1"
     transform="translate(1302.393,852.972)"
     id="g1149">
    <g
       fill="#545454"
       stroke="#545454"
       stroke-opacity="1"
       id="g1147">
      <path
         d="M 0,0 H 40.027"
         fill="none"
         stroke-width="1"
         stroke-dasharray="none"
         id="path1139" />
      <g
         id="g1145">
        <g
           stroke-dasharray="none"
           id="g1143">
          <path
             d="m 40.027,-5 10,5 -10,5 z"
             stroke="none"
             fill-opacity="1"
             id="path1141" />
        </g>
      </g>
    </g>
  </g>
  <g
     width="20.027"
     height="1"
     transform="translate(1502.419,852.972)"
     id="g1161">
    <g
       fill="#545454"
       stroke="#545454"
       stroke-opacity="1"
       id="g1159">
      <path
         d="M 0,0 H 10.027"
         fill="none"
         stroke-width="1"
         stroke-dasharray="none"
         id="path1151" />
      <g
         id="g1157">
        <g
           stroke-dasharray="none"
           id="g1155">
          <path
             d="m 10.027,-5 10,5 -10,5 z"
             stroke="none"
             fill-opacity="1"
             id="path1153" />
        </g>
      </g>
    </g>
  </g>
  <g
     width="20.027"
     height="1"
     transform="translate(1727.557,852.972)"
     id="g1173">
    <g
       fill="#545454"
       stroke="#545454"
       stroke-opacity="1"
       id="g1171">
      <path
         d="M 0,0 H 10.027"
         fill="none"
         stroke-width="1"
         stroke-dasharray="none"
         id="path1163" />
      <g
         id="g1169">
        <g
           stroke-dasharray="none"
           id="g1167">
          <path
             d="m 10.027,-5 10,5 -10,5 z"
             stroke="none"
             fill-opacity="1"
             id="path1165" />
        </g>
      </g>
    </g>
  </g>
  <g
     width="1008.355"
     height="1"
     transform="translate(814.229,815.472)"
     id="g1185">
    <g
       fill="#545454"
       stroke="#545454"
       stroke-opacity="1"
       id="g1183">
      <path
         d="M 0,0 V -110.68 H 1008.355 V -10"
         fill="none"
         stroke-width="1"
         stroke-dasharray="none"
         id="path1175" />
      <g
         id="g1181">
        <g
           stroke-dasharray="none"
           id="g1179">
          <path
             d="m 1013.355,-10 -5,10 -5,-10 z"
             stroke="none"
             fill-opacity="1"
             id="path1177" />
        </g>
      </g>
    </g>
  </g>
  <g
     width="45.166"
     height="1"
     transform="translate(440.146,852.972)"
     id="g1197">
    <g
       fill="#545454"
       stroke="#545454"
       stroke-opacity="1"
       id="g1195">
      <path
         d="M 0,0.1 H 35.166"
         fill="none"
         stroke-width="1"
         stroke-dasharray="none"
         id="path1187" />
      <g
         id="g1193">
        <g
           stroke-dasharray="none"
           id="g1191">
          <path
             d="m 35.166,-4.9 10,5 -10,5 z"
             stroke="none"
             fill-opacity="1"
             id="path1189" />
        </g>
      </g>
    </g>
  </g>
  <g
     transform="translate(23.94,816.572)"
     id="g1201"
     stroke-opacity="1"
     fill-opacity="1"
     fill="#edf0c9"
     stroke="#d9e3b0">
    <path
       id="path1199"
       stroke-dasharray="none"
       stroke-width="1"
       d="M 37,0 28.675,0.949 25.303,1.897 22.769,2.846 20.678,3.795 18.875,4.744 17.281,5.692 15.85,6.641 14.549,7.59 13.358,8.538 12.26,9.487 11.244,10.436 10.301,11.385 9.422,12.333 8.602,13.282 7.836,14.231 7.119,15.179 6.449,16.128 5.822,17.077 5.236,18.026 4.688,18.974 4.177,19.923 3.7,20.872 3.257,21.821 2.846,22.769 2.466,23.718 2.116,24.667 1.795,25.615 1.502,26.564 1.237,27.513 0.999,28.462 0.787,29.41 0.601,30.359 0.44,31.308 0.305,32.256 0.195,33.205 0.11,34.154 0.049,35.103 0.012,36.051 0,37 v 1 l 0.012,0.949 0.037,0.948 0.061,0.949 0.085,0.949 0.11,0.949 0.135,0.948 0.161,0.949 0.186,0.949 0.212,0.948 0.238,0.949 0.265,0.949 0.293,0.949 0.321,0.948 0.35,0.949 0.38,0.949 0.411,0.948 0.443,0.949 0.477,0.949 0.511,0.949 0.548,0.948 0.586,0.949 0.627,0.949 0.67,0.949 0.717,0.948 0.766,0.949 0.82,0.949 0.879,0.948 0.943,0.949 1.016,0.949 1.098,0.949 1.191,0.948 1.301,0.949 1.431,0.949 1.594,0.948 1.803,0.949 2.091,0.949 2.534,0.949 3.372,0.948 L 37,75 h 76 l 8.325,-0.949 3.372,-0.948 2.534,-0.949 2.091,-0.949 1.803,-0.949 1.594,-0.948 1.431,-0.949 1.301,-0.949 1.191,-0.948 1.098,-0.949 1.016,-0.949 0.943,-0.949 0.879,-0.948 0.82,-0.949 0.766,-0.949 0.717,-0.948 0.67,-0.949 0.627,-0.949 0.586,-0.949 0.548,-0.948 0.511,-0.949 0.477,-0.949 0.443,-0.949 0.411,-0.948 0.38,-0.949 0.35,-0.949 0.321,-0.948 0.293,-0.949 0.265,-0.949 0.238,-0.949 0.212,-0.948 0.186,-0.949 0.161,-0.949 0.135,-0.948 0.11,-0.949 0.085,-0.949 0.061,-0.949 0.037,-0.948 L 150,38 v -1 l -0.012,-0.949 -0.037,-0.948 -0.061,-0.949 -0.085,-0.949 -0.11,-0.949 -0.135,-0.948 -0.161,-0.949 -0.186,-0.949 -0.212,-0.948 -0.238,-0.949 -0.265,-0.949 -0.293,-0.949 -0.321,-0.948 -0.35,-0.949 -0.38,-0.949 -0.411,-0.948 -0.443,-0.949 -0.477,-0.949 -0.511,-0.949 -0.548,-0.948 -0.586,-0.949 -0.627,-0.949 -0.67,-0.949 -0.717,-0.948 -0.766,-0.949 -0.82,-0.949 -0.879,-0.948 -0.943,-0.949 L 137.74,9.487 136.642,8.538 135.451,7.59 134.15,6.641 132.719,5.692 131.125,4.744 129.322,3.795 127.231,2.846 124.697,1.897 121.325,0.949 113,0 Z" />
  </g>
  <g
     width="61.095"
     height="1"
     transform="translate(173.94,853.072)"
     id="g1223">
    <g
       fill="#545454"
       stroke="#545454"
       stroke-opacity="1"
       id="g1221">
      <path
         d="M 0,1 H 51.095"
         fill="none"
         stroke-width="1"
         stroke-dasharray="none"
         id="path1213" />
      <g
         id="g1219">
        <g
           stroke-dasharray="none"
           id="g1217">
          <path
             d="m 51.095,-4 10,5 -10,5 z"
             stroke="none"
             fill-opacity="1"
             id="path1215" />
        </g>
      </g>
    </g>
  </g>
  <g
     width="19.815"
     height="44.792"
     transform="translate(338.514,917.558)"
     id="g1273">
    <g
       stroke="#000000"
       stroke-opacity="1"
       stroke-width="0"
       stroke-dasharray="none"
       width="19.815"
       height="44.792"
       fill="none"
       id="g1265">
      <rect
         width="19.815001"
         height="44.792"
         id="rect1263"
         x="0"
         y="0" />
    </g>
    <g
       width="19.81496810913086"
       height="44.791664123535156"
       id="g1271">
      <text
         width="19.81496810913086"
         height="44.791664123535156"
         xml:space="preserve"
         id="text1269"><tspan
           xml:space="preserve"
           text-rendering="optimizeSpeed"
           font-size="36.1111px"
           font-weight="normal"
           font-style="normal"
           text-decoration="none"
           fill="#000000"
           opacity="1"
           x="0"
           text-anchor="start"
           y="36.458"
           style="font-family:Symbol, Times, 'Times New Roman', serif;text-decoration:none;text-decoration-line:none"
           id="tspan1267">+</tspan></text>
    </g>
  </g>
  <g
     width="19.815"
     height="44.792"
     transform="translate(596.997,917.558)"
     id="g1285">
    <g
       stroke="#000000"
       stroke-opacity="1"
       stroke-width="0"
       stroke-dasharray="none"
       width="19.815"
       height="44.792"
       fill="none"
       id="g1277">
      <rect
         width="19.815001"
         height="44.792"
         id="rect1275"
         x="0"
         y="0" />
    </g>
    <g
       width="19.81496810913086"
       height="44.791664123535156"
       id="g1283">
      <text
         width="19.81496810913086"
         height="44.791664123535156"
         xml:space="preserve"
         id="text1281"><tspan
           xml:space="preserve"
           text-rendering="optimizeSpeed"
           font-size="36.1111px"
           font-weight="normal"
           font-style="normal"
           text-decoration="none"
           fill="#000000"
           opacity="1"
           x="0"
           text-anchor="start"
           y="36.458"
           style="font-family:Symbol, Times, 'Times New Roman', serif;text-decoration:none;text-decoration-line:none"
           id="tspan1279">+</tspan></text>
    </g>
  </g>
  <g
     width="19.815"
     height="44.792"
     transform="translate(1204.807,917.558)"
     id="g1297">
    <g
       stroke="#000000"
       stroke-opacity="1"
       stroke-width="0"
       stroke-dasharray="none"
       width="19.815"
       height="44.792"
       fill="none"
       id="g1289">
      <rect
         width="19.815001"
         height="44.792"
         id="rect1287"
         x="0"
         y="0" />
    </g>
    <g
       width="19.81496810913086"
       height="44.791664123535156"
       id="g1295">
      <text
         width="19.81496810913086"
         height="44.791664123535156"
         xml:space="preserve"
         id="text1293"><tspan
           xml:space="preserve"
           text-rendering="optimizeSpeed"
           font-size="36.1111px"
           font-weight="normal"
           font-style="normal"
           text-decoration="none"
           fill="#000000"
           opacity="1"
           x="0"
           text-anchor="start"
           y="36.458"
           style="font-family:Symbol, Times, 'Times New Roman', serif;text-decoration:none;text-decoration-line:none"
           id="tspan1291">+</tspan></text>
    </g>
  </g>
  <g
     width="19.815"
     height="44.792"
     transform="translate(1628.874,917.558)"
     id="g1309">
    <g
       stroke="#000000"
       stroke-opacity="1"
       stroke-width="0"
       stroke-dasharray="none"
       width="19.815"
       height="44.792"
       fill="none"
       id="g1301">
      <rect
         width="19.815001"
         height="44.792"
         id="rect1299"
         x="0"
         y="0" />
    </g>
    <g
       width="19.81496810913086"
       height="44.791664123535156"
       id="g1307">
      <text
         width="19.81496810913086"
         height="44.791664123535156"
         xml:space="preserve"
         id="text1305"><tspan
           xml:space="preserve"
           text-rendering="optimizeSpeed"
           font-size="36.1111px"
           font-weight="normal"
           font-style="normal"
           text-decoration="none"
           fill="#000000"
           opacity="1"
           x="0"
           text-anchor="start"
           y="36.458"
           style="font-family:Symbol, Times, 'Times New Roman', serif;text-decoration:none;text-decoration-line:none"
           id="tspan1303">+</tspan></text>
    </g>
  </g>
  <g
     width="19.815"
     height="44.792"
     transform="translate(451.781,814.396)"
     id="g1321">
    <g
       stroke="#000000"
       stroke-opacity="1"
       stroke-width="0"
       stroke-dasharray="none"
       width="19.815"
       height="44.792"
       fill="none"
       id="g1313">
      <rect
         width="19.815001"
         height="44.792"
         id="rect1311"
         x="0"
         y="0" />
    </g>
    <g
       width="19.81496810913086"
       height="44.791664123535156"
       id="g1319">
      <text
         width="19.81496810913086"
         height="44.791664123535156"
         xml:space="preserve"
         id="text1317"><tspan
           xml:space="preserve"
           text-rendering="optimizeSpeed"
           font-size="36.1111px"
           font-weight="normal"
           font-style="normal"
           text-decoration="none"
           fill="#000000"
           opacity="1"
           x="0"
           text-anchor="start"
           y="36.458"
           style="font-family:Symbol, Times, 'Times New Roman', serif;text-decoration:none;text-decoration-line:none"
           id="tspan1315">-</tspan></text>
    </g>
  </g>
  <g
     width="19.815"
     height="44.792"
     transform="translate(705.053,814.396)"
     id="g1333">
    <g
       stroke="#000000"
       stroke-opacity="1"
       stroke-width="0"
       stroke-dasharray="none"
       width="19.815"
       height="44.792"
       fill="none"
       id="g1325">
      <rect
         width="19.815001"
         height="44.792"
         id="rect1323"
         x="0"
         y="0" />
    </g>
    <g
       width="19.81496810913086"
       height="44.791664123535156"
       id="g1331">
      <text
         width="19.81496810913086"
         height="44.791664123535156"
         xml:space="preserve"
         id="text1329"><tspan
           xml:space="preserve"
           text-rendering="optimizeSpeed"
           font-size="36.1111px"
           font-weight="normal"
           font-style="normal"
           text-decoration="none"
           fill="#000000"
           opacity="1"
           x="0"
           text-anchor="start"
           y="36.458"
           style="font-family:Symbol, Times, 'Times New Roman', serif;text-decoration:none;text-decoration-line:none"
           id="tspan1327">-</tspan></text>
    </g>
  </g>
  <g
     width="19.815"
     height="44.792"
     transform="translate(1314.547,814.396)"
     id="g1345">
    <g
       stroke="#000000"
       stroke-opacity="1"
       stroke-width="0"
       stroke-dasharray="none"
       width="19.815"
       height="44.792"
       fill="none"
       id="g1337">
      <rect
         width="19.815001"
         height="44.792"
         id="rect1335"
         x="0"
         y="0" />
    </g>
    <g
       width="19.81496810913086"
       height="44.791664123535156"
       id="g1343">
      <text
         width="19.81496810913086"
         height="44.791664123535156"
         xml:space="preserve"
         id="text1341"><tspan
           xml:space="preserve"
           text-rendering="optimizeSpeed"
           font-size="36.1111px"
           font-weight="normal"
           font-style="normal"
           text-decoration="none"
           fill="#000000"
           opacity="1"
           x="0"
           text-anchor="start"
           y="36.458"
           style="font-family:Symbol, Times, 'Times New Roman', serif;text-decoration:none;text-decoration-line:none"
           id="tspan1339">-</tspan></text>
    </g>
  </g>
  <g
     width="19.815"
     height="44.792"
     transform="translate(1203.701,764.658)"
     id="g1357">
    <g
       stroke="#000000"
       stroke-opacity="1"
       stroke-width="0"
       stroke-dasharray="none"
       width="19.815"
       height="44.792"
       fill="none"
       id="g1349">
      <rect
         width="19.815001"
         height="44.792"
         id="rect1347"
         x="0"
         y="0" />
    </g>
    <g
       width="19.81496810913086"
       height="44.791664123535156"
       id="g1355">
      <text
         width="19.81496810913086"
         height="44.791664123535156"
         xml:space="preserve"
         id="text1353"><tspan
           xml:space="preserve"
           text-rendering="optimizeSpeed"
           font-size="36.1111px"
           font-weight="normal"
           font-style="normal"
           text-decoration="none"
           fill="#000000"
           opacity="1"
           x="0"
           text-anchor="start"
           y="36.458"
           style="font-family:Symbol, Times, 'Times New Roman', serif;text-decoration:none;text-decoration-line:none"
           id="tspan1351">-</tspan></text>
    </g>
  </g>
  <g
     width="19.815"
     height="44.792"
     transform="translate(1723.824,814.396)"
     id="g1369">
    <g
       stroke="#000000"
       stroke-opacity="1"
       stroke-width="0"
       stroke-dasharray="none"
       width="19.815"
       height="44.792"
       fill="none"
       id="g1361">
      <rect
         width="19.815001"
         height="44.792"
         id="rect1359"
         x="0"
         y="0" />
    </g>
    <g
       width="19.81496810913086"
       height="44.791664123535156"
       id="g1367">
      <text
         width="19.81496810913086"
         height="44.791664123535156"
         xml:space="preserve"
         id="text1365"><tspan
           xml:space="preserve"
           text-rendering="optimizeSpeed"
           font-size="36.1111px"
           font-weight="normal"
           font-style="normal"
           text-decoration="none"
           fill="#000000"
           opacity="1"
           x="0"
           text-anchor="start"
           y="36.458"
           style="font-family:Symbol, Times, 'Times New Roman', serif;text-decoration:none;text-decoration-line:none"
           id="tspan1363">-</tspan></text>
    </g>
  </g>
  <g
     width="493.679"
     height="17.225"
     transform="translate(98.94,799.347)"
     id="g1381">
    <g
       fill="#545454"
       stroke="#545454"
       stroke-opacity="1"
       id="g1379">
      <path
         d="M 0,17.225 V -25 h 493.679 v 15"
         fill="none"
         stroke-width="1"
         stroke-dasharray="none"
         id="path1371" />
      <g
         id="g1377">
        <g
           stroke-dasharray="none"
           id="g1375">
          <path
             d="m 498.679,-10 -5,10 -5,-10 z"
             stroke="none"
             fill-opacity="1"
             id="path1373" />
        </g>
      </g>
    </g>
  </g>
  <g
     width="829.328"
     height="1"
     transform="translate(993.255,815.472)"
     id="g1419">
    <g
       fill="#545454"
       stroke="#545454"
       stroke-opacity="1"
       id="g1417">
      <path
         d="M 0,0 V -71.31 H 829.328 V -10"
         fill="none"
         stroke-width="1"
         stroke-dasharray="none"
         id="path1409" />
      <g
         id="g1415">
        <g
           stroke-dasharray="none"
           id="g1413">
          <path
             d="m 834.328,-10 -5,10 -5,-10 z"
             stroke="none"
             fill-opacity="1"
             id="path1411" />
        </g>
      </g>
    </g>
  </g>
  <text
     id="text1748"
     y="844.84393"
     x="96.757736"
     style="font-size:24px;line-height:1.25;font-family:'EB Garamond';-inkscape-font-specification:'EB Garamond';text-align:center;text-anchor:middle"
     xml:space="preserve"><tspan
       style="font-size:24px;text-align:center;text-anchor:middle"
       y="844.84393"
       x="96.757736"
       id="tspan1746"
       sodipodi:role="line">Intending</tspan><tspan
       id="tspan1750"
       style="font-size:24px;text-align:center;text-anchor:middle"
       y="874.84393"
       x="96.757736"
       sodipodi:role="line">to fly</tspan></text>
  <text
     id="text1754"
     y="759.61316"
     x="325.72607"
     style="font-size:24px;line-height:1.25;font-family:'EB Garamond';-inkscape-font-specification:'EB Garamond';text-align:center;text-anchor:middle"
     xml:space="preserve"><tspan
       style="font-size:24px"
       y="759.61316"
       x="325.72607"
       id="tspan1752"
       sodipodi:role="line">No pre-flight testing</tspan></text>
  <text
     id="text1758"
     y="897.23743"
     x="212.4292"
     style="font-size:24px;line-height:1.25;font-family:'EB Garamond';-inkscape-font-specification:'EB Garamond';text-align:center;text-anchor:middle"
     xml:space="preserve"><tspan
       style="font-size:24px"
       y="897.23743"
       x="212.4292"
       id="tspan1756"
       sodipodi:role="line">Pre-flight</tspan><tspan
       style="font-size:24px"
       id="tspan1760"
       y="927.23743"
       x="212.4292"
       sodipodi:role="line">testing</tspan></text>
  <text
     id="text1764"
     y="1021.5295"
     x="337.72284"
     style="font-size:24px;line-height:1.25;font-family:'EB Garamond';-inkscape-font-specification:'EB Garamond';text-align:center;text-anchor:middle"
     xml:space="preserve"><tspan
       y="1021.5295"
       x="337.72284"
       id="tspan1762"
       sodipodi:role="line">Prevented from</tspan><tspan
       id="tspan1766"
       y="1051.5295"
       x="337.72284"
       sodipodi:role="line">boarding</tspan></text>
  <text
     xml:space="preserve"
     style="font-size:24px;line-height:1.25;font-family:'EB Garamond';-inkscape-font-specification:'EB Garamond';text-align:center;text-anchor:middle;overflow:hidden"
     x="592.28705"
     y="1021.1845"
     id="text1764-8"><tspan
       sodipodi:role="line"
       id="tspan1762-4"
       x="592.28705"
       y="1021.1845">Prevented from</tspan><tspan
       sodipodi:role="line"
       x="592.28705"
       y="1051.1844"
       id="tspan1766-0">boarding</tspan></text>
  <text
     id="text1803"
     y="842.58588"
     x="339.05511"
     style="font-size:24px;line-height:1.25;font-family:'EB Garamond';-inkscape-font-specification:'EB Garamond';text-align:center;text-anchor:middle"
     xml:space="preserve"><tspan
       id="tspan1805"
       y="842.58588"
       x="339.05511"
       sodipodi:role="line">Pre-flight</tspan><tspan
       id="tspan1809"
       y="872.58588"
       x="339.05511"
       sodipodi:role="line"><tspan
   id="tspan1817"
   style="font-style:italic;font-variant:normal;font-weight:normal;font-stretch:normal;font-size:24px;font-family:'EB Garamond';-inkscape-font-specification:'EB Garamond Italic';font-variant-ligatures:normal;font-variant-caps:normal;font-variant-numeric:normal;font-variant-east-asian:normal">t</tspan><tspan
   id="tspan1815"
   style="font-size:65%;baseline-shift:sub">0</tspan> days prior</tspan></text>
  <text
     id="text1835"
     y="842.91968"
     x="595.63916"
     style="font-size:24px;line-height:1.25;font-family:'EB Garamond';-inkscape-font-specification:'EB Garamond';text-align:center;text-anchor:middle"
     xml:space="preserve"><tspan
       style="font-size:24px"
       y="842.91968"
       x="595.63916"
       id="tspan1833"
       sodipodi:role="line">Syndromic</tspan><tspan
       style="font-size:24px"
       id="tspan1837"
       y="872.91968"
       x="595.63916"
       sodipodi:role="line">at airport</tspan></text>
  <text
     id="text1876"
     y="859.21497"
     x="816.55713"
     style="font-size:24px;line-height:1.25;font-family:'EB Garamond';-inkscape-font-specification:'EB Garamond';text-align:center;text-anchor:middle"
     xml:space="preserve"><tspan
       y="859.21497"
       x="816.55713"
       id="tspan1874"
       sodipodi:role="line">Flight</tspan></text>
  <text
     id="text1880"
     y="845.58423"
     x="990.51208"
     style="font-size:24px;line-height:1.25;font-family:'EB Garamond';-inkscape-font-specification:'EB Garamond';text-align:center;text-anchor:middle"
     xml:space="preserve"><tspan
       y="845.58423"
       x="990.51208"
       id="tspan1878"
       sodipodi:role="line">Quarantine</tspan><tspan
       id="tspan1882"
       y="875.58423"
       x="990.51208"
       sodipodi:role="line"><tspan
   id="tspan1886"
   style="font-style:italic;font-variant:normal;font-weight:normal;font-stretch:normal;font-family:'EB Garamond';-inkscape-font-specification:'EB Garamond Italic'">t</tspan><tspan
   id="tspan1884"
   style="font-size:65%;baseline-shift:sub">1</tspan> days</tspan></text>
  <text
     id="text1890"
     y="844.58582"
     x="1199.446"
     style="font-size:24px;line-height:1.25;font-family:'EB Garamond';-inkscape-font-specification:'EB Garamond';text-align:center;text-anchor:middle"
     xml:space="preserve"><tspan
       y="844.58582"
       x="1199.446"
       id="tspan1888"
       sodipodi:role="line">Post-flight</tspan><tspan
       id="tspan1892"
       y="874.58582"
       x="1199.446"
       sodipodi:role="line">at <tspan
   id="tspan1896"
   style="font-style:italic;font-variant:normal;font-weight:normal;font-stretch:normal;font-family:'EB Garamond';-inkscape-font-specification:'EB Garamond Italic'">t</tspan><tspan
   id="tspan1898"
   style="font-size:65%;baseline-shift:sub">1</tspan></tspan></text>
  <text
     xml:space="preserve"
     style="font-size:24px;line-height:1.25;font-family:'EB Garamond';-inkscape-font-specification:'EB Garamond';text-align:center;text-anchor:middle;overflow:hidden"
     x="1625.1211"
     y="843.96509"
     id="text1890-1"><tspan
       sodipodi:role="line"
       id="tspan1888-7"
       x="1625.1211"
       y="843.96509">Post-flight</tspan><tspan
       sodipodi:role="line"
       x="1626.675"
       y="873.96509"
       id="tspan1892-1">at <tspan
   style="font-style:italic;font-variant:normal;font-weight:normal;font-stretch:normal;font-family:'EB Garamond';-inkscape-font-specification:'EB Garamond Italic'"
   id="tspan1894-3">t</tspan><tspan
   id="tspan1943"
   style="font-size:65%;baseline-shift:sub">1</tspan> + <tspan
   style="font-style:italic;font-variant:normal;font-weight:normal;font-stretch:normal;font-family:'EB Garamond';-inkscape-font-specification:'EB Garamond Italic'"
   id="tspan1896-4">t</tspan><tspan
   id="tspan1949"
   style="font-size:65%;baseline-shift:sub">2 </tspan></tspan></text>
  <text
     xml:space="preserve"
     style="font-size:24px;line-height:1.25;font-family:'EB Garamond';-inkscape-font-specification:'EB Garamond';text-align:center;text-anchor:middle;overflow:hidden"
     x="1425.1396"
     y="841.12256"
     id="text1880-5"><tspan
       sodipodi:role="line"
       id="tspan1878-2"
       x="1425.1396"
       y="841.12256">Quarantine</tspan><tspan
       sodipodi:role="line"
       x="1425.1396"
       y="871.12256"
       id="tspan1882-0"><tspan
   style="font-style:italic;font-variant:normal;font-weight:normal;font-stretch:normal;font-family:'EB Garamond';-inkscape-font-specification:'EB Garamond Italic'"
   id="tspan1886-7">t<tspan
   id="tspan1978"
   style="font-style:normal;font-size:65%;baseline-shift:sub">2</tspan></tspan> days</tspan></text>
  <text
     id="text1992"
     y="1019.1956"
     x="1196.1138"
     style="font-size:24px;line-height:1.25;font-family:'EB Garamond';-inkscape-font-specification:'EB Garamond';text-align:center;text-anchor:middle"
     xml:space="preserve"><tspan
       y="1019.1956"
       x="1196.1138"
       id="tspan1990"
       sodipodi:role="line">Mandatory</tspan><tspan
       id="tspan1994"
       y="1049.1956"
       x="1196.1138"
       sodipodi:role="line">quarantine</tspan></text>
  <text
     xml:space="preserve"
     style="font-size:24px;line-height:1.25;font-family:'EB Garamond';-inkscape-font-specification:'EB Garamond';text-align:center;text-anchor:middle;overflow:hidden"
     x="1623.3477"
     y="1019.5543"
     id="text1992-7"><tspan
       sodipodi:role="line"
       id="tspan1990-4"
       x="1623.3477"
       y="1019.5543">Mandatory</tspan><tspan
       sodipodi:role="line"
       x="1623.3477"
       y="1049.5543"
       id="tspan1994-5">quarantine</tspan></text>
  <text
     id="text2019"
     y="696.30023"
     x="962.18781"
     style="font-size:24px;line-height:1.25;font-family:'EB Garamond';-inkscape-font-specification:'EB Garamond';text-align:center;text-anchor:middle"
     xml:space="preserve"><tspan
       y="696.30023"
       x="962.18781"
       id="tspan2017"
       sodipodi:role="line">No quarantine, no testing</tspan></text>
  <text
     id="text2023"
     y="734.62122"
     x="1118.8042"
     style="font-size:24px;line-height:1.25;font-family:'EB Garamond';-inkscape-font-specification:'EB Garamond';text-align:center;text-anchor:middle"
     xml:space="preserve"><tspan
       y="734.62122"
       x="1118.8042"
       id="tspan2021"
       sodipodi:role="line">Quarantine, no testing</tspan></text>
  <text
     id="text2027"
     y="771.27606"
     x="1265.4236"
     style="font-size:24px;line-height:1.25;font-family:'EB Garamond';-inkscape-font-specification:'EB Garamond';text-align:center;text-anchor:middle"
     xml:space="preserve"><tspan
       y="771.27606"
       x="1265.4236"
       id="tspan2025"
       sodipodi:role="line">One test</tspan></text>
  <text
     id="text2031"
     y="874.91003"
     x="1325.4042"
     style="font-size:24px;line-height:1.25;font-family:'EB Garamond';-inkscape-font-specification:'EB Garamond';text-align:center;text-anchor:middle"
     xml:space="preserve"><tspan
       y="874.91003"
       x="1325.4042"
       id="tspan2029"
       sodipodi:role="line">Two</tspan><tspan
       id="tspan2033"
       y="904.91003"
       x="1325.4042"
       sodipodi:role="line">tests</tspan></text>
  <text
     id="text2037"
     y="842.91968"
     x="1822.2451"
     style="font-size:24px;line-height:1.25;font-family:'EB Garamond';-inkscape-font-specification:'EB Garamond';text-align:center;text-anchor:middle"
     xml:space="preserve"><tspan
       y="842.91968"
       x="1822.2451"
       id="tspan2035"
       sodipodi:role="line">Enter</tspan><tspan
       id="tspan2039"
       y="872.91968"
       x="1822.2451"
       sodipodi:role="line">community</tspan></text>
</svg>
