<?xml version="1.0" encoding="utf-8"?>
<!-- Generator: Adobe Illustrator 24.0.2, SVG Export Plug-In . SVG Version: 6.00 Build 0)  -->
<svg version="1.1"
	 id="svg850" inkscape:export-filename="/Users/julian/Desktop/cmmid_newlogo.png" inkscape:export-xdpi="300" inkscape:export-ydpi="300" inkscape:version="0.92.2 5c3e80d, 2017-08-06" sodipodi:docname="cmmid_newlogo.svg" xmlns:cc="http://creativecommons.org/ns#" xmlns:dc="http://purl.org/dc/elements/1.1/" xmlns:inkscape="http://www.inkscape.org/namespaces/inkscape" xmlns:rdf="http://www.w3.org/1999/02/22-rdf-syntax-ns#" xmlns:sodipodi="http://sodipodi.sourceforge.net/DTD/sodipodi-0.dtd" xmlns:svg="http://www.w3.org/2000/svg"
	 xmlns="http://www.w3.org/2000/svg" xmlns:xlink="http://www.w3.org/1999/xlink" x="0px" y="0px" viewBox="0 0 317.4 119.3"
	 style="enable-background:new 0 0 317.4 119.3;" xml:space="preserve">
<style type="text/css">
	.st0{fill:#7A94A1;}
	.st1{fill:#BDCACF;}
	.st2{fill:none;stroke:#BDCACF;stroke-width:2.0883;stroke-miterlimit:5.3333;}
</style>
<sodipodi:namedview  bordercolor="#666666" borderopacity="1" gridtolerance="10" guidetolerance="10" id="namedview852" inkscape:current-layer="g860" inkscape:cx="220.24266" inkscape:cy="48.617445" inkscape:guide-bbox="true" inkscape:pageopacity="0" inkscape:pageshadow="2" inkscape:window-height="1283" inkscape:window-maximized="0" inkscape:window-width="2560" inkscape:window-x="0" inkscape:window-y="0" inkscape:zoom="5.4303739" objecttolerance="10" pagecolor="#ffffff" showgrid="false" showguides="true">
	<sodipodi:guide  id="guide1350" inkscape:locked="false" orientation="1,0" position="211.03519,110.48963"></sodipodi:guide>
</sodipodi:namedview>
<g id="g858" transform="matrix(1.3333333,0,0,-1.3333333,0,126.69879)" inkscape:groupmode="layer" inkscape:label="cmmid_logo">
	<g id="g860">
		<path id="path862" inkscape:connector-curvature="0" class="st0" d="M66.3,72.8c0,0,0-0.1-0.1-0.1C66.3,72.7,66.3,72.7,66.3,72.8"
			/>
		<path id="path864" inkscape:connector-curvature="0" class="st0" d="M53.8,80.2C53.8,80.3,53.8,80.3,53.8,80.2
			C53.8,80.3,53.8,80.3,53.8,80.2"/>
		<path id="path866" inkscape:connector-curvature="0" class="st0" d="M66.4,73.1c0,0.2-0.1,0.4-0.2,0.5c0,0,0,0,0,0
			c0,0-0.1,0.1-0.1,0.1C66.3,73.6,66.4,73.3,66.4,73.1"/>
		<path id="path868" inkscape:connector-curvature="0" class="st0" d="M53.8,80.2c0,0-0.1-0.1-0.1-0.1
			C53.7,80.1,53.7,80.2,53.8,80.2"/>
		<path id="path870" inkscape:connector-curvature="0" class="st0" d="M66.4,72.9C66.4,72.9,66.4,72.9,66.4,72.9
			C66.4,72.9,66.4,72.9,66.4,72.9"/>
		<path id="path872" inkscape:connector-curvature="0" class="st0" d="M54,80.4c0.2,0.1,0.5,0.1,0.7,0.1c0,0-0.1,0-0.1,0
			c0,0,0,0,0,0C54.3,80.5,54.2,80.5,54,80.4"/>
		<path id="path874" inkscape:connector-curvature="0" class="st0" d="M76.5,51.3c0-0.1,0-0.1,0-0.2C76.5,51.2,76.5,51.2,76.5,51.3"
			/>
		<path id="path876" inkscape:connector-curvature="0" class="st0" d="M76.5,51.1c0,0,0-0.1-0.1-0.1C76.4,51,76.5,51.1,76.5,51.1"/>
		<path id="path878" inkscape:connector-curvature="0" class="st0" d="M76.4,50.9C76.4,50.9,76.3,50.9,76.4,50.9
			C76.3,50.9,76.4,50.9,76.4,50.9"/>
		<path id="path880" inkscape:connector-curvature="0" class="st0" d="M74.8,40.5c0-0.1,0.1-0.1,0.1-0.2c0,0,0,0,0,0
			C74.9,40.3,74.9,40.4,74.8,40.5"/>
		<path id="path882" inkscape:connector-curvature="0" class="st0" d="M76.3,50.8C76.3,50.8,76.2,50.8,76.3,50.8
			C76.2,50.8,76.3,50.8,76.3,50.8"/>
		<path id="path884" inkscape:connector-curvature="0" class="st0" d="M66.4,73.1c0,0,0-0.1,0-0.1C66.4,73,66.4,73,66.4,73.1"/>
		<path id="path886" inkscape:connector-curvature="0" class="st0" d="M74.8,40.5C74.8,40.5,74.8,40.5,74.8,40.5
			C74.8,40.5,74.8,40.5,74.8,40.5"/>
		<path id="path888" inkscape:connector-curvature="0" class="st0" d="M74.6,40.7c0,0-0.1,0.1-0.1,0.1
			C74.6,40.8,74.6,40.7,74.6,40.7"/>
		<path id="path890" inkscape:connector-curvature="0" class="st0" d="M74.7,40.7C74.7,40.7,74.7,40.6,74.7,40.7
			C74.7,40.6,74.7,40.7,74.7,40.7"/>
		<path id="path892" inkscape:connector-curvature="0" class="st0" d="M72.7,64.8C72.7,64.8,72.6,64.8,72.7,64.8
			C72.6,64.8,72.7,64.8,72.7,64.8"/>
		<path id="path894" inkscape:connector-curvature="0" class="st0" d="M73,64.6C73,64.6,73,64.6,73,64.6C73,64.6,73,64.6,73,64.6"/>
		<path id="path896" inkscape:connector-curvature="0" class="st0" d="M73.1,64.5c0,0,0.1-0.1,0.1-0.2
			C73.2,64.3,73.2,64.4,73.1,64.5C73.2,64.4,73.2,64.4,73.1,64.5C73.1,64.5,73.1,64.5,73.1,64.5"/>
		<path id="path898" inkscape:connector-curvature="0" class="st0" d="M72.8,64.7C72.8,64.7,72.8,64.7,72.8,64.7
			C72.8,64.7,72.8,64.7,72.8,64.7"/>
		<path id="path900" inkscape:connector-curvature="0" class="st0" d="M75.8,50.6c-0.1,0-0.1,0-0.2,0C75.7,50.6,75.8,50.6,75.8,50.6
			"/>
		<path id="path902" inkscape:connector-curvature="0" class="st0" d="M76,50.6c0,0-0.1,0-0.1,0C75.9,50.6,76,50.6,76,50.6"/>
		<path id="path904" inkscape:connector-curvature="0" class="st0" d="M76.1,50.7C76.1,50.7,76.1,50.7,76.1,50.7
			C76.1,50.7,76.1,50.7,76.1,50.7"/>
		<path id="path906" inkscape:connector-curvature="0" class="st0" d="M76.5,51.3C76.5,51.3,76.5,51.4,76.5,51.3c0,0.1,0,0.1,0,0.2
			C76.5,51.4,76.5,51.4,76.5,51.3"/>
		<path id="path908" inkscape:connector-curvature="0" class="st0" d="M54,80.4C54,80.4,53.9,80.4,54,80.4
			C53.9,80.4,54,80.4,54,80.4"/>
		<path id="path910" inkscape:connector-curvature="0" class="st0" d="M22.5,27.1C22.5,27.2,22.6,27.2,22.5,27.1
			C22.6,27.2,22.5,27.2,22.5,27.1"/>
		<path id="path912" inkscape:connector-curvature="0" class="st0" d="M22.5,27c0,0,0,0.1,0,0.1C22.5,27.1,22.5,27,22.5,27"/>
		<path id="path914" inkscape:connector-curvature="0" class="st0" d="M15.7,35.7C15.7,35.7,15.7,35.7,15.7,35.7
			c0.1-0.1,0.1-0.1,0.1-0.1C15.7,35.6,15.7,35.7,15.7,35.7"/>
		<path id="path916" inkscape:connector-curvature="0" class="st0" d="M34.9,19.7C35,19.7,35,19.7,34.9,19.7
			C35,19.7,35,19.7,34.9,19.7"/>
		<path id="path918" inkscape:connector-curvature="0" class="st0" d="M22.6,27.3c0,0,0,0.1,0.1,0.1C22.6,27.4,22.6,27.3,22.6,27.3"
			/>
		<path id="path920" inkscape:connector-curvature="0" class="st0" d="M22.5,27c0-0.2,0-0.4,0.2-0.5c0,0,0,0,0,0
			c0,0,0.1-0.1,0.1-0.1C22.6,26.5,22.5,26.7,22.5,27"/>
		<path id="path922" inkscape:connector-curvature="0" class="st0" d="M12.4,48.7C12.4,48.7,12.4,48.7,12.4,48.7c0-0.1,0-0.1,0-0.2
			C12.4,48.6,12.4,48.7,12.4,48.7"/>
		<path id="path924" inkscape:connector-curvature="0" class="st0" d="M14,59.7c0,0,0-0.1,0.1-0.1C14.1,59.6,14,59.6,14,59.7"/>
		<path id="path926" inkscape:connector-curvature="0" class="st0" d="M14.3,59.3c0,0,0.1-0.1,0.1-0.1
			C14.4,59.3,14.3,59.3,14.3,59.3"/>
		<path id="path928" inkscape:connector-curvature="0" class="st0" d="M14,59.7c-0.1,0.2-0.1,0.4,0,0.6c0,0,0-0.1,0-0.1c0,0,0,0,0,0
			C14,60,14,59.8,14,59.7"/>
		<path id="path930" inkscape:connector-curvature="0" class="st0" d="M14.3,59.4C14.2,59.4,14.2,59.4,14.3,59.4
			C14.2,59.4,14.2,59.4,14.3,59.4"/>
		<path id="path932" inkscape:connector-curvature="0" class="st0" d="M14.1,59.5C14.1,59.5,14.1,59.5,14.1,59.5
			C14.1,59.5,14.1,59.5,14.1,59.5"/>
		<path id="path934" inkscape:connector-curvature="0" class="st0" d="M45,18.6c0,0.1,0,0.1,0,0.2C45,18.7,45,18.7,45,18.6"/>
		<path id="path936" inkscape:connector-curvature="0" class="st0" d="M45.6,18c0.1,0,0.1,0,0.2,0c0,0,0,0,0.1,0l0.1,0
			C45.8,17.9,45.7,17.9,45.6,18"/>
		<path id="path938" inkscape:connector-curvature="0" class="st0" d="M43.4,82c0,0,0.1,0,0.1-0.1C43.5,82,43.5,82,43.4,82"/>
		<path id="path940" inkscape:connector-curvature="0" class="st0" d="M55.6,20.1c-0.1,0-0.2,0.1-0.2,0.1c-0.7-1-1.1-2.1-0.9-3.1
			c0.4-1.4,1.8-2.2,4.3-2.6c2.3-0.3,3.4-1.5,3.5-2.5c0.1-0.6-0.3-1-0.9-1.2c-1.1-0.4-2.2-0.5-3.5-0.7c-1-0.1-2-0.3-3-0.6
			c-1-0.3-2-0.6-2.9-1c-1.2-0.4-2.3-0.9-3.4-1.1C48,7.2,47.5,7.5,47.3,8c-0.4,0.9,0,2.5,1.9,3.9c2.1,1.5,2.9,3,2.5,4.4
			c-0.6,2.5-5.1,3.3-5.7,3.4c0,0,0,0,0.1,0c0,0,0.1,0,0.1,0c0,0,0,0,0.1,0c0,0,0.1,0,0.1,0c0,0,0,0,0.1,0c0,0,0.1,0,0.1-0.1
			c0,0,0,0,0,0c0,0,0,0,0,0c0,0,0,0,0.1-0.1c0,0,0,0,0-0.1c0,0,0-0.1,0.1-0.1c0,0,0,0,0-0.1c0,0,0-0.1,0-0.1c0,0,0,0,0,0
			c0-0.1,0-0.1,0-0.2c0,0.1,0,0.1,0,0.2c0,0,0,0,0,0c0,0,0,0.1,0,0.1c0,0,0,0,0,0.1c0,0,0,0.1-0.1,0.1c0,0,0,0,0,0.1
			c0,0,0,0.1-0.1,0.1c0,0,0,0-0.1,0c0,0-0.1,0-0.1,0.1c0,0,0,0-0.1,0c0,0-0.1,0-0.1,0c0,0,0,0-0.1,0c0,0-0.1,0-0.1,0
			c0,0-0.1,0-0.1,0c0,0,0,0,0,0c-0.1,0-0.1,0-0.2,0c-3.8-0.2-7.5,0.4-11.1,1.6c-0.1,0-0.2,0-0.3,0c0,0,0.1,0,0.1,0
			c-0.2,0-0.3,0-0.5-0.1c0,0,0,0,0,0c0,0-0.1,0-0.1,0c0,0,0,0-0.1,0c0,0,0,0-0.1,0c0,0,0,0-0.1-0.1c0,0,0,0,0,0c0,0-0.1-0.1-0.1-0.1
			c0,0,0.1,0.1,0.1,0.1c0,0,0,0,0,0c0,0,0,0,0.1,0.1c0,0,0,0,0.1,0c0,0,0,0,0.1,0c0,0,0,0,0.1,0c0,0,0,0,0,0
			c0.1,0.1,0.3,0.1,0.4,0.1c-0.8,0.1-5,0.5-6.3-1.7c-0.7-1.2-0.3-2.8,1.2-4.9c1.4-1.8,1.3-3.5,0.7-4.3c-0.4-0.4-0.9-0.5-1.5-0.2
			c-1,0.5-2,1.2-3,1.9c-0.8,0.6-1.6,1.2-2.5,1.7c-0.9,0.5-1.8,0.9-2.7,1.4c-1.1,0.5-2.2,1-3.2,1.7c-0.5,0.4-0.7,0.9-0.5,1.4
			c0.4,0.9,1.8,1.8,4.1,1.5c2.5-0.4,4.1,0.1,4.9,1.3c1.3,2.2-1.1,5.7-1.6,6.3c0.1-0.1,0.1-0.3,0.1-0.4c0,0,0,0,0,0c0,0,0-0.1,0-0.1
			c0,0,0,0,0-0.1c0,0,0,0,0-0.1c0,0,0-0.1,0-0.1c0,0,0,0,0-0.1c0,0,0-0.1-0.1-0.1c0,0,0,0.1,0.1,0.1c0,0,0,0,0,0.1c0,0,0,0.1,0,0.1
			c0,0,0,0,0,0.1c0,0,0,0,0,0.1c0,0,0,0.1,0,0.1c0,0,0,0,0,0c0,0.2-0.1,0.3-0.2,0.5c0,0,0,0,0-0.1c0,0.1-0.1,0.1-0.2,0.2
			c-2.8,2.5-5.1,5.5-6.7,8.9c0,0-0.1,0.1-0.1,0.1c-0.3,0.4-3.2,4-5.7,3.3c-1.4-0.4-2.2-1.8-2.6-4.3c-0.3-2.3-1.5-3.4-2.5-3.5
			c-0.6-0.1-1,0.3-1.2,0.9c-0.4,1.1-0.5,2.2-0.7,3.5c-0.1,1-0.3,2-0.6,3c-0.3,1-0.6,2-1,2.9c-0.4,1.2-0.9,2.3-1.1,3.4
			c-0.1,0.7,0.1,1.1,0.6,1.4c0.9,0.4,2.5,0,3.9-1.9c1.5-2,3-2.9,4.4-2.5c2.5,0.6,3.3,5.2,3.4,5.7c0,0.1,0,0.1,0,0.2
			c-0.2,3.8,0.4,7.5,1.6,11.1c0,0.1,0,0.2,0,0.3c0,0,0-0.1,0-0.1c0,0.2,0,0.3-0.1,0.5c0,0,0,0,0,0c0,0,0,0.1,0,0.1c0,0,0,0,0,0
			c0,0,0,0,0,0.1c0,0,0,0-0.1,0.1c0,0,0,0,0,0c0,0-0.1,0.1-0.1,0.1c0,0,0.1-0.1,0.1-0.1c0,0,0,0,0,0c0,0,0,0,0.1-0.1c0,0,0,0,0-0.1
			c0,0,0,0,0,0c0,0,0-0.1,0-0.1c0,0,0,0,0,0c0.1-0.1,0.1-0.3,0.1-0.4c0.1,0.8,0.5,5-1.7,6.3c-1.2,0.7-2.8,0.3-4.9-1.2
			c-1.8-1.4-3.5-1.3-4.3-0.7c-0.4,0.4-0.5,0.9-0.2,1.5c0.5,1,1.2,2,1.9,3c0.6,0.8,1.2,1.6,1.7,2.5c0.5,0.9,0.9,1.8,1.4,2.7
			c0.5,1.1,1,2.2,1.7,3.2c0.4,0.6,0.9,0.7,1.4,0.5c0.9-0.4,1.8-1.8,1.5-4.1c-0.4-2.5,0.1-4.1,1.3-4.9c2.2-1.3,5.7,1.1,6.3,1.6
			c-0.1-0.1-0.3-0.1-0.4-0.1c0,0,0,0,0,0c0,0-0.1,0-0.1,0c0,0,0,0-0.1,0c0,0,0,0-0.1,0c0,0-0.1,0-0.1,0c0,0,0,0-0.1,0
			c0,0-0.1,0-0.1,0.1c0,0,0.1,0,0.1-0.1c0,0,0,0,0.1,0c0,0,0.1,0,0.1,0c0,0,0,0,0.1,0c0,0,0,0,0.1,0c0,0,0.1,0,0.1,0c0,0,0,0,0,0
			c0.2,0,0.3,0.1,0.4,0.2c0,0,0,0-0.1,0c0.1,0,0.1,0.1,0.2,0.1c2.5,2.8,5.6,5.1,8.9,6.7c0.1,0,0.1,0.1,0.2,0.1c0,0,0.1,0.1,0.1,0.1
			c0,0,0,0,0,0c0,0,0.1,0.1,0.1,0.1c0,0,0,0,0,0c0,0.1,0,0.1,0.1,0.2c0,0,0,0,0,0c0,0.1,0,0.1,0,0.2c0-0.1,0-0.1,0-0.2c0,0,0,0,0,0
			c0-0.1,0-0.1-0.1-0.2c0,0,0,0,0,0c0-0.1-0.1-0.1-0.1-0.1c0,0,0,0,0,0c0,0-0.1-0.1-0.1-0.1c0,0,0,0,0,0c0.4,0.3,4,3.2,3.3,5.7
			c-0.4,1.4-1.8,2.2-4.3,2.6c-2.3,0.3-3.4,1.5-3.5,2.5c-0.1,0.6,0.3,1,0.9,1.2c1.1,0.4,2.2,0.5,3.5,0.7c1,0.1,2,0.3,3,0.6
			c1,0.3,2,0.6,2.9,1c1.2,0.4,2.3,0.9,3.4,1.1c0.7,0.1,1.1-0.1,1.4-0.6c0.4-0.9,0-2.5-1.9-3.9c-2-1.5-2.9-3-2.5-4.4
			c0.6-2.5,5.2-3.3,5.7-3.4c0,0,0,0-0.1,0c0,0,0,0-0.1,0c0,0-0.1,0-0.1,0c0,0,0,0,0,0c0,0,0,0-0.1,0c0,0,0,0,0,0c0,0,0,0-0.1,0.1
			c0,0,0,0,0,0c0,0,0,0-0.1,0.1c0,0,0,0,0,0c0,0,0,0,0,0.1c0,0,0,0,0,0c0,0,0,0.1-0.1,0.1c0,0,0-0.1,0.1-0.1c0,0,0,0,0,0
			c0,0,0-0.1,0-0.1c0,0,0,0,0,0c0,0,0,0,0.1-0.1c0,0,0,0,0,0c0,0,0,0,0.1-0.1c0,0,0,0,0,0c0,0,0,0,0.1,0c0,0,0,0,0,0
			c0,0,0.1,0,0.1,0c0,0,0,0,0.1,0c0.1,0,0.2,0,0.2,0c3.8,0.2,7.5-0.4,11.1-1.6c0.1,0,0.2,0,0.3,0c0,0-0.1,0-0.1,0
			c0.2,0,0.3,0,0.5,0.1c0,0,0,0,0,0c0,0,0.1,0,0.1,0c0,0,0,0,0.1,0c0,0,0,0,0.1,0c0,0,0,0,0.1,0.1c0,0,0,0,0,0c0,0,0.1,0.1,0.1,0.1
			c0,0-0.1-0.1-0.1-0.1c0,0,0,0,0,0c0,0,0,0-0.1-0.1c0,0,0,0-0.1,0c0,0,0,0-0.1,0c0,0-0.1,0-0.1,0c0,0,0,0,0,0
			c-0.1-0.1-0.3-0.1-0.4-0.1c0.8-0.1,5-0.5,6.3,1.7c0.7,1.2,0.3,2.8-1.2,4.9c-1.4,1.8-1.3,3.5-0.7,4.3c0.4,0.5,0.9,0.5,1.5,0.2
			c1-0.5,2-1.2,3-1.9c0.8-0.6,1.6-1.2,2.5-1.7c0.9-0.5,1.8-0.9,2.7-1.4c1.1-0.5,2.2-1,3.2-1.7c0.6-0.4,0.7-0.9,0.5-1.4
			c-0.4-0.9-1.8-1.8-4.1-1.5c-2.5,0.4-4.1-0.1-4.9-1.3c-1.3-2.2,1.1-5.7,1.6-6.3c-0.1,0.1-0.1,0.2-0.1,0.3v0c0,0,0,0.1,0,0.1
			c0,0,0,0,0,0c0,0,0,0.1,0,0.1c0,0,0,0,0,0.1c0,0,0,0,0,0.1c0,0,0,0.1,0,0.1c0,0,0,0,0,0c0,0,0,0.1,0.1,0.1c0,0,0-0.1-0.1-0.1
			c0,0,0,0,0,0c0,0,0-0.1,0-0.1c0,0,0,0,0-0.1c0,0,0,0,0-0.1c0,0,0-0.1,0-0.1c0,0,0,0,0,0c0,0,0-0.1,0-0.1v0c0-0.1,0.1-0.2,0.2-0.3
			c0,0,0,0,0,0.1c0-0.1,0.1-0.1,0.1-0.2c2.8-2.6,5.1-5.6,6.7-8.9c0-0.1,0.1-0.1,0.1-0.2c0,0,0.1-0.1,0.1-0.1c0,0,0,0,0,0
			c0,0,0.1-0.1,0.1-0.1c0,0,0,0,0,0c0.1,0,0.1,0,0.2-0.1c0,0,0,0,0,0c0.1,0,0.1,0,0.2,0c-0.1,0-0.1,0-0.2,0c0,0,0,0,0,0
			c-0.1,0-0.1,0-0.2,0.1c0,0,0,0,0,0c-0.1,0-0.1,0.1-0.1,0.1c0,0,0,0,0,0c0,0-0.1,0.1-0.1,0.1c0,0,0,0,0,0c0.3-0.4,3.2-4,5.7-3.3
			c1.4,0.4,2.2,1.8,2.6,4.3c0.3,2.3,1.5,3.4,2.5,3.5c0.6,0.1,1-0.3,1.2-0.9c0.4-1.1,0.5-2.2,0.7-3.5c0.1-1,0.3-2,0.6-3
			c0.3-1,0.6-2,1-2.9c0.4-1.2,0.9-2.3,1.1-3.4c0.1-0.7-0.1-1.1-0.6-1.4c-0.9-0.4-2.5,0-3.9,1.9c-1.5,2.1-3,2.9-4.4,2.5
			c-2.5-0.6-3.3-5.1-3.4-5.7c0,0,0,0,0,0c0,0,0,0.1,0,0.1c0,0,0,0,0,0c0,0,0,0.1,0.1,0.1c0,0,0,0,0,0.1c0,0,0,0.1,0.1,0.1
			c0,0,0,0,0,0c0,0,0,0,0,0c0,0,0.1,0,0.1,0.1c0,0,0,0,0.1,0c0,0,0.1,0,0.1,0.1c0,0,0,0,0.1,0c0,0,0.1,0,0.1,0c0,0,0,0,0,0
			c0.1,0,0.1,0,0.2,0c-0.1,0-0.1,0-0.2,0c0,0,0,0,0,0c0,0-0.1,0-0.1,0c0,0,0,0-0.1,0c0,0-0.1,0-0.1-0.1c0,0,0,0-0.1,0
			c0,0-0.1,0-0.1-0.1c0,0,0,0,0,0c0,0,0-0.1-0.1-0.1c0,0,0,0,0-0.1c0,0,0-0.1-0.1-0.1c0,0,0,0,0,0c0,0,0-0.1,0-0.1c0,0,0,0,0,0
			c0-0.1,0-0.1,0-0.2c0.2-3.6-0.3-7.2-1.4-10.6c0.5-0.1,1.1-0.3,1.5-0.5c0,0.1,0,0.1-0.1,0.2c0,0,0,0,0,0c0,0,0,0.1-0.1,0.1
			c0,0,0,0,0,0c0,0,0,0-0.1,0.1c0,0,0,0,0,0c0,0-0.1,0.1-0.1,0.1c0,0,0.1-0.1,0.1-0.1c0,0,0,0,0,0c0,0,0,0,0.1-0.1c0,0,0,0,0,0
			c0,0,0-0.1,0.1-0.1c0,0,0,0,0,0c0-0.1,0.1-0.1,0.1-0.2c0,0,0.1,0,0.1-0.1c1.2,3.6,1.7,7.4,1.5,11.2c0,0,0-0.1,0-0.1v0
			c0-0.1,0-0.1,0-0.2c0,0,0,0,0,0c0,0,0-0.1-0.1-0.1c0,0,0,0,0,0c0,0,0-0.1-0.1-0.1c0,0,0,0,0,0c0,0,0,0,0,0c0,0-0.1,0-0.1-0.1
			c0,0,0,0-0.1,0c0,0-0.1,0-0.1-0.1c0,0,0,0-0.1,0c0,0-0.1,0-0.1,0c0,0,0,0,0,0c-0.1,0-0.1,0-0.2,0c0.1,0,0.1,0,0.2,0c0,0,0,0,0,0
			c0,0,0.1,0,0.1,0c0,0,0,0,0.1,0c0,0,0.1,0,0.1,0.1c0,0,0,0,0.1,0c0,0,0.1,0,0.1,0.1c0,0,0,0,0,0c0,0,0,0.1,0.1,0.1c0,0,0,0,0,0
			c0,0,0,0.1,0.1,0.1c0,0,0,0,0,0c0,0.1,0,0.1,0,0.2v0c0,0.1,0,0.1,0,0.2c0,0,0-0.1,0-0.1c0.3,1.6,1.1,3.9,2.1,4.2
			c0.6,0.2,1.5-0.5,2.5-1.9c2-2.6,4.4-3.1,6-2.4c1.3,0.6,1.9,1.9,1.7,3.3c-0.2,1.3-0.7,2.5-1.1,3.7c-0.3,0.9-0.7,1.8-0.9,2.7
			c-0.2,0.9-0.4,1.9-0.5,2.8c-0.2,1.2-0.4,2.5-0.8,3.8c-0.5,1.4-1.7,2.2-3.1,2.1c-1.7-0.2-3.7-1.8-4.1-5c-0.2-1.7-0.7-2.7-1.3-2.9
			c-1-0.3-2.8,1.4-3.8,2.6c0,0,0-0.1,0-0.1c0,0.1-0.1,0.1-0.1,0.2c0,0-0.1,0.1-0.1,0.1c0,0,0,0,0,0c0,0-0.1,0.1-0.1,0.1c0,0,0,0,0,0
			c-0.1,0-0.1,0-0.2,0.1c0,0,0,0,0,0c-0.1,0-0.1,0-0.2,0c0.1,0,0.1,0,0.2,0c0,0,0,0,0,0c0.1,0,0.1,0,0.2-0.1c0,0,0,0,0,0
			c0.1,0,0.1-0.1,0.1-0.1c0,0,0,0,0,0c0,0,0.1-0.1,0.1-0.1c0,0,0,0,0,0c0,0,0,0,0-0.1c-1.7,3.5-4.1,6.6-7,9.3c0,0,0,0,0,0
			c0.1-0.2,0.2-0.3,0.2-0.5c0,0,0,0,0,0c0,0,0-0.1,0-0.1c0,0,0,0,0,0c0,0,0-0.1,0-0.1c0,0,0,0,0,0c0,0,0-0.1-0.1-0.1
			c0,0,0,0.1,0.1,0.1c0,0,0,0,0,0c0,0,0,0.1,0,0.1c0,0,0,0,0,0c0,0,0,0.1,0,0.1c0,0,0,0,0,0c0,0.2-0.1,0.5-0.3,0.7
			c0,0,0.1-0.1,0.1-0.1c-0.9,1.3-2,3.5-1.5,4.4c0.3,0.5,1.5,0.7,3.1,0.5c3.2-0.5,5.3,1,6,2.6c0.5,1.3,0.1,2.7-1.2,3.5
			c-1.1,0.8-2.3,1.3-3.4,1.8c-0.9,0.4-1.7,0.8-2.6,1.3c-0.8,0.5-1.6,1.1-2.4,1.6c-1,0.8-2.1,1.5-3.2,2.1c-1.3,0.7-2.7,0.4-3.6-0.7
			c-1.1-1.3-1.3-3.8,0.6-6.5c1-1.3,1.4-2.4,1.1-3c-0.5-0.9-3-1-4.6-0.8c0,0,0.1,0,0.1,0c-0.2,0.1-0.5,0.1-0.7-0.1c0,0,0,0,0,0
			c0,0-0.1,0-0.1-0.1c0,0,0,0,0,0c0,0,0,0-0.1-0.1c0,0,0,0,0,0c0,0-0.1-0.1-0.1-0.1c0,0,0.1,0.1,0.1,0.1c0,0,0,0,0,0
			c0,0,0,0,0.1,0.1c0,0,0,0,0,0c0,0,0.1,0,0.1,0.1c0,0,0,0,0,0c0.2,0.1,0.3,0.1,0.5,0.1c0,0,0,0,0,0c-3.7,1.2-7.6,1.8-11.5,1.6
			c0,0,0,0,0.1,0c0.1,0,0.2,0,0.2-0.1l0,0c0,0,0.1,0,0.1-0.1c0,0,0,0,0,0c0,0,0.1,0,0.1-0.1c0,0,0,0,0,0c0,0,0,0,0.1-0.1
			c0,0,0,0,0,0c0,0,0-0.1,0-0.1c0,0,0,0,0,0c0,0,0-0.1,0.1-0.1c0,0,0,0.1-0.1,0.1c0,0,0,0,0,0c0,0,0,0.1,0,0.1c0,0,0,0,0,0
			c0,0,0,0-0.1,0.1c0,0,0,0,0,0c0,0,0,0-0.1,0.1c0,0,0,0,0,0c0,0-0.1,0-0.1,0.1l0,0c-0.1,0.1-0.3,0.1-0.4,0.1c0,0,0.1,0,0.1,0
			c-1.6,0.3-3.9,1.1-4.2,2.1c-0.1,0.6,0.5,1.5,1.9,2.5c2.6,2,3.1,4.4,2.4,6c-0.6,1.3-1.9,1.9-3.3,1.7c-1.3-0.2-2.5-0.7-3.7-1.1
			c-0.9-0.3-1.8-0.7-2.7-0.9c-0.9-0.2-1.9-0.4-2.8-0.5c-1.2-0.2-2.5-0.4-3.8-0.8c-1.4-0.5-2.2-1.7-2.1-3.1c0.2-1.7,1.8-3.7,5-4.1
			c1.7-0.2,2.7-0.7,2.9-1.3c0.3-1-1.4-2.8-2.6-3.8c0,0,0.1,0,0.1,0l0,0c0,0,0.1,0,0.1,0c0,0-0.1,0-0.1,0c0,0,0,0-0.1,0c0,0,0,0,0,0
			c0,0,0,0,0,0c0,0,0,0-0.1,0c0,0,0,0,0,0c0,0,0,0,0,0c0,0,0,0,0-0.1c0,0,0,0,0-0.1c0,0,0,0,0-0.1c0,0,0,0,0-0.1c0,0,0,0,0-0.1
			c0,0,0,0,0-0.1c0,0,0-0.1,0-0.1c0,0,0,0,0,0c0,0,0-0.1,0-0.1c0,0,0,0.1,0,0.1c0,0,0,0,0,0c0,0,0,0.1,0,0.1c0,0,0,0,0,0.1
			c0,0,0,0,0,0.1c0,0,0,0,0,0.1c0,0,0,0,0,0.1c0,0,0,0,0,0.1c0,0,0,0,0,0.1c0,0,0,0,0,0s0,0,0,0c0,0,0,0,0.1,0c0,0,0,0,0,0
			c0,0,0,0,0.1,0c-3.5-1.7-6.6-4.1-9.3-7c0,0,0,0,0,0c0.2,0.1,0.3,0.2,0.5,0.2c0,0,0,0,0,0c0,0,0.1,0,0.1,0l0,0c0,0,0.1,0,0.1,0
			c0,0,0,0,0,0c0,0,0.1,0,0.1-0.1c0,0-0.1,0-0.1,0.1c0,0,0,0,0,0c0,0-0.1,0-0.1,0l0,0c0,0-0.1,0-0.1,0c0,0,0,0,0,0
			c-0.2,0-0.5-0.1-0.6-0.3c0,0,0.1,0.1,0.1,0.1c-1.3-0.9-3.5-2-4.4-1.5c-0.5,0.3-0.7,1.5-0.5,3.1c0.5,3.2-1,5.3-2.6,6
			c-1.3,0.5-2.7,0.1-3.5-1.2c-0.7-1.1-1.3-2.3-1.8-3.4c-0.4-0.9-0.8-1.7-1.3-2.6c-0.5-0.8-1.1-1.6-1.6-2.4c-0.8-1-1.5-2.1-2.1-3.2
			c-0.7-1.3-0.4-2.7,0.7-3.6c1.3-1.1,3.8-1.3,6.5,0.7c1.3,1,2.4,1.4,3,1.1c0.9-0.5,1-3,0.8-4.6c0,0,0,0.1,0,0.1
			c-0.1-0.2-0.1-0.4,0-0.6c0,0,0-0.1,0.1-0.1c0,0,0,0,0,0c0,0,0-0.1,0.1-0.1c0,0,0,0,0,0c0,0,0,0,0.1-0.1c0,0,0,0,0,0
			c0,0,0.1-0.1,0.1-0.1c0,0-0.1,0.1-0.1,0.1c0,0,0,0,0,0c0,0,0,0-0.1,0.1c0,0,0,0,0,0c0,0,0,0.1-0.1,0.1c0,0,0,0,0,0
			c0,0,0,0.1-0.1,0.1c0,0.1-0.1,0.3,0,0.4c0,0,0,0,0,0c-1.2-3.7-1.8-7.6-1.6-11.5c0,0,0,0,0,0.1c0-0.1,0-0.1,0-0.2c0,0,0,0.1,0,0.1
			c-0.3-1.6-1.1-3.9-2.1-4.2c-0.6-0.1-1.5,0.5-2.5,1.9c-2,2.6-4.4,3.1-6,2.4c-1.3-0.6-1.9-1.9-1.7-3.3c0.2-1.3,0.7-2.5,1.1-3.7
			c0.3-0.9,0.7-1.8,0.9-2.7c0.2-0.9,0.4-1.9,0.5-2.8C2.8,35,3,33.7,3.4,32.5c0.5-1.4,1.7-2.2,3.1-2.1c1.7,0.2,3.6,1.8,4.1,5
			c0.2,1.7,0.7,2.7,1.3,2.9c1,0.3,2.8-1.4,3.8-2.6c0,0,0,0.1,0,0.1c0,0,0.1-0.1,0.1-0.1c0,0,0,0,0,0.1c1.7-3.5,4.1-6.6,7-9.3
			c0,0,0,0,0,0c-0.1,0.2-0.2,0.3-0.2,0.5c0,0,0,0,0,0c0,0,0,0.1,0,0.1c0,0,0,0,0,0c0,0,0,0.1,0,0.1c0,0,0,0,0,0c0,0,0,0.1,0.1,0.1
			c0,0,0-0.1-0.1-0.1c0,0,0,0,0,0c0,0,0-0.1,0-0.1c0,0,0,0,0,0c0,0,0-0.1,0-0.1c0,0,0,0,0,0c0-0.2,0.1-0.5,0.3-0.7
			c0,0-0.1,0.1-0.1,0.1c0.9-1.3,2-3.6,1.5-4.4c-0.3-0.5-1.5-0.7-3.1-0.5c-3.3,0.5-5.3-1-6-2.6c-0.5-1.3-0.1-2.7,1.2-3.5
			c1.1-0.7,2.3-1.3,3.4-1.8c0.9-0.4,1.7-0.8,2.6-1.3c0.8-0.5,1.6-1.1,2.4-1.6c1-0.8,2.1-1.5,3.2-2.1c1.3-0.7,2.7-0.4,3.6,0.7
			c1.1,1.3,1.3,3.8-0.7,6.5c-1,1.3-1.4,2.4-1.1,3c0.5,0.9,3,1,4.6,0.8c0,0-0.1,0-0.1,0c0.2-0.1,0.5-0.1,0.7,0.1c0,0,0,0,0,0
			c0,0,0.1,0,0.1,0.1c0,0,0,0,0,0c0,0,0,0,0.1,0.1c0,0,0,0,0,0c0,0,0.1,0.1,0.1,0.1c0,0-0.1-0.1-0.1-0.1c0,0,0,0,0,0
			c0,0,0,0-0.1-0.1c0,0,0,0,0,0c0,0-0.1,0-0.1-0.1c0,0,0,0,0,0c-0.2-0.1-0.3-0.1-0.5-0.1c0,0,0,0,0,0c3.7-1.2,7.6-1.8,11.5-1.6
			c0,0,0,0-0.1,0c-0.1,0-0.1,0-0.2,0c0,0,0,0,0,0c0,0-0.1,0-0.1,0.1c0,0,0,0,0,0c0,0-0.1,0.1-0.1,0.1c0,0,0,0,0,0c0,0,0,0,0,0
			c0,0-0.1,0.1-0.1,0.1c0,0,0,0,0,0.1c0,0,0,0.1-0.1,0.1c0,0,0,0,0,0.1c0,0,0,0.1,0,0.1c0,0,0,0,0,0c0,0.1,0,0.1,0,0.2
			c0-0.1,0-0.1,0-0.2c0,0,0,0,0,0c0,0,0-0.1,0-0.1c0,0,0,0,0-0.1c0,0,0-0.1,0.1-0.1c0,0,0,0,0-0.1c0,0,0-0.1,0.1-0.1c0,0,0,0,0,0
			c0,0,0.1-0.1,0.1-0.1c0,0,0,0,0,0c0,0,0.1,0,0.1-0.1c0,0,0,0,0,0c0.1,0,0.2-0.1,0.3-0.1l-0.1,0c1.6-0.3,3.9-1.1,4.2-2.1
			c0.2-0.6-0.5-1.5-1.9-2.5c-2.6-2-3.1-4.4-2.4-6C46.3,6,47.5,5.4,49,5.6c1.3,0.2,2.5,0.7,3.7,1.1c0.9,0.3,1.8,0.7,2.7,0.9
			c0.9,0.2,1.9,0.4,2.8,0.5C59.5,8.4,60.8,8.6,62,9c1.4,0.5,2.2,1.7,2.1,3.1c-0.2,1.7-1.8,3.6-5,4.1c-1.7,0.2-2.7,0.7-2.9,1.3
			c-0.2,0.6,0.3,1.4,1,2.2c-0.1,0-0.2,0-0.3,0C56.4,19.8,56,19.9,55.6,20.1"/>
		<path id="path942" inkscape:connector-curvature="0" class="st0" d="M45.1,18.5c0,0,0,0.1,0,0.1C45,18.6,45.1,18.5,45.1,18.5"/>
		<path id="path944" inkscape:connector-curvature="0" class="st0" d="M45.6,18c0,0-0.1,0-0.1,0.1C45.5,18,45.5,18,45.6,18"/>
		<path id="path946" inkscape:connector-curvature="0" class="st0" d="M34.9,19.6c-0.2-0.1-0.5-0.1-0.7-0.1c0,0,0.1,0,0.1,0
			c0,0,0,0,0,0C34.6,19.5,34.8,19.6,34.9,19.6"/>
		<path id="path948" inkscape:connector-curvature="0" class="st0" d="M35.1,19.8C35.1,19.8,35.1,19.8,35.1,19.8
			C35.1,19.8,35.1,19.8,35.1,19.8"/>
		<path id="path950" inkscape:connector-curvature="0" class="st0" d="M45.1,18.3C45.1,18.4,45.1,18.4,45.1,18.3
			C45.1,18.4,45.1,18.4,45.1,18.3"/>
		<path id="path952" inkscape:connector-curvature="0" class="st0" d="M45.4,18.1C45.4,18.1,45.3,18.1,45.4,18.1
			C45.3,18.1,45.4,18.1,45.4,18.1"/>
		<path id="path954" inkscape:connector-curvature="0" class="st0" d="M35.2,19.9c0,0,0.1,0.1,0.1,0.1
			C35.2,19.9,35.2,19.9,35.2,19.9"/>
		<path id="path956" inkscape:connector-curvature="0" class="st0" d="M45.3,18.2C45.2,18.2,45.2,18.3,45.3,18.2
			C45.2,18.3,45.2,18.2,45.3,18.2"/>
		<path id="path958" inkscape:connector-curvature="0" class="st0" d="M21.4,72c-0.2,0-0.4-0.1-0.5-0.2c0,0,0,0,0,0
			c0,0-0.1-0.1-0.1-0.1C20.9,71.9,21.1,72,21.4,72"/>
		<path id="path960" inkscape:connector-curvature="0" class="st0" d="M30.1,78.7C30,78.7,30,78.7,30.1,78.7
			C30,78.7,30,78.7,30.1,78.7"/>
		<path id="path962" inkscape:connector-curvature="0" class="st0" d="M29.9,78.5C29.9,78.5,29.8,78.5,29.9,78.5
			C29.8,78.5,29.9,78.5,29.9,78.5"/>
		<path id="path964" inkscape:connector-curvature="0" class="st0" d="M29.8,78.4C29.8,78.4,29.8,78.4,29.8,78.4
			C29.8,78.4,29.8,78.4,29.8,78.4"/>
		<path id="path966" inkscape:connector-curvature="0" class="st0" d="M29.7,78.3C29.7,78.3,29.7,78.3,29.7,78.3
			C29.7,78.3,29.7,78.3,29.7,78.3"/>
		<path id="path968" inkscape:connector-curvature="0" class="st0" d="M43.4,82c-0.1,0-0.2,0.1-0.2,0.1c0,0,0,0-0.1,0
			c0,0-0.1,0-0.1,0C43.1,82.1,43.3,82.1,43.4,82"/>
		<path id="path970" inkscape:connector-curvature="0" class="st0" d="M29.7,78.2C29.7,78.2,29.7,78.2,29.7,78.2
			C29.7,78.2,29.7,78.2,29.7,78.2"/>
		<path id="path972" inkscape:connector-curvature="0" class="st0" d="M43.7,81.9C43.7,81.8,43.7,81.8,43.7,81.9
			C43.7,81.8,43.7,81.8,43.7,81.9"/>
		<path id="path974" inkscape:connector-curvature="0" class="st0" d="M43.6,81.9C43.6,81.9,43.6,81.9,43.6,81.9
			C43.6,81.9,43.6,81.9,43.6,81.9"/>
		<path id="path976" inkscape:connector-curvature="0" class="st0" d="M43.7,81.8C43.8,81.7,43.8,81.7,43.7,81.8
			C43.8,81.7,43.8,81.7,43.7,81.8"/>
		<path id="path978" inkscape:connector-curvature="0" class="st0" d="M43.8,81.6c0,0,0-0.1,0.1-0.1C43.9,81.6,43.8,81.6,43.8,81.6"
			/>
		<path id="path980" inkscape:connector-curvature="0" class="st0" d="M21.4,72c0,0,0.1,0,0.1,0C21.5,72,21.5,72,21.4,72"/>
		<path id="path982" inkscape:connector-curvature="0" class="st0" d="M30.1,78.7C30.1,78.7,30.1,78.7,30.1,78.7
			C30.1,78.8,30.1,78.8,30.1,78.7c0.1,0.1,0.1,0.1,0.1,0.1l0,0C30.1,78.8,30.1,78.8,30.1,78.7C30.1,78.7,30,78.7,30.1,78.7
			C30,78.7,30,78.7,30.1,78.7"/>
		<path id="path984" inkscape:connector-curvature="0" class="st0" d="M30.2,78.8C30.2,78.8,30.2,78.8,30.2,78.8
			C30.2,78.8,30.1,78.8,30.2,78.8C30.1,78.8,30.2,78.8,30.2,78.8"/>
		<path id="path986" inkscape:connector-curvature="0" class="st0" d="M21.6,71.9C21.6,71.9,21.6,71.9,21.6,71.9
			C21.6,71.9,21.6,71.9,21.6,71.9"/>
		<path id="path988" inkscape:connector-curvature="0" class="st0" d="M21.7,71.9c0,0,0.1,0,0.1-0.1C21.8,71.9,21.7,71.9,21.7,71.9"
			/>
		<path id="path990" inkscape:connector-curvature="0" class="st0" d="M30.1,78.8C30.1,78.8,30.1,78.8,30.1,78.8
			C30.2,78.8,30.1,78.8,30.1,78.8C30.1,78.8,30.1,78.8,30.1,78.8"/>
		<path id="path992" inkscape:connector-curvature="0" class="st0" d="M30.1,78.8C30.1,78.8,30.1,78.8,30.1,78.8
			C30.1,78.8,30.1,78.8,30.1,78.8C30.1,78.8,30.1,78.8,30.1,78.8"/>
		<path id="path994" inkscape:connector-curvature="0" class="st0" d="M30.1,78.7C30.1,78.7,30.1,78.7,30.1,78.7
			C30.1,78.8,30.1,78.8,30.1,78.7C30.1,78.7,30.1,78.7,30.1,78.7"/>
		<path id="path996" inkscape:connector-curvature="0" class="st0" d="M30.1,78.7C30.1,78.7,30.1,78.7,30.1,78.7
			C30.1,78.7,30.1,78.7,30.1,78.7C30.1,78.7,30.1,78.7,30.1,78.7"/>
		<path id="path998" inkscape:connector-curvature="0" class="st0" d="M29.9,78.6C29.9,78.6,29.9,78.6,29.9,78.6
			C29.9,78.6,29.9,78.6,29.9,78.6"/>
		<path id="path1000" inkscape:connector-curvature="0" class="st0" d="M15.4,60.7c0,0-0.1,0.1-0.1,0.1
			C15.3,60.7,15.4,60.7,15.4,60.7"/>
		<path id="path1002" inkscape:connector-curvature="0" class="st0" d="M21.5,70.2C21.4,70.2,21.4,70.2,21.5,70.2
			C21.4,70.2,21.4,70.2,21.5,70.2"/>
		<path id="path1004" inkscape:connector-curvature="0" class="st0" d="M15.6,60.4c0.1-0.1,0.1-0.3,0.1-0.5c0,0,0,0.1,0,0.1
			C15.7,60.1,15.7,60.2,15.6,60.4"/>
		<path id="path1006" inkscape:connector-curvature="0" class="st0" d="M15.4,60.7C15.4,60.7,15.4,60.6,15.4,60.7
			C15.4,60.6,15.4,60.7,15.4,60.7"/>
		<path id="path1008" inkscape:connector-curvature="0" class="st0" d="M15.4,60.6C15.5,60.6,15.5,60.6,15.4,60.6
			C15.5,60.6,15.5,60.6,15.4,60.6"/>
		<path id="path1010" inkscape:connector-curvature="0" class="st0" d="M21.4,70.2C21.4,70.2,21.4,70.2,21.4,70.2
			C21.4,70.2,21.4,70.2,21.4,70.2"/>
		<path id="path1012" inkscape:connector-curvature="0" class="st0" d="M15.6,60.4C15.6,60.4,15.6,60.4,15.6,60.4
			C15.6,60.4,15.6,60.4,15.6,60.4"/>
		<path id="path1014" inkscape:connector-curvature="0" class="st0" d="M15.6,60.4C15.6,60.4,15.6,60.4,15.6,60.4
			C15.6,60.4,15.6,60.4,15.6,60.4"/>
		<path id="path1016" inkscape:connector-curvature="0" class="st0" d="M15.5,60.5C15.5,60.5,15.5,60.6,15.5,60.5
			C15.5,60.6,15.5,60.5,15.5,60.5"/>
		<path id="path1018" inkscape:connector-curvature="0" class="st0" d="M24.3,27c0,0.1-0.1,0.3-0.1,0.4c0,0,0,0,0,0.1
			C24.2,27.3,24.2,27.2,24.3,27"/>
		<path id="path1020" inkscape:connector-curvature="0" class="st0" d="M15.6,60.5C15.6,60.5,15.6,60.5,15.6,60.5
			C15.6,60.5,15.6,60.5,15.6,60.5"/>
		<path id="path1022" inkscape:connector-curvature="0" class="st0" d="M21.3,70.2C21.3,70.2,21.3,70.2,21.3,70.2
			C21.3,70.2,21.3,70.2,21.3,70.2"/>
		<path id="path1024" inkscape:connector-curvature="0" class="st0" d="M24.2,26.6c0,0,0-0.1-0.1-0.1C24.2,26.5,24.2,26.6,24.2,26.6
			"/>
		<path id="path1026" inkscape:connector-curvature="0" class="st0" d="M21.3,70.2C21.2,70.2,21.2,70.2,21.3,70.2
			C21.2,70.2,21.2,70.2,21.3,70.2"/>
		<path id="path1028" inkscape:connector-curvature="0" class="st0" d="M42.8,80.4C42.8,80.4,42.8,80.4,42.8,80.4
			C42.8,80.4,42.8,80.4,42.8,80.4"/>
		<path id="path1030" inkscape:connector-curvature="0" class="st0" d="M31.4,77.8C31.4,77.8,31.4,77.8,31.4,77.8
			C31.4,77.8,31.4,77.8,31.4,77.8"/>
		<path id="path1032" inkscape:connector-curvature="0" class="st0" d="M24.2,26.7C24.2,26.7,24.2,26.6,24.2,26.7
			C24.2,26.6,24.2,26.7,24.2,26.7"/>
		<path id="path1034" inkscape:connector-curvature="0" class="st0" d="M31.2,77.5c0,0-0.1-0.1-0.1-0.1
			C31.2,77.4,31.2,77.4,31.2,77.5"/>
		<path id="path1036" inkscape:connector-curvature="0" class="st0" d="M31.4,77.6c0,0.1,0,0.1,0.1,0.2
			C31.4,77.7,31.4,77.7,31.4,77.6"/>
		<path id="path1038" inkscape:connector-curvature="0" class="st0" d="M31.2,77.5C31.2,77.5,31.2,77.5,31.2,77.5
			C31.2,77.5,31.2,77.5,31.2,77.5"/>
		<path id="path1040" inkscape:connector-curvature="0" class="st0" d="M31.4,77.8c0,0.1,0,0.1,0,0.2C31.4,78,31.4,77.9,31.4,77.8"
			/>
		<path id="path1042" inkscape:connector-curvature="0" class="st0" d="M21.1,70.3c0,0-0.1,0-0.1,0.1C21,70.3,21,70.3,21.1,70.3"/>
		<path id="path1044" inkscape:connector-curvature="0" class="st0" d="M21.1,70.3C21.1,70.3,21.1,70.3,21.1,70.3
			C21.1,70.3,21.1,70.3,21.1,70.3"/>
		<path id="path1046" inkscape:connector-curvature="0" class="st0" d="M31.3,77.6C31.3,77.6,31.4,77.6,31.3,77.6
			C31.4,77.6,31.3,77.6,31.3,77.6"/>
		<path id="path1048" inkscape:connector-curvature="0" class="st0" d="M21.2,70.2C21.2,70.2,21.1,70.3,21.2,70.2
			C21.1,70.3,21.2,70.2,21.2,70.2"/>
		<path id="path1050" inkscape:connector-curvature="0" class="st0" d="M21.5,70.2c0.1,0,0.3,0.1,0.4,0.1c0,0,0,0,0.1,0
			C21.8,70.3,21.6,70.2,21.5,70.2"/>
		<path id="path1052" inkscape:connector-curvature="0" class="st0" d="M31.2,77.5c0,0,0.1,0.1,0.1,0.1
			C31.3,77.6,31.3,77.5,31.2,77.5"/>
		<path id="path1054" inkscape:connector-curvature="0" class="st0" d="M34.1,21.2c0.1,0.1,0.3,0.1,0.5,0.1c0,0-0.1,0-0.1,0
			C34.4,21.3,34.2,21.3,34.1,21.2"/>
		<path id="path1056" inkscape:connector-curvature="0" class="st0" d="M46.6,19.3C46.6,19.3,46.6,19.2,46.6,19.3
			C46.6,19.2,46.6,19.3,46.6,19.3"/>
		<path id="path1058" inkscape:connector-curvature="0" class="st0" d="M46.6,19.3C46.6,19.3,46.6,19.3,46.6,19.3
			C46.6,19.3,46.6,19.3,46.6,19.3"/>
		<path id="path1060" inkscape:connector-curvature="0" class="st0" d="M46.2,19.6C46.2,19.6,46.2,19.6,46.2,19.6
			C46.2,19.6,46.2,19.6,46.2,19.6"/>
		<path id="path1062" inkscape:connector-curvature="0" class="st0" d="M46.1,19.7C46.1,19.6,46.1,19.6,46.1,19.7
			C46.1,19.6,46.1,19.6,46.1,19.7"/>
		<path id="path1064" inkscape:connector-curvature="0" class="st0" d="M46.7,19C46.7,19,46.7,19,46.7,19C46.7,19,46.7,19,46.7,19"
			/>
		<path id="path1066" inkscape:connector-curvature="0" class="st0" d="M46.7,19c0-0.1,0-0.1,0-0.2C46.8,18.9,46.7,18.9,46.7,19"/>
		<path id="path1068" inkscape:connector-curvature="0" class="st0" d="M46.7,19.1c0,0,0-0.1,0-0.1C46.7,19.1,46.7,19.1,46.7,19.1"
			/>
		<path id="path1070" inkscape:connector-curvature="0" class="st0" d="M46.2,19.6C46.3,19.6,46.3,19.6,46.2,19.6
			C46.3,19.6,46.3,19.6,46.2,19.6"/>
		<path id="path1072" inkscape:connector-curvature="0" class="st0" d="M46.3,19.6C46.3,19.5,46.4,19.5,46.3,19.6
			C46.4,19.5,46.3,19.5,46.3,19.6"/>
		<path id="path1074" inkscape:connector-curvature="0" class="st0" d="M46.5,19.4C46.5,19.4,46.5,19.4,46.5,19.4
			C46.5,19.4,46.5,19.4,46.5,19.4"/>
		<path id="path1076" inkscape:connector-curvature="0" class="st0" d="M42.8,80.4c0,0-0.1,0-0.1,0C42.7,80.4,42.7,80.4,42.8,80.4"
			/>
		<path id="path1078" inkscape:connector-curvature="0" class="st0" d="M46.5,19.4C46.5,19.4,46.5,19.5,46.5,19.4
			C46.5,19.4,46.5,19.4,46.5,19.4C46.5,19.4,46.5,19.4,46.5,19.4"/>
		<path id="path1080" inkscape:connector-curvature="0" class="st0" d="M46.4,19.5C46.4,19.5,46.4,19.5,46.4,19.5
			C46.4,19.5,46.4,19.5,46.4,19.5"/>
		<path id="path1082" inkscape:connector-curvature="0" class="st0" d="M33.8,21C33.9,21,33.9,21.1,33.8,21
			C33.9,21.1,33.9,21,33.8,21"/>
		<path id="path1084" inkscape:connector-curvature="0" class="st0" d="M33.8,21C33.8,21,33.8,21,33.8,21C33.8,21,33.8,21,33.8,21"
			/>
		<path id="path1086" inkscape:connector-curvature="0" class="st0" d="M24.2,26.8C24.2,26.7,24.2,26.7,24.2,26.8
			C24.2,26.7,24.2,26.7,24.2,26.8"/>
		<path id="path1088" inkscape:connector-curvature="0" class="st0" d="M24.3,27C24.3,26.9,24.3,26.9,24.3,27
			C24.3,26.9,24.3,26.9,24.3,27"/>
		<path id="path1090" inkscape:connector-curvature="0" class="st0" d="M24.3,26.8C24.2,26.8,24.2,26.8,24.3,26.8
			C24.2,26.8,24.2,26.8,24.3,26.8"/>
		<path id="path1092" inkscape:connector-curvature="0" class="st0" d="M24.3,26.9C24.3,26.9,24.3,26.8,24.3,26.9
			C24.3,26.8,24.3,26.9,24.3,26.9"/>
		<path id="path1094" inkscape:connector-curvature="0" class="st0" d="M34,21.1C34,21.1,34,21.1,34,21.1C34,21.1,34,21.1,34,21.1"
			/>
		<path id="path1096" inkscape:connector-curvature="0" class="st0" d="M34.1,21.2C34.1,21.2,34,21.2,34.1,21.2
			C34,21.2,34.1,21.2,34.1,21.2"/>
		<path id="path1098" inkscape:connector-curvature="0" class="st0" d="M34.1,21.2C34.1,21.2,34.1,21.2,34.1,21.2
			C34.1,21.2,34.1,21.2,34.1,21.2"/>
		<path id="path1100" inkscape:connector-curvature="0" class="st0" d="M33.8,21c0,0-0.1-0.1-0.1-0.1C33.8,20.9,33.8,20.9,33.8,21"
			/>
		<path id="path1102" inkscape:connector-curvature="0" class="st0" d="M34,21.1C33.9,21.1,33.9,21.1,34,21.1
			C33.9,21.1,33.9,21.1,34,21.1"/>
		<path id="path1104" inkscape:connector-curvature="0" class="st0" d="M46.1,19.7C46.1,19.7,46,19.7,46.1,19.7
			C46,19.7,46,19.7,46.1,19.7C46,19.7,46.1,19.7,46.1,19.7"/>
		<path id="path1106" inkscape:connector-curvature="0" class="st0" d="M46.7,19.2C46.7,19.2,46.7,19.2,46.7,19.2
			C46.7,19.2,46.7,19.2,46.7,19.2"/>
		<path id="path1108" inkscape:connector-curvature="0" class="st0" d="M71.9,63.2c0,0-0.1,0.1-0.1,0.1
			C71.8,63.3,71.8,63.3,71.9,63.2"/>
		<path id="path1110" inkscape:connector-curvature="0" class="st0" d="M72.2,63.1C72.2,63.1,72.3,63.1,72.2,63.1
			C72.3,63.1,72.2,63.1,72.2,63.1"/>
		<path id="path1112" inkscape:connector-curvature="0" class="st0" d="M72.3,63.1c0.1,0,0.1,0,0.2,0C72.4,63,72.3,63,72.3,63.1"/>
		<path id="path1114" inkscape:connector-curvature="0" class="st0" d="M71.9,63.2C71.9,63.2,71.9,63.2,71.9,63.2
			C71.9,63.2,71.9,63.2,71.9,63.2"/>
		<path id="path1116" inkscape:connector-curvature="0" class="st0" d="M74.8,51.6c0,0,0,0.1,0,0.1C74.8,51.7,74.8,51.7,74.8,51.6"
			/>
		<path id="path1118" inkscape:connector-curvature="0" class="st0" d="M74.8,51.7C74.9,51.8,74.9,51.8,74.8,51.7
			C74.9,51.8,74.9,51.8,74.8,51.7"/>
		<path id="path1120" inkscape:connector-curvature="0" class="st0" d="M72.1,63.1c0.1,0,0.1,0,0.2-0.1
			C72.2,63.1,72.1,63.1,72.1,63.1"/>
		<path id="path1122" inkscape:connector-curvature="0" class="st0" d="M64.7,72.9c0-0.1,0.1-0.2,0.1-0.3c0,0,0,0,0-0.1
			C64.7,72.7,64.7,72.8,64.7,72.9"/>
		<path id="path1124" inkscape:connector-curvature="0" class="st0" d="M64.7,73.4c0,0,0,0.1,0.1,0.1C64.7,73.5,64.7,73.5,64.7,73.4
			"/>
		<path id="path1126" inkscape:connector-curvature="0" class="st0" d="M72,63.1C72.1,63.1,72.1,63.1,72,63.1
			C72.1,63.1,72.1,63.1,72,63.1"/>
		<path id="path1128" inkscape:connector-curvature="0" class="st0" d="M42.7,80.4C42.7,80.5,42.6,80.5,42.7,80.4
			C42.6,80.5,42.7,80.5,42.7,80.4"/>
		<path id="path1130" inkscape:connector-curvature="0" class="st0" d="M74.9,51.8c0,0,0,0.1,0.1,0.1C74.9,51.9,74.9,51.8,74.9,51.8
			"/>
		<path id="path1132" inkscape:connector-curvature="0" class="st0" d="M75.3,52.2C75.3,52.2,75.3,52.2,75.3,52.2
			C75.3,52.2,75.3,52.2,75.3,52.2"/>
		<path id="path1134" inkscape:connector-curvature="0" class="st0" d="M75.5,52.3C75.5,52.3,75.5,52.3,75.5,52.3
			C75.5,52.3,75.5,52.3,75.5,52.3"/>
		<path id="path1136" inkscape:connector-curvature="0" class="st0" d="M75.3,52.3c0,0,0.1,0,0.1,0C75.4,52.3,75.4,52.3,75.3,52.3"
			/>
		<path id="path1138" inkscape:connector-curvature="0" class="st0" d="M75.5,52.3c0.1,0,0.1,0,0.2,0C75.6,52.3,75.6,52.3,75.5,52.3
			"/>
		<path id="path1140" inkscape:connector-curvature="0" class="st0" d="M64.7,73.4C64.7,73.4,64.7,73.4,64.7,73.4
			C64.7,73.4,64.7,73.4,64.7,73.4"/>
		<path id="path1142" inkscape:connector-curvature="0" class="st0" d="M74.8,51.6C74.8,51.6,74.8,51.6,74.8,51.6
			C74.8,51.6,74.8,51.6,74.8,51.6L74.8,51.6"/>
		<path id="path1144" inkscape:connector-curvature="0" class="st0" d="M74.9,51.9C74.9,51.9,74.9,51.9,74.9,51.9
			C74.9,51.9,74.9,51.9,74.9,51.9"/>
		<path id="path1146" inkscape:connector-curvature="0" class="st0" d="M75,52C75,52,75,52,75,52C75,52,75.1,52.1,75,52
			C75.1,52.1,75,52.1,75,52"/>
		<path id="path1148" inkscape:connector-curvature="0" class="st0" d="M75,51.9C75,52,75,52,75,51.9C75,52,75,52,75,51.9"/>
		<path id="path1150" inkscape:connector-curvature="0" class="st0" d="M75.2,52.2C75.2,52.2,75.3,52.2,75.2,52.2
			C75.3,52.2,75.2,52.2,75.2,52.2"/>
		<path id="path1152" inkscape:connector-curvature="0" class="st0" d="M75.1,52.1C75.2,52.2,75.2,52.2,75.1,52.1
			C75.2,52.2,75.2,52.2,75.1,52.1"/>
		<path id="path1154" inkscape:connector-curvature="0" class="st0" d="M75.1,52.1C75.1,52.1,75.1,52.1,75.1,52.1
			C75.1,52.1,75.1,52.1,75.1,52.1"/>
		<path id="path1156" inkscape:connector-curvature="0" class="st0" d="M71.9,63.2c0,0,0.1-0.1,0.1-0.1C72,63.2,71.9,63.2,71.9,63.2
			"/>
		<path id="path1158" inkscape:connector-curvature="0" class="st0" d="M42.3,80.8C42.3,80.8,42.3,80.8,42.3,80.8
			C42.3,80.8,42.3,80.8,42.3,80.8"/>
		<path id="path1160" inkscape:connector-curvature="0" class="st0" d="M42.3,80.7C42.3,80.7,42.3,80.8,42.3,80.7
			C42.3,80.8,42.3,80.7,42.3,80.7"/>
		<path id="path1162" inkscape:connector-curvature="0" class="st0" d="M42.3,80.8c0,0,0,0.1-0.1,0.1C42.2,80.9,42.2,80.9,42.3,80.8
			"/>
		<path id="path1164" inkscape:connector-curvature="0" class="st0" d="M54.9,78.9C54.9,78.9,54.9,78.9,54.9,78.9
			C54.9,78.9,54.9,78.9,54.9,78.9"/>
		<path id="path1166" inkscape:connector-curvature="0" class="st0" d="M42.4,80.7C42.3,80.7,42.3,80.7,42.4,80.7
			C42.3,80.7,42.3,80.7,42.4,80.7"/>
		<path id="path1168" inkscape:connector-curvature="0" class="st0" d="M54.8,78.9C54.8,78.9,54.9,78.9,54.8,78.9
			C54.9,78.9,54.8,78.9,54.8,78.9"/>
		<path id="path1170" inkscape:connector-curvature="0" class="st0" d="M54.8,78.8C54.8,78.8,54.8,78.9,54.8,78.8
			C54.8,78.9,54.8,78.8,54.8,78.8"/>
		<path id="path1172" inkscape:connector-curvature="0" class="st0" d="M42.6,80.5C42.6,80.5,42.6,80.5,42.6,80.5
			C42.6,80.5,42.6,80.5,42.6,80.5"/>
		<path id="path1174" inkscape:connector-curvature="0" class="st0" d="M42.6,80.5C42.5,80.5,42.5,80.5,42.6,80.5
			C42.5,80.5,42.5,80.5,42.6,80.5"/>
		<path id="path1176" inkscape:connector-curvature="0" class="st0" d="M42.5,80.6C42.4,80.6,42.4,80.6,42.5,80.6
			C42.4,80.6,42.4,80.6,42.5,80.6"/>
		<path id="path1178" inkscape:connector-curvature="0" class="st0" d="M42.4,80.6C42.4,80.6,42.4,80.7,42.4,80.6
			C42.4,80.7,42.4,80.6,42.4,80.6"/>
		<path id="path1180" inkscape:connector-curvature="0" class="st0" d="M42.5,80.5C42.5,80.6,42.5,80.6,42.5,80.5
			C42.5,80.6,42.5,80.6,42.5,80.5"/>
		<path id="path1182" inkscape:connector-curvature="0" class="st0" d="M64.7,73.2C64.7,73.2,64.7,73.3,64.7,73.2
			C64.7,73.3,64.7,73.2,64.7,73.2"/>
		<path id="path1184" inkscape:connector-curvature="0" class="st0" d="M64.7,73.2C64.7,73.2,64.7,73.2,64.7,73.2
			C64.7,73.2,64.7,73.2,64.7,73.2"/>
		<path id="path1186" inkscape:connector-curvature="0" class="st0" d="M64.7,73C64.7,73,64.7,73.1,64.7,73
			C64.7,73.1,64.7,73,64.7,73"/>
		<path id="path1188" inkscape:connector-curvature="0" class="st0" d="M54.9,78.9C55,78.9,55,79,54.9,78.9C55,79,55,78.9,54.9,78.9
			"/>
		<path id="path1190" inkscape:connector-curvature="0" class="st0" d="M64.7,73.3C64.7,73.3,64.7,73.3,64.7,73.3
			C64.7,73.3,64.7,73.3,64.7,73.3"/>
		<path id="path1192" inkscape:connector-curvature="0" class="st0" d="M64.7,72.9C64.7,73,64.7,73,64.7,72.9
			C64.7,73,64.7,73,64.7,72.9"/>
		<path id="path1194" inkscape:connector-curvature="0" class="st0" d="M64.7,73.1C64.7,73.1,64.7,73.1,64.7,73.1
			C64.7,73.1,64.7,73.1,64.7,73.1"/>
		<path id="path1196" inkscape:connector-curvature="0" class="st0" d="M55.1,79.1C55.1,79.1,55.1,79,55.1,79.1
			C55.1,79,55.1,79.1,55.1,79.1"/>
		<path id="path1198" inkscape:connector-curvature="0" class="st0" d="M55.1,79C55,79,55,79,55.1,79C55,79,55,79,55.1,79"/>
		<path id="path1200" inkscape:connector-curvature="0" class="st0" d="M54.8,78.8c-0.1-0.1-0.3-0.1-0.5-0.1c0,0,0,0,0.1,0
			C54.5,78.8,54.7,78.8,54.8,78.8"/>
		<path id="path1202" inkscape:connector-curvature="0" class="st0" d="M55.1,79.1c0,0,0.1,0.1,0.1,0.1
			C55.1,79.1,55.1,79.1,55.1,79.1"/>
		<path id="path1204" inkscape:connector-curvature="0" class="st1" d="M41.6,24.3c-12.9,1.4-23,12.4-23,25.7
			c0,14.3,11.6,25.9,25.9,25.9c14.3,0,25.9-11.6,25.9-25.9c0-3.4-0.7-6.7-1.9-9.7c0.4,0.2,0.7,0.3,1.1,0.4c0.3,0.1,0.7,0.2,1,0.2
			c1,2.9,1.6,5.9,1.6,9.1c0,15.2-12.4,27.6-27.6,27.6c-15.2,0-27.6-12.4-27.6-27.6c0-14.7,11.5-26.7,26-27.6c0,0.1-0.1,0.1-0.1,0.2
			C42.2,23.1,41.9,23.7,41.6,24.3"/>
		<path id="path1206" inkscape:connector-curvature="0" class="st1" d="M20.2,47.8l22.3-10.5c0.2,0.3,0.4,0.5,0.6,0.7
			c0.2,0.2,0.4,0.4,0.6,0.6L22.2,48.8l-2.4,0L20.2,47.8"/>
		<path id="path1208" inkscape:connector-curvature="0" class="st1" d="M19.2,49.2c-0.2-0.2-0.4-0.4-0.7-0.4l1.3,0L19.2,50
			C19.4,49.7,19.3,49.4,19.2,49.2"/>
		<path id="path1210" inkscape:connector-curvature="0" class="st1" d="M26.7,32.7l-0.2,0.5l-0.5,0C26.3,33.2,26.6,33,26.7,32.7"/>
		<path id="path1212" inkscape:connector-curvature="0" class="st1" d="M71.2,49.6c0.5,0,0.9,0.4,0.9,0.9c0,0.5-0.4,0.9-0.9,0.9
			l-52.6-0.8l3.6-1.7L71.2,49.6"/>
		<path id="path1214" inkscape:connector-curvature="0" class="st1" d="M26.5,33.2l0.2-0.5c-0.1,0.3-0.4,0.5-0.7,0.5L26.5,33.2
			l-6.4,14.6L17.8,49L25.1,32c0.1-0.3,0.4-0.5,0.7-0.5l14.5-1.2c0,0.6,0,1.2,0.1,1.7L26.5,33.2"/>
		<path id="path1216" inkscape:connector-curvature="0" class="st1" d="M17.7,50.1c0.2,0.2,0.4,0.4,0.7,0.4l0.2,0l-0.4,0.2
			c-0.4,0.2-1,0-1.2-0.4c-0.2-0.4,0-1,0.4-1.2l0.4-0.2l-0.1,0.3C17.5,49.5,17.5,49.9,17.7,50.1"/>
		<path id="path1218" inkscape:connector-curvature="0" class="st1" d="M19.8,48.8l-1.3,0c0.3,0,0.6,0.2,0.7,0.4
			c0.2,0.2,0.2,0.6,0.1,0.8L19.8,48.8l2.4,0l-3.6,1.7l-0.2,0c-0.3,0-0.6-0.2-0.7-0.4c-0.2-0.3-0.2-0.6-0.1-0.8l0.1-0.3l2.4-1.1
			L19.8,48.8"/>
		<path id="path1220" inkscape:connector-curvature="0" class="st1" d="M40.4,31.4L20.6,43.1l-1.4-0.7c0.3,0.1,0.5,0.4,0.5,0.8
			c0,0.3-0.2,0.6-0.4,0.8l1.4-0.8l44.6,23.4c0.4,0.2,0.6,0.8,0.4,1.2c-0.2,0.4-0.8,0.6-1.2,0.4l-46-24.1c-0.3-0.1-0.5-0.4-0.5-0.8
			c0-0.3,0.2-0.6,0.4-0.8l22-13c0,0.2,0,0.4,0,0.7C40.4,30.5,40.4,31,40.4,31.4"/>
		<path id="path1222" inkscape:connector-curvature="0" class="st1" d="M19.7,43.1c0-0.3-0.2-0.6-0.5-0.8l1.4,0.7l-1.4,0.8
			C19.6,43.7,19.7,43.4,19.7,43.1"/>
		<path id="path1224" inkscape:connector-curvature="0" class="st1" d="M43.8,38.7L28.3,70.9c-0.2,0.4-0.7,0.6-1.1,0.4
			c-0.4-0.2-0.7-0.6-0.6-1l11.7-46.5c0.1-0.5,0.6-0.8,1.1-0.6c0.5,0.1,0.8,0.6,0.6,1.1l-9.6,38.2l-3.7,7.8c0.2-0.4,0.7-0.6,1.1-0.4
			c0.4,0.2,0.7,0.6,0.6,1l2.1-8.4l12-25c0.2,0.2,0.4,0.5,0.6,0.7C43.3,38.3,43.5,38.5,43.8,38.7"/>
		<path id="path1226" inkscape:connector-curvature="0" class="st1" d="M27.8,69.7c-0.4-0.2-0.9,0-1.1,0.4l3.7-7.8l-2.1,8.4
			C28.5,70.3,28.2,69.9,27.8,69.7"/>
		<path id="path1228" inkscape:connector-curvature="0" class="st1" d="M20.5,59.9c-0.3-0.2-0.7-0.1-1,0.1l2-1.9L21,60.9
			C21,60.5,20.9,60.1,20.5,59.9"/>
		<path id="path1230" inkscape:connector-curvature="0" class="st1" d="M44.4,39.2L20.7,61.4c-0.3,0.3-0.7,0.3-1,0.1
			c-0.3-0.2-0.5-0.6-0.4-0.9L25,32.2c0.1-0.5,0.6-0.8,1-0.7c0.5,0.1,0.8,0.6,0.7,1l-5.2,25.6l-2,1.9c0.3-0.3,0.7-0.3,1-0.1
			c0.3,0.2,0.5,0.6,0.4,0.9l0.6-2.7l21.6-20.1C43.5,38.5,43.9,38.9,44.4,39.2"/>
		<path id="path1232" inkscape:connector-curvature="0" class="st1" d="M28.2,71c-0.3,0.4-0.8,0.5-1.2,0.2c-0.4-0.3-0.5-0.8-0.2-1.2
			l19.8-29.7c0.6,0.2,1.2,0.4,1.8,0.5L28.2,71"/>
		<path id="path1234" inkscape:connector-curvature="0" d="M54.2,25.7c0-0.2,0-0.3,0-0.4c0-0.1,0-0.2-0.1-0.3c0-0.1-0.1-0.2-0.1-0.2
			c0-0.1-0.1-0.2-0.2-0.3s-0.3-0.3-0.6-0.4c-0.3-0.2-0.6-0.3-1-0.5c-0.4-0.1-0.8-0.3-1.2-0.3c-0.4-0.1-0.9-0.1-1.3-0.1
			c-0.9,0-1.8,0.2-2.5,0.5c-0.7,0.3-1.3,0.8-1.8,1.3c-0.5,0.6-0.9,1.3-1.1,2.2c-0.3,0.9-0.4,1.8-0.4,3c0,1.3,0.2,2.4,0.5,3.3
			c0.3,0.9,0.7,1.7,1.3,2.3c0.5,0.6,1.2,1,1.9,1.3c0.7,0.3,1.5,0.4,2.4,0.4c0.4,0,0.8,0,1.2-0.1c0.4-0.1,0.7-0.2,1.1-0.3
			s0.6-0.3,0.9-0.4c0.3-0.2,0.4-0.3,0.6-0.4c0.1-0.1,0.2-0.2,0.2-0.3c0-0.1,0.1-0.1,0.1-0.2c0-0.1,0-0.2,0.1-0.3c0-0.1,0-0.3,0-0.4
			c0-0.4,0-0.6-0.1-0.8c-0.1-0.1-0.2-0.2-0.3-0.2c-0.1,0-0.3,0.1-0.5,0.2c-0.2,0.2-0.4,0.3-0.7,0.5c-0.3,0.2-0.6,0.4-1,0.5
			c-0.4,0.2-0.9,0.2-1.4,0.2c-1.1,0-2-0.4-2.6-1.3c-0.6-0.9-0.9-2.1-0.9-3.8c0-0.8,0.1-1.6,0.2-2.2c0.2-0.6,0.4-1.1,0.7-1.6
			c0.3-0.4,0.7-0.7,1.1-0.9c0.4-0.2,1-0.3,1.5-0.3c0.5,0,1,0.1,1.4,0.3c0.4,0.2,0.8,0.4,1.1,0.6c0.3,0.2,0.6,0.4,0.8,0.6
			s0.4,0.3,0.5,0.3c0.1,0,0.1,0,0.2-0.1c0.1,0,0.1-0.1,0.1-0.2c0-0.1,0.1-0.2,0.1-0.3C54.2,26.1,54.2,25.9,54.2,25.7"/>
		<path id="path1236" inkscape:connector-curvature="0" d="M76,23.7c0-0.1,0-0.1-0.1-0.2c0-0.1-0.1-0.1-0.2-0.1s-0.2-0.1-0.4-0.1
			c-0.2,0-0.3,0-0.6,0c-0.2,0-0.4,0-0.6,0c-0.2,0-0.3,0-0.4,0.1c-0.1,0-0.2,0.1-0.2,0.1c0,0.1-0.1,0.1-0.1,0.2v7.9
			c0,0.6-0.1,1-0.1,1.5c-0.1,0.4-0.3,0.8-0.5,1.2s-0.5,0.6-0.8,0.7c-0.3,0.2-0.7,0.3-1.1,0.3c-0.5,0-1.1-0.2-1.6-0.6
			c-0.6-0.4-1.2-1-1.8-1.9v-9c0-0.1,0-0.1-0.1-0.2c0-0.1-0.1-0.1-0.2-0.1s-0.2-0.1-0.4-0.1c-0.2,0-0.3,0-0.6,0c-0.2,0-0.4,0-0.6,0
			c-0.2,0-0.3,0-0.4,0.1c-0.1,0-0.2,0.1-0.2,0.1c0,0.1,0,0.1,0,0.2v7.9c0,0.6-0.1,1-0.2,1.5c-0.1,0.4-0.3,0.8-0.5,1.2
			S64,34.8,63.7,35c-0.3,0.2-0.7,0.3-1.1,0.3c-0.5,0-1.1-0.2-1.7-0.6c-0.6-0.4-1.2-1-1.8-1.9v-9c0-0.1,0-0.1-0.1-0.2
			c0-0.1-0.1-0.1-0.2-0.1s-0.2-0.1-0.4-0.1c-0.2,0-0.4,0-0.6,0c-0.2,0-0.4,0-0.6,0c-0.2,0-0.3,0-0.4,0.1c-0.1,0-0.2,0.1-0.2,0.1
			c0,0.1,0,0.1,0,0.2v13c0,0.1,0,0.1,0,0.2c0,0.1,0.1,0.1,0.2,0.1s0.2,0.1,0.3,0.1c0.1,0,0.3,0,0.5,0c0.2,0,0.4,0,0.5,0
			c0.1,0,0.3,0,0.3-0.1c0.1,0,0.1-0.1,0.2-0.1c0,0,0.1-0.1,0.1-0.2V35c0.7,0.8,1.4,1.4,2.1,1.8c0.7,0.4,1.4,0.6,2.1,0.6
			c0.5,0,1-0.1,1.4-0.2c0.4-0.1,0.8-0.3,1.1-0.5c0.3-0.2,0.6-0.5,0.8-0.8c0.2-0.3,0.4-0.7,0.6-1c0.4,0.5,0.8,0.9,1.2,1.2
			c0.4,0.3,0.8,0.6,1.1,0.8c0.4,0.2,0.7,0.3,1.1,0.4c0.3,0.1,0.7,0.1,1,0.1c0.8,0,1.5-0.1,2.1-0.4c0.6-0.3,1-0.7,1.4-1.2
			c0.3-0.5,0.6-1.1,0.7-1.7c0.2-0.7,0.2-1.4,0.2-2.1L76,23.7"/>
		<path id="path1238" inkscape:connector-curvature="0" d="M98.9,23.7c0-0.1,0-0.1-0.1-0.2c0-0.1-0.1-0.1-0.2-0.1
			c-0.1,0-0.2-0.1-0.4-0.1c-0.2,0-0.3,0-0.6,0c-0.2,0-0.4,0-0.6,0c-0.2,0-0.3,0-0.4,0.1c-0.1,0-0.2,0.1-0.2,0.1
			c0,0.1-0.1,0.1-0.1,0.2v7.9c0,0.6-0.1,1-0.1,1.5c-0.1,0.4-0.3,0.8-0.5,1.2s-0.5,0.6-0.8,0.7c-0.3,0.2-0.7,0.3-1.2,0.3
			c-0.5,0-1.1-0.2-1.6-0.6s-1.2-1-1.8-1.9v-9c0-0.1,0-0.1-0.1-0.2c0-0.1-0.1-0.1-0.2-0.1c-0.1,0-0.2-0.1-0.4-0.1c-0.2,0-0.3,0-0.6,0
			c-0.2,0-0.4,0-0.6,0c-0.2,0-0.3,0-0.4,0.1c-0.1,0-0.2,0.1-0.2,0.1c0,0.1-0.1,0.1-0.1,0.2v7.9c0,0.6-0.1,1-0.2,1.5
			c-0.1,0.4-0.3,0.8-0.5,1.2S87,34.8,86.7,35c-0.3,0.2-0.7,0.3-1.1,0.3c-0.5,0-1.1-0.2-1.7-0.6s-1.2-1-1.8-1.9v-9
			c0-0.1,0-0.1-0.1-0.2c0-0.1-0.1-0.1-0.2-0.1c-0.1,0-0.2-0.1-0.4-0.1c-0.2,0-0.4,0-0.6,0c-0.2,0-0.4,0-0.6,0c-0.2,0-0.3,0-0.4,0.1
			c-0.1,0-0.2,0.1-0.2,0.1c0,0.1-0.1,0.1-0.1,0.2v13c0,0.1,0,0.1,0,0.2c0,0.1,0.1,0.1,0.2,0.1s0.2,0.1,0.3,0.1c0.1,0,0.3,0,0.5,0
			c0.2,0,0.4,0,0.5,0c0.1,0,0.2,0,0.3-0.1c0.1,0,0.1-0.1,0.2-0.1c0,0,0.1-0.1,0.1-0.2V35c0.7,0.8,1.4,1.4,2.1,1.8
			c0.7,0.4,1.4,0.6,2.1,0.6c0.5,0,1-0.1,1.4-0.2c0.4-0.1,0.8-0.3,1.1-0.5c0.3-0.2,0.6-0.5,0.8-0.8c0.2-0.3,0.4-0.7,0.6-1
			c0.4,0.5,0.8,0.9,1.2,1.2c0.4,0.3,0.8,0.6,1.1,0.8c0.4,0.2,0.7,0.3,1.1,0.4c0.3,0.1,0.7,0.1,1,0.1c0.8,0,1.5-0.1,2.1-0.4
			c0.6-0.3,1-0.7,1.4-1.2c0.4-0.5,0.6-1.1,0.8-1.7c0.1-0.7,0.2-1.4,0.2-2.1L98.9,23.7"/>
		<path id="path1240" inkscape:connector-curvature="0" d="M105,23.7c0-0.1,0-0.1-0.1-0.2c0-0.1-0.1-0.1-0.2-0.1s-0.2-0.1-0.4-0.1
			c-0.2,0-0.4,0-0.6,0c-0.2,0-0.4,0-0.6,0c-0.2,0-0.3,0-0.4,0.1c-0.1,0-0.2,0.1-0.2,0.1c0,0.1-0.1,0.1-0.1,0.2v13
			c0,0.1,0,0.1,0.1,0.2c0,0.1,0.1,0.1,0.2,0.1c0.1,0,0.2,0.1,0.4,0.1c0.2,0,0.3,0,0.6,0c0.2,0,0.4,0,0.6,0c0.2,0,0.3,0,0.4-0.1
			c0.1,0,0.1-0.1,0.2-0.1c0-0.1,0.1-0.1,0.1-0.2V23.7z M105.3,41c0-0.6-0.1-0.9-0.3-1.1c-0.2-0.2-0.6-0.3-1.2-0.3
			c-0.6,0-0.9,0.1-1.1,0.3c-0.2,0.2-0.3,0.6-0.3,1.1c0,0.6,0.1,0.9,0.3,1.1c0.2,0.2,0.6,0.3,1.2,0.3c0.6,0,0.9-0.1,1.1-0.3
			C105.2,42,105.3,41.6,105.3,41"/>
		<path id="path1242" inkscape:connector-curvature="0" d="M117.5,32.8c-0.6,0.8-1.3,1.4-1.9,1.8c-0.6,0.4-1.2,0.6-1.9,0.6
			c-0.6,0-1.1-0.1-1.5-0.4c-0.4-0.3-0.8-0.7-1-1.1c-0.3-0.5-0.5-1-0.6-1.6c-0.1-0.6-0.2-1.2-0.2-1.8c0-0.7,0-1.3,0.1-1.9
			c0.1-0.6,0.3-1.2,0.5-1.7c0.2-0.5,0.6-0.9,1-1.2c0.4-0.3,0.9-0.4,1.6-0.4c0.3,0,0.6,0,0.9,0.1s0.6,0.2,0.9,0.4
			c0.3,0.2,0.6,0.5,1,0.8c0.3,0.3,0.7,0.7,1.1,1.2V32.8z M119.9,23.7c0-0.1,0-0.1-0.1-0.2c0-0.1-0.1-0.1-0.2-0.1
			c-0.1,0-0.2-0.1-0.3-0.1c-0.1,0-0.3,0-0.5,0c-0.2,0-0.4,0-0.5,0c-0.1,0-0.2,0-0.3,0.1c-0.1,0-0.1,0.1-0.2,0.1
			c0,0.1-0.1,0.1-0.1,0.2v1.7c-0.7-0.7-1.4-1.3-2.1-1.7c-0.7-0.4-1.5-0.6-2.4-0.6c-0.9,0-1.8,0.2-2.4,0.5c-0.7,0.4-1.2,0.9-1.6,1.5
			c-0.4,0.6-0.7,1.4-0.9,2.2c-0.2,0.8-0.3,1.7-0.3,2.7c0,1.1,0.1,2.1,0.4,3c0.2,0.9,0.6,1.7,1.1,2.3c0.5,0.6,1.1,1.1,1.7,1.5
			c0.7,0.3,1.5,0.5,2.4,0.5c0.8,0,1.4-0.2,2.1-0.5c0.6-0.3,1.3-0.8,1.9-1.5v7.5c0,0.1,0,0.1,0,0.2c0,0.1,0.1,0.1,0.2,0.1
			c0.1,0,0.2,0.1,0.4,0.1c0.1,0,0.3,0,0.6,0c0.2,0,0.4,0,0.6,0c0.2,0,0.3-0.1,0.4-0.1c0.1,0,0.2-0.1,0.2-0.1c0-0.1,0.1-0.1,0.1-0.2
			V23.7"/>
		<g id="g1244" transform="translate(13.5,95.024094)">
			<path id="path1246" inkscape:connector-curvature="0" class="st2" d="M123.7-0.1v-89.4"/>
		</g>
		<path id="path1248" inkscape:connector-curvature="0" d="M160.4,77.8c0-0.1,0-0.2,0-0.3s0-0.2,0-0.2c0-0.1,0-0.1,0-0.1
			c0,0-0.1-0.1-0.1-0.1c-0.1-0.1-0.2-0.1-0.3-0.2c-0.1-0.1-0.3-0.1-0.5-0.2c-0.2-0.1-0.4-0.1-0.6-0.2s-0.4-0.1-0.6-0.1
			c-0.5,0-0.9,0.1-1.3,0.2s-0.7,0.4-1,0.7s-0.5,0.7-0.6,1.1c-0.1,0.4-0.2,0.9-0.2,1.5c0,0.6,0.1,1.2,0.2,1.7s0.4,0.9,0.7,1.2
			c0.3,0.3,0.6,0.5,1,0.7c0.4,0.2,0.8,0.2,1.3,0.2c0.2,0,0.4,0,0.6-0.1c0.2,0,0.4-0.1,0.5-0.1c0.2-0.1,0.3-0.1,0.4-0.2
			c0.1-0.1,0.2-0.1,0.3-0.2c0.1-0.1,0.1-0.1,0.1-0.1c0,0,0-0.1,0.1-0.1c0-0.1,0-0.1,0-0.2c0-0.1,0-0.2,0-0.3c0-0.3,0-0.5-0.1-0.6
			c0-0.1-0.1-0.2-0.2-0.2c-0.1,0-0.2,0-0.3,0.1c-0.1,0.1-0.2,0.1-0.3,0.2c-0.1,0.1-0.3,0.2-0.4,0.2c-0.2,0.1-0.4,0.1-0.6,0.1
			c-0.5,0-0.8-0.2-1.1-0.5c-0.3-0.4-0.4-0.9-0.4-1.6c0-0.3,0-0.7,0.1-0.9c0.1-0.3,0.2-0.5,0.3-0.7c0.1-0.2,0.3-0.3,0.5-0.4
			c0.2-0.1,0.4-0.1,0.6-0.1c0.3,0,0.5,0,0.6,0.1c0.2,0.1,0.3,0.2,0.5,0.3c0.1,0.1,0.2,0.2,0.3,0.2c0.1,0.1,0.2,0.1,0.2,0.1
			c0,0,0.1,0,0.1,0c0,0,0.1-0.1,0.1-0.1c0-0.1,0-0.1,0-0.3C160.3,78.1,160.4,78,160.4,77.8L160.4,77.8z"/>
		<path id="path1250" inkscape:connector-curvature="0" d="M167.6,80.2c0-0.2-0.1-0.4-0.1-0.5c-0.1-0.1-0.2-0.2-0.4-0.2h-3.9
			c0-0.3,0-0.5,0.1-0.7c0.1-0.2,0.2-0.4,0.3-0.6c0.1-0.2,0.3-0.3,0.5-0.4c0.2-0.1,0.5-0.1,0.8-0.1c0.3,0,0.6,0,0.8,0.1
			c0.2,0,0.4,0.1,0.6,0.2c0.2,0.1,0.3,0.1,0.4,0.1c0.1,0,0.2,0.1,0.3,0.1c0,0,0.1,0,0.1,0c0,0,0.1,0,0.1-0.1c0,0,0-0.1,0-0.2
			c0-0.1,0-0.2,0-0.3c0-0.1,0-0.2,0-0.3c0-0.1,0-0.1,0-0.2c0-0.1,0-0.1,0-0.1c0,0,0-0.1-0.1-0.1c0,0-0.1-0.1-0.3-0.1
			c-0.1-0.1-0.3-0.1-0.5-0.2c-0.2-0.1-0.5-0.1-0.7-0.1c-0.3,0-0.6-0.1-0.9-0.1c-0.6,0-1.1,0.1-1.5,0.2c-0.4,0.1-0.8,0.4-1.1,0.7
			s-0.5,0.7-0.6,1.1c-0.1,0.4-0.2,1-0.2,1.6c0,0.6,0.1,1.1,0.2,1.5c0.1,0.5,0.4,0.8,0.6,1.2c0.3,0.3,0.6,0.6,1,0.7
			c0.4,0.2,0.9,0.3,1.4,0.3c0.5,0,1-0.1,1.4-0.2c0.4-0.2,0.7-0.4,0.9-0.7c0.2-0.3,0.4-0.6,0.5-1c0.1-0.4,0.2-0.8,0.2-1.3L167.6,80.2
			z M165.8,80.7c0,0.5-0.1,0.9-0.3,1.2c-0.2,0.3-0.6,0.4-1,0.4c-0.2,0-0.4,0-0.6-0.1c-0.2-0.1-0.3-0.2-0.4-0.4
			c-0.1-0.1-0.2-0.3-0.3-0.5c-0.1-0.2-0.1-0.4-0.1-0.6L165.8,80.7z"/>
		<path id="path1252" inkscape:connector-curvature="0" d="M175.2,76.8c0-0.1,0-0.1,0-0.1c0,0-0.1-0.1-0.1-0.1c-0.1,0-0.2,0-0.3-0.1
			c-0.1,0-0.3,0-0.4,0c-0.2,0-0.3,0-0.4,0c-0.1,0-0.2,0-0.3,0.1c-0.1,0-0.1,0.1-0.1,0.1c0,0,0,0.1,0,0.1v3.7c0,0.3,0,0.6-0.1,0.7
			c0,0.2-0.1,0.3-0.2,0.5c-0.1,0.1-0.2,0.2-0.3,0.3c-0.1,0.1-0.3,0.1-0.5,0.1c-0.2,0-0.5-0.1-0.7-0.3c-0.2-0.2-0.5-0.4-0.7-0.7v-4.3
			c0-0.1,0-0.1,0-0.1c0,0-0.1-0.1-0.1-0.1c-0.1,0-0.2,0-0.3-0.1c-0.1,0-0.3,0-0.4,0c-0.2,0-0.3,0-0.4,0c-0.1,0-0.2,0-0.3,0.1
			c-0.1,0-0.1,0.1-0.1,0.1c0,0,0,0.1,0,0.1v6.4c0,0.1,0,0.1,0,0.1c0,0,0.1,0.1,0.1,0.1c0.1,0,0.1,0,0.2,0.1c0.1,0,0.2,0,0.4,0
			c0.2,0,0.3,0,0.4,0c0.1,0,0.2,0,0.2-0.1c0.1,0,0.1-0.1,0.1-0.1c0,0,0-0.1,0-0.1v-0.7c0.4,0.4,0.7,0.7,1.1,0.9
			c0.4,0.2,0.8,0.3,1.1,0.3c0.4,0,0.8-0.1,1.1-0.2c0.3-0.1,0.5-0.3,0.7-0.6c0.2-0.2,0.3-0.5,0.4-0.9s0.1-0.7,0.1-1.2L175.2,76.8z"/>
		<path id="path1254" inkscape:connector-curvature="0" d="M180.6,77.4c0-0.2,0-0.4,0-0.5c0-0.1-0.1-0.2-0.1-0.2
			c0,0-0.1-0.1-0.2-0.1c-0.1,0-0.2-0.1-0.3-0.1c-0.1,0-0.2,0-0.4-0.1c-0.1,0-0.3,0-0.4,0c-0.4,0-0.7,0-0.9,0.1
			c-0.3,0.1-0.5,0.2-0.7,0.4c-0.2,0.2-0.3,0.4-0.4,0.7c-0.1,0.3-0.1,0.6-0.1,1V82h-0.8c-0.1,0-0.2,0.1-0.2,0.2
			c0,0.1-0.1,0.3-0.1,0.6c0,0.1,0,0.3,0,0.4c0,0.1,0,0.2,0.1,0.2c0,0.1,0.1,0.1,0.1,0.1c0,0,0.1,0,0.1,0h0.8v1.4c0,0,0,0.1,0,0.1
			c0,0,0.1,0.1,0.1,0.1c0.1,0,0.2,0,0.3,0.1c0.1,0,0.3,0,0.4,0c0.2,0,0.3,0,0.4,0c0.1,0,0.2,0,0.3-0.1c0.1,0,0.1-0.1,0.1-0.1
			c0,0,0-0.1,0-0.1v-1.4h1.4c0.1,0,0.1,0,0.1,0c0,0,0.1-0.1,0.1-0.1c0-0.1,0-0.1,0.1-0.2c0-0.1,0-0.2,0-0.4c0-0.3,0-0.5-0.1-0.6
			c0-0.1-0.1-0.2-0.2-0.2H179v-3c0-0.4,0.1-0.6,0.2-0.8c0.1-0.2,0.3-0.3,0.6-0.3c0.1,0,0.2,0,0.3,0c0.1,0,0.1,0,0.2,0.1
			c0.1,0,0.1,0,0.1,0.1c0,0,0.1,0,0.1,0c0,0,0.1,0,0.1,0c0,0,0.1-0.1,0.1-0.1c0-0.1,0-0.1,0-0.2C180.6,77.7,180.6,77.6,180.6,77.4
			L180.6,77.4z"/>
		<path id="path1256" inkscape:connector-curvature="0" d="M186.1,82.6c0-0.2,0-0.3,0-0.4c0-0.1,0-0.2,0-0.3c0-0.1,0-0.1-0.1-0.1
			c0,0-0.1,0-0.1,0c0,0-0.1,0-0.1,0c0,0-0.1,0-0.2,0.1c-0.1,0-0.1,0-0.2,0.1c-0.1,0-0.2,0-0.2,0c-0.1,0-0.2,0-0.3-0.1
			c-0.1,0-0.2-0.1-0.3-0.2c-0.1-0.1-0.2-0.2-0.3-0.3s-0.2-0.3-0.4-0.5v-4c0-0.1,0-0.1,0-0.1c0,0-0.1-0.1-0.1-0.1
			c-0.1,0-0.2,0-0.3-0.1c-0.1,0-0.3,0-0.4,0c-0.2,0-0.3,0-0.4,0c-0.1,0-0.2,0-0.3,0.1c-0.1,0-0.1,0.1-0.1,0.1c0,0,0,0.1,0,0.1v6.4
			c0,0.1,0,0.1,0,0.1c0,0,0.1,0.1,0.1,0.1c0.1,0,0.1,0,0.2,0.1c0.1,0,0.2,0,0.4,0c0.2,0,0.3,0,0.4,0c0.1,0,0.2,0,0.2-0.1
			c0.1,0,0.1-0.1,0.1-0.1c0,0,0-0.1,0-0.1v-0.8c0.2,0.2,0.3,0.4,0.5,0.6c0.2,0.2,0.3,0.3,0.4,0.4c0.1,0.1,0.3,0.2,0.4,0.2
			c0.1,0,0.3,0.1,0.4,0.1c0.1,0,0.1,0,0.2,0c0.1,0,0.1,0,0.2,0c0.1,0,0.1,0,0.2-0.1c0.1,0,0.1,0,0.1-0.1c0,0,0.1-0.1,0.1-0.1
			c0,0,0-0.1,0-0.1c0-0.1,0-0.1,0-0.2C186.1,82.9,186.1,82.8,186.1,82.6L186.1,82.6z"/>
		<path id="path1258" inkscape:connector-curvature="0" d="M193,80.2c0-0.2-0.1-0.4-0.1-0.5c-0.1-0.1-0.2-0.2-0.4-0.2h-3.9
			c0-0.3,0-0.5,0.1-0.7c0.1-0.2,0.2-0.4,0.3-0.6c0.1-0.2,0.3-0.3,0.5-0.4c0.2-0.1,0.5-0.1,0.8-0.1c0.3,0,0.6,0,0.8,0.1
			c0.2,0,0.4,0.1,0.6,0.2c0.2,0.1,0.3,0.1,0.4,0.1c0.1,0,0.2,0.1,0.3,0.1c0,0,0.1,0,0.1,0c0,0,0.1,0,0.1-0.1c0,0,0-0.1,0-0.2
			c0-0.1,0-0.2,0-0.3c0-0.1,0-0.2,0-0.3c0-0.1,0-0.1,0-0.2c0-0.1,0-0.1,0-0.1c0,0,0-0.1-0.1-0.1c0,0-0.1-0.1-0.3-0.1
			c-0.1-0.1-0.3-0.1-0.5-0.2c-0.2-0.1-0.5-0.1-0.7-0.1c-0.3,0-0.6-0.1-0.9-0.1c-0.6,0-1.1,0.1-1.5,0.2c-0.4,0.1-0.8,0.4-1.1,0.7
			c-0.3,0.3-0.5,0.7-0.6,1.1c-0.1,0.4-0.2,1-0.2,1.6c0,0.6,0.1,1.1,0.2,1.5c0.1,0.5,0.4,0.8,0.6,1.2c0.3,0.3,0.6,0.6,1,0.7
			c0.4,0.2,0.9,0.3,1.4,0.3c0.5,0,1-0.1,1.4-0.2c0.4-0.2,0.7-0.4,0.9-0.7c0.2-0.3,0.4-0.6,0.5-1c0.1-0.4,0.2-0.8,0.2-1.3V80.2z
			 M191.2,80.7c0,0.5-0.1,0.9-0.3,1.2c-0.2,0.3-0.6,0.4-1,0.4c-0.2,0-0.4,0-0.6-0.1s-0.3-0.2-0.4-0.4c-0.1-0.1-0.2-0.3-0.3-0.5
			c-0.1-0.2-0.1-0.4-0.1-0.6L191.2,80.7z"/>
		<path id="path1260" inkscape:connector-curvature="0" d="M201.9,84.7C201.9,84.7,201.9,84.7,201.9,84.7c0-0.1,0-0.2,0-0.2
			c0,0,0-0.1,0-0.1c0,0,0-0.1,0-0.1c0,0,0-0.1-0.1-0.1c0,0,0,0-0.1,0c0,0-0.1,0-0.1,0c0,0-0.1,0-0.1,0.1c-0.1,0-0.1,0-0.2,0.1
			c-0.1,0-0.2,0-0.3,0c-0.2,0-0.3,0-0.4-0.1c-0.1-0.1-0.2-0.1-0.3-0.2c-0.1-0.1-0.2-0.3-0.2-0.4c-0.1-0.2-0.1-0.4-0.2-0.6l-0.1-0.6
			h1.2c0,0,0.1,0,0.1,0c0,0,0-0.1,0-0.1c0,0,0-0.1,0-0.1c0-0.1,0-0.1,0-0.1c0,0,0-0.1,0-0.1c0,0,0-0.1-0.1-0.1c0,0,0-0.1-0.1-0.1
			c0,0-0.1,0-0.1,0h-1.2l-1-5.2c-0.1-0.3-0.2-0.6-0.3-0.9c-0.1-0.3-0.3-0.5-0.4-0.6c-0.2-0.2-0.4-0.3-0.6-0.4
			c-0.2-0.1-0.5-0.1-0.8-0.1c-0.2,0-0.3,0-0.4,0c-0.1,0-0.2,0.1-0.2,0.1c0,0,0,0,0,0.1c0,0,0,0.1,0,0.1c0,0,0,0,0,0.1
			c0,0,0,0.1,0,0.1c0,0,0,0.1,0,0.1c0,0,0,0.1,0,0.1c0,0,0,0.1,0.1,0.1c0,0,0,0,0.1,0c0,0,0.1,0,0.1,0c0,0,0.1,0,0.1,0
			c0,0,0.1,0,0.1,0c0,0,0.1,0,0.2,0c0.2,0,0.3,0,0.4,0.1c0.1,0.1,0.2,0.1,0.3,0.2c0.1,0.1,0.2,0.3,0.2,0.4c0.1,0.2,0.1,0.4,0.2,0.6
			l1,5h-0.8c0,0-0.1,0-0.1,0c0,0,0,0.1,0,0.1c0,0,0,0.1,0,0.1c0,0,0,0.1,0,0.1c0,0.1,0,0.1,0,0.1c0,0,0,0.1,0.1,0.1
			c0,0,0.1,0.1,0.1,0.1c0,0,0.1,0,0.1,0h0.8l0.2,0.8c0.1,0.3,0.2,0.6,0.3,0.9c0.1,0.3,0.3,0.5,0.4,0.6s0.4,0.3,0.6,0.4
			c0.2,0.1,0.5,0.1,0.8,0.1c0.1,0,0.2,0,0.3,0c0.1,0,0.2,0,0.3,0c0.1,0,0.2,0,0.2-0.1c0.1,0,0.1,0,0.1-0.1c0,0,0-0.1,0.1-0.1
			C201.9,84.8,201.9,84.7,201.9,84.7L201.9,84.7z"/>
		<path id="path1262" inkscape:connector-curvature="0" d="M206.5,80.4c0-0.3,0-0.6-0.1-0.9c-0.1-0.3-0.1-0.6-0.3-0.9
			c-0.1-0.3-0.3-0.6-0.4-0.8c-0.2-0.3-0.4-0.5-0.6-0.7c-0.2-0.2-0.5-0.3-0.8-0.5c-0.3-0.1-0.6-0.2-1-0.2c-0.4,0-0.7,0-1,0.1
			c-0.3,0.1-0.5,0.2-0.7,0.4c-0.2,0.2-0.3,0.4-0.4,0.7c-0.1,0.3-0.1,0.6-0.1,0.9c0,0.3,0,0.6,0.1,0.9c0.1,0.3,0.1,0.6,0.3,0.9
			c0.1,0.3,0.3,0.6,0.4,0.8c0.2,0.3,0.4,0.5,0.6,0.7c0.2,0.2,0.5,0.3,0.8,0.5c0.3,0.1,0.6,0.2,1,0.2c0.4,0,0.7,0,1-0.1
			c0.3-0.1,0.5-0.2,0.7-0.4c0.2-0.2,0.3-0.4,0.4-0.7S206.5,80.7,206.5,80.4L206.5,80.4z M205.5,80.3c0,0.2,0,0.4-0.1,0.5
			c0,0.2-0.1,0.3-0.2,0.4c-0.1,0.1-0.2,0.2-0.4,0.3c-0.2,0.1-0.4,0.1-0.6,0.1c-0.2,0-0.5,0-0.7-0.1c-0.2-0.1-0.4-0.2-0.5-0.4
			c-0.2-0.1-0.3-0.3-0.4-0.5c-0.1-0.2-0.2-0.4-0.3-0.6c-0.1-0.2-0.1-0.5-0.2-0.7s-0.1-0.5-0.1-0.7c0-0.2,0-0.4,0.1-0.6
			c0-0.2,0.1-0.3,0.2-0.4c0.1-0.1,0.2-0.2,0.4-0.3c0.2-0.1,0.4-0.1,0.6-0.1c0.2,0,0.5,0,0.7,0.1c0.2,0.1,0.4,0.2,0.5,0.4
			c0.2,0.1,0.3,0.3,0.4,0.5c0.1,0.2,0.2,0.4,0.3,0.6c0.1,0.2,0.1,0.5,0.2,0.7C205.5,79.9,205.5,80.1,205.5,80.3L205.5,80.3z"/>
		<path id="path1264" inkscape:connector-curvature="0" d="M211.6,82.2C211.6,82.2,211.6,82.2,211.6,82.2c0-0.1,0-0.2,0-0.3
			c0-0.1,0-0.1,0-0.2c0-0.1,0-0.1-0.1-0.2c0-0.1-0.1-0.1-0.1-0.1c0,0-0.1-0.1-0.1-0.1c0,0-0.1,0-0.1,0c0,0-0.1,0-0.1,0.1
			c0,0-0.1,0-0.2,0.1c-0.1,0-0.1,0-0.2,0c-0.1,0-0.3-0.1-0.5-0.2c-0.2-0.1-0.4-0.3-0.5-0.5c-0.2-0.2-0.3-0.5-0.5-0.8
			c-0.1-0.3-0.3-0.6-0.3-0.9l-0.5-2.4c0,0,0-0.1,0-0.1c0,0-0.1,0-0.1-0.1c0,0-0.1,0-0.2,0c-0.1,0-0.1,0-0.2,0c-0.1,0-0.2,0-0.2,0
			c-0.1,0-0.1,0-0.1,0c0,0-0.1,0-0.1,0.1c0,0,0,0.1,0,0.1l1.1,5.5c0,0,0,0.1,0,0.1c0,0,0.1,0,0.1,0.1c0,0,0.1,0,0.1,0
			c0.1,0,0.1,0,0.2,0c0.1,0,0.2,0,0.2,0c0.1,0,0.1,0,0.1,0c0,0,0.1,0,0.1-0.1c0,0,0-0.1,0-0.1l-0.2-1c0.1,0.2,0.2,0.3,0.3,0.5
			c0.1,0.2,0.3,0.3,0.4,0.4c0.1,0.1,0.3,0.2,0.5,0.3c0.2,0.1,0.3,0.1,0.5,0.1c0.1,0,0.1,0,0.2,0c0.1,0,0.1,0,0.2,0
			c0.1,0,0.1,0,0.2,0c0,0,0.1,0,0.1-0.1C211.6,82.3,211.6,82.3,211.6,82.2z"/>
		<path id="path1272" inkscape:connector-curvature="0" d="M165.7,62.1c0-0.1,0-0.1,0-0.1c0,0-0.1-0.1-0.1-0.1c-0.1,0-0.2,0-0.3-0.1
			c-0.1,0-0.3,0-0.4,0c-0.2,0-0.3,0-0.4,0c-0.1,0-0.2,0-0.3,0.1c-0.1,0-0.1,0.1-0.1,0.1c0,0,0,0.1,0,0.1v3.8c0,0.2,0,0.4-0.1,0.6
			c0,0.2-0.1,0.3-0.2,0.5c-0.1,0.1-0.2,0.2-0.3,0.3c-0.1,0.1-0.3,0.1-0.5,0.1c-0.2,0-0.4-0.1-0.7-0.3c-0.2-0.2-0.5-0.4-0.7-0.7v-4.3
			c0-0.1,0-0.1,0-0.1c0,0-0.1-0.1-0.1-0.1c-0.1,0-0.2,0-0.3-0.1c-0.1,0-0.3,0-0.4,0c-0.2,0-0.3,0-0.4,0c-0.1,0-0.2,0-0.3,0.1
			c-0.1,0-0.1,0.1-0.1,0.1c0,0,0,0.1,0,0.1v3.8c0,0.2,0,0.4-0.1,0.6c0,0.2-0.1,0.3-0.2,0.5s-0.2,0.2-0.3,0.3
			c-0.1,0.1-0.3,0.1-0.5,0.1c-0.2,0-0.4-0.1-0.7-0.3c-0.2-0.2-0.5-0.4-0.7-0.7v-4.3c0-0.1,0-0.1,0-0.1c0,0-0.1-0.1-0.1-0.1
			c-0.1,0-0.2,0-0.3-0.1c-0.1,0-0.3,0-0.4,0c-0.2,0-0.3,0-0.4,0c-0.1,0-0.2,0-0.3,0.1c-0.1,0-0.1,0.1-0.1,0.1c0,0,0,0.1,0,0.1v6.4
			c0,0.1,0,0.1,0,0.1c0,0,0.1,0.1,0.1,0.1c0.1,0,0.1,0,0.2,0.1c0.1,0,0.2,0,0.4,0c0.2,0,0.3,0,0.4,0c0.1,0,0.2,0,0.2-0.1
			c0.1,0,0.1-0.1,0.1-0.1c0,0,0-0.1,0-0.1v-0.7c0.4,0.4,0.7,0.7,1.1,0.9c0.4,0.2,0.7,0.3,1.1,0.3c0.3,0,0.5,0,0.7-0.1
			s0.4-0.1,0.6-0.2c0.2-0.1,0.3-0.2,0.4-0.4c0.1-0.1,0.2-0.3,0.3-0.5c0.2,0.2,0.4,0.4,0.6,0.5c0.2,0.1,0.4,0.3,0.5,0.4
			c0.2,0.1,0.4,0.2,0.5,0.2c0.2,0,0.4,0.1,0.6,0.1c0.4,0,0.8-0.1,1.1-0.2c0.3-0.1,0.5-0.3,0.7-0.6s0.3-0.5,0.4-0.9
			c0.1-0.3,0.1-0.7,0.1-1.1L165.7,62.1z"/>
		<path id="path1274" inkscape:connector-curvature="0" d="M173,62c0-0.1,0-0.1-0.1-0.2c0,0-0.1-0.1-0.2-0.1c-0.1,0-0.3,0-0.5,0
			c-0.2,0-0.4,0-0.5,0c-0.1,0-0.2,0-0.2,0.1c0,0-0.1,0.1-0.1,0.2v0.5c-0.3-0.3-0.6-0.5-0.9-0.7c-0.3-0.2-0.7-0.2-1.1-0.2
			c-0.3,0-0.7,0-0.9,0.1c-0.3,0.1-0.5,0.2-0.7,0.4c-0.2,0.2-0.4,0.4-0.5,0.7c-0.1,0.3-0.2,0.6-0.2,0.9c0,0.4,0.1,0.7,0.2,1
			c0.1,0.3,0.4,0.5,0.7,0.7c0.3,0.2,0.7,0.3,1.1,0.4c0.4,0.1,0.9,0.1,1.5,0.1h0.6v0.4c0,0.2,0,0.4-0.1,0.5c0,0.1-0.1,0.3-0.2,0.4
			c-0.1,0.1-0.2,0.2-0.4,0.2c-0.2,0.1-0.3,0.1-0.6,0.1c-0.3,0-0.6,0-0.8-0.1c-0.2-0.1-0.4-0.1-0.6-0.2c-0.2-0.1-0.3-0.2-0.5-0.2
			c-0.1-0.1-0.2-0.1-0.3-0.1c-0.1,0-0.1,0-0.1,0.1c0,0-0.1,0.1-0.1,0.1c0,0.1,0,0.1-0.1,0.2c0,0.1,0,0.2,0,0.3c0,0.1,0,0.3,0,0.4
			c0,0.1,0.1,0.2,0.1,0.2c0.1,0.1,0.2,0.1,0.4,0.2c0.2,0.1,0.4,0.2,0.6,0.2c0.2,0.1,0.5,0.1,0.7,0.2c0.3,0,0.5,0.1,0.8,0.1
			c0.5,0,0.9-0.1,1.3-0.1c0.4-0.1,0.7-0.3,0.9-0.5c0.2-0.2,0.4-0.5,0.5-0.8c0.1-0.3,0.2-0.7,0.2-1.1L173,62z M171.2,64.8h-0.7
			c-0.3,0-0.5,0-0.8-0.1c-0.2,0-0.4-0.1-0.5-0.2c-0.1-0.1-0.2-0.2-0.3-0.3c-0.1-0.1-0.1-0.3-0.1-0.4c0-0.3,0.1-0.5,0.3-0.6
			c0.2-0.2,0.4-0.2,0.7-0.2c0.3,0,0.5,0.1,0.7,0.2c0.2,0.1,0.4,0.3,0.7,0.6L171.2,64.8z"/>
		<path id="path1276" inkscape:connector-curvature="0" d="M178.4,62.7c0-0.2,0-0.4,0-0.5c0-0.1-0.1-0.2-0.1-0.2
			c0,0-0.1-0.1-0.2-0.1s-0.2-0.1-0.3-0.1c-0.1,0-0.2,0-0.4-0.1c-0.1,0-0.3,0-0.4,0c-0.4,0-0.7,0-0.9,0.1c-0.3,0.1-0.5,0.2-0.7,0.4
			c-0.2,0.2-0.3,0.4-0.4,0.7c-0.1,0.3-0.1,0.6-0.1,1v3.3h-0.8c-0.1,0-0.2,0.1-0.2,0.2c0,0.1-0.1,0.3-0.1,0.6c0,0.1,0,0.3,0,0.4
			c0,0.1,0,0.2,0.1,0.2c0,0.1,0.1,0.1,0.1,0.1c0,0,0.1,0,0.1,0h0.8v1.4c0,0,0,0.1,0,0.1c0,0,0.1,0.1,0.1,0.1c0.1,0,0.2,0,0.3,0.1
			c0.1,0,0.3,0,0.4,0c0.2,0,0.3,0,0.4,0c0.1,0,0.2,0,0.3-0.1c0.1,0,0.1-0.1,0.1-0.1s0-0.1,0-0.1v-1.4h1.4c0.1,0,0.1,0,0.1,0
			c0,0,0.1-0.1,0.1-0.1c0-0.1,0-0.1,0.1-0.2c0-0.1,0-0.2,0-0.4c0-0.3,0-0.5-0.1-0.6c0-0.1-0.1-0.2-0.2-0.2h-1.4v-3
			c0-0.4,0.1-0.6,0.2-0.8c0.1-0.2,0.3-0.3,0.6-0.3c0.1,0,0.2,0,0.3,0c0.1,0,0.1,0,0.2,0.1c0.1,0,0.1,0,0.1,0.1c0,0,0.1,0,0.1,0
			c0,0,0.1,0,0.1,0c0,0,0.1,0,0.1-0.1c0-0.1,0-0.1,0-0.2C178.4,62.9,178.4,62.8,178.4,62.7z"/>
		<path id="path1278" inkscape:connector-curvature="0" d="M185.9,62.1c0-0.1,0-0.1,0-0.1c0,0-0.1-0.1-0.1-0.1c-0.1,0-0.2,0-0.3-0.1
			c-0.1,0-0.3,0-0.4,0c-0.2,0-0.3,0-0.4,0c-0.1,0-0.2,0-0.3,0.1c-0.1,0-0.1,0.1-0.1,0.1c0,0,0,0.1,0,0.1v3.7c0,0.3,0,0.6-0.1,0.7
			c0,0.2-0.1,0.3-0.2,0.5c-0.1,0.1-0.2,0.2-0.3,0.3c-0.1,0.1-0.3,0.1-0.5,0.1c-0.2,0-0.5-0.1-0.7-0.3c-0.2-0.2-0.5-0.4-0.7-0.7v-4.3
			c0-0.1,0-0.1,0-0.1c0,0-0.1-0.1-0.1-0.1c-0.1,0-0.2,0-0.3-0.1c-0.1,0-0.3,0-0.4,0c-0.2,0-0.3,0-0.4,0c-0.1,0-0.2,0-0.3,0.1
			c-0.1,0-0.1,0.1-0.1,0.1c0,0,0,0.1,0,0.1v9.5c0,0,0,0.1,0,0.1c0,0,0.1,0.1,0.1,0.1c0.1,0,0.2,0,0.3,0.1c0.1,0,0.3,0,0.4,0
			s0.3,0,0.4,0c0.1,0,0.2,0,0.3-0.1c0.1,0,0.1-0.1,0.1-0.1c0,0,0-0.1,0-0.1V68c0.3,0.3,0.6,0.5,1,0.7c0.3,0.1,0.7,0.2,1,0.2
			c0.4,0,0.8-0.1,1.1-0.2c0.3-0.1,0.5-0.3,0.7-0.6c0.2-0.3,0.3-0.5,0.4-0.9c0.1-0.3,0.1-0.7,0.1-1.2L185.9,62.1z"/>
		<path id="path1280" inkscape:connector-curvature="0" d="M193.6,65.5c0-0.2,0-0.4-0.1-0.5c-0.1-0.1-0.2-0.2-0.4-0.2h-3.9
			c0-0.3,0-0.5,0.1-0.7c0.1-0.2,0.2-0.4,0.3-0.6c0.1-0.2,0.3-0.3,0.5-0.4c0.2-0.1,0.5-0.1,0.8-0.1c0.3,0,0.6,0,0.8,0.1
			c0.2,0,0.4,0.1,0.6,0.2c0.2,0.1,0.3,0.1,0.4,0.1c0.1,0,0.2,0.1,0.3,0.1c0,0,0.1,0,0.1,0c0,0,0.1,0,0.1-0.1c0,0,0-0.1,0-0.2
			c0-0.1,0-0.2,0-0.3c0-0.1,0-0.2,0-0.3c0-0.1,0-0.1,0-0.2c0-0.1,0-0.1,0-0.1c0,0,0-0.1-0.1-0.1c0,0-0.1-0.1-0.3-0.1
			c-0.1-0.1-0.3-0.1-0.5-0.2c-0.2-0.1-0.5-0.1-0.7-0.1c-0.3,0-0.6-0.1-0.9-0.1c-0.6,0-1.1,0.1-1.5,0.2c-0.4,0.1-0.8,0.4-1.1,0.7
			c-0.3,0.3-0.5,0.7-0.6,1.1c-0.1,0.4-0.2,1-0.2,1.6c0,0.6,0.1,1.1,0.2,1.5c0.2,0.5,0.4,0.8,0.6,1.2c0.3,0.3,0.6,0.6,1,0.7
			c0.4,0.2,0.9,0.3,1.4,0.3c0.5,0,1-0.1,1.4-0.2c0.4-0.2,0.7-0.4,0.9-0.7c0.2-0.3,0.4-0.6,0.5-1c0.1-0.4,0.2-0.8,0.2-1.3V65.5z
			 M191.9,66c0,0.5-0.1,0.9-0.3,1.2c-0.2,0.3-0.6,0.4-1,0.4c-0.2,0-0.4,0-0.6-0.1c-0.2-0.1-0.3-0.2-0.4-0.4
			c-0.1-0.1-0.2-0.3-0.3-0.5c-0.1-0.2-0.1-0.4-0.1-0.6L191.9,66z"/>
		<path id="path1282" inkscape:connector-curvature="0" d="M205.3,62.1c0-0.1,0-0.1,0-0.1c0,0-0.1-0.1-0.1-0.1c-0.1,0-0.2,0-0.3-0.1
			c-0.1,0-0.3,0-0.4,0c-0.2,0-0.3,0-0.4,0c-0.1,0-0.2,0-0.3,0.1c-0.1,0-0.1,0.1-0.1,0.1c0,0,0,0.1,0,0.1v3.8c0,0.2,0,0.4-0.1,0.6
			c0,0.2-0.1,0.3-0.2,0.5c-0.1,0.1-0.2,0.2-0.3,0.3c-0.1,0.1-0.3,0.1-0.5,0.1c-0.2,0-0.4-0.1-0.7-0.3c-0.2-0.2-0.5-0.4-0.7-0.7v-4.3
			c0-0.1,0-0.1,0-0.1c0,0-0.1-0.1-0.1-0.1c-0.1,0-0.2,0-0.3-0.1c-0.1,0-0.3,0-0.4,0c-0.2,0-0.3,0-0.4,0c-0.1,0-0.2,0-0.3,0.1
			c-0.1,0-0.1,0.1-0.1,0.1c0,0,0,0.1,0,0.1v3.8c0,0.2,0,0.4-0.1,0.6c0,0.2-0.1,0.3-0.2,0.5s-0.2,0.2-0.3,0.3
			c-0.1,0.1-0.3,0.1-0.5,0.1c-0.2,0-0.4-0.1-0.7-0.3s-0.5-0.4-0.7-0.7v-4.3c0-0.1,0-0.1,0-0.1c0,0-0.1-0.1-0.1-0.1
			c-0.1,0-0.2,0-0.3-0.1c-0.1,0-0.3,0-0.4,0c-0.2,0-0.3,0-0.4,0c-0.1,0-0.2,0-0.3,0.1c-0.1,0-0.1,0.1-0.1,0.1c0,0,0,0.1,0,0.1v6.4
			c0,0.1,0,0.1,0,0.1c0,0,0.1,0.1,0.1,0.1c0.1,0,0.1,0,0.2,0.1c0.1,0,0.2,0,0.4,0c0.2,0,0.3,0,0.4,0c0.1,0,0.2,0,0.2-0.1
			c0.1,0,0.1-0.1,0.1-0.1c0,0,0-0.1,0-0.1v-0.7c0.4,0.4,0.7,0.7,1.1,0.9c0.4,0.2,0.7,0.3,1.1,0.3c0.3,0,0.5,0,0.7-0.1
			c0.2-0.1,0.4-0.1,0.6-0.2c0.2-0.1,0.3-0.2,0.4-0.4c0.1-0.1,0.2-0.3,0.3-0.5c0.2,0.2,0.4,0.4,0.6,0.5c0.2,0.1,0.4,0.3,0.5,0.4
			c0.2,0.1,0.4,0.2,0.5,0.2c0.2,0,0.4,0.1,0.6,0.1c0.4,0,0.8-0.1,1.1-0.2c0.3-0.1,0.5-0.3,0.7-0.6c0.2-0.2,0.3-0.5,0.4-0.9
			s0.1-0.7,0.1-1.1L205.3,62.1z"/>
		<path id="path1284" inkscape:connector-curvature="0" d="M212.6,62c0-0.1,0-0.1-0.1-0.2s-0.1-0.1-0.2-0.1c-0.1,0-0.3,0-0.5,0
			c-0.2,0-0.4,0-0.5,0c-0.1,0-0.2,0-0.2,0.1c0,0-0.1,0.1-0.1,0.2v0.5c-0.3-0.3-0.6-0.5-0.9-0.7c-0.3-0.2-0.7-0.2-1.1-0.2
			c-0.3,0-0.7,0-0.9,0.1c-0.3,0.1-0.5,0.2-0.7,0.4c-0.2,0.2-0.4,0.4-0.5,0.7c-0.1,0.3-0.2,0.6-0.2,0.9c0,0.4,0.1,0.7,0.2,1
			c0.1,0.3,0.4,0.5,0.7,0.7c0.3,0.2,0.7,0.3,1.1,0.4c0.4,0.1,0.9,0.1,1.5,0.1h0.6v0.4c0,0.2,0,0.4-0.1,0.5c0,0.1-0.1,0.3-0.2,0.4
			c-0.1,0.1-0.2,0.2-0.4,0.2c-0.2,0.1-0.4,0.1-0.6,0.1c-0.3,0-0.6,0-0.8-0.1c-0.2-0.1-0.4-0.1-0.6-0.2c-0.2-0.1-0.3-0.2-0.5-0.2
			c-0.1-0.1-0.2-0.1-0.3-0.1c-0.1,0-0.1,0-0.1,0.1c0,0-0.1,0.1-0.1,0.1c0,0.1,0,0.1-0.1,0.2c0,0.1,0,0.2,0,0.3c0,0.1,0,0.3,0,0.4
			c0,0.1,0.1,0.2,0.1,0.2c0.1,0.1,0.2,0.1,0.4,0.2s0.4,0.2,0.6,0.2c0.2,0.1,0.5,0.1,0.7,0.2c0.3,0,0.5,0.1,0.8,0.1
			c0.5,0,0.9-0.1,1.3-0.1c0.4-0.1,0.6-0.3,0.9-0.5c0.2-0.2,0.4-0.5,0.5-0.8c0.1-0.3,0.2-0.7,0.2-1.1V62z M210.8,64.8h-0.7
			c-0.3,0-0.5,0-0.8-0.1c-0.2,0-0.4-0.1-0.5-0.2c-0.1-0.1-0.2-0.2-0.3-0.3c-0.1-0.1-0.1-0.3-0.1-0.4c0-0.3,0.1-0.5,0.3-0.6
			c0.2-0.2,0.4-0.2,0.7-0.2c0.3,0,0.5,0.1,0.7,0.2c0.2,0.1,0.4,0.3,0.7,0.6V64.8z"/>
		<path id="path1286" inkscape:connector-curvature="0" d="M220.5,68.7c0.2,0,0.3,0,0.4-0.1s0.1-0.2,0.1-0.4v-6.2c0-0.1,0-0.1,0-0.1
			c0,0-0.1-0.1-0.1-0.1c-0.1,0-0.2,0-0.3-0.1c-0.1,0-0.3,0-0.4,0c-0.2,0-0.3,0-0.4,0c-0.1,0-0.2,0-0.3,0.1c-0.1,0-0.1,0.1-0.1,0.1
			c0,0,0,0.1,0,0.1v5.2h-2.9v-3c0-0.4,0.1-0.6,0.2-0.8c0.1-0.2,0.3-0.3,0.6-0.3c0.1,0,0.2,0,0.3,0c0.1,0,0.1,0,0.2,0.1
			c0.1,0,0.1,0,0.1,0.1c0,0,0.1,0,0.1,0c0,0,0.1,0,0.1,0c0,0,0,0,0.1-0.1c0-0.1,0-0.1,0-0.2c0-0.1,0-0.2,0-0.3c0-0.2,0-0.4,0-0.5
			c0-0.1-0.1-0.2-0.1-0.2s-0.1-0.1-0.2-0.1s-0.2-0.1-0.3-0.1c-0.1,0-0.2,0-0.4-0.1c-0.1,0-0.3,0-0.4,0c-0.4,0-0.7,0-0.9,0.1
			c-0.3,0.1-0.5,0.2-0.7,0.4c-0.2,0.2-0.3,0.4-0.4,0.7c-0.1,0.3-0.1,0.6-0.1,1v3.3h-0.8c-0.1,0-0.2,0.1-0.2,0.2s-0.1,0.3-0.1,0.6
			c0,0.1,0,0.3,0,0.4c0,0.1,0,0.2,0.1,0.2c0,0.1,0.1,0.1,0.1,0.1c0,0,0.1,0,0.1,0h0.8v1.4c0,0,0,0.1,0,0.1c0,0,0.1,0.1,0.1,0.1
			s0.2,0,0.3,0.1c0.1,0,0.3,0,0.4,0c0.2,0,0.3,0,0.4,0c0.1,0,0.2,0,0.3-0.1c0.1,0,0.1-0.1,0.1-0.1c0,0,0-0.1,0-0.1v-1.4L220.5,68.7z
			 M221.2,70.7c0-0.4-0.1-0.6-0.2-0.8c-0.1-0.1-0.4-0.2-0.8-0.2c-0.4,0-0.7,0.1-0.8,0.2c-0.1,0.1-0.2,0.4-0.2,0.7
			c0,0.4,0.1,0.6,0.2,0.8c0.1,0.1,0.4,0.2,0.8,0.2c0.4,0,0.7-0.1,0.8-0.2C221.1,71.2,221.2,71,221.2,70.7L221.2,70.7z"/>
		<path id="path1288" inkscape:connector-curvature="0" d="M227.7,63.1c0-0.1,0-0.2,0-0.3c0-0.1,0-0.2,0-0.2c0-0.1,0-0.1,0-0.1
			c0,0-0.1-0.1-0.1-0.1c-0.1-0.1-0.2-0.1-0.3-0.2c-0.1-0.1-0.3-0.1-0.5-0.2c-0.2-0.1-0.4-0.1-0.6-0.2c-0.2,0-0.4-0.1-0.6-0.1
			c-0.5,0-0.9,0.1-1.3,0.2c-0.4,0.2-0.7,0.4-1,0.7c-0.3,0.3-0.5,0.7-0.6,1.1c-0.1,0.4-0.2,0.9-0.2,1.5c0,0.6,0.1,1.2,0.2,1.7
			c0.2,0.5,0.4,0.9,0.7,1.2c0.3,0.3,0.6,0.5,1,0.7c0.4,0.2,0.8,0.2,1.3,0.2c0.2,0,0.4,0,0.6-0.1c0.2,0,0.4-0.1,0.5-0.1
			c0.2-0.1,0.3-0.1,0.4-0.2c0.1-0.1,0.2-0.1,0.3-0.2c0.1-0.1,0.1-0.1,0.1-0.1c0,0,0-0.1,0.1-0.1c0-0.1,0-0.1,0-0.2
			c0-0.1,0-0.2,0-0.3c0-0.3,0-0.5-0.1-0.6c0-0.1-0.1-0.2-0.2-0.2c-0.1,0-0.2,0-0.3,0.1c-0.1,0.1-0.2,0.1-0.3,0.2s-0.3,0.2-0.4,0.2
			c-0.2,0.1-0.4,0.1-0.6,0.1c-0.5,0-0.8-0.2-1.1-0.5c-0.3-0.4-0.4-0.9-0.4-1.6c0-0.3,0-0.7,0.1-0.9c0.1-0.3,0.2-0.5,0.3-0.7
			c0.1-0.2,0.3-0.3,0.5-0.4c0.2-0.1,0.4-0.1,0.6-0.1c0.3,0,0.5,0,0.6,0.1c0.2,0.1,0.3,0.2,0.5,0.3c0.1,0.1,0.3,0.2,0.3,0.2
			c0.1,0.1,0.2,0.1,0.2,0.1c0,0,0.1,0,0.1,0c0,0,0.1-0.1,0.1-0.1c0-0.1,0-0.1,0-0.3C227.7,63.4,227.7,63.2,227.7,63.1L227.7,63.1z"
			/>
		<path id="path1290" inkscape:connector-curvature="0" d="M234.4,62c0-0.1,0-0.1-0.1-0.2c0,0-0.1-0.1-0.2-0.1c-0.1,0-0.3,0-0.5,0
			c-0.2,0-0.4,0-0.5,0c-0.1,0-0.2,0-0.2,0.1c0,0-0.1,0.1-0.1,0.2v0.5c-0.3-0.3-0.6-0.5-0.9-0.7c-0.3-0.2-0.7-0.2-1.1-0.2
			c-0.3,0-0.7,0-0.9,0.1c-0.3,0.1-0.5,0.2-0.7,0.4c-0.2,0.2-0.4,0.4-0.5,0.7c-0.1,0.3-0.2,0.6-0.2,0.9c0,0.4,0.1,0.7,0.2,1
			c0.1,0.3,0.4,0.5,0.7,0.7c0.3,0.2,0.7,0.3,1.1,0.4c0.4,0.1,0.9,0.1,1.5,0.1h0.6v0.4c0,0.2,0,0.4-0.1,0.5c0,0.1-0.1,0.3-0.2,0.4
			c-0.1,0.1-0.2,0.2-0.4,0.2c-0.2,0.1-0.3,0.1-0.6,0.1c-0.3,0-0.6,0-0.8-0.1c-0.2-0.1-0.4-0.1-0.6-0.2c-0.2-0.1-0.3-0.2-0.5-0.2
			c-0.1-0.1-0.2-0.1-0.3-0.1c-0.1,0-0.1,0-0.1,0.1c0,0-0.1,0.1-0.1,0.1c0,0.1,0,0.1-0.1,0.2c0,0.1,0,0.2,0,0.3c0,0.1,0,0.3,0,0.4
			c0,0.1,0.1,0.2,0.1,0.2c0.1,0.1,0.2,0.1,0.4,0.2c0.2,0.1,0.4,0.2,0.6,0.2c0.2,0.1,0.5,0.1,0.7,0.2c0.3,0,0.5,0.1,0.8,0.1
			c0.5,0,0.9-0.1,1.3-0.1c0.4-0.1,0.7-0.3,0.9-0.5c0.2-0.2,0.4-0.5,0.5-0.8c0.1-0.3,0.2-0.7,0.2-1.1L234.4,62z M232.6,64.8h-0.7
			c-0.3,0-0.5,0-0.8-0.1c-0.2,0-0.4-0.1-0.5-0.2c-0.1-0.1-0.2-0.2-0.3-0.3c-0.1-0.1-0.1-0.3-0.1-0.4c0-0.3,0.1-0.5,0.3-0.6
			c0.2-0.2,0.4-0.2,0.7-0.2c0.3,0,0.5,0.1,0.7,0.2c0.2,0.1,0.4,0.3,0.7,0.6V64.8z"/>
		<path id="path1292" inkscape:connector-curvature="0" d="M238,62.1c0-0.1,0-0.1,0-0.1c0,0-0.1-0.1-0.1-0.1c-0.1,0-0.2,0-0.3-0.1
			c-0.1,0-0.3,0-0.4,0c-0.2,0-0.3,0-0.4,0c-0.1,0-0.2,0-0.3,0.1c-0.1,0-0.1,0.1-0.1,0.1c0,0,0,0.1,0,0.1v9.5c0,0,0,0.1,0,0.1
			c0,0,0.1,0.1,0.1,0.1c0.1,0,0.2,0,0.3,0.1c0.1,0,0.3,0,0.4,0c0.2,0,0.3,0,0.4,0c0.1,0,0.2,0,0.3-0.1c0.1,0,0.1-0.1,0.1-0.1
			c0,0,0-0.1,0-0.1V62.1z"/>
		<path id="path1294" inkscape:connector-curvature="0" d="M165.7,47.3c0-0.1,0-0.1,0-0.1c0,0-0.1-0.1-0.1-0.1c-0.1,0-0.2,0-0.3-0.1
			c-0.1,0-0.3,0-0.4,0c-0.2,0-0.3,0-0.4,0c-0.1,0-0.2,0-0.3,0.1c-0.1,0-0.1,0.1-0.1,0.1c0,0,0,0.1,0,0.1v3.8c0,0.2,0,0.4-0.1,0.6
			c0,0.2-0.1,0.3-0.2,0.5c-0.1,0.1-0.2,0.2-0.3,0.3c-0.1,0.1-0.3,0.1-0.5,0.1c-0.2,0-0.4-0.1-0.7-0.3c-0.2-0.2-0.5-0.4-0.7-0.7v-4.3
			c0-0.1,0-0.1,0-0.1c0,0-0.1-0.1-0.1-0.1c-0.1,0-0.2,0-0.3-0.1c-0.1,0-0.3,0-0.4,0c-0.2,0-0.3,0-0.4,0c-0.1,0-0.2,0-0.3,0.1
			c-0.1,0-0.1,0.1-0.1,0.1c0,0,0,0.1,0,0.1v3.8c0,0.2,0,0.4-0.1,0.6c0,0.2-0.1,0.3-0.2,0.5s-0.2,0.2-0.3,0.3
			c-0.1,0.1-0.3,0.1-0.5,0.1c-0.2,0-0.4-0.1-0.7-0.3c-0.2-0.2-0.5-0.4-0.7-0.7v-4.3c0-0.1,0-0.1,0-0.1c0,0-0.1-0.1-0.1-0.1
			c-0.1,0-0.2,0-0.3-0.1c-0.1,0-0.3,0-0.4,0c-0.2,0-0.3,0-0.4,0c-0.1,0-0.2,0-0.3,0.1c-0.1,0-0.1,0.1-0.1,0.1c0,0,0,0.1,0,0.1v6.4
			c0,0.1,0,0.1,0,0.1c0,0,0.1,0.1,0.1,0.1c0.1,0,0.1,0,0.2,0.1c0.1,0,0.2,0,0.4,0c0.2,0,0.3,0,0.4,0c0.1,0,0.2,0,0.2-0.1
			c0.1,0,0.1-0.1,0.1-0.1c0,0,0-0.1,0-0.1V53c0.4,0.4,0.7,0.7,1.1,0.9c0.4,0.2,0.7,0.3,1.1,0.3c0.3,0,0.5,0,0.7-0.1s0.4-0.1,0.6-0.2
			c0.2-0.1,0.3-0.2,0.4-0.4c0.1-0.1,0.2-0.3,0.3-0.5c0.2,0.2,0.4,0.4,0.6,0.5c0.2,0.1,0.4,0.3,0.5,0.4c0.2,0.1,0.4,0.2,0.5,0.2
			c0.2,0,0.4,0.1,0.6,0.1c0.4,0,0.8-0.1,1.1-0.2c0.3-0.1,0.5-0.3,0.7-0.6s0.3-0.5,0.4-0.9c0.1-0.3,0.1-0.7,0.1-1.1L165.7,47.3z"/>
		<path id="path1296" inkscape:connector-curvature="0" d="M174,50.6c0-0.6-0.1-1.1-0.2-1.5c-0.1-0.4-0.4-0.8-0.7-1.2
			c-0.3-0.3-0.7-0.6-1.1-0.8c-0.4-0.2-1-0.3-1.5-0.3c-0.6,0-1.1,0.1-1.5,0.2c-0.4,0.2-0.8,0.4-1.1,0.7c-0.3,0.3-0.5,0.7-0.6,1.1
			c-0.1,0.4-0.2,0.9-0.2,1.5c0,0.5,0.1,1.1,0.2,1.5c0.1,0.5,0.4,0.8,0.7,1.2c0.3,0.3,0.7,0.6,1.1,0.8c0.4,0.2,1,0.3,1.5,0.3
			c0.6,0,1.1-0.1,1.5-0.2c0.4-0.2,0.8-0.4,1-0.7c0.3-0.3,0.5-0.7,0.6-1.1C173.9,51.7,174,51.2,174,50.6L174,50.6z M172.1,50.5
			c0,0.3,0,0.6-0.1,0.9c-0.1,0.3-0.1,0.5-0.3,0.7c-0.1,0.2-0.3,0.4-0.5,0.5c-0.2,0.1-0.4,0.2-0.8,0.2c-0.3,0-0.5-0.1-0.7-0.1
			c-0.2-0.1-0.4-0.2-0.5-0.4c-0.1-0.2-0.2-0.4-0.3-0.7c-0.1-0.3-0.1-0.6-0.1-0.9c0-0.3,0-0.6,0.1-0.9c0.1-0.3,0.1-0.5,0.3-0.7
			c0.1-0.2,0.3-0.3,0.5-0.5c0.2-0.1,0.5-0.2,0.8-0.2c0.3,0,0.5,0.1,0.7,0.1c0.2,0.1,0.4,0.2,0.5,0.4c0.1,0.2,0.2,0.4,0.3,0.7
			C172.1,49.9,172.1,50.2,172.1,50.5z"/>
		<path id="path1298" inkscape:connector-curvature="0" d="M181.5,47.3c0-0.1,0-0.1,0-0.1c0,0-0.1-0.1-0.1-0.1c-0.1,0-0.1,0-0.2,0
			c-0.1,0-0.2,0-0.4,0c-0.2,0-0.3,0-0.4,0c-0.1,0-0.2,0-0.2,0c-0.1,0-0.1,0.1-0.1,0.1c0,0,0,0.1,0,0.1V48c-0.3-0.4-0.7-0.6-1-0.8
			c-0.4-0.2-0.8-0.3-1.2-0.3c-0.5,0-0.9,0.1-1.2,0.3c-0.3,0.2-0.6,0.4-0.8,0.8c-0.2,0.3-0.4,0.7-0.5,1.1c-0.1,0.4-0.1,0.9-0.1,1.4
			c0,0.6,0.1,1.1,0.2,1.5c0.1,0.5,0.3,0.8,0.5,1.2c0.2,0.3,0.5,0.6,0.9,0.7c0.4,0.2,0.8,0.3,1.2,0.3c0.4,0,0.7-0.1,1-0.2
			c0.3-0.1,0.6-0.4,0.9-0.6v3.5c0,0,0,0.1,0,0.1c0,0,0.1,0.1,0.1,0.1c0.1,0,0.2,0,0.3,0.1c0.1,0,0.3,0,0.4,0c0.2,0,0.3,0,0.4,0
			c0.1,0,0.2,0,0.3-0.1c0.1,0,0.1-0.1,0.1-0.1c0,0,0-0.1,0-0.1V47.3z M179.7,51.6c-0.3,0.3-0.5,0.6-0.7,0.7
			c-0.2,0.2-0.5,0.3-0.7,0.3c-0.2,0-0.4-0.1-0.6-0.2c-0.2-0.1-0.3-0.3-0.4-0.5c-0.1-0.2-0.2-0.4-0.2-0.7c0-0.2-0.1-0.5-0.1-0.7
			c0-0.3,0-0.5,0.1-0.8c0-0.3,0.1-0.5,0.2-0.7c0.1-0.2,0.2-0.4,0.4-0.5c0.2-0.1,0.4-0.2,0.6-0.2c0.1,0,0.2,0,0.4,0.1
			c0.1,0,0.2,0.1,0.4,0.2c0.1,0.1,0.3,0.2,0.4,0.3c0.1,0.1,0.3,0.3,0.4,0.5V51.6z"/>
		<path id="path1300" inkscape:connector-curvature="0" d="M189.3,50.7c0-0.2-0.1-0.4-0.1-0.5c-0.1-0.1-0.2-0.2-0.4-0.2h-3.9
			c0-0.3,0-0.5,0.1-0.7c0.1-0.2,0.2-0.4,0.3-0.6c0.1-0.2,0.3-0.3,0.5-0.4c0.2-0.1,0.5-0.1,0.8-0.1c0.3,0,0.6,0,0.8,0.1
			c0.2,0,0.4,0.1,0.6,0.2c0.2,0.1,0.3,0.1,0.4,0.1c0.1,0,0.2,0.1,0.3,0.1c0,0,0.1,0,0.1,0c0,0,0.1,0,0.1-0.1c0,0,0-0.1,0-0.2
			c0-0.1,0-0.2,0-0.3c0-0.1,0-0.2,0-0.3c0-0.1,0-0.1,0-0.2c0-0.1,0-0.1,0-0.1c0,0,0-0.1-0.1-0.1c0,0-0.1-0.1-0.3-0.1
			c-0.1-0.1-0.3-0.1-0.5-0.2c-0.2-0.1-0.5-0.1-0.7-0.1c-0.3,0-0.6-0.1-0.9-0.1c-0.6,0-1.1,0.1-1.5,0.2c-0.4,0.1-0.8,0.4-1.1,0.7
			s-0.5,0.7-0.6,1.1c-0.1,0.4-0.2,1-0.2,1.6c0,0.6,0.1,1.1,0.2,1.5c0.1,0.5,0.4,0.8,0.6,1.2c0.3,0.3,0.6,0.6,1,0.7s0.9,0.3,1.4,0.3
			c0.5,0,1-0.1,1.4-0.2c0.4-0.2,0.7-0.4,0.9-0.7c0.2-0.3,0.4-0.6,0.5-1c0.1-0.4,0.2-0.8,0.2-1.3V50.7z M187.5,51.2
			c0,0.5-0.1,0.9-0.3,1.2s-0.6,0.4-1,0.4c-0.2,0-0.4,0-0.6-0.1c-0.2-0.1-0.3-0.2-0.4-0.4c-0.1-0.1-0.2-0.3-0.3-0.5
			c-0.1-0.2-0.1-0.4-0.1-0.6L187.5,51.2z"/>
		<path id="path1302" inkscape:connector-curvature="0" d="M192.6,47.3c0-0.1,0-0.1,0-0.1c0,0-0.1-0.1-0.1-0.1c-0.1,0-0.2,0-0.3-0.1
			c-0.1,0-0.3,0-0.4,0s-0.3,0-0.4,0c-0.1,0-0.2,0-0.3,0.1c-0.1,0-0.1,0.1-0.1,0.1c0,0,0,0.1,0,0.1v9.5c0,0,0,0.1,0,0.1
			c0,0,0.1,0.1,0.1,0.1c0.1,0,0.2,0,0.3,0.1c0.1,0,0.3,0,0.4,0c0.2,0,0.3,0,0.4,0c0.1,0,0.2,0,0.3-0.1c0.1,0,0.1-0.1,0.1-0.1
			c0,0,0-0.1,0-0.1V47.3z"/>
		<path id="path1304" inkscape:connector-curvature="0" d="M196.2,47.3c0-0.1,0-0.1,0-0.1c0,0-0.1-0.1-0.1-0.1c-0.1,0-0.2,0-0.3-0.1
			c-0.1,0-0.3,0-0.4,0c-0.2,0-0.3,0-0.4,0c-0.1,0-0.2,0-0.3,0.1c-0.1,0-0.1,0.1-0.1,0.1c0,0,0,0.1,0,0.1v9.5c0,0,0,0.1,0,0.1
			c0,0,0.1,0.1,0.1,0.1c0.1,0,0.2,0,0.3,0.1c0.1,0,0.3,0,0.4,0c0.2,0,0.3,0,0.4,0c0.1,0,0.2,0,0.3-0.1c0.1,0,0.1-0.1,0.1-0.1
			c0,0,0-0.1,0-0.1V47.3z"/>
		<path id="path1306" inkscape:connector-curvature="0" d="M199.8,47.3c0-0.1,0-0.1,0-0.1c0,0-0.1-0.1-0.1-0.1c-0.1,0-0.2,0-0.3-0.1
			c-0.1,0-0.3,0-0.4,0c-0.2,0-0.3,0-0.4,0c-0.1,0-0.2,0-0.3,0.1c-0.1,0-0.1,0.1-0.1,0.1c0,0,0,0.1,0,0.1v6.4c0,0,0,0.1,0,0.1
			c0,0,0.1,0.1,0.1,0.1c0.1,0,0.2,0,0.3,0.1c0.1,0,0.3,0,0.4,0c0.2,0,0.3,0,0.4,0c0.1,0,0.2,0,0.3-0.1c0.1,0,0.1-0.1,0.1-0.1
			c0,0,0-0.1,0-0.1V47.3z M200,55.9c0-0.4-0.1-0.6-0.2-0.8c-0.1-0.1-0.4-0.2-0.8-0.2s-0.7,0.1-0.8,0.2c-0.1,0.1-0.2,0.4-0.2,0.7
			c0,0.4,0.1,0.6,0.2,0.8c0.1,0.1,0.4,0.2,0.8,0.2c0.4,0,0.7-0.1,0.8-0.2C199.9,56.5,200,56.3,200,55.9L200,55.9z"/>
		<path id="path1308" inkscape:connector-curvature="0" d="M207.8,47.3c0-0.1,0-0.1,0-0.1c0,0-0.1-0.1-0.1-0.1c-0.1,0-0.2,0-0.3-0.1
			c-0.1,0-0.3,0-0.4,0c-0.2,0-0.3,0-0.4,0c-0.1,0-0.2,0-0.3,0.1c-0.1,0-0.1,0.1-0.1,0.1c0,0,0,0.1,0,0.1V51c0,0.3,0,0.6-0.1,0.7
			c0,0.2-0.1,0.3-0.2,0.5c-0.1,0.1-0.2,0.2-0.3,0.3c-0.1,0.1-0.3,0.1-0.5,0.1c-0.2,0-0.5-0.1-0.7-0.3c-0.2-0.2-0.5-0.4-0.7-0.7v-4.3
			c0-0.1,0-0.1,0-0.1c0,0-0.1-0.1-0.1-0.1c-0.1,0-0.2,0-0.3-0.1c-0.1,0-0.3,0-0.4,0c-0.2,0-0.3,0-0.4,0c-0.1,0-0.2,0-0.3,0.1
			c-0.1,0-0.1,0.1-0.1,0.1c0,0,0,0.1,0,0.1v6.4c0,0.1,0,0.1,0,0.1c0,0,0.1,0.1,0.1,0.1c0.1,0,0.1,0,0.2,0.1c0.1,0,0.2,0,0.4,0
			c0.2,0,0.3,0,0.4,0c0.1,0,0.2,0,0.2-0.1c0.1,0,0.1-0.1,0.1-0.1c0,0,0-0.1,0-0.1V53c0.4,0.4,0.7,0.7,1.1,0.9
			c0.4,0.2,0.8,0.3,1.1,0.3c0.4,0,0.8-0.1,1.1-0.2c0.3-0.1,0.5-0.3,0.7-0.6c0.2-0.2,0.3-0.5,0.4-0.9c0.1-0.3,0.1-0.7,0.1-1.2
			L207.8,47.3z"/>
		<path id="path1310" inkscape:connector-curvature="0" d="M215.4,53.3c0-0.2,0-0.4-0.1-0.5c-0.1-0.1-0.1-0.2-0.2-0.2h-0.8
			c0.1-0.1,0.2-0.3,0.2-0.4c0-0.1,0.1-0.3,0.1-0.5c0-0.4-0.1-0.7-0.2-1c-0.1-0.3-0.3-0.5-0.5-0.7c-0.2-0.2-0.5-0.3-0.8-0.5
			c-0.3-0.1-0.7-0.2-1.1-0.2c-0.2,0-0.4,0-0.6,0.1c-0.2,0.1-0.3,0.1-0.4,0.2c-0.1-0.1-0.1-0.1-0.2-0.2c0-0.1-0.1-0.2-0.1-0.3
			c0-0.1,0.1-0.3,0.2-0.3c0.1-0.1,0.3-0.1,0.5-0.1l1.6-0.1c0.4,0,0.7-0.1,1-0.2c0.3-0.1,0.5-0.2,0.7-0.4c0.2-0.2,0.3-0.4,0.4-0.6
			c0.1-0.2,0.2-0.5,0.2-0.8c0-0.3-0.1-0.6-0.2-0.9c-0.1-0.3-0.3-0.5-0.6-0.7c-0.3-0.2-0.6-0.4-1.1-0.5c-0.4-0.1-0.9-0.2-1.5-0.2
			c-0.5,0-1,0-1.4,0.1c-0.4,0.1-0.7,0.2-0.9,0.4s-0.4,0.3-0.5,0.6c-0.1,0.2-0.2,0.4-0.2,0.7c0,0.2,0,0.3,0.1,0.5
			c0,0.1,0.1,0.3,0.2,0.4c0.1,0.1,0.2,0.3,0.3,0.4c0.1,0.1,0.2,0.2,0.4,0.3c-0.2,0.1-0.4,0.3-0.5,0.4c-0.1,0.2-0.2,0.4-0.2,0.6
			c0,0.3,0.1,0.5,0.2,0.8c0.1,0.2,0.3,0.4,0.5,0.6c-0.2,0.2-0.3,0.4-0.4,0.6c-0.1,0.2-0.1,0.5-0.1,0.9c0,0.4,0.1,0.7,0.2,1
			c0.1,0.3,0.3,0.5,0.6,0.7c0.2,0.2,0.5,0.4,0.8,0.5c0.3,0.1,0.7,0.2,1.1,0.2c0.2,0,0.4,0,0.6,0c0.2,0,0.4-0.1,0.5-0.1h2
			c0.1,0,0.1-0.1,0.2-0.2C215.3,53.7,215.4,53.5,215.4,53.3L215.4,53.3z M213,51.8c0,0.3-0.1,0.6-0.3,0.8c-0.2,0.2-0.5,0.3-0.8,0.3
			c-0.2,0-0.3,0-0.5-0.1c-0.1-0.1-0.2-0.1-0.3-0.2c-0.1-0.1-0.2-0.2-0.2-0.4c0-0.1-0.1-0.3-0.1-0.4c0-0.3,0.1-0.6,0.3-0.8
			c0.2-0.2,0.5-0.3,0.8-0.3c0.2,0,0.3,0,0.5,0.1c0.1,0.1,0.2,0.1,0.3,0.2c0.1,0.1,0.2,0.2,0.2,0.4C213,51.5,213,51.6,213,51.8
			L213,51.8z M213.5,46.6c0,0.2-0.1,0.4-0.3,0.5c-0.2,0.1-0.4,0.2-0.7,0.2l-1.3,0c-0.1-0.1-0.2-0.2-0.3-0.3
			c-0.1-0.1-0.1-0.2-0.2-0.2c0-0.1-0.1-0.2-0.1-0.2c0-0.1,0-0.1,0-0.2c0-0.2,0.1-0.4,0.4-0.5c0.2-0.1,0.6-0.2,1-0.2
			c0.3,0,0.5,0,0.7,0.1c0.2,0.1,0.3,0.1,0.5,0.2c0.1,0.1,0.2,0.2,0.2,0.3C213.4,46.4,213.5,46.5,213.5,46.6L213.5,46.6z"/>
		<path id="path1312" inkscape:connector-curvature="0" d="M224.9,50.9c0-0.3,0-0.6-0.1-0.9c-0.1-0.3-0.1-0.6-0.3-0.9
			c-0.1-0.3-0.3-0.6-0.4-0.8c-0.2-0.3-0.4-0.5-0.6-0.7c-0.2-0.2-0.5-0.3-0.8-0.5c-0.3-0.1-0.6-0.2-1-0.2c-0.4,0-0.7,0-1,0.1
			c-0.3,0.1-0.5,0.2-0.7,0.4c-0.2,0.2-0.3,0.4-0.4,0.7c-0.1,0.3-0.1,0.6-0.1,0.9c0,0.3,0,0.6,0.1,0.9c0.1,0.3,0.1,0.6,0.3,0.9
			c0.1,0.3,0.3,0.6,0.4,0.8c0.2,0.3,0.4,0.5,0.6,0.7c0.2,0.2,0.5,0.3,0.8,0.5c0.3,0.1,0.6,0.2,1,0.2c0.4,0,0.7,0,1-0.1
			s0.5-0.2,0.7-0.4c0.2-0.2,0.3-0.4,0.4-0.7C224.9,51.5,224.9,51.2,224.9,50.9z M223.9,50.8c0,0.2,0,0.4-0.1,0.5s-0.1,0.3-0.2,0.4
			c-0.1,0.1-0.2,0.2-0.4,0.3c-0.2,0.1-0.4,0.1-0.6,0.1c-0.2,0-0.5,0-0.7-0.1c-0.2-0.1-0.4-0.2-0.5-0.4c-0.2-0.1-0.3-0.3-0.4-0.5
			c-0.1-0.2-0.2-0.4-0.3-0.6c-0.1-0.2-0.1-0.5-0.2-0.7c0-0.2-0.1-0.5-0.1-0.7c0-0.2,0-0.4,0.1-0.6c0-0.2,0.1-0.3,0.2-0.4
			c0.1-0.1,0.2-0.2,0.4-0.3c0.2-0.1,0.4-0.1,0.6-0.1c0.2,0,0.5,0,0.7,0.1c0.2,0.1,0.4,0.2,0.5,0.4c0.2,0.1,0.3,0.3,0.4,0.5
			c0.1,0.2,0.2,0.4,0.3,0.6c0.1,0.2,0.1,0.5,0.2,0.7C223.8,50.4,223.9,50.6,223.9,50.8z"/>
		<path id="path1314" inkscape:connector-curvature="0" d="M230.4,55.2C230.4,55.2,230.4,55.2,230.4,55.2c0-0.1,0-0.2,0-0.2
			s0-0.1,0-0.1c0,0,0-0.1,0-0.1c0,0,0-0.1-0.1-0.1c0,0,0,0-0.1,0c0,0-0.1,0-0.1,0s-0.1,0-0.1,0.1c-0.1,0-0.1,0-0.2,0
			c-0.1,0-0.2,0-0.3,0c-0.2,0-0.3,0-0.4-0.1c-0.1-0.1-0.2-0.1-0.3-0.2c-0.1-0.1-0.2-0.3-0.2-0.4c-0.1-0.2-0.1-0.4-0.2-0.6l-0.1-0.6
			h1.2c0,0,0.1,0,0.1,0c0,0,0-0.1,0-0.1c0,0,0-0.1,0-0.1c0-0.1,0-0.1,0-0.1c0,0,0-0.1,0-0.1c0,0,0-0.1-0.1-0.1c0,0,0-0.1-0.1-0.1
			c0,0-0.1,0-0.1,0H228l-1-5.2c-0.1-0.3-0.2-0.6-0.3-0.9c-0.1-0.3-0.3-0.5-0.4-0.6c-0.2-0.2-0.4-0.3-0.6-0.4
			c-0.2-0.1-0.5-0.1-0.8-0.1c-0.2,0-0.3,0-0.4,0c-0.1,0-0.2,0.1-0.2,0.1c0,0,0,0,0,0.1c0,0,0,0.1,0,0.1c0,0,0,0,0,0.1s0,0.1,0,0.1
			c0,0,0,0.1,0,0.1c0,0,0,0.1,0,0.1c0,0,0,0.1,0.1,0.1c0,0,0,0,0.1,0c0,0,0.1,0,0.1,0c0,0,0.1,0,0.1,0c0,0,0.1,0,0.1,0
			c0,0,0.1,0,0.2,0c0.2,0,0.3,0,0.4,0.1c0.1,0.1,0.2,0.1,0.3,0.2c0.1,0.1,0.2,0.3,0.2,0.4c0.1,0.2,0.1,0.4,0.2,0.6l1,5h-0.8
			c0,0-0.1,0-0.1,0c0,0,0,0.1,0,0.1c0,0,0,0.1,0,0.1c0,0,0,0.1,0,0.1c0,0.1,0,0.1,0,0.1c0,0,0,0.1,0.1,0.1c0,0,0.1,0.1,0.1,0.1
			c0,0,0.1,0,0.1,0h0.8l0.2,0.8c0.1,0.3,0.2,0.6,0.3,0.9c0.1,0.3,0.3,0.5,0.4,0.6c0.2,0.2,0.4,0.3,0.6,0.4c0.2,0.1,0.5,0.1,0.8,0.1
			c0.1,0,0.2,0,0.3,0c0.1,0,0.2,0,0.3,0c0.1,0,0.2,0,0.2-0.1c0.1,0,0.1,0,0.1-0.1c0,0,0,0,0.1-0.1C230.4,55.3,230.4,55.2,230.4,55.2
			L230.4,55.2z"/>
		<path id="path1316" inkscape:connector-curvature="0" d="M157.3,32.6c0-0.1,0-0.1,0-0.1c0,0-0.1-0.1-0.1-0.1c-0.1,0-0.2,0-0.3-0.1
			c-0.1,0-0.3,0-0.4,0c-0.2,0-0.3,0-0.4,0c-0.1,0-0.2,0-0.3,0.1c-0.1,0-0.1,0.1-0.1,0.1c0,0,0,0.1,0,0.1V39c0,0,0,0.1,0,0.1
			c0,0,0.1,0.1,0.1,0.1c0.1,0,0.2,0,0.3,0.1c0.1,0,0.3,0,0.4,0c0.2,0,0.3,0,0.4,0c0.1,0,0.2,0,0.3-0.1c0.1,0,0.1-0.1,0.1-0.1
			c0,0,0-0.1,0-0.1V32.6z M157.4,41.2c0-0.4-0.1-0.6-0.2-0.8c-0.1-0.1-0.4-0.2-0.8-0.2c-0.4,0-0.7,0.1-0.8,0.2
			c-0.1,0.1-0.2,0.4-0.2,0.7c0,0.4,0.1,0.6,0.2,0.8c0.1,0.1,0.4,0.2,0.8,0.2c0.4,0,0.7-0.1,0.8-0.2
			C157.4,41.7,157.4,41.5,157.4,41.2z"/>
		<path id="path1318" inkscape:connector-curvature="0" d="M165.3,32.6c0-0.1,0-0.1,0-0.1s-0.1-0.1-0.1-0.1c-0.1,0-0.2,0-0.3-0.1
			c-0.1,0-0.3,0-0.4,0c-0.2,0-0.3,0-0.4,0c-0.1,0-0.2,0-0.3,0.1c-0.1,0-0.1,0.1-0.1,0.1c0,0,0,0.1,0,0.1v3.7c0,0.3,0,0.6-0.1,0.7
			c0,0.2-0.1,0.3-0.2,0.5c-0.1,0.1-0.2,0.2-0.3,0.3c-0.1,0.1-0.3,0.1-0.5,0.1c-0.2,0-0.5-0.1-0.7-0.3c-0.2-0.2-0.5-0.4-0.7-0.7v-4.3
			c0-0.1,0-0.1,0-0.1c0,0-0.1-0.1-0.1-0.1c-0.1,0-0.2,0-0.3-0.1c-0.1,0-0.3,0-0.4,0c-0.2,0-0.3,0-0.4,0c-0.1,0-0.2,0-0.3,0.1
			c-0.1,0-0.1,0.1-0.1,0.1c0,0,0,0.1,0,0.1V39c0,0.1,0,0.1,0,0.1c0,0,0.1,0.1,0.1,0.1c0.1,0,0.1,0,0.2,0.1c0.1,0,0.2,0,0.4,0
			c0.2,0,0.3,0,0.4,0c0.1,0,0.2,0,0.2-0.1c0.1,0,0.1-0.1,0.1-0.1c0,0,0-0.1,0-0.1v-0.7c0.4,0.4,0.7,0.7,1.1,0.9
			c0.4,0.2,0.8,0.3,1.1,0.3c0.4,0,0.8-0.1,1.1-0.2c0.3-0.1,0.5-0.3,0.7-0.6c0.2-0.2,0.3-0.5,0.4-0.9c0.1-0.3,0.1-0.7,0.1-1.2V32.6z"
			/>
		<path id="path1320" inkscape:connector-curvature="0" d="M170.8,41.4c0-0.1,0-0.3,0-0.3c0-0.1,0-0.1,0-0.2c0,0,0-0.1-0.1-0.1
			c0,0-0.1,0-0.1,0c0,0-0.1,0-0.1,0c0,0-0.1,0-0.2,0.1c-0.1,0-0.1,0-0.2,0.1c-0.1,0-0.2,0-0.3,0c-0.1,0-0.2,0-0.3-0.1
			c-0.1,0-0.2-0.1-0.2-0.2c-0.1-0.1-0.1-0.2-0.1-0.3c0-0.1,0-0.3,0-0.5v-0.6h1.2c0,0,0.1,0,0.1,0c0,0,0.1-0.1,0.1-0.1
			c0-0.1,0-0.1,0.1-0.2c0-0.1,0-0.2,0-0.4c0-0.3,0-0.5-0.1-0.6c0-0.1-0.1-0.2-0.2-0.2h-1.2v-5.2c0-0.1,0-0.1,0-0.1
			c0,0-0.1-0.1-0.1-0.1c-0.1,0-0.2,0-0.3-0.1c-0.1,0-0.3,0-0.4,0s-0.3,0-0.4,0c-0.1,0-0.2,0-0.3,0.1c-0.1,0-0.1,0.1-0.1,0.1
			c0,0,0,0.1,0,0.1v5.2h-0.8c-0.1,0-0.2,0.1-0.2,0.2s-0.1,0.3-0.1,0.6c0,0.1,0,0.3,0,0.4c0,0.1,0,0.2,0.1,0.2c0,0.1,0.1,0.1,0.1,0.1
			c0,0,0.1,0,0.1,0h0.8v0.5c0,0.4,0,0.8,0.1,1.1s0.2,0.6,0.4,0.8c0.2,0.2,0.4,0.4,0.7,0.5c0.3,0.1,0.6,0.2,1,0.2c0.2,0,0.4,0,0.5,0
			c0.2,0,0.3-0.1,0.4-0.1c0.1,0,0.2-0.1,0.2-0.1c0,0,0.1-0.1,0.1-0.1c0-0.1,0-0.1,0-0.2C170.8,41.7,170.8,41.6,170.8,41.4
			L170.8,41.4z"/>
		<path id="path1322" inkscape:connector-curvature="0" d="M177.3,36c0-0.2-0.1-0.4-0.1-0.5c-0.1-0.1-0.2-0.2-0.4-0.2h-3.9
			c0-0.3,0-0.5,0.1-0.7c0.1-0.2,0.2-0.4,0.3-0.6c0.1-0.2,0.3-0.3,0.5-0.4c0.2-0.1,0.5-0.1,0.8-0.1c0.3,0,0.6,0,0.8,0.1
			c0.2,0,0.4,0.1,0.6,0.2c0.2,0.1,0.3,0.1,0.4,0.1c0.1,0,0.2,0.1,0.3,0.1c0,0,0.1,0,0.1,0c0,0,0.1,0,0.1-0.1c0,0,0-0.1,0-0.2
			c0-0.1,0-0.2,0-0.3c0-0.1,0-0.2,0-0.3c0-0.1,0-0.1,0-0.2c0-0.1,0-0.1,0-0.1s0-0.1-0.1-0.1c0,0-0.1-0.1-0.3-0.1
			c-0.1-0.1-0.3-0.1-0.5-0.2c-0.2-0.1-0.5-0.1-0.7-0.1c-0.3,0-0.6-0.1-0.9-0.1c-0.6,0-1.1,0.1-1.5,0.2c-0.4,0.1-0.8,0.4-1.1,0.7
			c-0.3,0.3-0.5,0.7-0.6,1.1c-0.1,0.4-0.2,1-0.2,1.6c0,0.6,0.1,1.1,0.2,1.5c0.1,0.5,0.4,0.8,0.6,1.2c0.3,0.3,0.6,0.6,1,0.7
			c0.4,0.2,0.9,0.3,1.4,0.3c0.5,0,1-0.1,1.4-0.2c0.4-0.2,0.7-0.4,0.9-0.7c0.2-0.3,0.4-0.6,0.5-1c0.1-0.4,0.2-0.8,0.2-1.3L177.3,36z
			 M175.5,36.5c0,0.5-0.1,0.9-0.3,1.2c-0.2,0.3-0.6,0.4-1,0.4c-0.2,0-0.4,0-0.6-0.1c-0.2-0.1-0.3-0.2-0.4-0.4
			c-0.1-0.1-0.2-0.3-0.3-0.5c-0.1-0.2-0.1-0.4-0.1-0.6L175.5,36.5z"/>
		<path id="path1324" inkscape:connector-curvature="0" d="M183.6,33.6c0-0.1,0-0.2,0-0.3c0-0.1,0-0.2,0-0.2c0-0.1,0-0.1,0-0.1
			c0,0-0.1-0.1-0.1-0.1c-0.1-0.1-0.2-0.1-0.3-0.2c-0.1-0.1-0.3-0.1-0.5-0.2c-0.2-0.1-0.4-0.1-0.6-0.2c-0.2,0-0.4-0.1-0.6-0.1
			c-0.5,0-0.9,0.1-1.3,0.2c-0.4,0.2-0.7,0.4-1,0.7c-0.3,0.3-0.5,0.7-0.6,1.1c-0.1,0.4-0.2,0.9-0.2,1.5c0,0.6,0.1,1.2,0.2,1.7
			s0.4,0.9,0.7,1.2c0.3,0.3,0.6,0.5,1,0.7c0.4,0.2,0.8,0.2,1.3,0.2c0.2,0,0.4,0,0.6-0.1c0.2,0,0.4-0.1,0.5-0.1
			c0.2-0.1,0.3-0.1,0.4-0.2c0.1-0.1,0.2-0.1,0.3-0.2c0.1-0.1,0.1-0.1,0.1-0.1c0,0,0-0.1,0.1-0.1c0-0.1,0-0.1,0-0.2
			c0-0.1,0-0.2,0-0.3c0-0.3,0-0.5-0.1-0.6c0-0.1-0.1-0.2-0.2-0.2c-0.1,0-0.2,0-0.3,0.1c-0.1,0.1-0.2,0.1-0.3,0.2s-0.3,0.2-0.4,0.2
			c-0.2,0.1-0.4,0.1-0.6,0.1c-0.5,0-0.8-0.2-1.1-0.5c-0.3-0.4-0.4-0.9-0.4-1.6c0-0.3,0-0.7,0.1-0.9c0.1-0.3,0.2-0.5,0.3-0.7
			c0.1-0.2,0.3-0.3,0.5-0.4c0.2-0.1,0.4-0.1,0.6-0.1c0.3,0,0.5,0,0.6,0.1c0.2,0.1,0.3,0.2,0.5,0.3c0.1,0.1,0.3,0.2,0.3,0.2
			c0.1,0.1,0.2,0.1,0.2,0.1c0,0,0.1,0,0.1,0c0,0,0.1-0.1,0.1-0.1c0-0.1,0-0.1,0-0.3C183.6,33.9,183.6,33.7,183.6,33.6L183.6,33.6z"
			/>
		<path id="path1326" inkscape:connector-curvature="0" d="M191.2,39.2c0.2,0,0.3,0,0.4-0.1c0.1-0.1,0.1-0.2,0.1-0.4v-6.2
			c0-0.1,0-0.1,0-0.1c0,0-0.1-0.1-0.1-0.1c-0.1,0-0.2,0-0.3-0.1c-0.1,0-0.3,0-0.4,0c-0.2,0-0.3,0-0.4,0c-0.1,0-0.2,0-0.3,0.1
			c-0.1,0-0.1,0.1-0.1,0.1c0,0,0,0.1,0,0.1v5.2h-2.9v-3c0-0.4,0.1-0.6,0.2-0.8c0.1-0.2,0.3-0.3,0.6-0.3c0.1,0,0.2,0,0.3,0
			c0.1,0,0.1,0,0.2,0.1c0.1,0,0.1,0,0.1,0.1c0,0,0.1,0,0.1,0s0.1,0,0.1,0c0,0,0.1,0,0.1-0.1c0-0.1,0-0.1,0-0.2c0-0.1,0-0.2,0-0.3
			c0-0.2,0-0.4,0-0.5c0-0.1-0.1-0.2-0.1-0.2c0-0.1-0.1-0.1-0.2-0.1s-0.2-0.1-0.3-0.1c-0.1,0-0.2,0-0.4-0.1c-0.1,0-0.3,0-0.4,0
			c-0.4,0-0.7,0-0.9,0.1c-0.3,0.1-0.5,0.2-0.7,0.4c-0.2,0.2-0.3,0.4-0.4,0.7c-0.1,0.3-0.1,0.6-0.1,1v3.3h-0.8
			c-0.1,0-0.2,0.1-0.2,0.2c0,0.1-0.1,0.3-0.1,0.6c0,0.1,0,0.3,0,0.4c0,0.1,0,0.2,0.1,0.2c0,0.1,0.1,0.1,0.1,0.1c0,0,0.1,0,0.1,0h0.8
			v1.4c0,0,0,0.1,0,0.1c0,0,0.1,0.1,0.1,0.1c0.1,0,0.2,0,0.3,0.1c0.1,0,0.3,0,0.4,0c0.2,0,0.3,0,0.4,0c0.1,0,0.2,0,0.3-0.1
			c0.1,0,0.1-0.1,0.1-0.1c0,0,0-0.1,0-0.1v-1.4L191.2,39.2z M191.9,41.2c0-0.4-0.1-0.6-0.2-0.8c-0.1-0.1-0.4-0.2-0.8-0.2
			s-0.7,0.1-0.8,0.2c-0.1,0.1-0.2,0.4-0.2,0.7c0,0.4,0.1,0.6,0.2,0.8c0.1,0.1,0.4,0.2,0.8,0.2c0.4,0,0.7-0.1,0.8-0.2
			C191.8,41.7,191.9,41.5,191.9,41.2L191.9,41.2z"/>
		<path id="path1328" inkscape:connector-curvature="0" d="M200.1,35.8c0-0.6-0.1-1.1-0.2-1.5c-0.1-0.4-0.4-0.8-0.7-1.2
			c-0.3-0.3-0.7-0.6-1.1-0.8c-0.4-0.2-1-0.3-1.5-0.3c-0.6,0-1.1,0.1-1.5,0.2c-0.4,0.2-0.8,0.4-1.1,0.7c-0.3,0.3-0.5,0.7-0.6,1.1
			c-0.1,0.4-0.2,0.9-0.2,1.5c0,0.5,0.1,1.1,0.2,1.5c0.1,0.5,0.4,0.8,0.7,1.2c0.3,0.3,0.7,0.6,1.1,0.8c0.4,0.2,1,0.3,1.5,0.3
			c0.6,0,1.1-0.1,1.5-0.2c0.4-0.2,0.8-0.4,1-0.7c0.3-0.3,0.5-0.7,0.6-1.1C200,36.9,200.1,36.4,200.1,35.8z M198.2,35.8
			c0,0.3,0,0.6-0.1,0.9c0,0.3-0.1,0.5-0.3,0.7c-0.1,0.2-0.3,0.4-0.5,0.5c-0.2,0.1-0.4,0.2-0.8,0.2c-0.3,0-0.5-0.1-0.7-0.1
			c-0.2-0.1-0.4-0.2-0.5-0.4c-0.1-0.2-0.2-0.4-0.3-0.7c-0.1-0.3-0.1-0.6-0.1-0.9c0-0.3,0-0.6,0.1-0.9c0.1-0.3,0.1-0.5,0.3-0.7
			c0.1-0.2,0.3-0.3,0.5-0.5c0.2-0.1,0.5-0.2,0.8-0.2c0.3,0,0.5,0.1,0.7,0.1c0.2,0.1,0.4,0.2,0.5,0.4c0.1,0.2,0.2,0.4,0.3,0.7
			C198.2,35.1,198.2,35.4,198.2,35.8L198.2,35.8z"/>
		<path id="path1330" inkscape:connector-curvature="0" d="M207.6,32.6c0-0.1,0-0.1,0-0.1c0,0-0.1-0.1-0.1-0.1c-0.1,0-0.1,0-0.2-0.1
			c-0.1,0-0.2,0-0.4,0c-0.2,0-0.3,0-0.4,0c-0.1,0-0.2,0-0.2,0.1c-0.1,0-0.1,0.1-0.1,0.1c0,0,0,0.1,0,0.1v0.7
			c-0.4-0.4-0.7-0.7-1.1-0.9c-0.4-0.2-0.8-0.3-1.1-0.3c-0.4,0-0.8,0.1-1.1,0.2c-0.3,0.1-0.5,0.3-0.7,0.6c-0.2,0.3-0.3,0.5-0.4,0.9
			c-0.1,0.3-0.1,0.7-0.1,1.2V39c0,0.1,0,0.1,0,0.1c0,0,0.1,0.1,0.1,0.1c0.1,0,0.2,0,0.3,0.1c0.1,0,0.3,0,0.4,0s0.3,0,0.4,0
			c0.1,0,0.2,0,0.3-0.1c0.1,0,0.1-0.1,0.1-0.1c0,0,0-0.1,0-0.1v-3.6c0-0.3,0-0.6,0.1-0.8c0-0.2,0.1-0.3,0.2-0.5
			c0.1-0.1,0.2-0.2,0.3-0.3c0.1-0.1,0.3-0.1,0.5-0.1c0.2,0,0.5,0.1,0.7,0.3c0.2,0.2,0.5,0.4,0.7,0.7V39c0,0.1,0,0.1,0,0.1
			c0,0,0.1,0.1,0.1,0.1c0.1,0,0.2,0,0.3,0.1c0.1,0,0.3,0,0.4,0c0.2,0,0.3,0,0.4,0c0.1,0,0.2,0,0.3-0.1c0.1,0,0.1-0.1,0.1-0.1
			c0,0,0-0.1,0-0.1L207.6,32.6z"/>
		<path id="path1332" inkscape:connector-curvature="0" d="M214,34.4c0-0.4-0.1-0.7-0.2-1c-0.1-0.3-0.3-0.5-0.6-0.7
			c-0.3-0.2-0.5-0.3-0.9-0.4c-0.3-0.1-0.7-0.1-1.1-0.1c-0.2,0-0.5,0-0.7,0.1c-0.2,0-0.4,0.1-0.6,0.1c-0.2,0.1-0.3,0.1-0.4,0.2
			c-0.1,0.1-0.2,0.1-0.3,0.2c-0.1,0.1-0.1,0.1-0.1,0.2c0,0.1,0,0.3,0,0.5c0,0.1,0,0.3,0,0.3c0,0.1,0,0.2,0,0.2c0,0,0,0.1,0.1,0.1
			c0,0,0.1,0,0.1,0c0.1,0,0.1,0,0.2-0.1c0.1-0.1,0.2-0.1,0.4-0.2c0.2-0.1,0.3-0.1,0.5-0.2c0.2-0.1,0.4-0.1,0.7-0.1
			c0.2,0,0.3,0,0.4,0.1c0.1,0,0.2,0.1,0.3,0.1c0.1,0.1,0.2,0.1,0.2,0.2c0,0.1,0.1,0.2,0.1,0.3c0,0.1,0,0.3-0.1,0.4
			c-0.1,0.1-0.2,0.2-0.4,0.3c-0.1,0.1-0.3,0.2-0.5,0.2c-0.2,0.1-0.4,0.1-0.6,0.2c-0.2,0.1-0.4,0.2-0.6,0.3c-0.2,0.1-0.3,0.2-0.5,0.4
			c-0.1,0.2-0.3,0.3-0.4,0.6c-0.1,0.2-0.1,0.5-0.1,0.8c0,0.3,0.1,0.6,0.2,0.8c0.1,0.3,0.3,0.5,0.5,0.7c0.2,0.2,0.5,0.3,0.8,0.4
			c0.3,0.1,0.7,0.2,1.1,0.2c0.2,0,0.4,0,0.6,0c0.2,0,0.4-0.1,0.5-0.1c0.2,0,0.3-0.1,0.4-0.1c0.1-0.1,0.2-0.1,0.2-0.1
			s0.1-0.1,0.1-0.1c0,0,0-0.1,0-0.1s0-0.1,0-0.2s0-0.2,0-0.3c0-0.1,0-0.2,0-0.3c0-0.1,0-0.1,0-0.2c0,0,0-0.1-0.1-0.1
			c0,0-0.1,0-0.1,0c0,0-0.1,0-0.2,0.1c-0.1,0.1-0.2,0.1-0.3,0.2c-0.1,0.1-0.3,0.1-0.5,0.2c-0.2,0.1-0.4,0.1-0.6,0.1
			c-0.2,0-0.3,0-0.4-0.1c-0.1,0-0.2-0.1-0.3-0.1c-0.1-0.1-0.1-0.1-0.2-0.2c0-0.1-0.1-0.2-0.1-0.3c0-0.1,0-0.3,0.1-0.4
			c0.1-0.1,0.2-0.2,0.4-0.3c0.1-0.1,0.3-0.1,0.5-0.2c0.2-0.1,0.4-0.1,0.6-0.2c0.2-0.1,0.4-0.2,0.6-0.3c0.2-0.1,0.4-0.2,0.5-0.4
			c0.1-0.2,0.3-0.3,0.4-0.6C213.9,34.9,214,34.7,214,34.4L214,34.4z"/>
		<path id="path1334" inkscape:connector-curvature="0" d="M161.7,17.6c0-0.1,0-0.1,0-0.1c0,0-0.1-0.1-0.1-0.1c-0.1,0-0.1,0-0.2,0
			c-0.1,0-0.2,0-0.4,0c-0.2,0-0.3,0-0.4,0c-0.1,0-0.2,0-0.2,0c-0.1,0-0.1,0.1-0.1,0.1s0,0.1,0,0.1v0.7c-0.3-0.4-0.7-0.6-1-0.8
			c-0.4-0.2-0.8-0.3-1.2-0.3c-0.5,0-0.9,0.1-1.2,0.3c-0.3,0.2-0.6,0.4-0.8,0.8c-0.2,0.3-0.4,0.7-0.5,1.1c-0.1,0.4-0.1,0.9-0.1,1.4
			c0,0.6,0.1,1.1,0.2,1.5c0.1,0.5,0.3,0.8,0.5,1.2c0.2,0.3,0.5,0.6,0.9,0.7c0.4,0.2,0.8,0.3,1.2,0.3c0.4,0,0.7-0.1,1-0.2
			c0.3-0.1,0.6-0.4,0.9-0.6V27c0,0,0,0.1,0,0.1c0,0,0.1,0.1,0.1,0.1c0.1,0,0.2,0,0.3,0.1c0.1,0,0.3,0,0.4,0c0.2,0,0.3,0,0.4,0
			c0.1,0,0.2,0,0.3-0.1c0.1,0,0.1-0.1,0.1-0.1c0,0,0-0.1,0-0.1V17.6z M159.9,21.9c-0.3,0.3-0.5,0.6-0.7,0.7
			c-0.2,0.2-0.5,0.3-0.7,0.3c-0.2,0-0.4-0.1-0.6-0.2c-0.2-0.1-0.3-0.3-0.4-0.5c-0.1-0.2-0.2-0.4-0.2-0.7c-0.1-0.2-0.1-0.5-0.1-0.7
			c0-0.3,0-0.5,0.1-0.8s0.1-0.5,0.2-0.7c0.1-0.2,0.2-0.4,0.4-0.5s0.4-0.2,0.6-0.2c0.1,0,0.2,0,0.4,0.1c0.1,0,0.2,0.1,0.4,0.2
			c0.1,0.1,0.2,0.2,0.4,0.3c0.1,0.1,0.3,0.3,0.4,0.5L159.9,21.9z"/>
		<path id="path1336" inkscape:connector-curvature="0" d="M165.4,17.6c0-0.1,0-0.1,0-0.1c0,0-0.1-0.1-0.1-0.1c-0.1,0-0.2,0-0.3-0.1
			c-0.1,0-0.3,0-0.4,0c-0.2,0-0.3,0-0.4,0c-0.1,0-0.2,0-0.3,0.1c-0.1,0-0.1,0.1-0.1,0.1c0,0,0,0.1,0,0.1V24c0,0,0,0.1,0,0.1
			c0,0,0.1,0.1,0.1,0.1c0.1,0,0.2,0,0.3,0.1c0.1,0,0.3,0,0.4,0c0.2,0,0.3,0,0.4,0c0.1,0,0.2,0,0.3-0.1c0.1,0,0.1-0.1,0.1-0.1
			c0,0,0-0.1,0-0.1V17.6z M165.5,26.2c0-0.4-0.1-0.6-0.2-0.8c-0.1-0.1-0.4-0.2-0.8-0.2c-0.4,0-0.7,0.1-0.8,0.2
			c-0.1,0.1-0.2,0.4-0.2,0.7c0,0.4,0.1,0.6,0.2,0.8c0.1,0.1,0.4,0.2,0.8,0.2c0.4,0,0.7-0.1,0.8-0.2
			C165.5,26.7,165.5,26.5,165.5,26.2z"/>
		<path id="path1338" inkscape:connector-curvature="0" d="M171.7,19.4c0-0.4-0.1-0.7-0.2-1c-0.1-0.3-0.3-0.5-0.6-0.7
			c-0.3-0.2-0.5-0.3-0.9-0.4c-0.3-0.1-0.7-0.1-1.1-0.1c-0.2,0-0.5,0-0.7,0.1c-0.2,0-0.4,0.1-0.6,0.1c-0.2,0.1-0.3,0.1-0.4,0.2
			c-0.1,0.1-0.2,0.1-0.3,0.2c-0.1,0.1-0.1,0.1-0.1,0.2c0,0.1,0,0.3,0,0.5c0,0.1,0,0.3,0,0.3c0,0.1,0,0.2,0,0.2c0,0,0,0.1,0.1,0.1
			c0,0,0.1,0,0.1,0c0.1,0,0.1,0,0.2-0.1c0.1-0.1,0.2-0.1,0.4-0.2c0.2-0.1,0.3-0.1,0.5-0.2c0.2-0.1,0.4-0.1,0.7-0.1
			c0.2,0,0.3,0,0.4,0.1c0.1,0,0.2,0.1,0.3,0.1c0.1,0.1,0.2,0.1,0.2,0.2c0,0.1,0.1,0.2,0.1,0.3c0,0.1,0,0.3-0.1,0.4
			c-0.1,0.1-0.2,0.2-0.4,0.3c-0.1,0.1-0.3,0.2-0.5,0.2c-0.2,0.1-0.4,0.1-0.6,0.2c-0.2,0.1-0.4,0.2-0.6,0.3c-0.2,0.1-0.3,0.2-0.5,0.4
			c-0.1,0.2-0.3,0.3-0.4,0.6c-0.1,0.2-0.1,0.5-0.1,0.8c0,0.3,0.1,0.6,0.2,0.8c0.1,0.3,0.3,0.5,0.5,0.7c0.2,0.2,0.5,0.3,0.8,0.4
			c0.3,0.1,0.7,0.2,1.1,0.2c0.2,0,0.4,0,0.6,0c0.2,0,0.4-0.1,0.5-0.1c0.2,0,0.3-0.1,0.4-0.1c0.1-0.1,0.2-0.1,0.2-0.1
			c0,0,0.1-0.1,0.1-0.1c0,0,0-0.1,0-0.1c0-0.1,0-0.1,0-0.2c0-0.1,0-0.2,0-0.3c0-0.1,0-0.2,0-0.3c0-0.1,0-0.1,0-0.2
			c0,0,0-0.1-0.1-0.1c0,0-0.1,0-0.1,0c0,0-0.1,0-0.2,0.1c-0.1,0.1-0.2,0.1-0.3,0.2c-0.1,0.1-0.3,0.1-0.5,0.2
			c-0.2,0.1-0.4,0.1-0.6,0.1c-0.2,0-0.3,0-0.4-0.1c-0.1,0-0.2-0.1-0.3-0.1c-0.1-0.1-0.1-0.1-0.2-0.2c0-0.1-0.1-0.2-0.1-0.3
			c0-0.1,0-0.3,0.1-0.4c0.1-0.1,0.2-0.2,0.4-0.3c0.1-0.1,0.3-0.1,0.5-0.2c0.2-0.1,0.4-0.1,0.6-0.2c0.2-0.1,0.4-0.2,0.6-0.3
			c0.2-0.1,0.4-0.2,0.5-0.4c0.1-0.2,0.3-0.3,0.4-0.6C171.7,19.9,171.7,19.7,171.7,19.4L171.7,19.4z"/>
		<path id="path1340" inkscape:connector-curvature="0" d="M179,21c0-0.2-0.1-0.4-0.1-0.5c-0.1-0.1-0.2-0.2-0.4-0.2h-3.9
			c0-0.3,0-0.5,0.1-0.7c0.1-0.2,0.2-0.4,0.3-0.6c0.1-0.2,0.3-0.3,0.5-0.4c0.2-0.1,0.5-0.1,0.8-0.1c0.3,0,0.6,0,0.8,0.1
			c0.2,0,0.4,0.1,0.6,0.2c0.2,0.1,0.3,0.1,0.4,0.1c0.1,0,0.2,0.1,0.3,0.1c0,0,0.1,0,0.1,0c0,0,0.1,0,0.1-0.1c0,0,0-0.1,0-0.2
			c0-0.1,0-0.2,0-0.3c0-0.1,0-0.2,0-0.3c0-0.1,0-0.1,0-0.2c0-0.1,0-0.1,0-0.1c0,0,0-0.1-0.1-0.1c0,0-0.1-0.1-0.3-0.1
			c-0.1-0.1-0.3-0.1-0.5-0.2c-0.2-0.1-0.5-0.1-0.7-0.1c-0.3,0-0.6-0.1-0.9-0.1c-0.6,0-1.1,0.1-1.5,0.2c-0.4,0.1-0.8,0.4-1.1,0.7
			c-0.3,0.3-0.5,0.7-0.6,1.1c-0.1,0.4-0.2,1-0.2,1.6c0,0.6,0.1,1.1,0.2,1.5c0.1,0.5,0.4,0.8,0.6,1.2c0.3,0.3,0.6,0.6,1,0.7
			s0.9,0.3,1.4,0.3c0.5,0,1-0.1,1.4-0.2c0.4-0.2,0.7-0.4,0.9-0.7c0.2-0.3,0.4-0.6,0.5-1c0.1-0.4,0.2-0.8,0.2-1.3L179,21z
			 M177.3,21.5c0,0.5-0.1,0.9-0.3,1.2c-0.2,0.3-0.6,0.4-1,0.4c-0.2,0-0.4,0-0.6-0.1s-0.3-0.2-0.4-0.4c-0.1-0.1-0.2-0.3-0.3-0.5
			c-0.1-0.2-0.1-0.4-0.1-0.6L177.3,21.5z"/>
		<path id="path1342" inkscape:connector-curvature="0" d="M186,17.5c0-0.1,0-0.1-0.1-0.2c0,0-0.1-0.1-0.2-0.1c-0.1,0-0.3,0-0.5,0
			c-0.2,0-0.4,0-0.5,0c-0.1,0-0.2,0-0.2,0.1c0,0-0.1,0.1-0.1,0.2V18c-0.3-0.3-0.6-0.5-0.9-0.7c-0.3-0.2-0.7-0.2-1.1-0.2
			c-0.3,0-0.7,0-0.9,0.1c-0.3,0.1-0.5,0.2-0.7,0.4c-0.2,0.2-0.4,0.4-0.5,0.7c-0.1,0.3-0.2,0.6-0.2,0.9c0,0.4,0.1,0.7,0.2,1
			c0.1,0.3,0.4,0.5,0.7,0.7c0.3,0.2,0.7,0.3,1.1,0.4c0.4,0.1,0.9,0.1,1.5,0.1h0.6v0.4c0,0.2,0,0.4-0.1,0.5c0,0.1-0.1,0.3-0.2,0.4
			c-0.1,0.1-0.2,0.2-0.4,0.2c-0.2,0-0.3,0.1-0.6,0.1c-0.3,0-0.6,0-0.8-0.1c-0.2-0.1-0.4-0.1-0.6-0.2c-0.2-0.1-0.3-0.2-0.5-0.2
			c-0.1-0.1-0.2-0.1-0.3-0.1c-0.1,0-0.1,0-0.1,0.1c0,0-0.1,0.1-0.1,0.1c0,0.1,0,0.1-0.1,0.2c0,0.1,0,0.2,0,0.3c0,0.1,0,0.3,0,0.4
			c0,0.1,0.1,0.2,0.1,0.2c0.1,0.1,0.2,0.1,0.4,0.2c0.2,0.1,0.4,0.2,0.6,0.2c0.2,0.1,0.5,0.1,0.7,0.2c0.3,0,0.5,0.1,0.8,0.1
			c0.5,0,0.9-0.1,1.3-0.1c0.4-0.1,0.7-0.3,0.9-0.5c0.2-0.2,0.4-0.5,0.5-0.8c0.1-0.3,0.2-0.7,0.2-1.1L186,17.5z M184.2,20.3h-0.7
			c-0.3,0-0.5,0-0.8-0.1c-0.2,0-0.4-0.1-0.5-0.2c-0.1-0.1-0.2-0.2-0.3-0.3c-0.1-0.1-0.1-0.3-0.1-0.4c0-0.3,0.1-0.5,0.3-0.6
			c0.2-0.2,0.4-0.2,0.7-0.2c0.3,0,0.5,0.1,0.7,0.2c0.2,0.1,0.4,0.3,0.7,0.6V20.3z"/>
		<path id="path1344" inkscape:connector-curvature="0" d="M192.3,19.4c0-0.4-0.1-0.7-0.2-1c-0.1-0.3-0.3-0.5-0.6-0.7
			c-0.3-0.2-0.5-0.3-0.9-0.4c-0.3-0.1-0.7-0.1-1.1-0.1c-0.2,0-0.5,0-0.7,0.1c-0.2,0-0.4,0.1-0.6,0.1c-0.2,0.1-0.3,0.1-0.4,0.2
			c-0.1,0.1-0.2,0.1-0.3,0.2c-0.1,0.1-0.1,0.1-0.1,0.2c0,0.1,0,0.3,0,0.5c0,0.1,0,0.3,0,0.3c0,0.1,0,0.2,0,0.2c0,0,0,0.1,0.1,0.1
			c0,0,0.1,0,0.1,0c0.1,0,0.1,0,0.2-0.1c0.1-0.1,0.2-0.1,0.4-0.2c0.2-0.1,0.3-0.1,0.5-0.2c0.2-0.1,0.4-0.1,0.7-0.1
			c0.2,0,0.3,0,0.4,0.1c0.1,0,0.2,0.1,0.3,0.1c0.1,0.1,0.2,0.1,0.2,0.2c0,0.1,0.1,0.2,0.1,0.3c0,0.1,0,0.3-0.1,0.4
			c-0.1,0.1-0.2,0.2-0.4,0.3c-0.1,0.1-0.3,0.2-0.5,0.2c-0.2,0.1-0.4,0.1-0.6,0.2c-0.2,0.1-0.4,0.2-0.6,0.3c-0.2,0.1-0.3,0.2-0.5,0.4
			c-0.1,0.2-0.3,0.3-0.4,0.6c-0.1,0.2-0.1,0.5-0.1,0.8c0,0.3,0.1,0.6,0.2,0.8c0.1,0.3,0.3,0.5,0.5,0.7c0.2,0.2,0.5,0.3,0.8,0.4
			c0.3,0.1,0.7,0.2,1.1,0.2c0.2,0,0.4,0,0.6,0c0.2,0,0.4-0.1,0.5-0.1c0.2,0,0.3-0.1,0.4-0.1c0.1-0.1,0.2-0.1,0.2-0.1
			s0.1-0.1,0.1-0.1c0,0,0-0.1,0-0.1c0-0.1,0-0.1,0-0.2s0-0.2,0-0.3c0-0.1,0-0.2,0-0.3c0-0.1,0-0.1,0-0.2c0,0,0-0.1-0.1-0.1
			c0,0-0.1,0-0.1,0c0,0-0.1,0-0.2,0.1c-0.1,0.1-0.2,0.1-0.3,0.2c-0.1,0.1-0.3,0.1-0.5,0.2c-0.2,0.1-0.4,0.1-0.6,0.1
			c-0.2,0-0.3,0-0.4-0.1c-0.1,0-0.2-0.1-0.3-0.1c-0.1-0.1-0.1-0.1-0.2-0.2s-0.1-0.2-0.1-0.3c0-0.1,0-0.3,0.1-0.4
			c0.1-0.1,0.2-0.2,0.4-0.3c0.1-0.1,0.3-0.1,0.5-0.2c0.2-0.1,0.4-0.1,0.6-0.2c0.2-0.1,0.4-0.2,0.6-0.3c0.2-0.1,0.4-0.2,0.5-0.4
			c0.1-0.2,0.3-0.3,0.4-0.6C192.3,19.9,192.3,19.7,192.3,19.4L192.3,19.4z"/>
		<path id="path1346" inkscape:connector-curvature="0" d="M199.6,21c0-0.2-0.1-0.4-0.1-0.5c-0.1-0.1-0.2-0.2-0.4-0.2h-3.9
			c0-0.3,0-0.5,0.1-0.7c0.1-0.2,0.2-0.4,0.3-0.6c0.1-0.2,0.3-0.3,0.5-0.4c0.2-0.1,0.5-0.1,0.8-0.1c0.3,0,0.6,0,0.8,0.1
			c0.2,0,0.4,0.1,0.6,0.2c0.2,0.1,0.3,0.1,0.4,0.1s0.2,0.1,0.3,0.1c0,0,0.1,0,0.1,0c0,0,0.1,0,0.1-0.1c0,0,0-0.1,0-0.2
			c0-0.1,0-0.2,0-0.3c0-0.1,0-0.2,0-0.3c0-0.1,0-0.1,0-0.2c0-0.1,0-0.1,0-0.1c0,0,0-0.1-0.1-0.1c0,0-0.1-0.1-0.3-0.1
			c-0.1-0.1-0.3-0.1-0.5-0.2c-0.2-0.1-0.5-0.1-0.7-0.1c-0.3,0-0.6-0.1-0.9-0.1c-0.6,0-1.1,0.1-1.5,0.2c-0.4,0.1-0.8,0.4-1.1,0.7
			c-0.3,0.3-0.5,0.7-0.6,1.1c-0.1,0.4-0.2,1-0.2,1.6c0,0.6,0.1,1.1,0.2,1.5c0.2,0.5,0.4,0.8,0.6,1.2c0.3,0.3,0.6,0.6,1,0.7
			s0.9,0.3,1.4,0.3c0.5,0,1-0.1,1.4-0.2c0.4-0.2,0.7-0.4,0.9-0.7c0.2-0.3,0.4-0.6,0.5-1c0.1-0.4,0.2-0.8,0.2-1.3V21z M197.9,21.5
			c0,0.5-0.1,0.9-0.3,1.2s-0.6,0.4-1,0.4c-0.2,0-0.4,0-0.6-0.1c-0.2-0.1-0.3-0.2-0.4-0.4c-0.1-0.1-0.2-0.3-0.3-0.5
			c-0.1-0.2-0.1-0.4-0.1-0.6L197.9,21.5z"/>
		<path id="path1348" inkscape:connector-curvature="0" d="M205.6,19.4c0-0.4-0.1-0.7-0.2-1c-0.1-0.3-0.3-0.5-0.6-0.7
			c-0.3-0.2-0.5-0.3-0.9-0.4c-0.3-0.1-0.7-0.1-1.1-0.1c-0.2,0-0.5,0-0.7,0.1c-0.2,0-0.4,0.1-0.6,0.1c-0.2,0.1-0.3,0.1-0.4,0.2
			c-0.1,0.1-0.2,0.1-0.3,0.2c-0.1,0.1-0.1,0.1-0.1,0.2c0,0.1,0,0.3,0,0.5c0,0.1,0,0.3,0,0.3c0,0.1,0,0.2,0,0.2c0,0,0,0.1,0.1,0.1
			c0,0,0.1,0,0.1,0c0.1,0,0.1,0,0.2-0.1c0.1-0.1,0.2-0.1,0.4-0.2c0.2-0.1,0.3-0.1,0.5-0.2c0.2-0.1,0.4-0.1,0.7-0.1
			c0.2,0,0.3,0,0.4,0.1c0.1,0,0.2,0.1,0.3,0.1c0.1,0.1,0.2,0.1,0.2,0.2c0,0.1,0.1,0.2,0.1,0.3c0,0.1,0,0.3-0.1,0.4
			c-0.1,0.1-0.2,0.2-0.4,0.3c-0.1,0.1-0.3,0.2-0.5,0.2c-0.2,0.1-0.4,0.1-0.6,0.2c-0.2,0.1-0.4,0.2-0.6,0.3c-0.2,0.1-0.3,0.2-0.5,0.4
			c-0.1,0.2-0.3,0.3-0.4,0.6c-0.1,0.2-0.1,0.5-0.1,0.8c0,0.3,0.1,0.6,0.2,0.8c0.1,0.3,0.3,0.5,0.5,0.7c0.2,0.2,0.5,0.3,0.8,0.4
			c0.3,0.1,0.7,0.2,1.1,0.2c0.2,0,0.4,0,0.6,0c0.2,0,0.4-0.1,0.5-0.1c0.2,0,0.3-0.1,0.4-0.1C205,24,205,24,205.1,24
			c0,0,0.1-0.1,0.1-0.1c0,0,0-0.1,0-0.1c0-0.1,0-0.1,0-0.2s0-0.2,0-0.3c0-0.1,0-0.2,0-0.3c0-0.1,0-0.1,0-0.2c0,0,0-0.1-0.1-0.1
			c0,0-0.1,0-0.1,0c0,0-0.1,0-0.2,0.1c-0.1,0.1-0.2,0.1-0.3,0.2c-0.1,0.1-0.3,0.1-0.5,0.2c-0.2,0.1-0.4,0.1-0.6,0.1
			c-0.2,0-0.3,0-0.4-0.1c-0.1,0-0.2-0.1-0.3-0.1c-0.1-0.1-0.1-0.1-0.2-0.2c0-0.1-0.1-0.2-0.1-0.3c0-0.1,0-0.3,0.1-0.4
			c0.1-0.1,0.2-0.2,0.4-0.3c0.1-0.1,0.3-0.1,0.5-0.2c0.2-0.1,0.4-0.1,0.6-0.2c0.2-0.1,0.4-0.2,0.6-0.3c0.2-0.1,0.4-0.2,0.5-0.4
			c0.1-0.2,0.3-0.3,0.4-0.6C205.6,19.9,205.6,19.7,205.6,19.4L205.6,19.4z"/>
	</g>
</g>
</svg>
