<?xml version="1.0" encoding="utf-8"?>
<!-- Generator: Adobe Illustrator 24.0.2, SVG Export Plug-In . SVG Version: 6.00 Build 0)  -->
<svg version="1.1"
	 id="svg850" inkscape:export-filename="/Users/julian/Desktop/cmmid_newlogo.png" inkscape:export-xdpi="300" inkscape:export-ydpi="300" inkscape:version="0.92.2 5c3e80d, 2017-08-06" sodipodi:docname="cmmid_newlogo.svg" xmlns:cc="http://creativecommons.org/ns#" xmlns:dc="http://purl.org/dc/elements/1.1/" xmlns:inkscape="http://www.inkscape.org/namespaces/inkscape" xmlns:rdf="http://www.w3.org/1999/02/22-rdf-syntax-ns#" xmlns:sodipodi="http://sodipodi.sourceforge.net/DTD/sodipodi-0.dtd" xmlns:svg="http://www.w3.org/2000/svg"
	 xmlns="http://www.w3.org/2000/svg" xmlns:xlink="http://www.w3.org/1999/xlink" x="0px" y="0px" viewBox="0 0 118.6 118.9"
	 style="enable-background:new 0 0 118.6 118.9;" xml:space="preserve">
<style type="text/css">
	.st0{fill:#FFFFFF;}
</style>
<sodipodi:namedview  bordercolor="#666666" borderopacity="1" gridtolerance="10" guidetolerance="10" id="namedview852" inkscape:current-layer="g860" inkscape:cx="220.24266" inkscape:cy="48.617445" inkscape:guide-bbox="true" inkscape:pageopacity="0" inkscape:pageshadow="2" inkscape:window-height="1283" inkscape:window-maximized="0" inkscape:window-width="2560" inkscape:window-x="0" inkscape:window-y="0" inkscape:zoom="5.4303739" objecttolerance="10" pagecolor="#ffffff" showgrid="false" showguides="true">
	<sodipodi:guide  id="guide1350" inkscape:locked="false" orientation="1,0" position="211.03519,110.48963"></sodipodi:guide>
</sodipodi:namedview>
<g id="g858" transform="matrix(1.3333333,0,0,-1.3333333,0,126.69879)" inkscape:groupmode="layer" inkscape:label="cmmid_logo">
	<g id="g860">
		<path id="path862" inkscape:connector-curvature="0" class="st0" d="M66.7,73.1C66.7,73.1,66.7,73,66.7,73.1
			C66.7,73,66.7,73,66.7,73.1"/>
		<path id="path864" inkscape:connector-curvature="0" class="st0" d="M54.2,80.5C54.2,80.6,54.2,80.6,54.2,80.5
			C54.2,80.6,54.2,80.6,54.2,80.5"/>
		<path id="path866" inkscape:connector-curvature="0" class="st0" d="M66.8,73.4c0,0.2-0.1,0.4-0.2,0.5l0,0L66.5,74
			C66.7,73.9,66.8,73.6,66.8,73.4"/>
		<path id="path868" inkscape:connector-curvature="0" class="st0" d="M54.2,80.5L54.2,80.5C54.1,80.4,54.1,80.5,54.2,80.5"/>
		<path id="path870" inkscape:connector-curvature="0" class="st0" d="M66.8,73.2L66.8,73.2L66.8,73.2"/>
		<path id="path872" inkscape:connector-curvature="0" class="st0" d="M54.4,80.7c0.2,0.1,0.5,0.1,0.7,0.1H55l0,0
			C54.7,80.8,54.6,80.8,54.4,80.7"/>
		<path id="path874" inkscape:connector-curvature="0" class="st0" d="M76.9,51.6c0-0.1,0-0.1,0-0.2C76.9,51.5,76.9,51.5,76.9,51.6"
			/>
		<path id="path876" inkscape:connector-curvature="0" class="st0" d="M76.9,51.4C76.9,51.4,76.9,51.3,76.9,51.4L76.9,51.4"/>
		<path id="path878" inkscape:connector-curvature="0" class="st0" d="M76.8,51.2C76.8,51.2,76.7,51.2,76.8,51.2
			C76.7,51.2,76.8,51.2,76.8,51.2"/>
		<path id="path880" inkscape:connector-curvature="0" class="st0" d="M75.2,40.8c0-0.1,0.1-0.1,0.1-0.2l0,0
			C75.3,40.6,75.3,40.7,75.2,40.8"/>
		<path id="path882" inkscape:connector-curvature="0" class="st0" d="M76.7,51.1C76.7,51.1,76.6,51.1,76.7,51.1
			C76.6,51.1,76.7,51.1,76.7,51.1"/>
		<path id="path884" inkscape:connector-curvature="0" class="st0" d="M66.8,73.4L66.8,73.4C66.8,73.3,66.8,73.3,66.8,73.4"/>
		<path id="path886" inkscape:connector-curvature="0" class="st0" d="M75.2,40.8L75.2,40.8L75.2,40.8"/>
		<path id="path888" inkscape:connector-curvature="0" class="st0" d="M75,41L75,41C75,41.1,75,41,75,41"/>
		<path id="path890" inkscape:connector-curvature="0" class="st0" d="M75.1,41C75.1,41,75.1,40.9,75.1,41
			C75.1,40.9,75.1,41,75.1,41"/>
		<path id="path892" inkscape:connector-curvature="0" class="st0" d="M73.1,65.1C73.1,65.1,73,65.1,73.1,65.1
			C73,65.1,73.1,65.1,73.1,65.1"/>
		<path id="path894" inkscape:connector-curvature="0" class="st0" d="M73.4,64.9L73.4,64.9L73.4,64.9"/>
		<path id="path896" inkscape:connector-curvature="0" class="st0" d="M73.5,64.8c0,0,0.1-0.1,0.1-0.2
			C73.6,64.6,73.6,64.7,73.5,64.8C73.6,64.7,73.6,64.7,73.5,64.8L73.5,64.8"/>
		<path id="path898" inkscape:connector-curvature="0" class="st0" d="M73.2,65L73.2,65L73.2,65"/>
		<path id="path900" inkscape:connector-curvature="0" class="st0" d="M76.2,50.9c-0.1,0-0.1,0-0.2,0C76.1,50.9,76.2,50.9,76.2,50.9
			"/>
		<path id="path902" inkscape:connector-curvature="0" class="st0" d="M76.4,50.9L76.4,50.9L76.4,50.9"/>
		<path id="path904" inkscape:connector-curvature="0" class="st0" d="M76.5,51L76.5,51L76.5,51"/>
		<path id="path906" inkscape:connector-curvature="0" class="st0" d="M76.9,51.6C76.9,51.6,76.9,51.7,76.9,51.6c0,0.1,0,0.1,0,0.2
			C76.9,51.7,76.9,51.7,76.9,51.6"/>
		<path id="path908" inkscape:connector-curvature="0" class="st0" d="M54.4,80.7C54.4,80.7,54.3,80.7,54.4,80.7
			C54.3,80.7,54.4,80.7,54.4,80.7"/>
		<path id="path910" inkscape:connector-curvature="0" class="st0" d="M22.9,27.4C22.9,27.5,23,27.5,22.9,27.4
			C23,27.5,22.9,27.5,22.9,27.4"/>
		<path id="path912" inkscape:connector-curvature="0" class="st0" d="M22.9,27.3v0.1V27.3"/>
		<path id="path914" inkscape:connector-curvature="0" class="st0" d="M16.1,36L16.1,36c0.1-0.1,0.1-0.1,0.1-0.1
			C16.1,35.9,16.1,36,16.1,36"/>
		<path id="path916" inkscape:connector-curvature="0" class="st0" d="M35.3,20C35.4,20,35.4,20,35.3,20C35.4,20,35.4,20,35.3,20"/>
		<path id="path918" inkscape:connector-curvature="0" class="st0" d="M23,27.6c0,0,0,0.1,0.1,0.1C23,27.7,23,27.6,23,27.6"/>
		<path id="path920" inkscape:connector-curvature="0" class="st0" d="M22.9,27.3c0-0.2,0-0.4,0.2-0.5l0,0l0.1-0.1
			C23,26.8,22.9,27,22.9,27.3"/>
		<path id="path922" inkscape:connector-curvature="0" class="st0" d="M12.8,49L12.8,49c0-0.1,0-0.1,0-0.2
			C12.8,48.9,12.8,49,12.8,49"/>
		<path id="path924" inkscape:connector-curvature="0" class="st0" d="M14.4,60c0,0,0-0.1,0.1-0.1C14.5,59.9,14.4,59.9,14.4,60"/>
		<path id="path926" inkscape:connector-curvature="0" class="st0" d="M14.7,59.6l0.1-0.1C14.8,59.6,14.7,59.6,14.7,59.6"/>
		<path id="path928" inkscape:connector-curvature="0" class="st0" d="M14.4,60c-0.1,0.2-0.1,0.4,0,0.6v-0.1l0,0
			C14.4,60.3,14.4,60.1,14.4,60"/>
		<path id="path930" inkscape:connector-curvature="0" class="st0" d="M14.7,59.7C14.6,59.7,14.6,59.7,14.7,59.7
			C14.6,59.7,14.6,59.7,14.7,59.7"/>
		<path id="path932" inkscape:connector-curvature="0" class="st0" d="M14.5,59.8L14.5,59.8L14.5,59.8"/>
		<path id="path934" inkscape:connector-curvature="0" class="st0" d="M45.4,18.9c0,0.1,0,0.1,0,0.2C45.4,19,45.4,19,45.4,18.9"/>
		<path id="path936" inkscape:connector-curvature="0" class="st0" d="M46,18.3c0.1,0,0.1,0,0.2,0c0,0,0,0,0.1,0h0.1
			C46.2,18.2,46.1,18.2,46,18.3"/>
		<path id="path938" inkscape:connector-curvature="0" class="st0" d="M43.8,82.3C43.8,82.3,43.9,82.3,43.8,82.3
			C43.9,82.3,43.9,82.3,43.8,82.3"/>
		<path id="path940" inkscape:connector-curvature="0" class="st0" d="M56,20.4c-0.1,0-0.2,0.1-0.2,0.1c-0.7-1-1.1-2.1-0.9-3.1
			c0.4-1.4,1.8-2.2,4.3-2.6c2.3-0.3,3.4-1.5,3.5-2.5c0.1-0.6-0.3-1-0.9-1.2c-1.1-0.4-2.2-0.5-3.5-0.7c-1-0.1-2-0.3-3-0.6
			s-2-0.6-2.9-1c-1.2-0.4-2.3-0.9-3.4-1.1c-0.6-0.2-1.1,0.1-1.3,0.6c-0.4,0.9,0,2.5,1.9,3.9c2.1,1.5,2.9,3,2.5,4.4
			c-0.6,2.5-5.1,3.3-5.7,3.4c0,0,0,0,0.1,0h0.1c0,0,0,0,0.1,0h0.1c0,0,0,0,0.1,0c0,0,0.1,0,0.1-0.1l0,0l0,0c0,0,0,0,0.1-0.1
			c0,0,0,0,0-0.1c0,0,0-0.1,0.1-0.1c0,0,0,0,0-0.1v-0.1l0,0c0-0.1,0-0.1,0-0.2c0,0.1,0,0.1,0,0.2l0,0v0.1c0,0,0,0,0,0.1
			c0,0,0,0.1-0.1,0.1c0,0,0,0,0,0.1c0,0,0,0.1-0.1,0.1c0,0,0,0-0.1,0c0,0-0.1,0-0.1,0.1c0,0,0,0-0.1,0h-0.1c0,0,0,0-0.1,0h-0.1h-0.1
			l0,0c-0.1,0-0.1,0-0.2,0c-3.8-0.2-7.5,0.4-11.1,1.6c-0.1,0-0.2,0-0.3,0h0.1c-0.2,0-0.3,0-0.5-0.1l0,0h-0.1c0,0,0,0-0.1,0
			c0,0,0,0-0.1,0c0,0,0,0-0.1-0.1l0,0l-0.1-0.1l0.1,0.1l0,0c0,0,0,0,0.1,0.1c0,0,0,0,0.1,0c0,0,0,0,0.1,0c0,0,0,0,0.1,0l0,0
			c0.1,0.1,0.3,0.1,0.4,0.1c-0.8,0.1-5,0.5-6.3-1.7c-0.7-1.2-0.3-2.8,1.2-4.9c1.4-1.8,1.3-3.5,0.7-4.3c-0.4-0.4-0.9-0.5-1.5-0.2
			c-1,0.5-2,1.2-3,1.9c-0.8,0.6-1.6,1.2-2.5,1.7s-1.8,0.9-2.7,1.4c-1.1,0.5-2.2,1-3.2,1.7c-0.5,0.4-0.7,0.9-0.5,1.4
			c0.4,0.9,1.8,1.8,4.1,1.5c2.5-0.4,4.1,0.1,4.9,1.3c1.3,2.2-1.1,5.7-1.6,6.3c0.1-0.1,0.1-0.3,0.1-0.4l0,0v-0.1c0,0,0,0,0-0.1
			c0,0,0,0,0-0.1v-0.1c0,0,0,0,0-0.1c0,0,0-0.1-0.1-0.1c0,0,0,0.1,0.1,0.1c0,0,0,0,0,0.1V27c0,0,0,0,0,0.1c0,0,0,0,0,0.1v0.1l0,0
			c0,0.2-0.1,0.3-0.2,0.5c0,0,0,0,0-0.1c0,0.1-0.1,0.1-0.2,0.2c-2.8,2.5-5.1,5.5-6.7,8.9l-0.1,0.1c-0.3,0.4-3.2,4-5.7,3.3
			c-1.4-0.4-2.2-1.8-2.6-4.3c-0.3-2.3-1.5-3.4-2.5-3.5c-0.6-0.1-1,0.3-1.2,0.9c-0.4,1.1-0.5,2.2-0.7,3.5c-0.1,1-0.3,2-0.6,3
			s-0.6,2-1,2.9C2.5,43.9,2,45,1.8,46.1c-0.1,0.7,0.1,1.1,0.6,1.4c0.9,0.4,2.5,0,3.9-1.9c1.5-2,3-2.9,4.4-2.5
			c2.5,0.6,3.3,5.2,3.4,5.7c0,0.1,0,0.1,0,0.2c-0.2,3.8,0.4,7.5,1.6,11.1c0,0.1,0,0.2,0,0.3v-0.1c0,0.2,0,0.3-0.1,0.5l0,0v0.1l0,0
			c0,0,0,0,0,0.1c0,0,0,0-0.1,0.1l0,0l-0.1,0.1l0.1-0.1l0,0c0,0,0,0,0.1-0.1c0,0,0,0,0-0.1l0,0v-0.1l0,0c0.1-0.1,0.1-0.3,0.1-0.4
			c0.1,0.8,0.5,5-1.7,6.3c-1.2,0.7-2.8,0.3-4.9-1.2c-1.8-1.4-3.5-1.3-4.3-0.7c-0.4,0.4-0.5,0.9-0.2,1.5c0.5,1,1.2,2,1.9,3
			c0.6,0.8,1.2,1.6,1.7,2.5s0.9,1.8,1.4,2.7c0.5,1.1,1,2.2,1.7,3.2c0.4,0.6,0.9,0.7,1.4,0.5c0.9-0.4,1.8-1.8,1.5-4.1
			c-0.4-2.5,0.1-4.1,1.3-4.9c2.2-1.3,5.7,1.1,6.3,1.6c-0.1-0.1-0.3-0.1-0.4-0.1l0,0h-0.1c0,0,0,0-0.1,0c0,0,0,0-0.1,0H21
			c0,0,0,0-0.1,0c0,0-0.1,0-0.1,0.1c0,0,0.1,0,0.1-0.1c0,0,0,0,0.1,0h0.1c0,0,0,0,0.1,0c0,0,0,0,0.1,0h0.1l0,0
			c0.2,0,0.3,0.1,0.4,0.2c0,0,0,0-0.1,0c0.1,0,0.1,0.1,0.2,0.1c2.5,2.8,5.6,5.1,8.9,6.7c0.1,0,0.1,0.1,0.2,0.1l0.1,0.1l0,0l0.1,0.1
			l0,0c0,0.1,0,0.1,0.1,0.2l0,0c0,0.1,0,0.1,0,0.2c0-0.1,0-0.1,0-0.2l0,0c0-0.1,0-0.1-0.1-0.2l0,0c0-0.1-0.1-0.1-0.1-0.1l0,0
			L31,77.8l0,0c0.4,0.3,4,3.2,3.3,5.7c-0.4,1.4-1.8,2.2-4.3,2.6c-2.3,0.3-3.4,1.5-3.5,2.5c-0.1,0.6,0.3,1,0.9,1.2
			c1.1,0.4,2.2,0.5,3.5,0.7c1,0.1,2,0.3,3,0.6c1,0.3,2,0.6,2.9,1c1.2,0.4,2.3,0.9,3.4,1.1c0.7,0.1,1.1-0.1,1.4-0.6
			c0.4-0.9,0-2.5-1.9-3.9c-2-1.5-2.9-3-2.5-4.4c0.6-2.5,5.2-3.3,5.7-3.4c0,0,0,0-0.1,0c0,0,0,0-0.1,0h-0.1l0,0c0,0,0,0-0.1,0l0,0
			c0,0,0,0-0.1,0.1l0,0c0,0,0,0-0.1,0.1l0,0c0,0,0,0,0,0.1l0,0c0,0,0,0.1-0.1,0.1c0,0,0-0.1,0.1-0.1l0,0v-0.1l0,0c0,0,0,0,0.1-0.1
			l0,0c0,0,0,0,0.1-0.1l0,0c0,0,0,0,0.1,0l0,0h0.1c0,0,0,0,0.1,0s0.2,0,0.2,0c3.8,0.2,7.5-0.4,11.1-1.6c0.1,0,0.2,0,0.3,0h-0.1
			c0.2,0,0.3,0,0.5,0.1l0,0h0.1c0,0,0,0,0.1,0c0,0,0,0,0.1,0c0,0,0,0,0.1,0.1l0,0l0.1,0.1l-0.1-0.1l0,0c0,0,0,0-0.1-0.1
			c0,0,0,0-0.1,0c0,0,0,0-0.1,0h-0.1l0,0c-0.1-0.1-0.3-0.1-0.4-0.1c0.8-0.1,5-0.5,6.3,1.7c0.7,1.2,0.3,2.8-1.2,4.9
			c-1.4,1.8-1.3,3.5-0.7,4.3c0.4,0.5,0.9,0.5,1.5,0.2c1-0.5,2-1.2,3-1.9c0.8-0.6,1.6-1.2,2.5-1.7s1.8-0.9,2.7-1.4
			c1.1-0.5,2.2-1,3.2-1.7c0.6-0.4,0.7-0.9,0.5-1.4c-0.4-0.9-1.8-1.8-4.1-1.5c-2.5,0.4-4.1-0.1-4.9-1.3c-1.3-2.2,1.1-5.7,1.6-6.3
			c-0.1,0.1-0.1,0.2-0.1,0.3l0,0v0.1l0,0v0.1c0,0,0,0,0,0.1c0,0,0,0,0,0.1V74l0,0c0,0,0,0.1,0.1,0.1c0,0,0-0.1-0.1-0.1l0,0v-0.1
			c0,0,0,0,0-0.1c0,0,0,0,0-0.1v-0.1l0,0v-0.1l0,0c0-0.1,0.1-0.2,0.2-0.3c0,0,0,0,0,0.1c0-0.1,0.1-0.1,0.1-0.2
			c2.8-2.6,5.1-5.6,6.7-8.9c0-0.1,0.1-0.1,0.1-0.2l0.1-0.1l0,0l0.1-0.1l0,0c0.1,0,0.1,0,0.2-0.1l0,0c0.1,0,0.1,0,0.2,0
			c-0.1,0-0.1,0-0.2,0l0,0c-0.1,0-0.1,0-0.2,0.1l0,0c-0.1,0-0.1,0.1-0.1,0.1l0,0L71.8,64l0,0c0.3-0.4,3.2-4,5.7-3.3
			c1.4,0.4,2.2,1.8,2.6,4.3c0.3,2.3,1.5,3.4,2.5,3.5c0.6,0.1,1-0.3,1.2-0.9c0.4-1.1,0.5-2.2,0.7-3.5c0.1-1,0.3-2,0.6-3
			c0.3-1,0.6-2,1-2.9c0.4-1.2,0.9-2.3,1.1-3.4c0.1-0.7-0.1-1.1-0.6-1.4c-0.9-0.4-2.5,0-3.9,1.9c-1.5,2.1-3,2.9-4.4,2.5
			c-2.5-0.6-3.3-5.1-3.4-5.7l0,0v0.1l0,0c0,0,0,0.1,0.1,0.1c0,0,0,0,0,0.1c0,0,0,0.1,0.1,0.1l0,0l0,0c0,0,0.1,0,0.1,0.1
			c0,0,0,0,0.1,0c0,0,0.1,0,0.1,0.1c0,0,0,0,0.1,0h0.1l0,0c0.1,0,0.1,0,0.2,0c-0.1,0-0.1,0-0.2,0l0,0h-0.1c0,0,0,0-0.1,0
			c0,0-0.1,0-0.1-0.1c0,0,0,0-0.1,0c0,0-0.1,0-0.1-0.1l0,0c0,0,0-0.1-0.1-0.1c0,0,0,0,0-0.1c0,0,0-0.1-0.1-0.1l0,0v-0.1l0,0
			c0-0.1,0-0.1,0-0.2c0.2-3.6-0.3-7.2-1.4-10.6c0.5-0.1,1.1-0.3,1.5-0.5c0,0.1,0,0.1-0.1,0.2l0,0c0,0,0,0.1-0.1,0.1l0,0
			c0,0,0,0-0.1,0.1l0,0l-0.1,0.1l0.1-0.1l0,0c0,0,0,0,0.1-0.1l0,0c0,0,0-0.1,0.1-0.1l0,0c0-0.1,0.1-0.1,0.1-0.2c0,0,0.1,0,0.1-0.1
			c1.2,3.6,1.7,7.4,1.5,11.2v-0.1l0,0c0-0.1,0-0.1,0-0.2l0,0c0,0,0-0.1-0.1-0.1l0,0c0,0,0-0.1-0.1-0.1l0,0l0,0c0,0-0.1,0-0.1-0.1
			c0,0,0,0-0.1,0c0,0-0.1,0-0.1-0.1c0,0,0,0-0.1,0h-0.1l0,0c-0.1,0-0.1,0-0.2,0c0.1,0,0.1,0,0.2,0l0,0H76c0,0,0,0,0.1,0
			c0,0,0.1,0,0.1,0.1c0,0,0,0,0.1,0c0,0,0.1,0,0.1,0.1l0,0c0,0,0,0.1,0.1,0.1l0,0c0,0,0,0.1,0.1,0.1l0,0c0,0.1,0,0.1,0,0.2l0,0
			c0,0.1,0,0.1,0,0.2v-0.1c0.3,1.6,1.1,3.9,2.1,4.2c0.6,0.2,1.5-0.5,2.5-1.9c2-2.6,4.4-3.1,6-2.4c1.3,0.6,1.9,1.9,1.7,3.3
			c-0.2,1.3-0.7,2.5-1.1,3.7c-0.3,0.9-0.7,1.8-0.9,2.7c-0.2,0.9-0.4,1.9-0.5,2.8c-0.2,1.2-0.4,2.5-0.8,3.8c-0.5,1.4-1.7,2.2-3.1,2.1
			c-1.7-0.2-3.7-1.8-4.1-5c-0.2-1.7-0.7-2.7-1.3-2.9c-1-0.3-2.8,1.4-3.8,2.6v-0.1c0,0.1-0.1,0.1-0.1,0.2l-0.1,0.1l0,0L73,65.2l0,0
			c-0.1,0-0.1,0-0.2,0.1l0,0c-0.1,0-0.1,0-0.2,0c0.1,0,0.1,0,0.2,0l0,0c0.1,0,0.1,0,0.2-0.1l0,0c0.1,0,0.1-0.1,0.1-0.1l0,0l0.1-0.1
			l0,0c0,0,0,0,0-0.1c-1.7,3.5-4.1,6.6-7,9.3l0,0c0.1-0.2,0.2-0.3,0.2-0.5l0,0v-0.1l0,0v-0.1l0,0c0,0,0-0.1-0.1-0.1
			c0,0,0,0.1,0.1,0.1l0,0v0.1l0,0v0.1l0,0c0,0.2-0.1,0.5-0.3,0.7l0.1-0.1c-0.9,1.3-2,3.5-1.5,4.4c0.3,0.5,1.5,0.7,3.1,0.5
			c3.2-0.5,5.3,1,6,2.6c0.5,1.3,0.1,2.7-1.2,3.5c-1.1,0.8-2.3,1.3-3.4,1.8c-0.9,0.4-1.7,0.8-2.6,1.3c-0.8,0.5-1.6,1.1-2.4,1.6
			c-1,0.8-2.1,1.5-3.2,2.1c-1.3,0.7-2.7,0.4-3.6-0.7c-1.1-1.3-1.3-3.8,0.6-6.5c1-1.3,1.4-2.4,1.1-3c-0.5-0.9-3-1-4.6-0.8h0.1
			c-0.2,0.1-0.5,0.1-0.7-0.1l0,0c0,0-0.1,0-0.1-0.1l0,0c0,0,0,0-0.1-0.1l0,0l-0.1-0.1l0.1,0.1l0,0c0,0,0,0,0.1,0.1l0,0
			c0,0,0.1,0,0.1,0.1l0,0c0.2,0.1,0.3,0.1,0.5,0.1l0,0c-3.7,1.2-7.6,1.8-11.5,1.6c0,0,0,0,0.1,0s0.2,0,0.2-0.1l0,0
			c0,0,0.1,0,0.1-0.1l0,0c0,0,0.1,0,0.1-0.1l0,0c0,0,0,0,0.1-0.1l0,0v-0.1l0,0c0,0,0-0.1,0.1-0.1c0,0,0,0.1-0.1,0.1l0,0v0.1l0,0
			c0,0,0,0-0.1,0.1l0,0c0,0,0,0-0.1,0.1l0,0c0,0-0.1,0-0.1,0.1l0,0c-0.1,0.1-0.3,0.1-0.4,0.1h0.1c-1.6,0.3-3.9,1.1-4.2,2.1
			c-0.1,0.6,0.5,1.5,1.9,2.5c2.6,2,3.1,4.4,2.4,6c-0.6,1.3-1.9,1.9-3.3,1.7c-1.3-0.2-2.5-0.7-3.7-1.1c-0.9-0.3-1.8-0.7-2.7-0.9
			c-0.9-0.2-1.9-0.4-2.8-0.5c-1.2-0.2-2.5-0.4-3.8-0.8c-1.4-0.5-2.2-1.7-2.1-3.1c0.2-1.7,1.8-3.7,5-4.1c1.7-0.2,2.7-0.7,2.9-1.3
			c0.3-1-1.4-2.8-2.6-3.8H30l0,0h0.1H30c0,0,0,0-0.1,0l0,0l0,0c0,0,0,0-0.1,0l0,0l0,0c0,0,0,0,0-0.1c0,0,0,0,0-0.1c0,0,0,0,0-0.1
			c0,0,0,0,0-0.1c0,0,0,0,0-0.1c0,0,0,0,0-0.1v-0.1l0,0v-0.1v0.1l0,0v0.1c0,0,0,0,0,0.1c0,0,0,0,0,0.1c0,0,0,0,0,0.1c0,0,0,0,0,0.1
			c0,0,0,0,0,0.1c0,0,0,0,0,0.1l0,0l0,0c0,0,0,0,0.1,0l0,0c0,0,0,0,0.1,0c-3.5-1.7-6.6-4.1-9.3-7l0,0c0.2,0.1,0.3,0.2,0.5,0.2l0,0
			h0.1l0,0h0.1l0,0c0,0,0.1,0,0.1-0.1c0,0-0.1,0-0.1,0.1l0,0h-0.1l0,0h-0.1l0,0c-0.2,0-0.5-0.1-0.6-0.3l0.1,0.1
			c-1.3-0.9-3.5-2-4.4-1.5c-0.5,0.3-0.7,1.5-0.5,3.1c0.5,3.2-1,5.3-2.6,6c-1.3,0.5-2.7,0.1-3.5-1.2c-0.7-1.1-1.3-2.3-1.8-3.4
			c-0.4-0.9-0.8-1.7-1.3-2.6C6.1,72,5.5,71.2,5,70.4c-0.8-1-1.5-2.1-2.1-3.2c-0.7-1.3-0.4-2.7,0.7-3.6c1.3-1.1,3.8-1.3,6.5,0.7
			c1.3,1,2.4,1.4,3,1.1c0.9-0.5,1-3,0.8-4.6v0.1c-0.1-0.2-0.1-0.4,0-0.6c0,0,0-0.1,0.1-0.1l0,0c0,0,0-0.1,0.1-0.1l0,0
			c0,0,0,0,0.1-0.1l0,0l0.1-0.1L14.2,60l0,0c0,0,0,0-0.1,0.1l0,0c0,0,0,0.1-0.1,0.1l0,0c0,0,0,0.1-0.1,0.1c0,0.1-0.1,0.3,0,0.4l0,0
			c-1.2-3.7-1.8-7.6-1.6-11.5c0,0,0,0,0,0.1c0-0.1,0-0.1,0-0.2v0.1c-0.3-1.6-1.1-3.9-2.1-4.2c-0.6-0.1-1.5,0.5-2.5,1.9
			c-2,2.6-4.4,3.1-6,2.4C0.4,48.7-0.2,47.4,0,46c0.2-1.3,0.7-2.5,1.1-3.7c0.3-0.9,0.7-1.8,0.9-2.7s0.4-1.9,0.5-2.8
			c0.7-1.5,0.9-2.8,1.3-4c0.5-1.4,1.7-2.2,3.1-2.1c1.7,0.2,3.6,1.8,4.1,5c0.2,1.7,0.7,2.7,1.3,2.9c1,0.3,2.8-1.4,3.8-2.6v0.1
			l0.1-0.1c0,0,0,0,0,0.1c1.7-3.5,4.1-6.6,7-9.3l0,0C23.1,27,23,27.1,23,27.3l0,0v0.1l0,0v0.1l0,0c0,0,0,0.1,0.1,0.1
			c0,0,0-0.1-0.1-0.1l0,0v-0.1l0,0v-0.1l0,0c0-0.2,0.1-0.5,0.3-0.7l-0.1,0.1c0.9-1.3,2-3.6,1.5-4.4c-0.3-0.5-1.5-0.7-3.1-0.5
			c-3.3,0.5-5.3-1-6-2.6c-0.5-1.3-0.1-2.7,1.2-3.5c1.1-0.7,2.3-1.3,3.4-1.8c0.9-0.4,1.7-0.8,2.6-1.3c0.8-0.5,1.6-1.1,2.4-1.6
			c1-0.8,2.1-1.5,3.2-2.1c1.3-0.7,2.7-0.4,3.6,0.7c1.1,1.3,1.3,3.8-0.7,6.5c-1,1.3-1.4,2.4-1.1,3c0.5,0.9,3,1,4.6,0.8h-0.1
			c0.2-0.1,0.5-0.1,0.7,0.1l0,0c0,0,0.1,0,0.1,0.1l0,0c0,0,0,0,0.1,0.1l0,0l0.1,0.1l-0.1-0.1l0,0c0,0,0,0-0.1-0.1l0,0
			c0,0-0.1,0-0.1-0.1l0,0c-0.2-0.1-0.3-0.1-0.5-0.1l0,0c3.7-1.2,7.6-1.8,11.5-1.6c0,0,0,0-0.1,0s-0.1,0-0.2,0l0,0c0,0-0.1,0-0.1,0.1
			l0,0l-0.1,0.1l0,0l0,0l-0.1,0.1c0,0,0,0,0,0.1c0,0,0,0.1-0.1,0.1c0,0,0,0,0,0.1V19l0,0c0,0.1,0,0.1,0,0.2c0-0.1,0-0.1,0-0.2l0,0
			v-0.1c0,0,0,0,0-0.1c0,0,0-0.1,0.1-0.1c0,0,0,0,0-0.1c0,0,0-0.1,0.1-0.1l0,0l0.1-0.1l0,0c0,0,0.1,0,0.1-0.1l0,0
			c0.1,0,0.2-0.1,0.3-0.1h-0.1c1.6-0.3,3.9-1.1,4.2-2.1c0.2-0.6-0.5-1.5-1.9-2.5c-2.6-2-3.1-4.4-2.4-6c0.5-1.3,1.7-1.9,3.2-1.7
			c1.3,0.2,2.5,0.7,3.7,1.1c0.9,0.3,1.8,0.7,2.7,0.9c0.9,0.2,1.9,0.4,2.8,0.5c1.3,0.3,2.6,0.5,3.8,0.9c1.4,0.5,2.2,1.7,2.1,3.1
			c-0.2,1.7-1.8,3.6-5,4.1c-1.7,0.2-2.7,0.7-2.9,1.3c-0.2,0.6,0.3,1.4,1,2.2c-0.1,0-0.2,0-0.3,0C56.8,20.1,56.4,20.2,56,20.4"/>
		<path id="path942" inkscape:connector-curvature="0" class="st0" d="M45.5,18.8v0.1C45.4,18.9,45.5,18.8,45.5,18.8"/>
		<path id="path944" inkscape:connector-curvature="0" class="st0" d="M46,18.3c0,0-0.1,0-0.1,0.1C45.9,18.3,45.9,18.3,46,18.3"/>
		<path id="path946" inkscape:connector-curvature="0" class="st0" d="M35.3,19.9c-0.2-0.1-0.5-0.1-0.7-0.1h0.1l0,0
			C35,19.8,35.2,19.9,35.3,19.9"/>
		<path id="path948" inkscape:connector-curvature="0" class="st0" d="M35.5,20.1L35.5,20.1L35.5,20.1"/>
		<path id="path950" inkscape:connector-curvature="0" class="st0" d="M45.5,18.6C45.5,18.7,45.5,18.7,45.5,18.6
			C45.5,18.7,45.5,18.7,45.5,18.6"/>
		<path id="path952" inkscape:connector-curvature="0" class="st0" d="M45.8,18.4C45.8,18.4,45.7,18.4,45.8,18.4
			C45.7,18.4,45.8,18.4,45.8,18.4"/>
		<path id="path954" inkscape:connector-curvature="0" class="st0" d="M35.6,20.2l0.1,0.1C35.6,20.2,35.6,20.2,35.6,20.2"/>
		<path id="path956" inkscape:connector-curvature="0" class="st0" d="M45.7,18.5C45.6,18.5,45.6,18.6,45.7,18.5
			C45.6,18.6,45.6,18.5,45.7,18.5"/>
		<path id="path958" inkscape:connector-curvature="0" class="st0" d="M21.8,72.3c-0.2,0-0.4-0.1-0.5-0.2l0,0L21.2,72
			C21.3,72.2,21.5,72.3,21.8,72.3"/>
		<path id="path960" inkscape:connector-curvature="0" class="st0" d="M30.5,79C30.4,79,30.4,79,30.5,79C30.4,79,30.4,79,30.5,79"/>
		<path id="path962" inkscape:connector-curvature="0" class="st0" d="M30.3,78.8C30.3,78.8,30.2,78.8,30.3,78.8
			C30.2,78.8,30.3,78.8,30.3,78.8"/>
		<path id="path964" inkscape:connector-curvature="0" class="st0" d="M30.2,78.7L30.2,78.7L30.2,78.7"/>
		<path id="path966" inkscape:connector-curvature="0" class="st0" d="M30.1,78.6L30.1,78.6L30.1,78.6"/>
		<path id="path968" inkscape:connector-curvature="0" class="st0" d="M43.8,82.3c-0.1,0-0.2,0.1-0.2,0.1s0,0-0.1,0h-0.1
			C43.5,82.4,43.7,82.4,43.8,82.3"/>
		<path id="path970" inkscape:connector-curvature="0" class="st0" d="M30.1,78.5L30.1,78.5L30.1,78.5"/>
		<path id="path972" inkscape:connector-curvature="0" class="st0" d="M44.1,82.2C44.1,82.1,44.1,82.1,44.1,82.2
			C44.1,82.1,44.1,82.1,44.1,82.2"/>
		<path id="path974" inkscape:connector-curvature="0" class="st0" d="M44,82.2L44,82.2L44,82.2"/>
		<path id="path976" inkscape:connector-curvature="0" class="st0" d="M44.1,82.1C44.2,82,44.2,82,44.1,82.1
			C44.2,82,44.2,82,44.1,82.1"/>
		<path id="path978" inkscape:connector-curvature="0" class="st0" d="M44.2,81.9C44.2,81.9,44.2,81.8,44.2,81.9
			C44.3,81.9,44.2,81.9,44.2,81.9"/>
		<path id="path980" inkscape:connector-curvature="0" class="st0" d="M21.8,72.3h0.1C21.9,72.3,21.9,72.3,21.8,72.3"/>
		<path id="path982" inkscape:connector-curvature="0" class="st0" d="M30.5,79L30.5,79C30.5,79.1,30.5,79.1,30.5,79
			c0.1,0.1,0.1,0.1,0.1,0.1l0,0C30.5,79.1,30.5,79.1,30.5,79C30.5,79,30.4,79,30.5,79C30.4,79,30.4,79,30.5,79"/>
		<path id="path984" inkscape:connector-curvature="0" class="st0" d="M30.6,79.1L30.6,79.1C30.6,79.1,30.5,79.1,30.6,79.1
			C30.5,79.1,30.6,79.1,30.6,79.1"/>
		<path id="path986" inkscape:connector-curvature="0" class="st0" d="M22,72.2L22,72.2L22,72.2"/>
		<path id="path988" inkscape:connector-curvature="0" class="st0" d="M22.1,72.2c0,0,0.1,0,0.1-0.1C22.2,72.2,22.1,72.2,22.1,72.2"
			/>
		<path id="path990" inkscape:connector-curvature="0" class="st0" d="M30.5,79.1L30.5,79.1C30.6,79.1,30.5,79.1,30.5,79.1
			L30.5,79.1"/>
		<path id="path992" inkscape:connector-curvature="0" class="st0" d="M30.5,79.1L30.5,79.1L30.5,79.1L30.5,79.1"/>
		<path id="path994" inkscape:connector-curvature="0" class="st0" d="M30.5,79L30.5,79C30.5,79.1,30.5,79.1,30.5,79L30.5,79"/>
		<path id="path996" inkscape:connector-curvature="0" class="st0" d="M30.5,79L30.5,79L30.5,79L30.5,79"/>
		<path id="path998" inkscape:connector-curvature="0" class="st0" d="M30.3,78.9L30.3,78.9L30.3,78.9"/>
		<path id="path1000" inkscape:connector-curvature="0" class="st0" d="M15.8,61l-0.1,0.1C15.7,61,15.8,61,15.8,61"/>
		<path id="path1002" inkscape:connector-curvature="0" class="st0" d="M21.9,70.5C21.8,70.5,21.8,70.5,21.9,70.5
			C21.8,70.5,21.8,70.5,21.9,70.5"/>
		<path id="path1004" inkscape:connector-curvature="0" class="st0" d="M16,60.7c0.1-0.1,0.1-0.3,0.1-0.5v0.1
			C16.1,60.4,16.1,60.5,16,60.7"/>
		<path id="path1006" inkscape:connector-curvature="0" class="st0" d="M15.8,61C15.8,61,15.8,60.9,15.8,61
			C15.8,60.9,15.8,61,15.8,61"/>
		<path id="path1008" inkscape:connector-curvature="0" class="st0" d="M15.8,60.9C15.9,60.9,15.9,60.9,15.8,60.9
			C15.9,60.9,15.9,60.9,15.8,60.9"/>
		<path id="path1010" inkscape:connector-curvature="0" class="st0" d="M21.8,70.5L21.8,70.5L21.8,70.5"/>
		<path id="path1012" inkscape:connector-curvature="0" class="st0" d="M16,60.7L16,60.7L16,60.7"/>
		<path id="path1014" inkscape:connector-curvature="0" class="st0" d="M16,60.7L16,60.7L16,60.7"/>
		<path id="path1016" inkscape:connector-curvature="0" class="st0" d="M15.9,60.8C15.9,60.8,15.9,60.9,15.9,60.8
			C15.9,60.9,15.9,60.8,15.9,60.8"/>
		<path id="path1018" inkscape:connector-curvature="0" class="st0" d="M24.7,27.3c0,0.1-0.1,0.3-0.1,0.4c0,0,0,0,0,0.1
			C24.6,27.6,24.6,27.5,24.7,27.3"/>
		<path id="path1020" inkscape:connector-curvature="0" class="st0" d="M16,60.8L16,60.8L16,60.8"/>
		<path id="path1022" inkscape:connector-curvature="0" class="st0" d="M21.7,70.5L21.7,70.5L21.7,70.5"/>
		<path id="path1024" inkscape:connector-curvature="0" class="st0" d="M24.6,26.9c0,0,0-0.1-0.1-0.1C24.6,26.8,24.6,26.9,24.6,26.9
			"/>
		<path id="path1026" inkscape:connector-curvature="0" class="st0" d="M21.7,70.5C21.6,70.5,21.6,70.5,21.7,70.5
			C21.6,70.5,21.6,70.5,21.7,70.5"/>
		<path id="path1028" inkscape:connector-curvature="0" class="st0" d="M43.2,80.7L43.2,80.7L43.2,80.7"/>
		<path id="path1030" inkscape:connector-curvature="0" class="st0" d="M31.8,78.1L31.8,78.1L31.8,78.1"/>
		<path id="path1032" inkscape:connector-curvature="0" class="st0" d="M24.6,27C24.6,27,24.6,26.9,24.6,27
			C24.6,26.9,24.6,27,24.6,27"/>
		<path id="path1034" inkscape:connector-curvature="0" class="st0" d="M31.6,77.8l-0.1-0.1C31.6,77.7,31.6,77.7,31.6,77.8"/>
		<path id="path1036" inkscape:connector-curvature="0" class="st0" d="M31.8,77.9c0,0.1,0,0.1,0.1,0.2C31.8,78,31.8,78,31.8,77.9"
			/>
		<path id="path1038" inkscape:connector-curvature="0" class="st0" d="M31.6,77.8L31.6,77.8L31.6,77.8"/>
		<path id="path1040" inkscape:connector-curvature="0" class="st0" d="M31.8,78.1c0,0.1,0,0.1,0,0.2C31.8,78.3,31.8,78.2,31.8,78.1
			"/>
		<path id="path1042" inkscape:connector-curvature="0" class="st0" d="M21.5,70.6c0,0-0.1,0-0.1,0.1C21.4,70.6,21.4,70.6,21.5,70.6
			"/>
		<path id="path1044" inkscape:connector-curvature="0" class="st0" d="M21.5,70.6L21.5,70.6L21.5,70.6"/>
		<path id="path1046" inkscape:connector-curvature="0" class="st0" d="M31.7,77.9C31.7,77.9,31.8,77.9,31.7,77.9
			C31.8,77.9,31.7,77.9,31.7,77.9"/>
		<path id="path1048" inkscape:connector-curvature="0" class="st0" d="M21.6,70.5C21.6,70.5,21.5,70.6,21.6,70.5
			C21.5,70.6,21.6,70.5,21.6,70.5"/>
		<path id="path1050" inkscape:connector-curvature="0" class="st0" d="M21.9,70.5c0.1,0,0.3,0.1,0.4,0.1c0,0,0,0,0.1,0
			C22.2,70.6,22,70.5,21.9,70.5"/>
		<path id="path1052" inkscape:connector-curvature="0" class="st0" d="M31.6,77.8l0.1,0.1C31.7,77.9,31.7,77.8,31.6,77.8"/>
		<path id="path1054" inkscape:connector-curvature="0" class="st0" d="M34.5,21.5c0.1,0.1,0.3,0.1,0.5,0.1h-0.1
			C34.8,21.6,34.6,21.6,34.5,21.5"/>
		<path id="path1056" inkscape:connector-curvature="0" class="st0" d="M47,19.6C47,19.6,47,19.5,47,19.6C47,19.5,47,19.6,47,19.6"
			/>
		<path id="path1058" inkscape:connector-curvature="0" class="st0" d="M47,19.6L47,19.6L47,19.6"/>
		<path id="path1060" inkscape:connector-curvature="0" class="st0" d="M46.6,19.9L46.6,19.9L46.6,19.9"/>
		<path id="path1062" inkscape:connector-curvature="0" class="st0" d="M46.5,20C46.5,19.9,46.5,19.9,46.5,20
			C46.5,19.9,46.5,19.9,46.5,20"/>
		<path id="path1064" inkscape:connector-curvature="0" class="st0" d="M47.1,19.3L47.1,19.3L47.1,19.3"/>
		<path id="path1066" inkscape:connector-curvature="0" class="st0" d="M47.1,19.3c0-0.1,0-0.1,0-0.2C47.2,19.2,47.1,19.2,47.1,19.3
			"/>
		<path id="path1068" inkscape:connector-curvature="0" class="st0" d="M47.1,19.4v-0.1C47.1,19.4,47.1,19.4,47.1,19.4"/>
		<path id="path1070" inkscape:connector-curvature="0" class="st0" d="M46.6,19.9C46.7,19.9,46.7,19.9,46.6,19.9
			C46.7,19.9,46.7,19.9,46.6,19.9"/>
		<path id="path1072" inkscape:connector-curvature="0" class="st0" d="M46.7,19.9C46.7,19.8,46.8,19.8,46.7,19.9
			C46.8,19.8,46.7,19.8,46.7,19.9"/>
		<path id="path1074" inkscape:connector-curvature="0" class="st0" d="M46.9,19.7L46.9,19.7L46.9,19.7"/>
		<path id="path1076" inkscape:connector-curvature="0" class="st0" d="M43.2,80.7L43.2,80.7C43.1,80.7,43.1,80.7,43.2,80.7"/>
		<path id="path1078" inkscape:connector-curvature="0" class="st0" d="M46.9,19.7C46.9,19.7,46.9,19.8,46.9,19.7L46.9,19.7
			L46.9,19.7"/>
		<path id="path1080" inkscape:connector-curvature="0" class="st0" d="M46.8,19.8L46.8,19.8L46.8,19.8"/>
		<path id="path1082" inkscape:connector-curvature="0" class="st0" d="M34.2,21.3C34.3,21.3,34.3,21.4,34.2,21.3
			C34.3,21.4,34.3,21.3,34.2,21.3"/>
		<path id="path1084" inkscape:connector-curvature="0" class="st0" d="M34.2,21.3L34.2,21.3L34.2,21.3"/>
		<path id="path1086" inkscape:connector-curvature="0" class="st0" d="M24.6,27.1C24.6,27,24.6,27,24.6,27.1
			C24.6,27,24.6,27,24.6,27.1"/>
		<path id="path1088" inkscape:connector-curvature="0" class="st0" d="M24.7,27.3C24.7,27.2,24.7,27.2,24.7,27.3
			C24.7,27.2,24.7,27.2,24.7,27.3"/>
		<path id="path1090" inkscape:connector-curvature="0" class="st0" d="M24.7,27.1C24.6,27.1,24.6,27.1,24.7,27.1
			C24.6,27.1,24.6,27.1,24.7,27.1"/>
		<path id="path1092" inkscape:connector-curvature="0" class="st0" d="M24.7,27.2C24.7,27.2,24.7,27.1,24.7,27.2
			C24.7,27.1,24.7,27.2,24.7,27.2"/>
		<path id="path1094" inkscape:connector-curvature="0" class="st0" d="M34.4,21.4L34.4,21.4L34.4,21.4"/>
		<path id="path1096" inkscape:connector-curvature="0" class="st0" d="M34.5,21.5C34.5,21.5,34.4,21.5,34.5,21.5
			C34.4,21.5,34.5,21.5,34.5,21.5"/>
		<path id="path1098" inkscape:connector-curvature="0" class="st0" d="M34.5,21.5L34.5,21.5L34.5,21.5"/>
		<path id="path1100" inkscape:connector-curvature="0" class="st0" d="M34.2,21.3l-0.1-0.1C34.2,21.2,34.2,21.2,34.2,21.3"/>
		<path id="path1102" inkscape:connector-curvature="0" class="st0" d="M34.4,21.4C34.3,21.4,34.3,21.4,34.4,21.4
			C34.3,21.4,34.3,21.4,34.4,21.4"/>
		<path id="path1104" inkscape:connector-curvature="0" class="st0" d="M46.5,20C46.5,20,46.4,20,46.5,20C46.4,20,46.4,20,46.5,20
			C46.4,20,46.5,20,46.5,20"/>
		<path id="path1106" inkscape:connector-curvature="0" class="st0" d="M47.1,19.5L47.1,19.5L47.1,19.5"/>
		<path id="path1108" inkscape:connector-curvature="0" class="st0" d="M72.3,63.5L72.3,63.5C72.2,63.6,72.2,63.6,72.3,63.5"/>
		<path id="path1110" inkscape:connector-curvature="0" class="st0" d="M72.6,63.4C72.6,63.4,72.7,63.4,72.6,63.4
			C72.7,63.4,72.6,63.4,72.6,63.4"/>
		<path id="path1112" inkscape:connector-curvature="0" class="st0" d="M72.7,63.4c0.1,0,0.1,0,0.2,0C72.8,63.3,72.7,63.3,72.7,63.4
			"/>
		<path id="path1114" inkscape:connector-curvature="0" class="st0" d="M72.3,63.5L72.3,63.5L72.3,63.5"/>
		<path id="path1116" inkscape:connector-curvature="0" class="st0" d="M75.2,51.9L75.2,51.9C75.2,52,75.2,52,75.2,51.9"/>
		<path id="path1118" inkscape:connector-curvature="0" class="st0" d="M75.2,52C75.3,52.1,75.3,52.1,75.2,52
			C75.3,52.1,75.3,52.1,75.2,52"/>
		<path id="path1120" inkscape:connector-curvature="0" class="st0" d="M72.5,63.4c0.1,0,0.1,0,0.2-0.1
			C72.6,63.4,72.5,63.4,72.5,63.4"/>
		<path id="path1122" inkscape:connector-curvature="0" class="st0" d="M65.1,73.2c0-0.1,0.1-0.2,0.1-0.3c0,0,0,0,0-0.1
			C65.1,73,65.1,73.1,65.1,73.2"/>
		<path id="path1124" inkscape:connector-curvature="0" class="st0" d="M65.1,73.7C65.1,73.7,65.1,73.8,65.1,73.7
			C65.1,73.8,65.1,73.8,65.1,73.7"/>
		<path id="path1126" inkscape:connector-curvature="0" class="st0" d="M72.4,63.4C72.5,63.4,72.5,63.4,72.4,63.4
			C72.5,63.4,72.5,63.4,72.4,63.4"/>
		<path id="path1128" inkscape:connector-curvature="0" class="st0" d="M43.1,80.7C43.1,80.8,43,80.8,43.1,80.7
			C43,80.8,43.1,80.8,43.1,80.7"/>
		<path id="path1130" inkscape:connector-curvature="0" class="st0" d="M75.3,52.1C75.3,52.1,75.3,52.2,75.3,52.1
			C75.3,52.2,75.3,52.1,75.3,52.1"/>
		<path id="path1132" inkscape:connector-curvature="0" class="st0" d="M75.7,52.5L75.7,52.5L75.7,52.5"/>
		<path id="path1134" inkscape:connector-curvature="0" class="st0" d="M75.9,52.6L75.9,52.6L75.9,52.6"/>
		<path id="path1136" inkscape:connector-curvature="0" class="st0" d="M75.7,52.6L75.7,52.6C75.8,52.6,75.8,52.6,75.7,52.6"/>
		<path id="path1138" inkscape:connector-curvature="0" class="st0" d="M75.9,52.6c0.1,0,0.1,0,0.2,0C76,52.6,76,52.6,75.9,52.6"/>
		<path id="path1140" inkscape:connector-curvature="0" class="st0" d="M65.1,73.7L65.1,73.7L65.1,73.7"/>
		<path id="path1142" inkscape:connector-curvature="0" class="st0" d="M75.2,51.9L75.2,51.9L75.2,51.9L75.2,51.9"/>
		<path id="path1144" inkscape:connector-curvature="0" class="st0" d="M75.3,52.2L75.3,52.2L75.3,52.2"/>
		<path id="path1146" inkscape:connector-curvature="0" class="st0" d="M75.4,52.3L75.4,52.3C75.4,52.3,75.5,52.4,75.4,52.3
			C75.5,52.4,75.4,52.4,75.4,52.3"/>
		<path id="path1148" inkscape:connector-curvature="0" class="st0" d="M75.4,52.2C75.4,52.3,75.4,52.3,75.4,52.2
			C75.4,52.3,75.4,52.3,75.4,52.2"/>
		<path id="path1150" inkscape:connector-curvature="0" class="st0" d="M75.6,52.5C75.6,52.5,75.7,52.5,75.6,52.5
			C75.7,52.5,75.6,52.5,75.6,52.5"/>
		<path id="path1152" inkscape:connector-curvature="0" class="st0" d="M75.5,52.4C75.6,52.5,75.6,52.5,75.5,52.4
			C75.6,52.5,75.6,52.5,75.5,52.4"/>
		<path id="path1154" inkscape:connector-curvature="0" class="st0" d="M75.5,52.4L75.5,52.4L75.5,52.4"/>
		<path id="path1156" inkscape:connector-curvature="0" class="st0" d="M72.3,63.5L72.3,63.5C72.4,63.5,72.3,63.5,72.3,63.5"/>
		<path id="path1158" inkscape:connector-curvature="0" class="st0" d="M42.7,81.1L42.7,81.1L42.7,81.1"/>
		<path id="path1160" inkscape:connector-curvature="0" class="st0" d="M42.7,81C42.7,81,42.7,81.1,42.7,81
			C42.7,81.1,42.7,81,42.7,81"/>
		<path id="path1162" inkscape:connector-curvature="0" class="st0" d="M42.7,81.1C42.7,81.1,42.7,81.2,42.7,81.1
			C42.6,81.2,42.6,81.2,42.7,81.1"/>
		<path id="path1164" inkscape:connector-curvature="0" class="st0" d="M55.3,79.2L55.3,79.2L55.3,79.2"/>
		<path id="path1166" inkscape:connector-curvature="0" class="st0" d="M42.8,81C42.7,81,42.7,81,42.8,81C42.7,81,42.7,81,42.8,81"
			/>
		<path id="path1168" inkscape:connector-curvature="0" class="st0" d="M55.2,79.2C55.2,79.2,55.3,79.2,55.2,79.2
			C55.3,79.2,55.2,79.2,55.2,79.2"/>
		<path id="path1170" inkscape:connector-curvature="0" class="st0" d="M55.2,79.1C55.2,79.1,55.2,79.2,55.2,79.1
			C55.2,79.2,55.2,79.1,55.2,79.1"/>
		<path id="path1172" inkscape:connector-curvature="0" class="st0" d="M43,80.8L43,80.8L43,80.8"/>
		<path id="path1174" inkscape:connector-curvature="0" class="st0" d="M43,80.8C42.9,80.8,42.9,80.8,43,80.8
			C42.9,80.8,42.9,80.8,43,80.8"/>
		<path id="path1176" inkscape:connector-curvature="0" class="st0" d="M42.9,80.9C42.8,80.9,42.8,80.9,42.9,80.9
			C42.8,80.9,42.8,80.9,42.9,80.9"/>
		<path id="path1178" inkscape:connector-curvature="0" class="st0" d="M42.8,80.9C42.8,80.9,42.8,81,42.8,80.9
			C42.8,81,42.8,80.9,42.8,80.9"/>
		<path id="path1180" inkscape:connector-curvature="0" class="st0" d="M42.9,80.8C42.9,80.9,42.9,80.9,42.9,80.8
			C42.9,80.9,42.9,80.9,42.9,80.8"/>
		<path id="path1182" inkscape:connector-curvature="0" class="st0" d="M65.1,73.5C65.1,73.5,65.1,73.6,65.1,73.5
			C65.1,73.6,65.1,73.5,65.1,73.5"/>
		<path id="path1184" inkscape:connector-curvature="0" class="st0" d="M65.1,73.5L65.1,73.5L65.1,73.5"/>
		<path id="path1186" inkscape:connector-curvature="0" class="st0" d="M65.1,73.3C65.1,73.3,65.1,73.4,65.1,73.3
			C65.1,73.4,65.1,73.3,65.1,73.3"/>
		<path id="path1188" inkscape:connector-curvature="0" class="st0" d="M55.3,79.2C55.4,79.2,55.4,79.3,55.3,79.2
			C55.4,79.3,55.4,79.2,55.3,79.2"/>
		<path id="path1190" inkscape:connector-curvature="0" class="st0" d="M65.1,73.6L65.1,73.6L65.1,73.6"/>
		<path id="path1192" inkscape:connector-curvature="0" class="st0" d="M65.1,73.2C65.1,73.3,65.1,73.3,65.1,73.2
			C65.1,73.3,65.1,73.3,65.1,73.2"/>
		<path id="path1194" inkscape:connector-curvature="0" class="st0" d="M65.1,73.4L65.1,73.4L65.1,73.4"/>
		<path id="path1196" inkscape:connector-curvature="0" class="st0" d="M55.5,79.4C55.5,79.4,55.5,79.3,55.5,79.4
			C55.5,79.3,55.5,79.4,55.5,79.4"/>
		<path id="path1198" inkscape:connector-curvature="0" class="st0" d="M55.5,79.3C55.4,79.3,55.4,79.3,55.5,79.3
			C55.4,79.3,55.4,79.3,55.5,79.3"/>
		<path id="path1200" inkscape:connector-curvature="0" class="st0" d="M55.2,79.1C55.1,79,54.9,79,54.7,79c0,0,0,0,0.1,0
			C54.9,79.1,55.1,79.1,55.2,79.1"/>
		<path id="path1202" inkscape:connector-curvature="0" class="st0" d="M55.5,79.4L55.5,79.4C55.5,79.4,55.5,79.4,55.5,79.4"/>
		<path id="path1204" inkscape:connector-curvature="0" class="st0" d="M42,24.6C29.1,26,19,37,19,50.3c0,14.3,11.6,25.9,25.9,25.9
			s25.9-11.6,25.9-25.9c0-3.4-0.7-6.7-1.9-9.7c0.4,0.2,0.7,0.3,1.1,0.4c0.3,0.1,0.7,0.2,1,0.2c1,2.9,1.6,5.9,1.6,9.1
			c0,15.2-12.4,27.6-27.6,27.6S17.4,65.5,17.4,50.3c0-14.7,11.5-26.7,26-27.6c0,0.1-0.1,0.1-0.1,0.2C42.6,23.4,42.3,24,42,24.6"/>
		<path id="path1206" inkscape:connector-curvature="0" class="st0" d="M20.6,48.1l22.3-10.5c0.2,0.3,0.4,0.5,0.6,0.7
			c0.2,0.2,0.4,0.4,0.6,0.6L22.6,49.1h-2.4L20.6,48.1"/>
		<path id="path1208" inkscape:connector-curvature="0" class="st0" d="M19.6,49.5c-0.2-0.2-0.4-0.4-0.7-0.4h1.3l-0.6,1.2
			C19.8,50,19.7,49.7,19.6,49.5"/>
		<path id="path1210" inkscape:connector-curvature="0" class="st0" d="M27.1,33l-0.2,0.5h-0.5C26.7,33.5,27,33.3,27.1,33"/>
		<path id="path1212" inkscape:connector-curvature="0" class="st0" d="M71.6,49.9c0.5,0,0.9,0.4,0.9,0.9c0,0.5-0.4,0.9-0.9,0.9
			L19,50.9l3.6-1.7L71.6,49.9"/>
		<path id="path1214" inkscape:connector-curvature="0" class="st0" d="M26.9,33.5l0.2-0.5c-0.1,0.3-0.4,0.5-0.7,0.5H26.9l-6.4,14.6
			l-2.3,1.2l7.3-17c0.1-0.3,0.4-0.5,0.7-0.5l14.5-1.2c0,0.6,0,1.2,0.1,1.7L26.9,33.5"/>
		<path id="path1216" inkscape:connector-curvature="0" class="st0" d="M18.1,50.4c0.2,0.2,0.4,0.4,0.7,0.4H19L18.6,51
			c-0.4,0.2-1,0-1.2-0.4c-0.2-0.4,0-1,0.4-1.2l0.4-0.2l-0.1,0.3C17.9,49.8,17.9,50.2,18.1,50.4"/>
		<path id="path1218" inkscape:connector-curvature="0" class="st0" d="M20.2,49.1h-1.3c0.3,0,0.6,0.2,0.7,0.4
			c0.2,0.2,0.2,0.6,0.1,0.8L20.2,49.1h2.4L19,50.8h-0.2c-0.3,0-0.6-0.2-0.7-0.4c-0.2-0.3-0.2-0.6-0.1-0.8l0.1-0.3l2.4-1.1L20.2,49.1
			"/>
		<path id="path1220" inkscape:connector-curvature="0" class="st0" d="M40.8,31.7L21,43.4l-1.4-0.7c0.3,0.1,0.5,0.4,0.5,0.8
			c0,0.3-0.2,0.6-0.4,0.8l1.4-0.8l44.6,23.4c0.4,0.2,0.6,0.8,0.4,1.2c-0.2,0.4-0.8,0.6-1.2,0.4l-46-24.1c-0.3-0.1-0.5-0.4-0.5-0.8
			c0-0.3,0.2-0.6,0.4-0.8l22-13c0,0.2,0,0.4,0,0.7C40.8,30.8,40.8,31.3,40.8,31.7"/>
		<path id="path1222" inkscape:connector-curvature="0" class="st0" d="M20.1,43.4c0-0.3-0.2-0.6-0.5-0.8l1.4,0.7l-1.4,0.8
			C20,44,20.1,43.7,20.1,43.4"/>
		<path id="path1224" inkscape:connector-curvature="0" class="st0" d="M44.2,39L28.7,71.2c-0.2,0.4-0.7,0.6-1.1,0.4s-0.7-0.6-0.6-1
			l11.7-46.5c0.1-0.5,0.6-0.8,1.1-0.6c0.5,0.1,0.8,0.6,0.6,1.1l-9.6,38.2l-3.7,7.8c0.2-0.4,0.7-0.6,1.1-0.4s0.7,0.6,0.6,1l2.1-8.4
			l12-25c0.2,0.2,0.4,0.5,0.6,0.7C43.7,38.6,43.9,38.8,44.2,39"/>
		<path id="path1226" inkscape:connector-curvature="0" class="st0" d="M28.2,70c-0.4-0.2-0.9,0-1.1,0.4l3.7-7.8L28.7,71
			C28.9,70.6,28.6,70.2,28.2,70"/>
		<path id="path1228" inkscape:connector-curvature="0" class="st0" d="M20.9,60.2c-0.3-0.2-0.7-0.1-1,0.1l2-1.9l-0.5,2.8
			C21.4,60.8,21.3,60.4,20.9,60.2"/>
		<path id="path1230" inkscape:connector-curvature="0" class="st0" d="M44.8,39.5L21.1,61.7c-0.3,0.3-0.7,0.3-1,0.1
			s-0.5-0.6-0.4-0.9l5.7-28.4c0.1-0.5,0.6-0.8,1-0.7c0.5,0.1,0.8,0.6,0.7,1l-5.2,25.6l-2,1.9c0.3-0.3,0.7-0.3,1-0.1s0.5,0.6,0.4,0.9
			l0.6-2.7l21.6-20.1C43.9,38.8,44.3,39.2,44.8,39.5"/>
		<path id="path1232" inkscape:connector-curvature="0" class="st0" d="M28.6,71.3c-0.3,0.4-0.8,0.5-1.2,0.2
			c-0.4-0.3-0.5-0.8-0.2-1.2L47,40.6c0.6,0.2,1.2,0.4,1.8,0.5L28.6,71.3"/>
	</g>
</g>
</svg>
