<?xml version="1.0" encoding="utf-8"?>
<!-- Generator: Adobe Illustrator 24.0.2, SVG Export Plug-In . SVG Version: 6.00 Build 0)  -->
<svg version="1.1"
	 id="svg850" inkscape:export-filename="/Users/julian/Desktop/cmmid_newlogo.png" inkscape:export-xdpi="300" inkscape:export-ydpi="300" inkscape:version="0.92.2 5c3e80d, 2017-08-06" sodipodi:docname="cmmid_newlogo.svg" xmlns:cc="http://creativecommons.org/ns#" xmlns:dc="http://purl.org/dc/elements/1.1/" xmlns:inkscape="http://www.inkscape.org/namespaces/inkscape" xmlns:rdf="http://www.w3.org/1999/02/22-rdf-syntax-ns#" xmlns:sodipodi="http://sodipodi.sourceforge.net/DTD/sodipodi-0.dtd" xmlns:svg="http://www.w3.org/2000/svg"
	 xmlns="http://www.w3.org/2000/svg" xmlns:xlink="http://www.w3.org/1999/xlink" x="0px" y="0px" viewBox="0 0 317.4 119.3"
	 style="enable-background:new 0 0 317.4 119.3;" xml:space="preserve">
<style type="text/css">
	.st0{fill:none;}
	.st1{fill:#010101;}
</style>
<sodipodi:namedview  bordercolor="#666666" borderopacity="1" gridtolerance="10" guidetolerance="10" id="namedview852" inkscape:current-layer="g860" inkscape:cx="220.24266" inkscape:cy="48.617445" inkscape:guide-bbox="true" inkscape:pageopacity="0" inkscape:pageshadow="2" inkscape:window-height="1283" inkscape:window-maximized="0" inkscape:window-width="2560" inkscape:window-x="0" inkscape:window-y="0" inkscape:zoom="5.4303739" objecttolerance="10" pagecolor="#ffffff" showgrid="false" showguides="true">
	<sodipodi:guide  id="guide1350" inkscape:locked="false" orientation="1,0" position="211.03519,110.48963"></sodipodi:guide>
</sodipodi:namedview>
<g>
	<line class="st0" x1="128.7" y1="8.6" x2="128.7" y2="9.2"/>
	<path class="st1" d="M13.8,27.2H0.5v-0.6h1c1.4,0,1.9-0.5,1.9-2V11.4c0-1.6-0.5-2.2-2.4-2.2H0.6V8.7h8.8v0.5H8.3
		c-1.9,0-2.4,0.2-2.4,2.1V25c0,0.8,0.3,1.1,1.2,1.1h4.4c1.8,0,2.3-0.7,4.2-3.3h0.5L13.8,27.2z"/>
	<path class="st1" d="M26.6,27.7c-5.8,0-10.8-3.8-10.8-9.3c0-5.9,4.6-10.1,10.9-10.1c5.6,0,10.5,3.8,10.5,9.2
		C37.2,23.4,32.4,27.7,26.6,27.7 M26,8.9c-5.3,0-7.3,4.9-7.3,8.5c0,5.6,3.8,9.5,8.6,9.5s7.2-4.3,7.2-8.5C34.4,12.9,30.9,8.9,26,8.9"
		/>
	<path class="st1" d="M56.9,27.4L41.5,11.2V24c0,2.1,0.5,2.6,3,2.6v0.6h-6.9v-0.6h0.1c1.9,0,2.4-0.6,2.4-2V10
		c-0.7-0.5-1.6-0.8-2.5-0.7V8.7h4.7l14.1,14.6V11.4c0-1.8-0.5-2.1-2.9-2.2V8.7h7v0.5c-2.2,0-2.7,0.4-2.7,1.6v16.6H56.9z"/>
	<path class="st1" d="M64.7,11.6c0-1.9-0.5-2.4-2.3-2.4h-0.6V8.7c1.1-0.1,2.6-0.1,4.2-0.2c1.6-0.1,3.5-0.1,5-0.1
		c7.9,0,11.4,4,11.4,8.9c0,4.5-3.5,9.9-11,9.9h-9.5v-0.6h0.5c1.6,0,2.4-0.5,2.4-2.2L64.7,11.6z M67.1,25c0,1.2,0.1,1.6,2.4,1.6
		c4,0,5.7-0.6,7.5-2.4c1.6-1.7,2.5-4,2.5-6.4c0-2.2-0.6-4.7-2.4-6.4C75.8,10,73.7,9,69.5,9c-1.2,0-2,0.1-2.4,0.1V25z"/>
	<path class="st1" d="M95,27.7c-5.8,0-10.8-3.8-10.8-9.3c0-5.9,4.6-10.1,10.9-10.1c5.6,0,10.5,3.8,10.5,9.2
		C105.6,23.4,100.8,27.7,95,27.7 M94.4,8.9c-5.3,0-7.3,4.9-7.3,8.5c0,5.6,3.8,9.5,8.6,9.5s7.2-4.3,7.2-8.5
		C102.8,12.9,99.3,8.9,94.4,8.9"/>
	<path class="st1" d="M128.7,9.2c-2.2,0-2.7,0.4-2.7,1.6v16.6h-0.8l-15.4-16.2V24c0,2.1,0.5,2.6,3,2.6v0.6h-6.9v-0.6h0.1
		c1.9,0,2.4-0.6,2.4-2V10c-0.7-0.5-1.6-0.8-2.5-0.7V8.7h4.7l14.1,14.6V11.4c0-1.8-0.5-2.1-2.9-2.2V8.7h7"/>
	<path class="st1" d="M22.6,115.4v-0.5h-0.3c-1.6,0-2.1-0.4-2.1-2.3v-11c0-1.6,0.4-2.1,2-2.2v-0.5H18l-6.4,13.4L5.3,98.9h-4v0.5
		c1.3,0.1,1.6,0.4,1.6,1.4v12.3c0,1.2-0.5,1.8-2.2,1.8H0.6v0.5h6.1v-0.5c-2.3,0-2.7-0.4-2.7-2.3v-11.3l0,0l6.8,14.1h0.6l6.6-14.1
		l0,0v11.7c0,1.4-0.4,2-2.1,2h-0.8v0.5L22.6,115.4z"/>
	<path class="st1" d="M37,115.4l0.4-3.9H37c-0.7,2.3-1.2,3-3.1,3h-4.1c-1,0-1.4-0.2-1.4-1.5v-5.6h4.5c1.1,0,1.6,0.2,1.8,2.1h0.5v-5
		h-0.5c-0.1,1.5-0.6,2-1.5,2h-4.8v-6.5H34c1,0,1.6,0.5,2,2.7h0.5l-0.2-3.7H23.5v0.5h0.6c1.8,0,2.1,0.6,2.1,2.1v11.2
		c0,1.6-0.4,2.2-2.5,2.2h-0.2v0.5L37,115.4z M54.3,107c0,2.1-0.8,4.2-2.2,5.7c-1.6,1.6-3.1,2.1-6.7,2.1c-2.1,0-2.2-0.4-2.2-1.5V99.3
		c0.3,0,1-0.1,2.1-0.1c3.7,0,5.6,0.9,6.8,2.1C53.8,102.9,54.3,105.1,54.3,107 M56.8,106.6c0-4.4-3.1-7.9-10.1-7.9
		c-1.4,0-3,0-4.5,0.1s-2.7,0.1-3.7,0.2v0.5h0.5c1.6,0,2,0.4,2,2.1V113c0,1.5-0.7,1.9-2.1,1.9h-0.5v0.5H47
		C53.7,115.4,56.8,110.6,56.8,106.6 M58,115.4h6.4v-0.5c-1.8,0-2.3-0.5-2.3-2.1v-11.2c0-1.8,0.6-2.1,2.3-2.1v-0.5H58v0.5
		c1.5,0.1,2,0.5,2,1.9v11.3c0,1.8-0.3,2.2-2,2.3L58,115.4z M80.6,115.1c0.7-1.2,1.3-2.5,1.7-3.9h-0.5c-1.8,3.2-4.4,3.9-6.5,3.9
		c-4,0-7.5-3.5-7.5-8.3c0-4.4,2.7-7.7,7.2-7.7c2.9,0,5.2,1.6,6,4.1h0.5l-0.2-3.8h-0.4c-0.1,0.1-0.2,0.2-0.5,0.2
		c-0.8,0-2.2-1.1-5.6-1.1c-5.5,0-9.5,3.7-9.5,8.8c0,4.9,3.9,8.5,9.2,8.5C77.7,115.8,78.9,114.9,80.6,115.1 M83.3,115.4h6.4v-0.5
		c-1.8,0-2.3-0.5-2.3-2.1v-11.2c0-1.8,0.6-2.1,2.3-2.1v-0.5h-6.4v0.5c1.5,0.1,2,0.5,2,1.9v11.3c0,1.8-0.3,2.2-2,2.3L83.3,115.4z
		 M111.4,99.5v-0.5h-6.2v0.5c2.1,0.1,2.6,0.3,2.6,2v10.5l-12.5-13h-4.2v0.5c0.8,0,1.6,0.2,2.2,0.7v13c0,1.2-0.5,1.8-2.2,1.8h-0.1
		v0.5h6.2v-0.5c-2.3,0-2.7-0.4-2.7-2.3v-11.4l13.7,14.4h0.7v-14.8C109,99.8,109.4,99.4,111.4,99.5 M117.1,113v-5.7h4.5
		c1.1,0,1.6,0.2,1.8,2.1h0.5v-5h-0.5c-0.1,1.5-0.6,2-1.5,2h-4.7v-6.5h5.6c1,0,1.6,0.5,2,2.7h0.5l-0.2-3.7h-12.7v0.5h0.6
		c1.8,0,2.1,0.6,2.1,2.1v11.2c0,1.6-0.4,2.2-2.5,2.2h-0.8v0.5h14.1l0.4-3.9h-0.5c-0.7,2.3-1.2,3-3.1,3h-4.1
		C117.6,114.5,117.1,114.2,117.1,113"/>
	<path class="st1" d="M11.2,91c-1.1,0.9-2.5,1.4-3.9,1.4c-2.8,0-5.6-2.5-5.6-5.4c0-1.3,1-3,2.4-3C4.9,84.1,6.5,87,11.2,91
		 M18.3,92.9L18.3,92.9c-0.5,0-0.9,0.1-1.4,0.1c-0.2,0-0.3,0-0.5-0.1c-0.1,0-0.2-0.1-0.3-0.1l-0.1,0c-0.1-0.1-0.2-0.1-0.3-0.2
		l-0.1-0.1l-0.3-0.2l0,0L15,91.9l-0.1-0.1l-0.3-0.3l-0.1-0.1l-0.3-0.2l-0.1-0.1l-0.3-0.2c-0.4-0.3-0.7-0.6-0.9-0.8
		c0.7-1.2,0.9-2.7,1-4c0.1-0.8,0.6-0.8,0.9-0.9v-0.4h-4v0.4c0.3,0.1,2-0.1,2,2.1c0,0.9-0.1,1.7-0.6,2.3c-4.7-4.4-8-7.9-8-9.3
		c0-1,0.8-1.8,1.7-1.8c0,0,0,0,0.1,0c1.6,0.1,3,1.1,3.6,2.7H10l-0.4-2.9H9.2c-0.1,0.1-0.2,0.2-0.4,0.2c-0.7,0-1.1-0.4-2.3-0.5l0,0
		c-0.2,0-0.3,0-0.5,0c-1.6-0.1-2.9,1.1-3,2.7c0,0.1,0,0.1,0,0.2c0,0.9,0.4,1.8,1,2.5c-2.3,0.5-3.5,2.3-3.5,4.7
		c0,3.4,2.8,5.5,6.1,5.5c2,0,4-0.8,5.4-2.2c1.2,0.9,2.3,2.1,3.9,2.2h0.3c0.4,0,0.9-0.1,1.3-0.2c0.4-0.1,0.8-0.2,0.8-0.2L18.3,92.9z"
		/>
	<path class="st1" d="M1,45.1c0.6,2.4,2.4,3.7,4.5,3.7c1.8,0,3.6-1,3.6-3.1c0-3.8-8.5-5-8.5-9.6c0-2.2,2-3.8,4.7-3.8
		C7.6,32.3,8,33,9,33c0.2,0,0.4-0.1,0.5-0.3h0.4l0.5,3.4H9.8C9.2,34.3,7.5,33,5.6,33c-1.7,0-3,1-3,2.5c0,3.7,8.5,4.8,8.5,9.6
		c0,2.6-2.3,4.5-5.4,4.5c-1.5,0-3.3-0.7-3.7-0.7c-0.2,0-0.4,0.1-0.5,0.3H1.1l-0.5-4H1z"/>
	<path class="st1" d="M28.2,37.1c-0.9-2.5-3.1-4.1-6-4.1c-4.4,0-7.2,3.2-7.2,7.6c0,4.8,3.4,8.3,7.5,8.3c2.1,0,4.6-0.7,6.4-3.9h0.5
		c-0.4,1.3-1,2.6-1.7,3.9c-1.7-0.2-2.9,0.7-6,0.7c-5.4,0-9.2-3.5-9.2-8.4c0-5.1,3.9-8.8,9.5-8.8c3.3,0,4.8,1.1,5.6,1.1
		c0.3,0,0.4-0.1,0.5-0.2h0.4l0.2,3.8H28.2z"/>
	<path class="st1" d="M34.4,41.3v5c0,1.7,0.3,2.3,2.1,2.3h0.1v0.5H30v-0.5h0.2c1.6,0,2.1-0.4,2.1-1.9V35.1c0-1.4-0.5-1.8-1.9-1.9
		v-0.5h6.3v0.5c-1.9,0-2.2,0.5-2.2,2.5v4.6h10.4v-5.2c0-1.4-0.5-1.9-2.1-1.9h-0.5v-0.5H49v0.5c-1.6,0.1-2,0.5-2,2.2v10.9
		c0,1.9,0.5,2.3,2.1,2.3h0.3v0.5h-7.5v-0.5h0.8c1.7,0,2.1-0.6,2.1-2v-5.3H34.4z"/>
	<path class="st1" d="M59.5,49.6c-5.2,0-9.5-3.3-9.5-8.3c0-5.3,4-9,9.7-9c5,0,9.3,3.4,9.3,8.2C68.9,45.8,64.6,49.6,59.5,49.6 M59,33
		c-4.7,0-6.5,4.3-6.5,7.5c0,4.9,3.4,8.4,7.6,8.4s6.4-3.8,6.4-7.6C66.5,36.5,63.3,33,59,33"/>
	<path class="st1" d="M80.1,49.6c-5.2,0-9.5-3.3-9.5-8.3c0-5.3,4-9,9.7-9c5,0,9.3,3.4,9.3,8.2C89.5,45.8,85.2,49.6,80.1,49.6
		 M79.6,33c-4.6,0-6.5,4.3-6.5,7.5c0,4.9,3.4,8.4,7.6,8.4s6.4-3.8,6.4-7.6C87,36.5,83.9,33,79.6,33"/>
	<path class="st1" d="M101.8,49.2H89.9v-0.5h0.9c1.2,0,1.7-0.4,1.7-1.7V35.2c0-1.4-0.4-2-2.1-2H90v-0.5h7.8v0.5h-1
		c-1.7,0-2.2,0.2-2.2,1.8v12.2c0,0.7,0.3,1,1.1,1h3.9c1.6,0,2-0.6,3.7-2.9h0.5L101.8,49.2z"/>
	<path class="st1" d="M112.7,36.2c0.8,0,2.4,1.1,2.4,3.9c0,5-5,7.2-6.2,7.2c-1.2,0-2.3-2-2.3-4.2C106.5,38.8,111.1,36.2,112.7,36.2
		 M111.3,37.2c-1.7,0-3.1,3.2-3.1,5.8c0,2.2,0.9,3.3,1.8,3.3c2.1,0,3.4-3.4,3.4-5.9C113.4,38.6,112.5,37.2,111.3,37.2"/>
	<path class="st1" d="M116.5,37.6l0.1-0.5c0.6-0.1,1.3-0.2,1.9-0.3c0.4-1.9,1.2-3.9,2.7-5.1c0.9-0.8,2-1.2,3.1-1.2
		c1,0,1.9,0.5,1.9,1.1c0,0.4-0.3,0.7-0.7,0.7c0,0,0,0,0,0c-0.9,0-1.6-0.9-2.3-0.9c-1,0-1.9,1-2.2,2.5l-0.7,3h2.3l-0.3,0.8H120
		l-1.4,6.7c-1,5.1-4,7-6.5,7c-1.1,0-2-0.5-2-1.1c0.1-0.4,0.5-0.7,0.9-0.7c1,0,1.5,1,2.5,1c0.6,0,1.2-0.3,1.6-0.7
		c1.3-1.1,1.8-5.1,1.9-5.6l1.4-6.7L116.5,37.6z"/>
	<path class="st1" d="M5.4,64.2v5.6c0,1.9,0.4,2.6,2.3,2.6h0.1v0.6H0.5v-0.6h0.2c1.7,0,2.3-0.5,2.3-2.1V57.4c0-1.5-0.5-2-2.1-2.1
		v-0.6h7v0.6c-2.1,0-2.4,0.6-2.4,2.8v5.1h11.5v-5.8c0-1.6-0.5-2.1-2.3-2.1H14v-0.6h7.5v0.6c-1.8,0.1-2.2,0.6-2.2,2.4v12.2
		c0,2.1,0.6,2.5,2.3,2.5H22v0.6h-8.3v-0.6h0.9c1.9,0,2.3-0.7,2.3-2.2v-5.9L5.4,64.2z"/>
	<path class="st1" d="M37.8,57.4c0.9-1.6,0.4-2.1-1.5-2.1v-0.6h6.6v0.6c-2,0.1-2.8,0.9-3.6,2.3l-4.9,8.2v4.4c0,1.6,0.6,2.2,2.3,2.2
		h0.4v0.6h-8.1v-0.6h0.6c1.8,0,2.3-0.7,2.3-2.1v-4.2L26.7,58c-1.4-2.3-2.1-2.7-4-2.7v-0.5h7.8v0.6c-2.3,0-2.4,0.6-1.6,1.9l4.7,7.2
		L37.8,57.4z"/>
	<path class="st1" d="M58.5,71.6c-2.9,1.5-6.6,1.8-7.8,1.8c-6.4,0-9.4-4.9-9.4-9.2c0-4.4,3.1-9.9,10.2-9.9c3.1,0,5.2,1,5.8,1
		c0.2,0,0.5-0.1,0.7-0.2h0.4v4.7h-0.6c-0.8-3.6-3.3-4.8-6-4.8c-5.2,0-7.8,4.3-7.8,9c0,6,4.2,8.7,7.6,8.7c1.6,0,3.1-0.4,4.5-1.1v-3.7
		c0-1.7-0.6-2.2-2.3-2.2h-1.1v-0.5h7.9v0.5c-1.5,0.1-2.1,0.6-2.1,1.8L58.5,71.6z"/>
	<path class="st1" d="M68.4,72.9h-7.1v-0.6c1.8-0.1,2.2-0.6,2.2-2.5V57.4c0-1.6-0.6-2-2.2-2.1v-0.6h7.1v0.6c-1.8,0-2.5,0.4-2.5,2.4
		v12.4c0,1.7,0.5,2.3,2.5,2.3V72.9z"/>
	<path class="st1" d="M83.2,66.3h-0.6c-0.2-2.1-0.8-2.3-2-2.3h-4.9v6.2c0,1.4,0.5,1.6,1.6,1.6h4.5c2.1,0,2.7-0.8,3.4-3.3h0.5
		l-0.5,4.4H69.7v-0.6h0.8c2.3,0,2.7-0.6,2.7-2.4V57.6c0-1.6-0.4-2.3-2.3-2.3h-0.6v-0.6h14.1l0.2,4.1h-0.5c-0.4-2.5-1.1-3-2.2-3h-6.2
		V63H81c1.1,0,1.6-0.5,1.7-2.2h0.6L83.2,66.3z"/>
	<path class="st1" d="M106,73.1L90.9,57.3v12.6c0,2.1,0.5,2.5,3,2.5v0.6H87v-0.6h0.1c1.8,0,2.4-0.6,2.4-2V56
		c-0.7-0.5-1.6-0.7-2.5-0.7v-0.6h4.6l13.8,14.4V57.5c0-1.8-0.5-2.1-2.9-2.2v-0.6h6.8v0.6c-2.2,0-2.7,0.4-2.7,1.5v16.3H106z"/>
	<path class="st1" d="M123.7,66.3h-0.5c-0.2-2.1-0.8-2.3-2-2.3h-5v6.2c0,1.4,0.5,1.6,1.6,1.6h4.5c2.1,0,2.7-0.8,3.4-3.3h0.5
		l-0.5,4.4h-15.6v-0.6h0.8c2.3,0,2.7-0.6,2.7-2.4V57.6c0-1.6-0.4-2.3-2.3-2.3h-0.6v-0.6h14.1l0.2,4.1h-0.5c-0.4-2.5-1.1-3-2.2-3
		h-6.2V63h5.2c1.1,0,1.6-0.5,1.7-2.2h0.6V66.3z"/>
	<path class="st1" d="M24.4,91.2c0,1.3,0.4,1.8,1.9,1.8h0.9v0.5h-7.6v-0.5h0.9c1.5,0,1.9-0.5,1.9-1.8V79.3h-4.2
		c-1,0-1.4,0.6-1.8,2.7h-0.4l0.4-3.9h0.5c0,0.1,0.1,0.3,0.3,0.3c0.2,0,0.3,0.1,0.5,0.1h11.5c0.3,0,0.7-0.1,0.7-0.4h0.5l0.4,3.9h-0.5
		c-0.4-2.1-0.8-2.7-1.8-2.7h-4.2V91.2z"/>
	<path class="st1" d="M35.9,91.1c0,1.4,0.6,1.8,1.9,1.8h0.6v0.5h-6.8v-0.5H32c1.4,0,1.9-0.4,1.9-2V80.9c0-1.5-0.4-1.9-1.8-1.9h-0.5
		v-0.5c0.6,0,2-0.1,3-0.1c1,0,1.5-0.1,3-0.1c4.4,0,6.4,1.8,6.4,4.3c0,1.8-1.2,3.3-3.2,3.9c1,0.8,1.9,1.6,2.7,2.5l1.9,1.9
		c1.4,1.4,2.9,2.3,4.7,2.4v0.4c-4.2,0.2-5.3-0.7-7.4-2.9l-1.6-1.6c-0.8-0.8-1.6-1.5-2.5-2.1c-0.6,0-1,0-1.6,0c-0.5,0-0.8,0-1.2,0
		L35.9,91.1z M35.9,86.6c0.5,0.1,1,0.1,1.5,0.1c2.7,0,4.4-1.1,4.4-4c0-2.2-1-4-4.7-4c-0.4,0-0.8,0-1.2,0.1V86.6z"/>
	<path class="st1" d="M55.8,93.8c-4.7,0-8.7-3-8.7-7.5c0-4.8,3.6-8.1,8.8-8.1c4.5,0,8.4,3.1,8.4,7.4C64.3,90.4,60.4,93.8,55.8,93.8
		 M55.3,78.7c-4.2,0-5.9,3.9-5.9,6.8c0,4.5,3,7.6,6.9,7.6s5.8-3.5,5.8-6.8C62,81.9,59.2,78.8,55.3,78.7"/>
	<path class="st1" d="M68.4,91.1c0,1.3,0.4,1.8,1.9,1.8h0.8v0.5h-6.6v-0.5h0.3c1.2,0,1.6-0.3,1.6-1.4V80.2c0-0.9-0.3-1.3-1.1-1.3
		h-1.2v-0.5c0.7,0,1.8-0.1,3-0.1c1.2,0,2.3-0.1,3-0.1c5,0,6.2,2.4,6.2,4.2c0,2.8-2.3,4.6-5.8,4.6c-0.7,0-1.4-0.1-2-0.2V91.1z
		 M68.4,86.5c0.4,0.1,0.9,0.2,1.3,0.2c2.6,0,4.3-1.8,4.3-4.2c0-1.9-0.7-3.7-3.9-3.7c-0.6,0-1.1,0-1.7,0.1L68.4,86.5z"/>
	<path class="st1" d="M83.1,93.4h-5.8v-0.5c1.5-0.1,1.8-0.5,1.8-2.1V80.7c0-1.3-0.5-1.7-1.8-1.7v-0.5h5.8V79c-1.5,0-2,0.3-2,1.9
		v10.2c0,1.4,0.4,1.9,2,1.9V93.4z"/>
	<path class="st1" d="M97.9,82.4c-0.8-2.3-3-3.8-5.5-3.7c-4,0-6.5,2.9-6.5,6.9c0,4.3,3.1,7.5,6.8,7.5c1.9,0,4.2-0.6,5.8-3.5H99
		c-0.4,1.2-0.9,2.4-1.5,3.5c-1.5-0.2-2.6,0.6-5.4,0.6c-4.9,0-8.4-3.2-8.4-7.6c0-4.6,3.6-8,8.6-8c3,0,4.3,1,5.1,1
		c0.3,0,0.4-0.1,0.4-0.1h0.4l0.2,3.5L97.9,82.4z"/>
	<path class="st1" d="M103.5,86.8l-1.4,3.8c-0.2,0.5-0.4,1-0.5,1.5c0,0.6,0.6,0.9,1.9,0.9h0.4v0.5h-5.5v-0.5c1.6,0,1.8-0.3,2.6-2.4
		l4.4-11.9l-0.2-0.5h2.1l5,13.3c0.5,1.3,1,1.5,2.2,1.5v0.5h-6.6v-0.5h0.6c1.4,0,1.9-0.1,1.9-0.8c0-0.3-0.1-0.7-0.3-1l-1.6-4.4
		L103.5,86.8z M106,80.2l-2,5.6h4.1L106,80.2z"/>
	<path class="st1" d="M125.6,93.4h-10.7v-0.5h0.8c1.1,0,1.5-0.4,1.5-1.6V80.7c0-1.3-0.4-1.8-1.9-1.8h-0.3v-0.5h7.1v0.5h-0.9
		c-1.6,0-2,0.2-2,1.7v11c0,0.6,0.3,0.9,1,0.9h3.5c1.4,0,1.8-0.6,3.4-2.6h0.4L125.6,93.4z"/>
	<path class="st1" d="M172.4,24.5c0,0,2.2-4.6,6.4-7c1.3-0.8,2.6-1.5,4.2-1.5c3.9-0.1,6,1.3,7.3,3.4c0.1,0.2,0.3,0.5,0.4,0.7
		c0.1,0.4,0.2,0.9,0.2,1.4c-0.1,0.2-0.1,0.4-0.2,0.4c-0.2,0.1-0.5-0.1-0.7,0.2c-0.1,0.2-0.1,0.5,0,0.7c0.2,0.4,0.2,0.8,0,1.1
		c-0.1,0.2-0.2,0.4-0.3,0.6c-0.5,0.9-1.2,1.8-1.6,2.7c-0.4,0.8-0.7,1.7-0.9,2.5c-0.2,1.1-0.4,2.2-0.4,3.3c0,0.3,0,0.9,0.1,1.4
		c0,0.3,0.1,0.7,0.1,0.8c0,0.3,0,0.5-0.3,0.6c-0.4,0-0.8,0-1.2,0c-0.7,0-1.7,0-2.5-0.1c-1-0.1-1.8-0.2-1.9-0.2
		c-0.3,0-0.3-0.1-0.4-0.3s0.1-0.7-0.1-0.7c-0.2,0-0.5,0.4-0.8,0.6c-0.2,0.2-0.7,0.3-0.6,0.5c0.4,0.4,1.1,1.4,1.2,1.2s0-0.6,0.5-0.8
		c0.2-0.1,1.9,0.1,3.4,0.1c0.6,0.1,1.3,0.1,1.9,0.1c0.3,0,0.5,0.1,0.8,0c1.1-0.1,2.2-0.1,3.2,0.2c0.4,0.1,0.6,0.2,0.9,0.3l0,0
		c0.3,0.1,0.7,0.1,1,0.1c0.4,0,0.8,0,1.2,0c0.7-0.1,1.6-0.3,2.2-0.5c1.5-0.3,2.1-0.5,2.4-0.6c0.2,0,0.7-0.1,1.2-0.2
		c0.7-0.1,1.4-0.1,1.9-0.1s2.1,0.1,3.4,0.2c0.3,0,0.7,0.1,0.9,0.1c0.3,0,0.7,0,1-0.1c0.6-0.1,1.2-0.4,1.6-0.8
		c0.2-0.2,0.4-0.3,0.5-0.4c0.2-0.2,1.2-0.6,1.2-0.8c0,0,0-0.1-0.1-0.1c-0.3,0-0.6,0-0.9,0c-0.4,0-0.8,0.1-1.2,0.1
		c-0.4,0-2.3,0.5-3.3,0.7c-0.2,0-0.3,0-0.5,0c-0.6,0.1-1.1,0.2-1.5,0.3c-0.3,0.1-0.7,0.1-1,0.1c-0.6,0-1.3,0-1.8,0
		c-0.8,0-1.6-0.1-2-0.1c-0.6-0.1-1.3-0.2-1.9-0.3c0,0,0,0-0.1,0l0,0c-0.4,0-0.9,0.1-1.3,0.3c-0.2,0.1-0.4,0.2-0.5,0.3l0,0
		c-0.1,0.1-0.2,0.2-0.3,0.3l0,0l0,0.1l0,0c-0.1,0.1-0.2,0.3-0.3,0.4c-0.2,0.2-0.6,0.1-0.8,0c0,0-0.1,0-0.1-0.1
		c-0.1-0.1-0.1-0.2-0.2-0.3c0-0.2,0-0.4,0-0.6c0.1-0.3,0.3-0.5,0.5-0.7c0,0,0.1-0.1,0.1-0.1c0.6-0.4,1.2-0.7,1.9-0.8
		c0.3,0,0.5-0.1,0.8-0.2c0,0,0.1,0,0.1-0.1c0.1-0.1,0.2-0.1,0.2-0.3c0-1-0.1-1.9-0.2-2.8c0-1.3-0.1-2.6-0.1-3.6c0-1,0.1-1.9,0-2.7
		c0-1.2,0-2.4,0.2-3.6c1.1-2.9,4.1-3.6,6.4-3.5c1,0.1,2,0.3,2.9,0.7c5.5,1.9,6.3,9.2,6.5,8.2c1.7-6.5-1.7-10.2-6.2-11.1
		c-3.9-0.8-7.9,0.5-10.6,3.5c-0.3,0.5-1.5-0.1-0.8-0.9c2.5-3.2,5.6-3.6,7.9-4.1c1.7-0.3,5.8,0.5,8,1.7c1.9,1,2.8,2.4,2.7,2
		c-0.3-1.1-1.4-5.9-8-6.4c-3.4-0.3-6.3,1.1-8.5,2.7c-1,0.8-1.9,1.7-2.8,2.7c-0.9,1.1-1.3,2-1.6,2c-0.6,0-1.6-1.7-4.1-2.8
		c-1.3-0.6-2.6-1-4-1.2c-1.7-0.2-3.5,0-5.1,0.6c-0.9,0.3-1.8,0.9-2.6,1.5c-2,1.8-2.9,4.6-3.1,6.5C172.3,22.8,172.3,23.6,172.4,24.5z
		 M191,27.9c0,0.4-0.1,0.9-0.1,1.5c0,2.2-0.1,5-0.3,5.9c0,0.1-0.1,0.2-0.2,0.3c-0.1,0.1-0.1,0.1-0.2,0.1c-0.3,0-0.6,0-1,0
		c-0.2,0-0.4-0.1-0.6-0.1c-0.2,0-0.5,0-0.7-0.1c-0.2-0.1-0.4-0.2-0.5-0.5c-0.1-0.4-0.2-0.7-0.2-1.1c0-0.4-0.1-0.9-0.1-1.2
		c0-0.3,0-0.5,0-0.8c0.1-0.5,0.5-3,0.7-3.6c0.1-0.4,0.3-0.7,0.5-1.1c0.2-0.4,0.4-0.6,0.7-1.1c0.3-0.4,0.6-0.9,0.7-1.3
		c0-0.1,0.1-0.2,0.1-0.2c0.1-0.1,0.1-0.1,0.2-0.1c0.2,0,0.2,0.1,0.3,0.4c0.2,0.5,0.4,1.1,0.5,1.6C191.1,26.8,191.1,27.2,191,27.9z
		 M191.4,22.8c0.2,0.1,0.4,0.6,0.4,0.8c0.1,0.2,2.9,8,2.9,8.3c0.1,0.3-0.1,0.5-0.3,0.6c-0.3,0.1-0.6,0-0.8-0.3c0,0,0,0,0,0
		c-0.1-0.1-1-3.1-1.9-5.6c-0.6-1.7-1.1-3.1-1.2-3.3c0-0.2,0.1-0.5,0.3-0.6C191,22.7,191.2,22.7,191.4,22.8z"/>
	<path class="st1" d="M195.9,75.8c-0.1-0.1-0.5,0.1-0.9,0.2c-0.3,0.1-0.6,0.1-0.9,0.2c-0.6,0.2-1.2,0.3-1.8,0.4
		c-0.8,0-0.7-0.5-1.3-0.8c-0.6-0.1-1.1-0.1-1.7,0.1l-0.1,0.2c0.3,1.2,0.5,2.4,0.7,3.6c0.1,0.8,0.1,1.7,0.1,2.5
		c0,0.2-0.1,0.5-0.1,0.9c0,0.5,0,1-0.1,1.4s-0.1,0.8-0.2,1.1c-0.1,0.4-0.1,0.7-0.2,1.1c-0.1,0.7-0.3,1.3-0.5,2
		c-0.8,1.9-1.9,3.4-2.6,5.4c-0.3,0.7-0.7,1.5-1,2.2c-0.2,0.5-0.5,0.9-0.9,1.3c-0.4,0.4-0.8,0.7-1.1,1c-0.2,0.2-0.4,0.5-0.6,0.8
		c-0.3,0.5-0.6,1.1-1,1.5c-0.1,0.1-0.2,0.2-0.3,0.3l4.8,0.1c-0.1,0-0.2-0.1-0.2-0.2c-0.2-0.6-0.3-1.2-0.4-1.8c0-0.3,0.1-0.5,0.2-0.7
		c0.2-0.3,0.4-0.6,0.7-0.8c0.3-0.2,0.6-0.3,0.8-0.5c0.3-0.2,0.4-0.1,0.6-0.3c0.2-0.2,0.1-0.4,0.2-0.6c0.3-1.1,0.8-2.2,1.3-3.3
		c0.6-1.4,1.3-2.8,2.1-4.1c0.5-0.7,1.1-1.2,1.2-1.7c0.1-0.5,0.1-1,0-1.5c0-0.5,0-0.9,0.1-1.3c0.1-1.1,0.3-2.2,0.7-3.3
		c0.2-0.4,0.3-0.9,0.5-1.3s0.7-1.5,1.2-2.3C195.5,76.7,196,75.8,195.9,75.8z"/>
	<path class="st1" d="M194.2,95.3c0-0.6,0-1.2,0.1-1.7c0-0.5,0.1-0.9,0.1-1.4c0.1-1.4,0.2-2.8,0.2-4.1l-0.6,0.4
		c-0.2,0.3-1.3,1.3-1.5,1.7c-0.5,0.7-0.9,1.5-1.3,2.3c-0.3,0.5-0.5,1-0.7,1.6c-0.3,0.6-0.4,1-0.6,1.6c-0.2,0.5-0.4,1-0.5,1.5
		c-0.1,0.8-0.1,1.6,0,2.4c0,0.2,0,0.2,0.3,0.4c1.1,0,3.8,0,3.8,0c0.7,0,0.6-0.2,0.6-0.8c0-0.7,0-1.3,0.1-2
		C194.1,96.5,194.2,95.9,194.2,95.3z"/>
	<path class="st1" d="M199.8,90.8c0.1-0.3,0.2-0.5,0.3-0.7c0.3-0.5,0.7-1,1-1.5c0.4-0.6,0.9-1.1,1.2-1.6c0.2-0.2,0.4-0.4,0.3-0.6
		c-0.1-0.2-0.4-0.4-0.6-0.7c-0.5-0.5-1-1-1.3-1.2c-0.5-0.6-0.9-1.2-1.3-1.9c-0.9-1.2-1.6-2.5-2.2-3.8c0-0.1-0.1-0.1-0.1-0.1
		s0,0-0.1,0.2c-0.1,0.7-0.1,1.4,0.2,2c0.1,0.1,0,0.3,0.1,0.5c0.1,0.4,0.3,0.8,0.5,1.2c0.5,1.2,1.1,2.4,1.4,3.2
		c0.3,0.6,0.2,1.4-0.1,2c-0.5,1-1.1,2.2-1.7,3.3c-0.5,0.8-0.9,1.5-1,2.2c-0.1,0.7,0.2,1.4,0.7,2.2c0.1,0.2,0.1,0.4,0.2,0.5
		c0.2,0.3,0.3,0.6,0.5,0.9c0.1,0.2,0.2,0.4,0.3,0.6c0.5,0.7,0.9,1.3,1.2,1.8c0.1,0.2,0.3,0.4,0.4,0.5c0,0,0,0,0,0c0.4,0,0.6-0.5,1-1
		c0.2-0.3,0.7-0.8,1-1.3c0.1-0.1,0.2-0.3,0.1-0.4c-0.2-0.4-1.5-0.3-1.9-0.6c-0.2-0.1-0.3-0.1-0.4-0.2c-0.6-0.4-0.8-0.9-0.7-1.3
		c0.1-0.3,0.6-0.4,0.7-0.7c0.1-0.5-0.6-0.7-0.6-1.7C199.2,92,199.5,91.3,199.8,90.8z"/>
	<path class="st1" d="M174.7,51.8c0.2,0.1,0.4,0.2,0.6,0.3c0.3,0.1,0.7,0.2,1,0.3c0.2,0.1,0.4,0.1,0.6,0.2c0.5,0.1,0.9,0.1,1.4,0.1
		c0.6,0,2.2,0.2,2.2,0c0.1-0.3-0.5-0.7-0.6-1c-0.1-0.1-0.2-0.2-0.3-0.3c-0.2,0-0.5-0.1-0.7-0.1c-0.2,0-0.4,0-0.6-0.1
		c-0.3,0-0.6,0-0.9-0.1c-0.2,0-0.3-0.1-0.5-0.1c-0.4-0.1-0.8-0.2-1.2-0.3c-0.1,0-0.3-0.1-0.4-0.1l-0.4-0.2c-0.3-0.1-0.6-0.3-0.7-0.1
		C174,50.8,174.4,51.7,174.7,51.8z"/>
	<path class="st1" d="M168.1,40.7c-0.1,0-0.2-0.1-0.2-0.1c-0.3-0.2-0.5-0.6-0.7-0.9c-0.3-0.3-0.6-0.6-1-0.7
		c-0.4-0.2-0.8-0.4-1.2-0.5c-0.2-0.1-0.4-0.1-0.6-0.2c-0.2,0-0.4,0-0.6-0.1s-0.4-0.1-0.6-0.1c-0.3,0-0.6,0-0.9,0.1
		c-0.1,0-0.2,0-0.2,0c-0.4,0.1-0.8,0.2-1.2,0.3c-0.2,0.1-0.5,0.2-0.7,0.3c-0.2,0-0.5,0-0.7-0.1c-0.1,0-0.3-0.1-0.5-0.1
		c-0.3,0-0.6,0-0.9,0c-0.3,0-0.6,0-0.9,0.1c-0.7,0.1-1.4,0.4-2,0.8c-0.1,0.1-1,0.8-1.1,0.9c-0.4,0.1-0.8,0-1.4,0.2
		c-0.3,0.1-0.5,0.2-0.8,0.2c-0.4,0.1-0.9,0.3-1.2,0.5c-0.3,0.2-0.6,0.4-0.9,0.7c-0.1,0.1-0.3,0.2-0.4,0.3c-0.3,0.2-1,1.2-1.2,1.3
		c-0.5,0.2-1,0.3-1.5,0.4c-0.3,0.1-0.6,0.2-0.8,0.2c-0.2,0-0.3,0.1-0.5,0.1c-0.1,0.1-0.4,0.2-0.4,0.3c0,0.1,0.1,0.2,0.2,0.2
		s0.3,0.2,0.4,0.3c0.2,0.2,0.4,0.4,0.6,0.5c0.3,0,0.7-0.1,1-0.1c0.3,0,0.6-0.1,0.8-0.3c0.1-0.1,0.2-0.3,0.3-0.5
		c0.2-0.2,0.4-0.4,0.6-0.6c0.2-0.2,0.5-0.4,0.8-0.5c0.3-0.1,0.6-0.3,0.9-0.4c0.2,0,0.3-0.1,0.5-0.1c0.2-0.2,0.4-0.4,0.6-0.7
		c0.3-0.2,0.5-0.5,0.9-0.7c0.9-0.6,1.9-1,2.9-1c0.4,0,0.8,0,1.2,0.1c0.2,0,0.3,0,0.5,0c0.2-0.1,0.5-0.4,0.9-0.5
		c0.7-0.3,1.4-0.5,2.1-0.5c0.4,0,0.8,0,1.2,0.1c0.3,0,0.5,0.1,0.7,0.1c0.5,0.1,1,0.3,1.4,0.5c0.2,0.1,0.4,0.3,0.6,0.4
		c0.1,0.1,0.2,0.2,0.4,0.2c0.2,0,0.3,0,0.5,0c0.7-0.1,1.3,0,1.9,0.3c0.6,0.4,1.2,0.9,1.5,1.5c0.1,0.2,0.6,0.4,1.1,0.7
		c0.3,0.2,0.5,0.3,0.8,0.6c0.4,0.3,0.7,0.8,1,1.2c0.4,0.7,0.7,1.4,1,2.2c0.2,0.7,0.1,2.1,0.1,3c0,1.2,1.5,1.8,1.3,1.6
		c-0.2-0.2-0.8-1.3-0.3-1.8c0.5-0.5,0.1-2.3,0.1-2.3c-0.2-0.8-0.5-1.7-0.6-2.3c0-0.1-0.1-0.4-0.2-0.5c-0.2-0.6-0.5-1.1-0.8-1.6
		c-0.3-0.4-0.7-0.8-1-1.2c-0.7-0.5-1.4-1-2.1-1.3C168.6,40.8,168.3,40.8,168.1,40.7z"/>
	<path class="st1" d="M180.3,53.4c-0.6,0-1.1,0-1.7-0.1c-0.5-0.1-1.4-0.2-2.1-0.3c-0.5-0.1-0.9-0.3-1.1-0.1
		c-0.3,0.2,0.8,1.3,1.2,1.5c1,0.5,2,0.3,3,0.4c0.6,0.1,1.3,0.1,1.9,0c0.5-0.1,0.3-1.2-0.4-1.4C180.9,53.4,180.6,53.4,180.3,53.4z"/>
	<path class="st1" d="M169,81.5c0.2,0.5,0.3,1,0.5,1.5c0.2,0.6,0.3,1.2,0.5,1.8c0.3,0.8,0.6,1.7,0.8,2.5c0.3,1.4,0.4,1.3,0.6,2.6
		c0-0.1,0.3,1.1,0.4,1.4c0.1,0.5,0.3,1.3,0.4,2.1c0,0.4,0,0.8,0,1.2c-0.1,0.3-0.1,0.6-0.2,0.8c-0.2,0.7-0.4,1.4-0.8,2
		c-0.2,0.4-0.5,0.7-0.7,1.1c-0.2,0.3-0.3,0.5-0.5,0.8c-0.1,0.2-0.3,0.6-0.6,1c-0.1,0.2-0.2,0.4-0.4,0.5l4.9,0.1l-0.1-0.2
		c-0.1-0.3-0.2-0.6-0.3-0.9c-0.1-0.5-0.3-0.8-0.3-1.1c-0.1-0.5-0.1-1,0.1-1.4c0.1-0.2,0.2-0.3,0.3-0.5c0.1-0.2,0.3-0.4,0.4-0.6
		c0.2-0.2,0.4-0.4,0.5-0.7c0.1-0.4,0.1-0.8,0-1.3c0-0.1,0-0.2-0.1-0.3c-0.1-0.7-0.2-1.4-0.4-2.3c-0.1-0.6-0.2-1.7-0.2-2.2
		c-0.1-1.1-0.2-2.3-0.3-3.5c0-0.1,0-0.6,0-0.7c-0.1-1.7,0-3.5,0.2-5.2c0.1-0.6,0.3-1.2,0.5-1.7c0.1-0.3,0.2-0.7,0.3-1
		c0.1-0.1,0.1-0.3,0.2-0.4c0.1-0.2,0.1-0.5,0.2-0.8c0.4-0.9,0.8-1.8,1.2-2.7c0.2-0.3,0.4-1.4,0.9-1.8c0.3-0.3,0.9-0.1,1.2,0.5
		c0.1,0.2-0.2,0.7-0.5,1.2c-0.2,0.3-0.3,0.5-0.4,0.8c-0.3,0.6-0.7,1-0.3,1.2c0.7,0,1.3,0,1.9,0c0.7,0,1.3,0,2,0c1.3,0,2.4,0,3.7-0.1
		c0.2,0,0.5,0,0.7,0c0.7-0.1,1.3-0.2,1.8-0.2c1.1-0.2,1.7-0.3,2.3-0.3c0.5-0.1,1-0.1,1.5-0.1c0.3,0,0.5,0.1,0.7,0.3
		c0.3,0.3,0.5,0.4,0.7,0.4c0.4-0.1,0.7-0.2,1.1-0.2c0.5-0.1,0.9-0.2,1.3-0.3c0.3-0.1,0.6-0.2,0.9-0.3c0.1-0.1-0.1-0.4-0.3-0.6
		c-0.1-0.1-0.3-0.2-0.5-0.3c-0.8-0.2-1.2,0-1.7-0.7c-0.1-0.2-0.1-0.5,0.1-0.6c0.1-0.1,0.2-0.1,0.2-0.1c0.6-0.1,1.2-0.1,1.8,0.2
		c0.9,0.3,1.5,1,2.1,1.9c0.3,0.5,0.5,0.9,0.6,1.5c0.2,0.5,0.3,1.1,0.5,1.6c0.1,0.4,0.2,0.8,0.3,1.1c0.3,0.7,0.5,1.3,0.8,1.8
		c0.8,1.5,1.9,2.8,3.2,3.8c0.8,0.6,1.6,1.4,2.3,2.2c0.4,0.4,0.7,0.9,1,1.3c0.2,0.4,0.4,0.7,0.5,1.2c0.1,0.7,0.3,1.4,0.3,2.1
		c0.1,0.6,0.2,1.2,0.2,1.7c0.1,0.4,0.1,0.7,0.2,1.1c0,1.4,0.3,2.4,0.3,3.5c-0.1,0.6-0.4,1.2-0.7,1.7c-0.1,0.1-0.2,0.3-0.3,0.4
		c-0.3,0.3-0.6,0.5-1,0.7c-0.3,0.2-0.5,0.5-0.7,0.8c-0.1,0.2-0.3,0.4-0.5,0.6c-0.1,0.2-0.2,0.4-0.4,0.5l5.2,0.1
		c-0.5-0.1-0.5-0.5-0.5-0.9c0-0.3,0-0.6,0-0.8c0-0.1,0-0.4,0-0.5c0-0.3,0.1-0.6,0.1-0.9c0.1-0.4,0.2-0.8,0.4-1.1
		c0.4-0.6,0.8-1.2,0.9-1.6c0.1-0.5-0.3-1.5-0.5-2.3c-0.1-0.4-0.2-1.9-0.3-2.3c0-0.6-0.2-1.4-0.2-2c0-0.6,0.1-1.2,0.3-1.8
		c0-0.1,0.1-0.3,0.1-0.4c0-0.2,0-0.5,0-0.7c-0.1-0.3-0.3-0.7-0.5-0.9c-0.2-0.3-0.4-0.7-0.6-1c-0.4-0.7-0.8-1.5-1.1-2.3
		c-0.2-0.5-0.4-0.9-0.6-1.4c-0.3-0.7-0.4-1.4-0.5-2.1c0-0.8,0.2-1.7,0.5-2.5c0.3-0.9,1.1-2.1,1.7-3.5c0.4-0.9,0.7-1.9,1-2.9
		c0.3-1.2,0.4-2.4,0.3-3.6c0-0.6-0.1-1.1-0.3-1.7c0-0.3-0.1-0.5-0.2-0.8c-0.1-0.2,0-0.3-0.1-0.5c-0.1-0.2-0.2-0.3-0.2-0.5
		c-0.2-0.5-0.5-1-0.3-1.1c0.4-0.4,2.7-0.8,3.7,0.6c1.1,1.5,0.6,3.5,0.2,4.7c-0.6,1.6-1.1,3.2-1.4,4.8c-0.2,0.7-0.1,1.5,0.3,2.1
		c0.4,0.6,0.6,1.3,0.7,2c0,1.3-1.3,1.8-1.2,3.1c0,0.8,0.7,2,1.8,2c0.1-0.2-0.1-0.4-0.1-0.6c0-0.5,0.1-1.1,0.2-1.6
		c0.2-0.7,0.8-1.2,1.5-1.5c0.8-0.6,2.3-1.2,2.3-2.3c0-0.4,0-0.9-0.1-1.3c-0.1-0.5-0.3-1.1-0.6-1.6c-0.2-0.3-0.3-0.7-0.4-1.1
		c0-0.2,0-0.5,0.1-0.7c0.1-0.4,0.2-0.8,0.3-1.1c0.5-0.8,1-1.7,1.3-2.6c0.2-0.6,0.4-1.2,0.5-1.9c0-0.4,0-0.9,0-1.2
		c0-0.9-0.3-1.9-0.8-2.7c-0.2-0.3-0.4-0.6-0.7-0.9c-0.4-0.4-0.9-0.7-1.4-1c-0.2-0.1-0.4-0.2-0.7-0.2c-1.1-0.4-2.1-0.3-3.5,0.1
		c-0.5,0.2-1,0.4-1.4,0.6c-0.7,0.4-1.3,0.9-1.8,0.7s-0.9-0.8-1.2-1.1c-0.4-0.4-0.9-0.7-1.4-0.9c-0.8-0.3-1.7-0.6-2.5-0.7
		c-0.9-0.1-1.8-0.1-2.7,0l-2.4,0.2c-0.8,0.1-1.6,0.3-2.4,0.4l-1.9,0.2c-1.1,0.1-2.5,0.3-3.6,0.5c-0.3,0-0.5,0-0.8,0.1
		c-0.6,0.1-1.2,0.1-1.8,0c-0.3,0-0.7,0-1,0l0,0c-0.4,0-1.6-0.2-1.8-0.2c-0.2,0-0.9-0.1-1.1-0.2l-1.9-0.4c0.6-0.3,1.1-0.7,1.6-1.1
		c1.2-1.2,1.8-3.3,0.8-4.8c-0.2-0.2-0.4-0.4-0.6-0.6c-0.4-0.4-0.9-0.7-1.4-0.8c-0.2,0-0.4,0-0.6,0c-0.2,0-0.4,0.2-0.4,0.4
		c0,0.1,0,0.3,0.1,0.4c0.3,0.4,0.8,0.6,1.2,0.9c0.3,0.2,0.5,0.5,0.6,0.9c0,0.1,0,0.1,0,0.2c0.1,0.5,0,0.9-0.1,1.3
		c-0.2,0.7-0.7,1.3-1.3,1.7c-0.5,0.4-1,0.7-1.6,0.8c-0.3,0.1-0.6,0.2-0.9,0.3c-3.3,0-5.4-3.5-7.1-5.9c-0.3-0.4-0.8-1.1-1.4-1.8
		c-0.3-0.5-0.7-1-1.1-1.4c-0.5-0.5-1-1-1.6-1.4c-0.6-0.4-1.2-0.8-1.8-1.1c-0.8-0.4-1.8-0.8-2.6-1.1c-0.7-0.2-1.4-0.4-2.1-0.5
		c-0.3-0.1-0.7-0.2-1-0.3c-0.3,0-0.6-0.1-0.9-0.2c-0.1,0-0.3-0.1-0.4-0.2c-0.2-0.2-0.1-0.5,0.4-0.6c0.9-0.1,1.8-0.1,2.6,0.1
		c0.3,0.1,0.6,0.1,0.9,0.1c0.4,0.1,0.8,0.2,1.2,0.3c1.1,0.4,2.2,0.8,3.2,1.4c0.2,0.1,0.5,0.3,0.7,0.5c0.6,0.4,1.1,0.8,1.6,1.3
		c0.5,0.5,0.9,1,1.4,1.5c0.1,0.1,0.4,0.5,0.5,0.4c0.1,0-0.1-0.5-0.1-0.6c-0.3-0.8-1-2.3-1.8-3s-1.5-0.6-1.7-0.7
		c-0.1-0.1-0.2-0.3-0.2-0.6c-0.1-0.5-0.4-0.9-0.9-1.1c-0.7-0.5-1.5-0.1-2.2-0.2c-0.4-0.2-0.8-0.4-1.2-0.6c-0.3-0.2-0.6-0.3-1-0.4
		c-0.7-0.2-1.4-0.2-2.2-0.2c-1,0.1-1.6,0.8-2.2,1.1c-0.2,0.1-0.5-0.1-0.8-0.2c-0.4-0.1-0.8-0.1-1.2-0.1c-0.9,0.1-1.7,0.4-2.4,1
		c-0.8,0.6-0.8,1-1.3,1.2c-0.1,0-0.4,0.1-0.5,0.1c-0.6,0.1-1.1,0.4-1.6,0.8c-0.3,0.3-0.6,0.7-0.8,1.1c-0.1,0.1-0.2,0.2-0.3,0.2
		c-0.2,0-0.8,0-1.4,0.1c-0.3,0-0.5,0.1-0.8,0.2c-0.4,0.1-0.7,0.3-0.7,0.4c0,0.3,1.5,0.6,1.1,0.5c0.3,0.1,0.6,0.1,0.8,0.3
		c0.3,0.1,0.6,0.4,0.6,0.8c0.1,0.3,0.1,0.6,0.1,1c-0.1,1-0.3,2.1-0.6,3.1c-0.1,0.4-0.1,0.7-0.1,1.1c0,0.3,0,0.7,0,1
		c0.1,1.4,0.8,2.3,1.1,4.1c0,0.1,0.1,1.1,0.1,1.4c0.1,0.7,0.2,1.4,0.2,2c0,0.3-0.1,0.7-0.1,1.1c0,1.3,0.5,2.1,1.4,2.3
		c0.3,0.1,0.7,0.1,1.1,0c0.6-0.4,0.6-1,0.7-1.6c0-0.2,0-0.4,0.1-0.6c0.4-1.1,1.1-0.9,1.3-0.9c0.5,0.2,0.5,0.6,0.5,0.8
		c0,0.5-0.1,1-0.2,1.4c-0.1,0.7,0.1,1,0.7,0.6c0.2-0.2,0.2-0.6,0.3-0.9c0,0,0.4-1.9,0.6-3.6h0.1c0.3-0.1,0.5-0.1,0.8-0.1
		c1.2,0,2.4,0,3.6-0.1l0.9,0l0.3,0.8c0.4,0.8,0.7,1.6,1,2.4c0.5,1.4,0.8,2.8,1.1,4.2c0.1,0.3,0.1,0.6,0.1,1c0.2,1.1,0.2,2.3,0.5,3.4
		c0.1,0.6,0.3,1.1,0.6,1.6c0.5,0.8,1.3,1.6,2.8,3.1c0.5,0.5,0.7,1.2,1.1,1.9c0.1,0.2,0.1,0.5,0.2,0.7
		C168.5,80.2,168.8,80.8,169,81.5z M148.6,55.1L148.6,55.1L148.6,55.1C148.6,55,148.6,55.1,148.6,55.1c0.1-1.7,2.2-1,2,0.2
		c0,0.6-0.5,1-1.1,0.9S148.5,55.7,148.6,55.1C148.6,55.1,148.6,55.1,148.6,55.1L148.6,55.1z M150.6,64.7c-1.1-0.2-0.6-1.7,0.4-1.1
		C151.6,63.9,151.5,64.9,150.6,64.7L150.6,64.7z M159.2,59.5c-1.1,0.1-2.4,0.1-3.5,0c0.1-0.4,0.1-0.8,0.1-1.2c0-0.1,0.3-0.4,0.5-0.6
		c0.2-0.3,0.4-0.5,0.6-0.8c0.4-0.9,0.6-1.8,0.5-2.8c0-1.1-0.2-2.2-0.5-3.3c-0.1-0.3-0.3-0.5-0.5-0.8c-0.7-0.7-0.4-1.1,0.3-1.2
		c0.4,0,0.7,0.2,0.9,0.5c0.6,0.8,1,1.7,1.1,2.7c0.1,1.1,0.1,1.1,0.2,2.2c0.1,0.8-0.3,1.8,0,2.3c0.3,0.6,0.6,1.1,0.9,1.7l0.5,1.2
		C159.8,59.4,159.5,59.4,159.2,59.5z"/>
	<path class="st1" d="M163.3,86.2c0.2,0.9,0.4,2.1,0.5,3.2c0.1,0.9,0.2,1.7,0.5,2.5c0.2,0.4,0.4,0.7,0.7,1c0.5,0.6,1.1,1.2,1.7,1.8
		c0,0.1,0.1,0.1,0.2,0.1c0.1,0,0.1,0,0.2-0.1c0.3-0.5,0.6-1.1,0.8-1.7c0.1-0.1,0.1-0.2,0.1-0.3c0.2-0.5,0.5-1,0.4-1.1
		c-0.1-0.2-0.5-0.2-0.9-0.2c-0.3,0-0.6-0.1-0.9-0.1c-0.3,0-0.6-0.2-0.8-0.3c-0.5-0.3-0.6-0.9-0.3-1.4c0,0,0,0,0,0
		c0.1-0.1,0.4-0.5,0.3-0.9c-0.1-0.5-0.3-1.1-0.5-1.6c-0.1-0.4-0.1-0.8-0.2-1.1c-0.1-0.4-0.1-0.8-0.2-1.1c0-0.4,0.1-0.9,0.3-1.2
		c0.4-0.5,0.9-0.5,1.5-0.8c0.3-0.1,0.7-0.2,0.7-0.4l0-0.2c0-0.2-0.1-0.4-0.2-0.6c-0.1-0.2-0.1-0.4-0.3-0.6c-0.2,0-0.4,0.1-0.6,0.2
		c-0.5,0.2-0.9,0.4-1.4,0.5c-0.5,0.2-1,0.4-1.5,0.6c-0.4,0.2-0.7,0.4-1,0.5c-0.4,0.2-0.2,0.7,0,1.4
		C162.9,84.8,163.1,85.5,163.3,86.2z"/>
	<path class="st1" d="M160.9,81.7c0.5-0.2,0.9-0.4,1.4-0.6c1.1-0.5,2.2-0.7,3.3-1.2c0.3-0.1,0.5-0.2,0.8-0.3
		c0.2-0.1,0.3-0.2,0.3-0.3c0-0.2-0.1-0.3-0.2-0.5c0-0.2-0.1-0.3-0.2-0.5c-0.2-0.2-0.4-0.5-0.7-0.7c-0.3-0.3-0.6-0.6-0.9-0.9
		c-0.4-0.4-0.8-0.9-1.1-1c-0.1,0-0.9,0.4-1.7,1c-0.3,0.2-0.6,0.4-1,0.6c-0.3,0.2-0.5,0.4-0.8,0.6c-0.4,0.3-0.9,0.6-1.3,0.9
		c-0.4,0.3-0.8,0.5-1.1,0.8c-0.1,0.1-0.3,0.2-0.4,0.3c-0.2,0.2-0.4,0.5-0.6,0.7c-0.2,0.6-0.2,1.5,0.1,2.6c0.2,0.7,0.2,1.6,0.4,2.3
		c0.1,0.6,0.2,1.3,0.2,1.9c0,0.5-0.1,1.1-0.1,1.7c0,0.2,0,0.5,0,0.7c-0.3,0.9-0.3,1.8-0.2,2.7c0.4,1.2,1,2.3,1.8,3.2
		c0.2,0.3,0.4,0.6,0.7,0.9c0.4-0.5,0.8-1,1.1-1.6c0.2-0.3,0.3-0.5,0.5-0.8c0.1-0.1,0.2-0.3,0.2-0.5c0-0.1-0.1-0.3-0.4-0.5
		c-0.4-0.1-0.8-0.2-1.1-0.4c-0.7-0.4-1.2-1.1-0.9-1.6c0.4-0.6,0.8-0.7,1-1c0.1-0.2,0-0.5-0.2-1c-0.3-0.9-0.4-1.8-0.3-2.7
		c0.1-1.2-0.4-3.2,0.1-4.3C159.9,82.1,160.4,81.9,160.9,81.7z"/>
	<path class="st1" d="M147.7,63c0-0.2,0.1-0.8,0-1c0-1-0.1-2-0.3-3c-0.1-0.5-0.3-1.1-0.5-1.6c-0.1-0.3-0.1-0.7-0.4-0.9
		c-0.2-0.1-0.4-0.2-0.6-0.3c-0.4-0.1-0.6-0.4-0.7-0.8c-0.1-0.4,0-0.9,0.4-1.1c0.2-0.2,0.6-0.3,0.7-0.5c0.1-0.3,0.1-0.5,0.2-0.8
		c0.4-1.4,0.9-3.5,0.5-4c-0.2-0.1-0.4-0.2-0.6-0.3c-0.2-0.1-0.4-0.1-0.6-0.2c-0.6-0.2-1.1-0.5-1.7-0.9c-0.2-0.2-1.4,0.5-1.2,0.6
		c0.1,0.1,0.7,0.2,1.2,0.4c0.7,0.3,1.4,0.7,1.5,1.2c0.1,0.5-0.2,2.5-0.4,3c-0.2,0.5-0.3,1.1-0.4,1.7c0,0.3,0,0.5,0,0.8
		c0,0.1,0,0.1,0,0.2c0.2,0.6,0.5,1.1,0.9,1.6c0.1,0.2,0,0.6,0.1,0.8c0.2,0.9,0.3,1.8,0.4,2.7c0,0.4-0.1,0.8-0.2,1.2
		c0,0.3-0.1,0.7-0.1,1c-0.2,0.5-0.2,1,0.1,1.5c0.5,1,1.7,1.2,1.7,0.7c0.1-0.8-0.7-0.5-0.9-0.9c-0.2-0.4-0.4-0.5-0.1-1
		C146.9,63,147.4,63,147.7,63z"/>
	<path class="st1" d="M171.6,107.5c0.9,0.7,2,1,3.1,1.1c1-0.1,2-0.4,2.8-1.1c0.8-0.6,1.3-1.1,2.1-1.7c0.2-0.2,0.5-0.3,0.8-0.3
		c0.5,0,1,0,1.4,0c0.1,0,0.2,0,0.3,0c0.1,0,0-0.2-0.1-0.3c-0.8-1-1.6-0.9-2.3-0.9c-2.5,0.1-3.3,2.1-5,2.3c-0.9,0.1-2.6-0.3-3.5-0.6
		c-0.8-0.3-1.5-0.7-2.3-1.1c-0.1-0.1-0.2,0-0.1,0.2C169.8,105.9,170.7,106.7,171.6,107.5z"/>
	<path class="st1" d="M182.8,107.9c0.4,0,1-1,1.2-1.2c0.1-0.1,0-0.2-0.1-0.2c-0.9-0.1-1.7-0.1-2.6,0c-0.5,0.1-1.9,1-1.7,1.2
		S182.2,108,182.8,107.9z"/>
	<path class="st1" d="M183.2,110.8c2.2,0.2,3.9-1.7,5.2-3.2c0.7-0.9,1.6-1.6,2.7-2c0.5-0.2,1.1-0.1,1.7-0.1c0.5,0,0.4-0.2-0.2-0.6
		c-0.6-0.4-1.4-0.7-2.2-0.6c-0.6,0-1.2,0.1-1.8,0.3c-0.9,0.3-1.7,0.9-2.4,1.6c-0.7,0.7-1.3,1.7-2,2.3c-0.5,0.4-0.5,0.6-1.5,0.6
		c-0.5,0-1.1,0-1.6,0.1c-0.1,0.1,0.1,0.3,0.1,0.3C181.5,110.2,182.3,110.7,183.2,110.8z"/>
	<path class="st1" d="M192.4,108.1c0.3,0,0.5,0,0.7-0.1c0.2-0.2,1.2-0.9,1.2-1.1c0-0.1-0.6-0.1-1.3-0.1c-0.5,0-0.9,0-1.4,0
		c-0.6,0.1-1.2,0.5-1.5,1.1c-0.1,0.1,0,0.1,0,0.2S191.9,108.1,192.4,108.1z"/>
	<path class="st1" d="M203.6,106.9c-0.3-0.1-0.7-0.1-1-0.1c-0.3,0-0.7,0-1,0c-0.5,0.1-1.3,1.1-1.3,1.2c0,0.1-0.1,0.2,0.1,0.2
		c0.2,0.1,1.6,0.1,2.3,0.1c0.5,0,0.9,0.1,1-0.1c0.1-0.3,0.1-0.5,0.1-0.8C203.8,107.3,203.7,107,203.6,106.9z"/>
	<path class="st1" d="M211.1,105.9c0.7-0.2,2.2-0.2,2-0.5c-0.2-0.3-0.9-0.6-1.8-0.6c-0.5-0.1-0.9-0.1-1.4,0c-1,0.1-2.2,0.4-3.2,0.4
		c-1.1,0-2.1-0.4-3.1-0.6c-1.3-0.4-2.6-0.4-3.8,0c-1.8,0.6-2.9,1.6-4.2,2.9c-0.6,0.6-1.2,1.4-1.9,1.7c-0.8,0.3-2.4,0.1-2.8,0.1
		l-0.3,0c-0.4,0.3,1.2,1.4,2,1.6c0.6,0.1,2.1,0.1,3-0.3c1.9-0.9,2.8-2.6,4.4-4c0.7-0.8,1.7-1.1,2.8-1c1.3,0.1,2.3,0.6,3.4,1.1
		c0.9,0.4,1.8,0.7,2.7,0.9c0.2,0,0.3,0.1,0.5,0.1c0.5,0.1,2.2,0.3,3.2-0.1c0.2-0.1,0.5-0.3,0.5-0.4c0-0.3-2.2,0-2.1-0.7
		C210.9,106.1,211,106,211.1,105.9z"/>
	<path class="st1" d="M214.3,106c-0.3,0-0.6,0.1-0.9,0.2c-0.1,0.1,0,0.2,0.1,0.2c0.1,0,0.5,0.1,0.9,0.2c0.7,0.1,1.5,0.3,1.4-0.3
		C215.8,105.7,215,105.9,214.3,106z"/>
	<path class="st1" d="M230.6,84.8c0.1,0.7,0.3,0.9,0.8,1c0.2,0,0.4,0,0.7,0c0.3,0,0.6-0.1,0.8-0.2c0.3-0.1-0.5-1.7-1.3-2.8
		c-0.5-0.8-1-1.4-1.2-1.3c-0.1,0.1-0.1,0.4-0.1,0.8c0,0.5,0.1,1.1,0.2,1.7C230.5,84.3,230.6,84.6,230.6,84.8z"/>
	<path class="st1" d="M224.2,84c0,0.3,0,0.8,0.1,1.3c0,0.4,0.2,0.5,0.5,0.5s0.4-0.1,0.5-0.5c0.1-0.5,0.1-1.3,0.2-1.9
		c0-0.5,0.1-1.1,0.1-1.8c0.1-0.4,0.2-0.8,0.2-1.2c0-0.3,0-0.6-0.1-0.6c-0.2-0.1-1.8-0.1-1.8,0.2c0,0.3,0,0.6,0.1,0.9
		c0.1,0.4,0.1,0.8,0.1,1.1C224.1,82.7,224.1,83.3,224.2,84z"/>
	<path class="st1" d="M222.1,88.1c-0.2-0.1-0.4-0.1-0.6-0.1c-0.2,0-0.5,0-0.6-0.1c-0.6,0-1-0.1-1.6-0.1c-0.2,0-0.4,0-0.5,0
		c-0.4-0.1-0.8-0.2-1.3-0.2c-0.3,0-0.6-0.1-0.8,0.1c-0.1,0.1-0.1,0.2-0.1,0.3c-0.1,0.3-0.1,0.6-0.1,0.8c0,0.6,0.1,1.2,0.2,1.2
		c0.4,0,0.9-0.1,1.3-0.3c0.5-0.1,0.9-0.2,1.4-0.2c0.2,0,0.6-0.1,0.9-0.1c0.2,0,0.5-0.1,0.7-0.1c0.4,0,0.8-0.1,1.2-0.1
		c0.1-0.2,0.1-0.5,0.1-0.7C222.2,88.4,222.2,88.2,222.1,88.1z"/>
	<path class="st1" d="M222.8,84.4c0-0.5-0.1-1-0.1-1.5c-0.1-0.9-0.2-1.8-0.5-2.7l0-0.1c-0.2-0.4-1.4,0.1-1.7,0.4
		c-0.1,0.1-0.1,0.5-0.1,0.9c0,0.2,0,0.5,0,0.7c0.1,1.4,0.1,4,0.3,4.1c0.3,0.1,0.7,0.1,1,0.1c0.4,0,0.9,0,1-0.2
		C222.9,86,222.8,85,222.8,84.4z"/>
	<path class="st1" d="M224.9,89.7c1.7-0.3,1.4-2.8-0.3-2.7C222.5,87.1,222.9,90,224.9,89.7z M224.9,87.6c0.8,0.4,0.5,1.7-0.5,1.4
		c-0.4-0.1-0.6-0.5-0.5-0.9s0.5-0.6,0.9-0.5C224.8,87.6,224.8,87.6,224.9,87.6L224.9,87.6z"/>
	<path class="st1" d="M224.2,97.6l0.6,0c0.3,0,0.6,0,1,0c0.1,0,0.2,0,0.3,0c0.1-0.1,0.1-0.5,0-1c-0.1-0.3-0.1-0.7-0.2-1
		c-0.1-0.8-0.2-1.6-0.3-2.5c0-0.5-0.1-1-0.2-1.6c-0.1-0.2-0.1-0.4-0.4-0.4c0,0-0.9,0-1,0.1c-0.1,0.3-0.1,2.6-0.1,3
		c0,0.4-0.1,0.6-0.1,1.1c-0.1,1-0.3,2-0.3,2.1C223.7,97.6,223.9,97.6,224.2,97.6z"/>
	<path class="st1" d="M227.8,86.3c0.2,0,0.6,0,0.7,0c0.2,0,0.3-0.1,0.3-0.3c0-0.6-0.1-1.1-0.1-1.5c0-1-0.1-2.2-0.1-3
		c0-0.4,0-0.9-0.1-1.3c0-0.1-0.2-0.2-0.3-0.2c-0.2-0.1-0.4-0.2-0.6-0.2c-0.2,0-0.3,0.3-0.4,0.6c-0.1,0.2-0.1,0.5-0.2,0.7
		c0,0.3-0.1,0.6-0.2,0.8c-0.1,0.5-0.2,1.1-0.2,1.6c0,0.4-0.1,0.9-0.1,1.2c0,0.5-0.1,1.4,0.1,1.5C227.1,86.3,227.5,86.4,227.8,86.3z"
		/>
	<path class="st1" d="M227.3,89.1c0.5,0.1,0.9,0.1,1.4,0.1c0.4,0,0.8,0.1,1.2,0.1c0.5,0,1.1,0,1.6,0.1c0.2,0,0.7,0.1,1.1,0.1
		c0.2,0,0.5,0,0.7,0c0.2-0.1,0.3-0.5,0.2-1.1c-0.1-0.5,0-1-0.4-1c-0.1,0-0.7,0.1-1.3,0.2c-0.8,0.1-1.7,0.2-2.1,0.3
		c-0.2,0-0.5,0-0.8,0.1c-0.3,0-0.6,0.1-0.8,0.1c-0.5,0-0.9,0.1-0.9,0.3C227.2,88.8,227.1,89,227.3,89.1z"/>
	<path class="st1" d="M234.8,55.9c-0.6-0.6-1.2-1.2-1.8-1.8c-0.9-0.7-1.4-1.3-2.1-1.9c-0.3-0.2-0.5-0.5-0.8-0.7
		c-0.3-0.2-0.7-0.5-1.1-0.7c-0.3-0.4-0.9-0.5-1.3-0.3c-0.1,0-0.3,0-0.4,0c-0.7,0.1-1.5,0.1-2.5,0.2c-0.4,0-0.8,0-1.2,0
		c-0.6,0-1.3,0-1.9,0.2c-1,0.3-1.4,0.8-1.4,1.6c0,0.2,0,0.3,0,0.5c0.2,1,0.6,1.9,1.1,2.7c0.3,0.5,0.6,1,1,1.5
		c0.1,0.1,0.3,0.1,0.3,0.1c0.2,0.3,0.5,0.3,1,0.3c0.3-0.1,0.6-0.2,1-0.2c0.5,0.1,0.6,0.6,0.8,0.8c0.1,0.2,0.3,0.3,0.5,0.5
		c0.2,0.1,0.4,0.2,0.7,0.2c0.3,0,0.6,0,0.9,0c0.7-0.1,0.9-0.4,1.2-0.3c0.1,0.1,0.2,0.3,0.4,0.4c0.1,0.1,0.3,0.3,0.5,0.4
		c0.6,0.5,1.3,0.5,2.2,0.6c0.8,0,1.7,0,2.5-0.2c0.4,0,0.8-0.1,1.1-0.2c0.5-0.1,0.9-0.3,1.3-0.6c0.2-0.1,0.3-0.2,0.3-0.4
		c0-0.3-0.2-0.6-0.4-0.8C236,57.1,235.4,56.5,234.8,55.9z"/>
	<path class="st1" d="M225.8,61.9c1.1,0.4,2.4,0.6,3.6,0.5l0.6,0c0.1,0,0.3,0,0.4,0c0.7-0.1,1.7-0.3,1.7-0.3c0.1-0.1,0.2-0.3,0-0.4
		c-0.1,0-0.2-0.1-0.4-0.1c-0.2,0-0.5,0-0.7,0c-0.3,0-0.7-0.1-1-0.2c-0.4-0.1-0.9-0.3-1.2-0.5c-0.2-0.2-0.4-0.3-0.7-0.3
		c-0.2,0-0.6,0-1,0.1c-0.5,0-1,0-1.5-0.2c-0.3-0.2-0.6-0.3-0.8-0.6c-0.2-0.1-0.3-0.3-0.5-0.4c-0.2-0.1-0.3-0.1-0.5,0
		c-0.2,0.1-0.4,0-0.5,0.2C223.4,59.8,224.6,61.4,225.8,61.9z"/>
	<path class="st1" d="M229.1,39.5l-0.5,0.1c-0.2,0-0.4,0-0.5,0.1c-0.2,0.2-0.1,0.6-0.2,1c-0.2,0.9-0.4,1.8-0.7,2.6
		c-0.2,0.5-0.4,1-0.6,1.5c-0.2,0.5-0.4,0.8-0.6,1.1c-0.3,0.5-0.6,1.2-0.9,1.7c-0.1,0.1-0.2,0.3-0.2,0.4c-0.1,0.1-0.2,0.4,0.1,0.5
		c0.2,0.1,0.4,0.2,0.7,0.1c0.4,0,0.7-0.1,1-0.1c0.7,0,0.7-0.2,0.8-0.6c0-0.2,0.3-0.6,0.3-0.8c0.1-0.2,0.2-0.5,0.3-0.7
		c0.2-0.3,0.3-0.6,0.5-1c0.5-0.9,0.9-1.8,1.2-2.8c0.3-0.7,0.5-1.5,0.6-2.3c0-0.7,0-1.6-0.8-1.2C229.3,39.4,229.2,39.5,229.1,39.5z"
		/>
	<path class="st1" d="M224,23.5c-0.6-0.5-1.1,0-1.4-0.1c-0.2-0.1-0.4-0.3-0.5-0.5c-0.2-0.2-0.5-0.4-0.8-0.3c-0.5,0-0.7,0.3-1.1,0.4
		s-0.4-0.4-1.4-0.2c-0.6,0.1-1.1,0.8-1.5,0.9c-0.3,0.1-1.1-0.2-1.6,0.6c-0.4,0.5-0.3,1.1,0.1,1.3c0.2,0.1,0.9-0.2,1.5-0.2
		c0.3,0,0.6,0.1,0.9,0.3c0.2,0.1,0.5,0.2,0.6,0.3c0.5,0.3,0.9,0.6,1.3,1c0.3,0.4,0.5,0.7,0.6,0.7c0.4,0,0.5-0.6,0.8-1.1
		c0.4-0.6,1-1.2,1.6-0.8c1.1,0.7,2,2.1,2.8,3.1c0.5,0.7,1.1,1.4,1.5,2.1c0.2,0.3,0.6,0.9,0.9,1.3c0.3,0.4,0.7,0.8,1.1,0.3
		c0.3-0.3,0.2-0.7,0.4-1c0.1-0.2,0.5-0.1,0.6-0.2c0.5-0.6,0.2-0.7,0.1-1.3c-0.1-0.5,0.4-0.6,0.4-1.1c0-0.8-0.7-0.9-0.8-1.1
		s0.2-0.5,0.2-0.8c0.1-0.4,0-0.9-0.3-1.2c-0.3-0.3-0.7-0.5-1.1-0.3c-0.3,0.1-0.3,0.2-0.6,0.1c-0.1,0-0.2-0.2-0.4-0.3
		c-0.3-0.2-0.6-0.2-0.9-0.3c-0.2,0-0.5,0-0.7,0.1c-0.1,0.1-0.2,0.1-0.3,0.2H226c-0.3,0-0.2-0.1-0.8-0.2c-0.4,0-0.8,0.2-1-0.3
		C224.3,24.4,224.7,24,224,23.5z"/>
	<path class="st1" d="M216.1,29.5c-0.1,0.1-0.2,0.2-0.3,0.4c-0.1,0.1-0.2,0.3-0.3,0.5c-0.1,0.3-0.2,0.5,0,0.6
		c0.2,0.1,0.5-0.1,0.8,0.2c0.1,0.1,0.2,0.3,0.2,0.5c0,0.1,0.1,0.1,0.1,0.2c0.1,0.2,0,0.3,0.1,0.5c0,0.1,0.1,0.2,0.2,0.3
		c0.2,0.2,1.1,0,1.6-0.1c0.3,0,0.6-0.2,0.9-0.5c0.1-0.2,0.1-0.4,0.2-0.6c0.3-0.3,0.3-0.7,0.2-1.1c-0.4-0.5-1.1-0.5-1.5-0.4
		c-0.2,0-0.4,0-0.6-0.1c-0.3,0-0.5,0.1-0.6-0.1c-0.1-0.3,0-0.7,0.3-0.9c0.3-0.1,0.6-0.1,0.9,0.1c0.5,0.1,0.7,0.2,0.7-0.4
		c-0.1-0.6-0.4-1.1-1-1.4c-0.5-0.2-0.9-0.4-1.1-0.2c-0.2,0.3-0.3,0.6-0.2,1c0,0.3,0,0.6-0.1,0.9C216.4,29,216.2,29.3,216.1,29.5z"/>
	<path class="st1" d="M192.4,6.8c-0.1,0.1-0.2,0.2,0,0.4s0.6,0.6,0.9,0.9c0.3,0.3,0.4,0.2,0.5,0.1c2.2-1.9,4.6-3.4,7.2-4.6
		c0.2-0.1,1-0.4,1.5-0.6c1.1-0.4,2.3-0.7,3.4-0.9c0.1,0,0.4,0,0.3-0.2s-2-0.8-2.9-0.7c-1.3,0-2.5,0.3-3.7,0.7
		c-1.7,0.8-3.3,1.7-4.8,2.7C194.3,5,192.5,6.6,192.4,6.8z"/>
	<path class="st1" d="M182.9,0.5c0.8,0.1,1.5,0.4,2.2,0.7c1,0.5,2,1,2.9,1.6c1.1,0.8,2.1,1.8,3,2.7c0.3,0.4,0.5,0,0.5,0
		s0.2-0.2,0.4-0.4c0.4-0.3,0.8-0.7,0.6-0.9c-0.1-0.1-0.1-0.2-0.3-0.3c-0.2-0.2-0.5-0.6-0.9-0.9c-0.4-0.3-0.7-0.6-1.1-0.8
		c-0.1-0.1-0.3-0.3-0.4-0.4c-0.7-0.6-1.6-1.1-2.5-1.4c-3.1-0.9-4.3-0.3-4.5-0.2C182.8,0.3,182.4,0.5,182.9,0.5z"/>
	<path class="st1" d="M180.1,25.1c0.3-0.1,0.4-0.4,0.2-0.7c-0.1-0.2-0.3-0.3-0.5-0.3l0,0h0c-0.1,0-0.2,0-0.2,0.1h0
		c-0.3,0.1-0.4,0.4-0.3,0.7C179.4,25.1,179.7,25.3,180.1,25.1C180,25.1,180,25.1,180.1,25.1z"/>
	<path class="st1" d="M184.4,25c0.3,0.1,0.7-0.1,0.7-0.5s-0.1-0.7-0.5-0.7c0,0-0.1,0-0.1,0h-0.1c-0.3,0-0.5,0.3-0.5,0.5
		c-0.1,0.2,0,0.5,0.3,0.6C184.2,25,184.3,25,184.4,25z"/>
	<path class="st1" d="M185.1,21.4c0.2-0.3,0.1-0.6-0.2-0.8c-0.1,0-0.2-0.1-0.2-0.1h0c-0.3,0-0.6,0.3-0.6,0.6c0,0.1,0,0.1,0,0.2
		C184.2,21.6,184.8,21.7,185.1,21.4z"/>
	<path class="st1" d="M183.3,25.8L183.3,25.8c-0.4,0-0.6,0.3-0.6,0.6c0,0.3,0.3,0.5,0.6,0.5c0.3,0,0.5-0.3,0.5-0.6
		C183.8,26.1,183.6,25.9,183.3,25.8z"/>
	<path class="st1" d="M183.2,22.1L183.2,22.1c-0.4,0-0.5,0.5-0.4,0.8c0.1,0.3,0.5,0.4,0.8,0.3c0,0,0,0,0,0c0.3-0.1,0.6-0.4,0.5-0.7
		c-0.1-0.3-0.4-0.6-0.7-0.5C183.3,22.1,183.3,22.1,183.2,22.1z"/>
	<path class="st1" d="M182.5,20.4c-0.3,0-0.6,0.2-0.6,0.5c0,0.3,0.2,0.6,0.5,0.6h0c0.3,0,0.6-0.2,0.6-0.5c0,0,0-0.1,0-0.1
		C183,20.7,182.8,20.4,182.5,20.4C182.5,20.4,182.5,20.4,182.5,20.4z"/>
	<path class="st1" d="M182,25.4c0.9,0.1,1-1.1,0.2-1.2l0,0C181.4,24.1,181.1,25.3,182,25.4z"/>
	<path class="st1" d="M181.2,22.3c-0.3-0.1-0.7,0-0.8,0.4c0,0.1,0,0.2,0,0.2c0,0.2,0,0.3,0.2,0.5c0.2,0.1,0.4,0.2,0.6,0.2h0
		c0.4-0.1,0.6-0.4,0.6-0.8c0,0,0-0.1,0-0.1C181.6,22.4,181.4,22.3,181.2,22.3z"/>
	<path class="st1" d="M180.9,27.2c0.3,0,0.6-0.3,0.6-0.6c0-0.3-0.2-0.6-0.5-0.6h-0.1c-0.4,0-0.6,0.1-0.6,0.6c0,0.3,0.2,0.6,0.4,0.6
		C180.8,27.2,180.8,27.2,180.9,27.2z"/>
	<path class="st1" d="M186,22.3L186,22.3c-0.4,0-0.6,0.2-0.7,0.5c0,0.3,0.2,0.6,0.5,0.6c0.1,0,0.2,0,0.3,0
		C186.5,23.3,186.7,22.4,186,22.3z"/>
	<path class="st1" d="M186.8,21.1c0.2-0.1,0.3-0.2,0.6-0.3c0.4-0.2,0.9-0.4,1.3-0.5c0.2-0.1,0.5-0.2,0.4-0.5
		c-0.1-0.4-0.5-0.2-0.8-0.1c-0.2,0.1-0.3,0.1-0.5,0.2c-0.3,0.1-0.6,0.3-1,0.4c-0.1,0.1-0.4,0.2-0.5,0.3
		C186.3,20.8,186.4,21.2,186.8,21.1L186.8,21.1z"/>
	<path class="st1" d="M200.7,25.6c0.7,0.1,1.1-0.9,0.3-1.2h-0.1C200.2,24.2,199.9,25.5,200.7,25.6z"/>
	<path class="st1" d="M201.3,21.3L201.3,21.3c-0.6-0.6-1.3,0.3-0.9,0.8C201,22.8,201.7,21.9,201.3,21.3z"/>
	<path class="st1" d="M201.8,27.5c0.9,0.1,0.6-1.1,0.1-1.2l0,0C201,26.3,201.1,27.5,201.8,27.5z"/>
	<path class="st1" d="M202.3,22.7L202.3,22.7c-0.4,0-0.6,0.3-0.6,0.6s0.3,0.6,0.6,0.6c0,0,0.1,0,0.1,0
		C203.1,23.7,202.8,22.7,202.3,22.7z"/>
	<path class="st1" d="M203.3,26.1c0.6-0.3,0.1-1.2-0.5-1.2h-0.1C202,25.2,202.6,26.4,203.3,26.1z"/>
	<path class="st1" d="M203.8,21.7c0-0.3-0.3-0.5-0.6-0.5c0,0-0.1,0-0.1,0c-0.3,0.1-0.4,0.4-0.3,0.7l0,0.1
		C203,22.6,204,22.3,203.8,21.7z"/>
	<path class="st1" d="M203.9,28.1c0.3,0,0.6-0.1,0.6-0.4c0,0,0-0.1,0-0.1c0-0.3-0.2-0.5-0.5-0.6H204c-0.3,0-0.6,0.2-0.6,0.5
		S203.6,28,203.9,28.1L203.9,28.1z"/>
	<path class="st1" d="M204.9,23.7c0-0.3-0.2-0.6-0.5-0.6h-0.1c-0.8,0-0.6,1.3,0,1.2C204.7,24.3,204.9,24.1,204.9,23.7
		C204.9,23.7,204.9,23.7,204.9,23.7z"/>
	<path class="st1" d="M205.3,26.4c0.3,0,0.6-0.2,0.6-0.6c0-0.3-0.2-0.6-0.6-0.6c0,0-0.1,0-0.1,0h0c-0.3,0-0.6,0.3-0.6,0.6
		c0,0,0,0,0,0.1C204.6,26.2,204.9,26.4,205.3,26.4C205.3,26.4,205.3,26.4,205.3,26.4z"/>
	<path class="st1" d="M199.7,23.9c0.7-0.1,0.7-1.1-0.1-1.1C199.1,22.9,199,23.9,199.7,23.9z"/>
	<path class="st1" d="M199.3,20.3c-0.5-0.3-1-0.4-1.5-0.6c-0.3-0.1-0.6-0.1-1-0.1h-0.1c-0.3,0.1-0.3,0.3-0.2,0.5s0.4,0.2,0.9,0.2
		c0.5,0,1,0.2,1.4,0.5c0.2,0.1,0.5,0.2,0.7,0C199.6,20.5,199.5,20.4,199.3,20.3z"/>
	<path class="st1" d="M213,33.8c-0.6,0.2-1.2,0.4-1.7,0.7c-0.9,0.4-1.6,0.7-1.6,0.9c0,0.2,0.1,0.2,0.3,0.3c1.2,0.5,2.2,1.3,3,2.2
		c1.1,1.3,2.1,2.7,2.9,4.2c0.5,0.7,0.8,1.4,1.1,1.9c0.5,0.8,0.8,1.3,0.9,1.3c0.1,0.2,0.3,0.4,0.4,0.4c0.4,0.1,0.4-0.2,0.2-0.7
		c0-0.1,0-0.2,0-0.2c-0.3-1.2,0-1.6,0.1-1.8c0.1-0.2,0.1-0.4,0.2-0.7c0.2-0.3,0.5-0.6,0.8-0.9c0.5-0.5,1.1-1,1.7-1.5
		c0.2-0.2,0.4-0.4,0.6-0.6c0.2-0.2,0.4-0.3,0.6-0.5c0.2-0.2,0.3-0.3,0.4-0.5c0.1-0.2,0.3-0.3,0.5-0.5c0.2-0.2,0.6-0.7,0.7-0.9
		c0-0.4-0.1-0.7-0.3-1.1c-0.1-0.3-0.2-0.5-0.3-0.7c-0.1-0.2-0.1-0.4-0.4-0.4s-1.1,0.4-2.1-0.3c-0.2-0.2-0.4-0.4-0.5-0.6
		c-0.1-0.3-0.2-0.6-0.4-0.7c-0.2-0.1-0.4-0.1-0.5,0c-0.2,0-0.4,0.1-0.6,0.1c-0.5,0.1-0.9,0.2-1.4,0.3c-0.4,0-0.7,0-1.1,0
		c-0.4,0-0.7-0.1-1.1-0.2C214.6,33.6,213.8,33.6,213,33.8z"/>
	<path class="st1" d="M220.2,44.9L220.2,44.9c0.3,0,0.5-0.3,0.8-1.1c0.5-1.4,0.5-1.6,0.4-1.7c-0.1-0.1-0.2-0.1-0.3-0.1
		c-0.3,0.2-0.6,0.4-0.8,0.7l0,0c-0.2,0.2-0.4,0.4-0.5,0.7c-0.1,0.2-0.1,0.5,0,0.7C219.9,44.9,220.1,44.9,220.2,44.9z"/>
	<path class="st1" d="M213.3,41.1c-0.3,0-0.6,0-0.8,0.1c-0.4,0-0.8,0-0.8,0.1c-0.1,0.1,0.3,2.9,0.9,3.7c0.3,0.4,0.8,0.7,1.3,0.8
		c0.4,0.1,0.8,0.1,1.3,0.1c0.4,0,0.7,0,1.1-0.1c0.2-0.1-0.9-1.8-1.3-2.6C214.6,42.8,213.7,41.2,213.3,41.1z"/>
	<path class="st1" d="M210.1,37.4c-0.3-0.1-0.6-0.3-0.9-0.4c-0.4-0.2-0.8-0.3-1.2-0.3c-0.3,0-0.6,0.1-0.9,0.1
		c-0.8,0.1-1.7,0.2-2.5,0.2c-0.7,0-1.3-0.2-2-0.2c-0.8-0.1-1.5,0-2.4,0c-0.7,0-1.4,0.1-2,0.3c-0.5,0.1-1.1,0.1-1.5,0.2
		c-1,0.3-2,0.5-3,0.7c-0.6,0.1-1.2,0.2-1.8,0.2c-0.6-0.1-1.1-0.2-1.7-0.4c-0.8-0.2-2.3-0.6-3.2-0.3c-0.5,0.2-0.7,0.4-0.7,0.9
		c0,0.4,0.2,0.8,0.4,1.2c0.2,0.2,0.4,0.2,0.5,0.5c0.2,0.5,0,1.4,0.2,2.6c0.1,1,0.4,1.9,0.8,2.9c0.3,0.6,0.7,1.5,1.1,2.7
		c0.3,0.5,0.5,0.9,0.8,1.4c-0.9,0.3-1.8,0.6-2.7,0.9c-0.9,0.3-1.5,0.5-1.9,0.6l-0.7,0.3c-0.3,0.1-0.6,0.2-0.4,0.6
		c0.1,0.4,0.5,0.7,0.9,0.7c0.5,0,1.3-0.4,1.8-0.5c0.1,0,0.2-0.1,0.4-0.2c0.2-0.1,0.5-0.1,0.8-0.2c0.5-0.1,1.1-0.4,1.8-0.6
		c2.2-0.7,4.9-1.8,5.5-2c0.5-0.2,0.8-0.4,1.1-0.5c0.2-0.1,0.5-0.2,0.7-0.3c0.3-0.1,0.6-0.2,1-0.4c0.4-0.1,3.7-1.5,4.1-1.6
		c0.4-0.1,2.7-0.8,3.5-0.7c0.5,0,0.9,0.1,1.4,0.2c0.4,0.1,0.9,0.3,1.3,0.5l0.1,0.1c0.2,0.1-0.5-0.1-0.5-0.1
		c-0.4-0.1-0.7-0.2-1.1-0.3c-0.4,0-0.9,0-1.3,0c-0.2,0-0.4,0.1-0.9,0.2c-0.8,0.2-1.5,0.4-2.3,0.7c-0.1,0.1-1.2,0.5-2.6,1.1
		c-0.9,0.4-1.8,0.9-2.7,1.3c-0.6,0.3-1.3,0.6-1.7,0.8c-0.1,0-0.6,0.3-1.3,0.6c-1.4,0.6-3.5,1.4-3.7,1.5c-0.2,0.1-0.9,0.3-1.7,0.5
		c-1,0.2-2.2,0.5-2.6,0.5c-0.7,0.1-0.8,0.1-0.8,0.3c-0.1,0.3,0,0.7,0.1,1c0.2,0.2,0.5,0.3,0.8,0.3c0.1,0,0.9-0.1,1.7-0.3
		c1.1-0.2,2.3-0.6,2.6-0.6h0.1c0,0.8,0,1.9,0,2c0,0.4,0.1,0.8,0.1,1.2c0,0.1,0.1,0.2,0.2,0.2c0.1,0,0.4,0,0.5,0s2.2-0.3,2.2-0.3
		s0.4,0,0.7-0.1c0.4,0,0.7-0.1,1-0.3c0.1-0.2,0.1-3.2,0.1-4.7l0.2-0.1c0.1-0.1,1.3-0.6,2.9-1.3c1.8-0.9,3.7-1.6,5.6-2.3
		c0.9-0.3,1.7-0.5,2.6-0.5c0.3,0,0.6,0,0.9,0.1c0.3,0.1,0.5,0.2,0.7,0.4l0,0l0.2-0.2c0.5-0.6,1.2-0.9,1.9-1.1c0.2,0,0.4-0.1,0.6-0.1
		c-0.2-0.3-0.4-0.5-0.7-0.7c0,0-0.4-0.3-0.7-0.5c-0.5-0.4-1.1-0.7-1.7-0.9c-0.9-0.3-1.9-0.4-2.8-0.3c-0.7,0.1-1.4,0.3-2.1,0.5
		c-0.5,0.1-1.1,0.3-1.7,0.5c-0.7,0.3-1.4,0.6-2.1,0.8c-0.9,0.4-1.8,0.7-2.5,1l-1.4,0.6c0-1.4,0.1-4.2,0-5.2c0-1.4,0.1-1.8-0.2-1.9
		c-0.4-0.1-0.8-0.2-1.1-0.2c-0.4,0-0.9,0-1.3,0c-0.4,0-1.3,0.2-1.4,0.4c-0.1,0.4-0.1,0.8-0.1,1.3c0,0.3,0,0.6,0,0.9
		c-0.1,0.6-0.2,1.2-0.2,1.7c0,0.3-0.1,0.6-0.2,0.8c-0.1,0.2-0.1,0.3-0.2,0.5c-0.4,1-0.9,0.8-1.2,0.4c-0.2-0.2-0.3-0.5-0.5-0.8
		c-0.4-0.7-0.7-1.4-0.8-2.2c-0.2-0.9-0.3-1.8-0.3-2.7c0-0.2,0.1-0.3,0.1-0.4c0-0.1,0.1-0.1,0.2-0.1c0.3-0.1,0.7-0.1,1-0.2
		c0.6-0.1,1.3-0.3,1.6-0.4c1-0.3,2.1-0.5,3.2-0.5c1.2,0,1.6,0.3,3.4,0.4c1.4,0.1,2.7,0.1,4.1,0c0.8-0.1,1.7-0.2,2.5-0.2
		c0.5,0,1,0.1,1.5,0.2c0.6,0.1,1.3,0,2,0.1c1.2,0.1,2.5,0.2,3.7,0c0.5-0.1,1.2-0.1,1.2-0.3C212.4,39,211,37.8,210.1,37.4z
		 M190.2,47.9c0.1-0.2,0.2-0.3,0.3-0.5c0.2-0.5,0.6-1.4,1.1-2.3c0.5-1.1,1-2.2,1.4-3c0.1-0.3,0.4-1,0.7-1.2c0.6-0.3,1,0.1,0.7,0.7
		c-0.1,0.2-0.2,0.5-0.3,0.7c-0.1,0.3-0.2,0.5-0.3,0.6c-0.3,0.6-0.5,1-0.7,1.7c-0.2,0.5-0.3,0.9-0.6,1.4c-0.3,0.5-0.5,1-0.8,1.5
		c-0.1,0.2-0.5,1-0.7,1.2C190.3,48.9,189.9,48.3,190.2,47.9z"/>
	<path class="st1" d="M216.6,47.7c-1.9,0-2.8,0.1-3.9,0c-0.7-0.1-1.4-0.1-2.1,0c-0.7,0.2-1.3,0.6-1.7,1.1c-0.5,0.5-0.9,0.7-0.8,1.3
		c0.1,0.1,0.1,0.2,0.3,0.3c0.2,0.1,0.3,0.2,0.5,0.3c0.3,0.2,0.4,0.6,1,0.5c0.2-0.1,0.4-0.2,0.6-0.4c0.3-0.3,0.5-0.7,0.9-1
		c0.1-0.1,0.3-0.2,0.5-0.2c0.2-0.1,0.5-0.1,0.6-0.1c0.6-0.1,1.2-0.1,1.8,0.1c1.2,0.1,2.5,0.3,3.4,0.4c0.7,0.1,1.5,0.2,2.2,0.2
		c0.5,0.1,1,0,1.5-0.2c0.5-0.3,0.9-0.6,1.2-1.1c0.7-0.8,1.7-2.9,2.5-4.5c0.2-0.4,0.4-0.9,0.6-1.4c0.4-0.7,0.6-1.4,0.8-2.2
		c0.1-1.3-0.5-2-0.1-2.4c0.5-0.4,1.1,0.1,1.7-0.1c0.6-0.2,1.4-0.6,1.5-0.8c-0.2-0.5-0.4-0.9-0.6-1.4c-0.6-1.1-1.2-2.2-1.9-3.2
		c-0.3-0.5-0.6-0.9-0.8-1.2c-0.2-0.3-0.5-0.7-0.7-1c-0.3-0.4-0.6-0.7-0.9-1.1c-0.5-0.7-1.7-2.1-1.8-2c-0.1-0.1-0.6,0.3-0.8,0.9
		c-0.2,0.5-0.3,1-0.3,1.6c0,0.2,0,0.4-0.1,0.5c-0.3,0.5-0.8,0.9-0.7,1.2c0.1,0.2,0.4,0.2,0.5,0.4c0.1,0.1,0.1,0.2,0.2,0.3
		c0,0.1,0,0.2,0,0.3c0,0.3,0.1,0.6,0.3,0.8c0.7,0.6,1.7,0,2.3,0.3c0.1,0.1,0.2,0.2,0.3,0.3c0,0.1,0.1,0.2,0.1,0.3
		c0.3,0.8,0.8,2.1,1.1,2.9c0.2,0.5,0.3,0.6,0.2,0.9c-0.2,0.2-0.4,0.4-0.7,0.6c-0.4,0.2-1.2,0.7-1.5,1.1c-0.3,0.4-0.5,0.9-0.7,1.3
		c-0.2,0.5-0.4,1.2-0.6,1.7c-0.2,0.5-0.3,1.1-0.7,2c-0.1,0.3-0.2,0.6-0.3,1c-0.3,0.8-0.5,1.4-0.8,1.7c-0.1,0.1-0.3,0.2-0.5,0.3
		c-0.2,0-0.5,0.1-0.7,0C218.9,47.8,217.7,47.8,216.6,47.7z M223,30.9c-0.1,0-0.3,0-0.4-0.1c-0.2-0.1-0.3-0.3-0.3-0.5
		c0-0.3,0.1-0.5,0.2-0.5c0.1-0.1,0.3-0.1,0.5,0c0.1,0,0.2,0,0.3,0.1c0.1,0,0.6,0,0.6,0.4C223.9,30.7,223.2,30.9,223,30.9L223,30.9z"
		/>
	<path class="st1" d="M238.9,63.6c-0.6-0.5-1.3-0.7-2-0.8c-1.3-0.1-2.7,0.3-4.1,0.5c-0.8,0.2-1.7,0.3-2.5,0.4
		c-1.6,0.2-3.5,0.2-4.6-0.3c-0.5-0.2-1-0.4-1.5-0.7c-0.5-0.3-0.9-0.7-1.3-1.2c-0.3-0.3-0.5-0.6-0.8-1c-0.2-0.3-0.6-0.9-0.9-1.5
		c-0.5-1.2-1.2-2.2-2-1.8c-0.4,0.2-0.5,0.9-0.4,1.8c0,0.2,0.1,0.5,0.1,0.7c0,1.2,0.1,2.5,0.1,2.9c0.1,1.6,0.2,2,0.2,3.2
		c0,0.4,0.1,0.8,0.1,1.3c0,0.5,0.1,1.2,0.1,2.1c0,0.6,0,1.2,0,1.8c0,0.4,0.1,1,0.1,1.8c0,0.6,0,1.3,0,1.8c0,0.5,0.1,0.8,0.2,0.8
		c0.1,0,0.3,0,0.5-0.1c0.2-0.1,0.7-0.2,1.1-0.3c0.8-0.2,1.6-0.4,2.4-0.5c0.3-0.1,0.7-0.1,1-0.1c0.1,0,1.2,0,1.3,0.1
		c0.4,0,0.7,0,1,0.1c0.3,0.1,0.7,0.1,1,0.1c0.2-0.3,0.3-0.5,0.5-0.8c0.2-0.3,0.4-0.6,0.6-0.8c0.5-0.7,1.1-1.3,1.8-1.8
		c1.4-0.9,3-1.7,4.6-2.2c0.3-0.1,0.7-0.3,1-0.5c0.2-0.1,0.4-0.2,0.6-0.3c0.9-0.5,1.8-1.2,2.1-2.2C239.9,65.3,239.6,64.3,238.9,63.6z
		 M237.9,65.9c-0.2,0.5-0.6,0.9-1.1,1.2c-0.4,0.3-0.9,0.6-1.4,0.8c-0.9,0.4-1.9,0.7-2.8,1.2c-1.1,0.6-2.1,1.2-3.1,2
		c-0.5,0.4-1,0.9-1.5,1.4c-0.3,0.2-0.3-0.2-0.4-0.7c0-0.2,0-0.3,0-0.5c0-0.7-0.1-1.4-0.1-1.7c0-0.7-0.1-1.5-0.1-2.2
		c0-0.2,0-0.5,0-0.7c-0.1-0.3,0-0.6,0.2-0.9c0.2-0.1,0.3-0.2,0.5-0.3c0.5-0.2,1.1-0.2,1.7-0.3c1-0.2,1.9-0.5,3-0.5
		c0.3,0,0.8-0.1,1.4-0.2c0.8-0.2,1.6-0.3,2.5-0.2c0.4,0,0.7,0.2,0.9,0.5C238,65.1,238,65.5,237.9,65.9L237.9,65.9z"/>
	<path class="st1" d="M232.9,66.4c-0.3-0.1-0.6-0.1-0.8,0c-0.2,0.1-0.5,0.1-0.7,0.1c-0.4,0.1-0.8,0.2-1.2,0.2
		c-0.2,0-0.4,0.1-0.5,0.2c-0.3,0.1-0.5,0.1-0.6,0.2c-0.1,0.1-0.1,0.3-0.1,0.5c0,0.2,0.1,0.5,0.1,0.7c0,0.2,0,0.5,0,0.6
		c0,0.1,0,0.1,0.1,0.2c0.1,0.1,0.4-0.1,0.8-0.4c0.4-0.2,0.9-0.5,1.3-0.6c0.3-0.1,0.8-0.3,1.2-0.5c0.4-0.2,0.8-0.2,0.9-0.4
		s0-0.3-0.1-0.5C233.2,66.7,233.1,66.5,232.9,66.4z"/>
	<path class="st1" d="M237.9,85.8c0,0,0,0.1,0,0.2c0.2,0.5,0.5,0.9,1,0.2c0.1-0.2,0.3-0.5,0.4-0.8v0c0,0,0.3-0.6,0.7-1.4
		c0.3-0.6,0.5-1.1,0.8-1.7l0.2-0.5c0,0,0,0,0-0.1c0.1-0.5,0-1-0.4-1.3c0,0-0.1-0.1-0.1-0.1l0,0c-0.2-0.3-0.9-1.3-1.1-1.6
		c-0.2-0.3-0.4-0.6-0.6-1c-0.2-0.4-0.5-0.7-0.7-1.1c-0.2-0.3-0.4-0.6-0.6-0.9c-0.2-0.4-0.5-0.9-0.7-1.1c-0.4-0.5-0.7-1-1-1.6
		c-0.2-0.3-0.4-0.7-0.5-1c-0.2-0.3-0.3-0.5-0.4-0.8c-0.1-0.2-0.1-0.3-0.2-0.3c-0.1,0-0.3,0-0.4,0.1c-0.3,0.1-0.6,0.3-0.9,0.5
		c-0.5,0.3-1,0.6-1.2,0.8c-0.9,0.6-1.7,1.4-2.2,2.4c-0.3,0.6-0.2,0.8,0.1,0.9c0.7,0.3,1.3,0.7,1.9,1.1c0.9,0.7,1.7,1.4,2.4,2.2
		c0.4,0.4,0.7,0.8,1,1.3c0.2,0.4,0.5,0.6,0.7,1c0.2,0.4,0.4,0.8,0.6,1.2c0.3,0.6,0.5,1.2,0.7,1.8C237.7,84.9,237.8,85.3,237.9,85.8z
		"/>
	<path class="st1" d="M234.4,93.4L234.4,93.4c0.7-0.9,1.3-1.9,2-2.8c0.3-0.7,0.7-2,0.3-3.9c-0.1-0.3-0.1-0.6-0.2-0.8
		c-0.1-0.3-0.1-0.6-0.2-0.9c-0.2-0.6-0.4-1.1-0.6-1.6c-0.3-0.8-0.7-1.5-1.2-2.2c-0.4-0.7-0.9-1.3-1.4-1.8c-0.5-0.6-1.2-1.1-1.8-1.5
		c-0.5-0.2-0.9-0.5-1.4-0.8c-0.3-0.1-0.8-0.4-1.3-0.6c-0.5-0.2-1.1-0.3-1.7-0.4c-0.9-0.1-1.8-0.2-2.7-0.1c-1.1,0.1-2.2,0.3-3.3,0.7
		c-0.8,0.2-1.5,0.6-2.2,1c-1,0.7-1.9,1.4-2.6,2.3c-0.1,0.2-0.2,0.3-0.3,0.5c-0.3,0.4-0.6,0.8-0.9,1.2c-0.2,0.3-0.4,0.6-0.5,0.9
		c-0.2,0.4-0.3,0.7-0.5,1.1c-0.1,0.4-0.3,0.8-0.3,1.2c-0.2,0.7-0.3,1.4-0.4,2.1c-0.2,1.6-0.1,3.2,0.2,4.7c0.2,0.8,0.5,1.6,0.8,2.3
		c0.3,0.7,0.7,1.4,1.2,2c0.5,0.6,1,1.2,1.6,1.7c0.3,0.3,0.6,0.6,0.9,0.8c0.5,0.4,1.1,0.7,1.7,1c0.8,0.4,1.5,0.7,2.4,0.9h0
		c1.3,0.4,2.6,0.6,4,0.6l0.1-0.1l0.3-0.2l0.1-0.1l4.1-3c0.3-0.4,0.1-0.3,0-0.3c-1,0.6-2,1-3.1,1.3c-1.2,0.3-2.5,0.3-3.8,0.1
		c-1.6-0.4-3.1-1-4.4-1.9c-1.6-1.1-2.8-2.6-3.4-4.4c-0.5-1.2-0.7-2.5-0.7-3.8c0-1.9,0.4-3.7,1.2-5.4c0.8-1.9,2.3-3.5,4.1-4.5
		c1.5-0.7,3-1.1,4.7-1.1c1.2,0,2.5,0.2,3.6,0.6c1.1,0.4,2,1,2.8,1.8c1.8,1.8,3.3,5.1,3.4,7.1c0.2,2,0,4-0.8,5.8
		C234,93.9,234.4,93.4,234.4,93.4z"/>
	<path class="st1" d="M172.8,15.7c0.4-0.7,0.8-1.3,1.3-1.9c0.8-1,1.8-1.7,2.9-2.1c0.3-0.1,0.8-0.3,1.2-0.4
		c5.1-1.6,12.2,3.7,12.4,3.8c0.2,0.1,0.3,0.2,0.4,0.1c0,0,0.8-1.1,0.7-1.3c-0.1-0.1-1.1-1.8-4-3.8c-1.7-1.1-3.5-2.5-6.3-2.4
		c-7,0.1-8.7,6.7-8.8,7C172.4,15,172.2,16.5,172.8,15.7z"/>
	<path class="st1" d="M204.6,5.2c-1.3,0-2.7,0.2-3.9,0.6c-6.2,1.9-8.6,6.2-8.6,6.2c-0.3,0.3,0.3,0.8,0.5,1s0.3,0.2,0.5,0
		c1.8-1.7,3.9-3,6.2-3.8c0.7-0.2,1.5-0.4,2.1-0.6c1.3-0.3,2.6-0.4,4-0.5c0.8,0,1.7,0,2.5,0.1c2.8,0.5,5.1,3.8,4.9,3.2
		c-0.4-1.5-1.1-2.9-2.1-4l0,0c-0.6-0.7-1.4-1.3-2.3-1.6C207.2,5.3,205.9,5.1,204.6,5.2z"/>
	<path class="st1" d="M216.4,52.6c-0.5,0-0.8,0.1-1.2,0c-0.6-0.1-1.8-1.6-2.2-2.4l0,0c-0.1,0-0.2,0-0.3,0c-0.1,0-0.3,0.1-0.5,0.1
		l-0.2,0l-0.1,0.1l-0.1,0.1c-0.2,0.1-0.3,0.3-0.4,0.4c-0.1,0.2-0.3,0.4-0.4,0.5l-0.1,0.1c-0.1,0.1-0.2,0.2-0.4,0.3
		c0.1,0.2,0.1,0.5,0.2,0.7l0.1,0.3c0,0,1.1,2.8,3.8,3.4c2.3,0.5,3-1,3.2-1.7c0.2-0.8-0.4-1.6-1.2-1.8
		C216.6,52.6,216.5,52.6,216.4,52.6z M215.4,54.8c-0.9,0-1.8-0.5-2.4-1.2c-0.2-0.3-1.6-2.4-1-2.6c0.5,0,0.8,0.9,1,1.3
		c0.5,1.1,1.1,1.7,2.4,1.7c0.3,0,1.4-0.2,1.4,0.3S215.7,54.9,215.4,54.8L215.4,54.8z"/>
	<path class="st1" d="M172.4,10.4c0.4-0.8,0.8-1.5,1.3-2.2l0.2-0.2c1.1-1.2,2.7-1.9,4.3-2.1h0.1c5.7,0,9.9,3,11.5,4.3
		c0.5,0.4,0.8,0.6,0.8,0.6c0.3,0.2,0.3,0,0.3,0s1-1.3,1.1-1.4s0.1-0.2,0.1-0.3c-0.9-1.4-2.1-2.5-3.4-3.5c-1.9-1.4-5.1-2.6-7.4-2.5
		c-2,0-4,0.5-5.8,1.5c-1.3,0.7-2.3,1.8-2.9,3.1l0,0c-0.3,0.5-0.5,1-0.6,1.6C172,9.7,171.8,11.2,172.4,10.4z"/>
	<path class="st1" d="M237.7,27c-6.2-8.1-14.5-14.3-24-18.2c0.4,0.9,0.7,1.9,0.8,2.9c27.7,12.3,40.3,44.7,28,72.4
		c-12.3,27.7-44.7,40.3-72.4,28c-19.9-8.8-32.7-28.5-32.7-50.2c0.2-21.8,12.9-41.6,32.7-50.8l0-0.7c0-0.6,0.1-1.2,0.4-1.8
		c0-0.1,0.1-0.3,0.1-0.4l0,0V8.3c-8.8,3.8-16.6,9.7-22.6,17.2c-8.4,10.3-12.9,23.2-13,36.5c0,31.6,25.6,57.3,57.3,57.3
		s57.3-25.6,57.3-57.3C249.7,49.4,245.5,37,237.7,27z"/>
</g>
</svg>
